<?xml version="1.0" encoding="UTF-8" standalone="no"?>
<!DOCTYPE svg PUBLIC "-//W3C//DTD SVG 1.1//EN" "http://www.w3.org/Graphics/SVG/1.1/DTD/svg11.dtd">
<svg width="100%" height="100%" viewBox="0 0 2993 1919" version="1.1" xmlns="http://www.w3.org/2000/svg" xmlns:xlink="http://www.w3.org/1999/xlink" xml:space="preserve" xmlns:serif="http://www.serif.com/" style="fill-rule:evenodd;clip-rule:evenodd;stroke-linecap:round;stroke-linejoin:round;">
    <g>
        <path d="M6.969,1018.15l1.417,-36.693l1.26,5.197l-2.677,31.496Z" style="fill:#000020;"/>
        <path d="M8.386,981.457l2.205,-21.733l11.968,-24.409l23.78,-20.472l41.732,-20.945l49.449,-12.914l22.204,-3.464l-1.732,70.393l1.26,37.008l44.252,57.481l64.882,15.748l20.315,-0.158l1.102,-0.787l-0.63,63.464l8.189,10.079l0,98.898l2.362,3.149l4.095,2.52l173.228,223.465l10.236,18.582l3.465,1.103l32.913,-5.67l85.355,-18.74l4.409,-3.779l1.575,0.787l7.717,10.551l9.448,0l53.859,-10.708l132.756,-28.662l32.913,-9.134l1.732,-4.252l2.52,-67.559l3.464,-1.102l0.315,-14.803l-2.834,-17.323l-1.575,-0.63l-17.323,-22.992l2.205,-37.166l1.26,-74.803l-179.528,-231.811l-12.441,1.26l-25.827,5.512l5.67,-150.551l3.149,-20l3.622,-2.835l201.103,-42.992l5.669,3.307l-2.677,72.913l1.26,31.969l2.677,2.52l40.787,52.913l71.024,17.638l9.449,-0l96.693,-20.788l8.346,-7.086l24.724,-34.803l66.457,15.748l20,-0l94.488,-20.158l28.977,-39.055l4.724,-0.945l65.197,15.906l12.283,-0.158l96.693,-20.472l30.867,-39.528l8.661,0.158l69.449,15.748l102.519,-22.677l29.922,-40l66.299,15.748l17.48,-0l96.221,-20.945l28.819,-39.055l8.504,-0l62.519,15.905l9.607,-0.157l96.535,-20.63l7.874,-5.197l26.772,-38.268l6.614,-173.701l4.567,-1.889l18.267,-3.937l44.095,-6.772l60,-0l48.661,8.189l31.181,10.394l33.859,18.267l23.622,20.63l25.039,32.126l6.929,1.89l-174.488,37.638l-15.748,26.771l-4.724,4.567l-10.867,2.52l-36.377,7.717l-38.268,9.291l-4.252,84.252l-3.15,2.047l-14.33,1.89l-1.575,0.315l-0.315,25.354l-2.677,72.914l1.259,8.346l39.843,53.543l-2.52,2.678l-36.378,7.559l-5.826,0.787l-3.78,0.472l-0.472,12.599l1.259,5.827l5.355,5.196l9.449,0.158l49.606,-10.551l1.417,-1.103l21.103,24.252l-31.339,6.615l-19.213,4.881l0.158,17.481l5.197,5.197l9.449,0.157l51.023,-11.968l2.205,1.102l13.858,20.315l-2.52,4.882l-13.385,2.205l-29.607,7.401l0.315,17.48l4.41,6.3l57.008,-11.339l2.362,-3.622l9.134,11.181l8.819,12.441l-5.355,4.724l-41.102,8.977l1.102,18.11l4.567,6.299l54.646,-11.023l4.567,-3.78l48.189,60.63l14.803,0.158l17.323,-2.993l184.724,-40.157l8.032,-1.26l4.409,-1.575l0.945,-12.283l110.866,-23.937l1.575,-4.252l1.575,-72.914l12.756,-6.141l1.102,-35.906l4.252,-0.315l2.362,0.945l244.725,317.638l19.527,33.071l1.417,13.386l0,18.11l-15.905,27.874l-16.693,14.488l-31.181,18.268l-38.74,13.228l-2053.86,443.307l-45.04,7.087l-77.323,-0l-41.732,-7.717l-41.575,-15.748l-25.827,-15.748l-25.984,-23.464l-208.346,-270.866l-325.512,-421.733l-20.945,-31.181l-8.976,-19.212l-1.26,-5.197Zm1859.53,102.047l2.52,6.772l-9.134,4.409l-9.764,0l-10.393,-5.512l-0.158,-6.771l9.922,-3.78l5.826,0l11.181,4.882Zm-880.157,2.677l2.52,6.614l-6.3,4.41l-15.118,-0l-8.661,-4.725l2.047,-6.299l3.15,-2.362l19.37,-0l2.992,2.362Zm926.772,-38.74l-1.103,5.197l-8.661,5.197l-8.032,-0.158l-11.338,-5.039l-0,-6.614l6.929,-3.78l14.173,0l8.032,5.197Zm-815.276,70.551l0.315,5.827l-3.937,4.567l-17.48,-0l-8.662,-4.567l2.205,-6.457l2.992,-2.205l19.37,-0.157l5.197,2.992Zm-46.299,51.496l2.047,6.299l-8.661,4.725l-12.441,-0l-7.717,-2.677l-0.157,-9.764l13.385,-2.992l13.544,4.409Zm1201.1,158.425l2.52,-4.409l2.047,-0.473l7.874,-3.464l23.307,-5.354l18.425,-5.04l49.292,-10.708l13.386,-1.103l27.401,-5.039l29.921,40.315l2.52,0.945l1.732,0.472l-1.26,25.197l-1.417,14.646l-1.575,0.472l-2.834,1.102l-7.874,1.26l-15.748,4.095l-6.929,1.89l-38.111,9.291l-32.913,5.669l-2.677,0l-28.662,6.457l-6.614,1.417l-1.732,-4.567l-28.662,-35.905l-1.417,-37.166Zm-1110.24,-134.488l-0.315,5.827l-9.606,4.252l-7.874,-0l-11.339,-5.039l-0.315,-4.252l7.244,-6.3l16.693,0.158l5.512,5.354Zm1448.82,38.11l0.945,-14.015l10.708,-20.473l20.63,-18.425l31.181,-15.748l27.874,-8.661l36.536,-5.04l45.039,0l33.858,5.197l41.733,13.071l23.464,12.913l10.551,7.559l15.434,13.229l13.228,23.307l-0,27.244l-8.819,17.323l-11.969,14.015l-15.59,10.552l-9.764,3.779l-6.929,5.512l-38.898,13.071l-22.047,3.622l-10.236,1.102l-52.126,0.158l-31.339,-5.355l-45.039,-15.275l-12.913,-8.032l-2.048,-2.834l-13.543,-5.04l-18.425,-20.472l-10.079,-16.693l-1.417,-15.591Zm-1360.63,-158.74l-0.945,-6.771l1.732,-0.473l27.717,-9.449l4.094,-11.968l1.733,-7.717l7.401,-13.858l16.536,-10.079l10.551,-2.677l1.732,-28.189l2.205,-13.858l9.606,-6.142l23.15,-5.984l-0,-28.661l2.362,-5.512l0.63,-1.575l6.771,-0.315l15.591,-2.835l20.945,-5.984l23.307,-5.354l10.551,-1.418l19.685,-2.362l19.843,25.512l5.039,2.992l62.205,-13.071l6.142,-2.362l16.535,0l13.543,15.591l10.079,5.196l0.158,7.087l2.047,6.142l3.622,2.047l4.882,-0.945l13.386,0l15.905,16.851l1.417,0.472l0.945,5.984l6.929,6.772l11.181,-1.575l6.615,-1.102l0.787,1.732l6.142,7.874l1.26,0.787l-1.418,10.079l0.158,3.937l1.89,0.315l9.606,-1.26l0.63,1.733l6.141,7.716l1.26,0.945l-1.574,9.921l0.314,3.937l1.733,0.473l9.764,-1.26l0.629,1.732l5.985,7.874l1.417,0.945l-1.417,6.929l-0,6.772l1.889,0.472l9.764,-1.26l0.473,1.575l4.882,6.142l1.102,14.961l11.811,0.787l0.63,1.417l4.724,8.819l0,14.173l-14.015,1.575l-22.52,0l-10.394,-10.551l-1.732,-5.197l-2.992,-3.464l-3.15,-1.418l-1.417,-4.094l-7.559,-2.362l-1.103,18.425l-2.834,20l-5.197,7.874l-217.953,47.086l-4.567,1.575l-17.165,-0.157l-22.835,-32.441l-5.197,-2.835l-11.023,2.362l-10.394,31.181l-11.339,9.607l-23.307,8.031l-7.716,0.63l-7.087,-11.968l-1.732,-12.599l-9.291,1.103l-7.087,-11.969l-0.787,-9.764l1.732,-0.63l1.26,-2.519l-13.386,1.417l-7.087,-11.968l-0.945,-9.607l1.89,-0.472l5.04,-3.15l-16.378,0.945l-7.874,-11.181l-2.52,-10.551l-7.874,-1.732l-5.197,-5.355l-2.677,-8.504Zm-623.465,585.67l0.945,-13.859l13.386,-23.149l28.346,-21.103l25.355,-11.181l25.827,-7.874l20.944,-2.519l68.504,-0l18.268,2.677l44.252,12.913l33.858,18.11l15.906,15.591l15.433,23.464l-0,27.087l-8.661,17.323l-15.906,18.11l-21.575,12.599l-4.094,3.307l-39.055,12.913l-16.693,3.78l-20.788,2.519l-46.929,0l-39.055,-6.614l-42.205,-15.748l-8.346,-4.724l-4.095,-5.197l-6.141,0.157l-25.827,-23.937l-10.236,-18.897l-1.418,-15.748Zm1692.44,-390.394l-2.204,11.338l-26.142,5.197l-17.481,0l-5.039,-2.834l-27.087,-0l-11.968,6.299l-5.512,10.079l-4.724,2.992l-34.803,5.039l-14.804,-19.212l-8.031,-15.434l-71.339,-90.866l-4.094,-2.519l-12.913,-16.063l-2.52,-5.827l0.157,-10.709l1.26,-25.197l25.512,-5.197l1.732,-0.787l2.362,-8.819l52.914,-12.598l36.535,-7.717l33.386,-6.299l67.244,85.827l4.095,19.842l1.102,0.945l0.315,12.284l0,15.433l21.575,26.456l1.417,0.63l-0.945,27.717Zm-1355.12,-213.543l-18.74,-22.363l-0.787,-28.976l1.574,-0.63l2.835,-3.307l13.228,-2.52l6.93,-2.362l37.165,-8.346l10.551,-1.26l17.165,-2.677l2.993,2.677l16.063,22.362l1.732,1.26l-0.945,28.031l-7.402,3.622l-14.015,1.103l-2.205,0.315l-4.567,3.937l-15.118,2.992l-22.52,2.992l-15.748,4.094l-6.614,1.103l-1.575,-2.047Zm1048.82,313.385l21.26,10.079l10.079,13.228l2.992,13.859l-11.811,14.645l-29.134,12.914l-10.551,1.417l-33.859,-1.417l-24.094,-7.717l-15.748,-10.393l-5.354,-10.079l-0.158,-17.795l9.764,-11.024l23.464,-10.394l13.071,-2.519l29.449,-0l20.63,5.196Zm-770.079,-151.181l-0.157,3.465l-7.244,6.772l-13.229,0.157l-8.661,-5.197l-0,-6.614l7.087,-3.78l11.338,0l10.866,5.197Zm345.827,239.528l26.299,12.756l10.237,13.228l-0,14.173l-2.678,5.197l-15.275,13.229l-25.355,8.976l-10.551,1.417l-26.141,-1.417l-29.449,-10.236l-12.914,-7.874l-7.716,-10.394l-0.315,-14.803l14.803,-16.378l28.819,-10.394l37.165,0l13.071,2.52Z" style="fill:#003cd2;"/>
        <path d="M2289.8,1314.21l18.425,-5.04l49.292,-10.708l5.354,1.417l2.362,2.52l2.047,5.511l5.67,4.095l2.834,3.622l1.89,5.354l2.992,1.418l2.992,3.622l1.733,5.196l5.826,4.252l5.512,5.985l-0.945,1.26l-0.944,40l-38.111,9.291l-32.913,5.669l-0.63,-43.149l-3.937,-2.835l-3.15,-3.78l-3.149,-6.614l-4.41,-2.677l-2.834,-3.622l-3.307,-6.457l-1.575,-0.315l-2.992,-3.622l-3.307,-6.456l-1.733,-0.473l-2.992,-3.464Z" style="fill:#1a1a1a;"/>
        <path d="M943.976,996.732l6.93,-2.362l0.472,2.205l-7.402,0.157Z" style="fill:#000020;"/>
        <path d="M2428.23,1332.64l2.52,0.945l-0.63,4.252l-29.764,6.771l-2.047,5.67l-0.63,28.818l4.095,1.733l-6.929,1.89l0.944,-40l0.945,-1.26l31.496,-8.819Z" style="fill:#fff;"/>
        <path d="M1300.83,1009.8l1.732,-28.189l2.205,-13.858l9.606,-6.142l23.15,-5.984l17.795,-1.89l5.354,-3.464l23.307,-3.15l7.717,-1.26l36.535,-7.874l5.67,-3.149l22.992,-3.308l5.354,-1.417l62.205,-13.071l6.142,-2.362l16.535,0l13.543,15.591l2.048,5.196l8.189,7.087l2.047,6.142l3.622,2.047l66.929,88.819l5.984,4.409l0.473,7.874l0.157,7.717l2.677,7.716l-0.157,2.678l-1.103,18.425l-2.834,20l-5.197,7.874l-217.953,47.086l-4.567,1.575l-17.165,-0.157l-22.835,-32.441l0.158,-4.41l9.606,-3.937l0.158,-14.015l-5.355,-7.717l-6.771,-0.315l-5.512,-0.945l-0.63,-14.488l-5.355,-7.716l-6.771,-0.315l-5.512,-0.945l-0.63,-14.489l-5.197,-7.559l-4.094,-0.472l-8.504,-0.945l2.047,-11.968l-7.559,-10.552l-11.496,1.418l1.102,-14.016l-7.874,-10.866l-11.968,1.732Z" style="fill:#1a1a1a;"/>
        <path d="M950.906,994.37l37.165,-8.346l5.354,1.417l6.929,10.394l13.859,15.59l0.472,2.205l-1.102,15.433l-1.575,10.394l-4.567,3.937l-15.118,2.992l-22.52,2.992l0.63,-2.047l1.417,-27.717l-1.417,-0.945l-19.055,-24.094l-0.472,-2.205Z" style="fill:#1a1a1a;"/>
        <path d="M1337.52,955.63l-0,-28.661l4.409,-0l2.047,6.141l5.512,3.15l-2.362,-6.299l-5.197,-2.992l0.315,-4.725l5.039,-2.677l15.591,-2.835l21.575,28.504l-0.473,1.89l-23.307,3.15l-3.464,-7.559l-2.992,-2.048l-0,5.04l6.456,4.567l-5.354,3.464l-17.795,1.89Z" style="fill:#c6c1bc;"/>
        <path d="M945.866,1054.53l-18.74,-22.363l-0.787,-28.976l1.574,-0.63l1.89,5.827l6.142,4.409l1.732,6.142l6.142,4.409l1.732,5.985l0.315,25.197Z" style="fill:#c6c1bc;"/>
        <path d="M2300.98,1268.07l-2.204,11.338l-26.142,5.197l-17.481,0l-5.039,-2.834l-27.087,-0l-11.968,6.299l-5.512,10.079l-4.724,2.992l-34.803,5.039l-14.804,-19.212l-8.031,-15.434l-71.339,-90.866l-4.094,-2.519l-12.913,-16.063l-2.52,-5.827l0.157,-10.709l1.26,-25.197l25.512,-5.197l0.472,7.087l-4.881,21.575l3.307,7.874l67.874,88.661l9.448,0l123.465,-27.086l21.575,26.456l0.472,28.347Z" style="fill:#c6c1bc;"/>
        <path d="M2428.23,1374.37l-2.834,1.102l-7.874,1.26l-15.748,4.095l-4.095,-1.733l0.63,-28.818l2.047,-5.67l29.764,-6.771l0,5.669l-1.89,30.866Z" style="fill:#c6c1bc;"/>
        <path d="M1362.87,916.732l20.945,-5.984l23.307,-5.354l5.512,1.26l21.26,28.189l-5.67,3.149l-36.535,7.874l-7.244,-0.63l-21.575,-28.504Z" style="fill:#ffef24;"/>
        <path d="M2448.86,526.811l25.985,-5.512l19.212,-4.882l8.662,-0.315l214.803,277.953l0.157,18.425l-1.26,36.221l-1.417,36.535l-1.102,35.906l-12.756,6.141l-9.292,0.473l-18.11,5.197l-1.89,4.094l-0.944,37.008l-1.733,6.614l-11.968,4.095l-60,13.071l-6.929,-0l-0.788,1.889l-1.89,0.945l-0.157,9.607l-0.315,18.11l-0.945,12.283l-4.409,1.575l-8.032,1.26l-184.724,40.157l-17.323,2.993l-14.803,-0.158l-48.189,-60.63l-1.26,-12.283l-5.197,-7.874l-8.976,-0.63l-2.992,-2.52l-8.819,-12.441l-9.134,-11.181l-1.26,-14.803l-5.354,-5.197l-8.977,-0.63l-2.992,-2.677l-13.858,-20.315l-2.205,-1.102l-3.149,-17.008l-5.197,-5.197l-6.929,-0.158l-21.103,-24.252l-0.787,-5.669l0.315,-8.976l-7.717,-7.874l-4.409,-0.158l-5.512,-0.945l-39.843,-53.543l-1.259,-8.346l2.677,-72.914l1.89,-25.669l14.33,-1.89l3.15,-2.047l4.252,-84.252l38.268,-9.291l36.377,-7.717l10.867,-2.52l6.771,-1.417l-2.047,-3.15l15.748,-26.771l174.488,-37.638Z" style="fill:#d7d0c0;"/>
        <path d="M289.803,1057.2l-0.63,63.464l8.189,10.079l0,98.898l2.362,3.149l4.095,2.52l173.228,223.465l10.236,18.582l3.465,1.103l3.307,-89.764l1.102,-0.315l7.874,10.866l31.024,-5.669l0.158,34.173l7.874,10.394l9.448,0.157l17.323,-2.992l45.985,-10.394l-1.418,25.355l1.575,0.787l7.717,10.551l9.448,0l53.859,-10.708l132.756,-28.662l32.913,-9.134l1.732,-4.252l2.52,-67.559l-0.158,-5.512l-0.472,-28.346l-17.323,-22.992l2.205,-37.166l1.26,-74.803l-179.528,-231.811l-12.441,1.26l-25.827,5.512l-2.834,0.945l-67.559,14.331l-4.41,1.732l-12.126,-0.158l-15.275,-20.945l-9.922,1.26l-205.669,44.252l-11.968,4.095l-1.733,6.614l-2.362,57.638Zm188.504,289.921l8.976,-0.315l0,14.173l-5.354,-6.141l-2.52,-2.993l-1.102,-4.724Z" style="fill:#d7d0c0;"/>
        <path d="M954.055,1055.47l-6.614,1.103l-1.575,-2.047l-0.315,-25.197l-1.732,-5.985l1.575,0.945l12.283,-0.157l12.756,-3.465l1.417,0.945l-1.417,27.717l-1.417,-22.835l-19.213,2.835l0.158,24.252l4.094,1.889Z" style="fill:#fff;"/>
        <path d="M1014.21,1041.14l-2.205,0.315l1.575,-10.394l0.63,10.079Z" style="fill:#fff;"/>
        <path d="M2254.05,1327.91l2.52,-4.409l2.047,-0.473l30.709,39.686l27.559,-5.197l2.362,-5.827l3.937,2.835l0.63,43.149l-2.677,0l-0.788,-35.275l-29.606,5.354l0.315,34.961l1.417,1.417l-6.614,1.417l-1.732,-4.567l2.52,-33.228l-28.662,-36.693l-3.937,-3.15Z" style="fill:#fff;"/>
        <path d="M2431.22,1359.25l-1.417,14.646l-1.575,0.472l1.89,-30.866l1.102,15.748Z" style="fill:#fff;"/>
        <path d="M2080.98,1114.37l2.362,-8.819l52.914,-12.598l36.535,-7.717l33.386,-6.299l67.244,85.827l4.095,19.842l1.417,13.229l0,15.433l-123.465,27.086l-9.448,0l-67.874,-88.661l-3.307,-7.874l4.881,-21.575l1.26,-7.874Z" style="fill:#01ff02;"/>
        <path d="M1560.67,930.276l10.079,5.196l0.158,7.087l-8.189,-7.087l-2.048,-5.196Z" style="fill:#ffc75d;"/>
        <path d="M2987.28,1268.07l-3.937,117.323l-10.236,21.575l-18.425,20.629l-36.378,20.945l-31.024,10.551l-40.157,8.819l-1991.81,429.607l-49.449,10.551l-39.212,5.197l-57.323,-1.418l-45.197,-7.401l-36.221,-13.229l-36.378,-20.944l-25.984,-26.142l-549.606,-713.228l-10.236,-21.575l0.157,-54.961l1.103,-36.22l2.677,-31.496l8.976,19.212l20.945,31.181l325.512,421.733l208.346,270.866l25.984,23.464l25.827,15.748l41.575,15.748l41.732,7.717l77.323,-0l45.04,-7.087l2053.86,-443.307l38.74,-13.228l31.181,-18.268l16.693,-14.488l15.905,-27.874Z" style="fill:#ffc75d;"/>
        <path d="M1914.53,1047.44l-1.103,5.197l-8.661,5.197l-8.032,-0.158l-11.338,-5.039l-0,-6.614l6.929,-3.78l14.173,0l8.032,5.197Z" style="fill:#ffc75d;"/>
        <path d="M1867.91,1083.5l2.52,6.772l-9.134,4.409l-9.764,0l-10.393,-5.512l-0.158,-6.771l9.922,-3.78l5.826,0l11.181,4.882Z" style="fill:#ffc75d;"/>
        <path d="M987.756,1086.18l2.52,6.614l-6.3,4.41l-15.118,-0l-8.661,-4.725l2.047,-6.299l3.15,-2.362l19.37,-0l2.992,2.362Z" style="fill:#ffc75d;"/>
        <path d="M1099.25,1117.99l0.315,5.827l-3.937,4.567l-17.48,-0l-8.662,-4.567l2.205,-6.457l2.992,-2.205l19.37,-0.157l5.197,2.992Z" style="fill:#ffc75d;"/>
        <path d="M2592.64,1231.54l0.945,-14.015l10.708,-20.473l20.63,-18.425l31.181,-15.748l27.874,-8.661l36.536,-5.04l45.039,0l33.858,5.197l41.733,13.071l23.464,12.913l10.551,7.559l15.434,13.229l13.228,23.307l-0,27.244l-8.819,17.323l-11.969,14.015l-15.59,10.552l-9.764,3.779l-27.086,-12.756l-40.63,-11.968l-23.465,-4.095l-65.197,1.575l-20.63,2.677l-12.283,3.937l-32.284,12.599l-13.543,-5.04l-18.425,-20.472l-10.079,-16.693l-0.315,-14.646l-1.102,-0.945Z" style="fill:#ffc75d;"/>
        <path d="M1052.95,1169.49l2.047,6.299l-8.661,4.725l-12.441,-0l-7.717,-2.677l-0.157,-9.764l13.385,-2.992l13.544,4.409Z" style="fill:#ffc75d;"/>
        <path d="M1143.82,1193.42l-0.315,5.827l-9.606,4.252l-7.874,-0l-11.339,-5.039l-0.315,-4.252l7.244,-6.3l16.693,0.158l5.512,5.354Z" style="fill:#ffc75d;"/>
        <path d="M1224.61,1216.73l-0.157,3.465l-7.244,6.772l-13.229,0.157l-8.661,-5.197l-0,-6.614l7.087,-3.78l11.338,0l10.866,5.197Z" style="fill:#ffc75d;"/>
        <path d="M1994.68,1367.91l21.26,10.079l10.079,13.228l2.992,13.859l-11.811,14.645l-29.134,12.914l-10.551,1.417l-33.859,-1.417l-24.094,-7.717l-15.748,-10.393l-5.354,-10.079l-0.158,-17.795l9.764,-11.024l23.464,-10.394l13.071,-2.519l29.449,-0l20.63,5.196Z" style="fill:#ffc75d;"/>
        <path d="M1570.43,1456.26l26.299,12.756l10.237,13.228l-0,14.173l-2.678,5.197l-15.275,13.229l-25.355,8.976l-10.551,1.417l-26.141,-1.417l-29.449,-10.236l-12.914,-7.874l-7.716,-10.394l-0.315,-14.803l14.803,-16.378l28.819,-10.394l37.165,0l13.071,2.52Z" style="fill:#ffc75d;"/>
        <path d="M608.543,1658.47l0.945,-13.859l13.386,-23.149l28.346,-21.103l25.355,-11.181l25.827,-7.874l20.944,-2.519l68.504,-0l18.268,2.677l44.252,12.913l33.858,18.11l15.906,15.591l15.433,23.464l-0,27.087l-8.661,17.323l-15.906,18.11l-21.575,12.599l-21.732,-12.441l-35.433,-11.969l-31.181,-5.197l-18.425,-1.417l-44.252,1.417l-18.268,2.52l-25.04,6.772l-26.929,10.551l-6.141,0.157l-25.827,-23.937l-10.236,-18.897l-0.473,-14.804l-0.945,-0.944Z" style="fill:#ffc75d;"/>
        <path d="M844.291,697.677l2.678,-54.646l29.133,-39.527l31.339,-6.614l30.866,-8.347l-0.315,52.126l2.205,6.142l18.425,25.984l53.858,-10.393l2.205,-21.89l1.417,-36.536l1.26,-15.59l40,9.606l28.032,-39.842l27.716,-5.67l28.819,-6.456l4.095,1.574l1.417,27.874l0.945,24.41l20.315,26.614l13.071,-0.63l36.535,-7.559l4.567,-3.779l1.575,-10.552l1.102,-33.7l2.677,-26.142l27.087,6.142l13.071,0.787l27.559,-37.48l2.047,-1.103l59.213,-12.598l1.417,5.354l-1.417,36.378l-0,7.874l2.204,6.142l20.315,26.772l52.756,-10.237l1.733,-4.252l2.204,-67.874l2.048,-0.787l30.393,6.929l9.449,-0.157l28.662,-39.213l40.944,-8.031l20.158,-5.827l-0.158,55.59l20.788,25.985l14.803,0.157l36.693,-7.559l3.149,-2.047l1.418,-25.04l1.417,-36.693l1.26,-10.393l20.157,5.827l13.229,2.677l6.614,1.102l0.63,-1.575l27.244,-38.425l54.016,-11.968l6.929,1.574l1.417,22.678l1.26,29.291l20,27.086l18.74,-2.677l33.858,-7.716l1.733,-4.095l1.26,-10.708l1.259,-36.378l2.52,-20.945l29.764,6.299l9.449,-0.157l29.763,-38.111l42.52,-8.976l5.984,-2.52l12.284,-0.63l-0.788,49.607l2.363,6.141l20.157,26.615l51.969,-11.182l2.362,-5.984l2.677,-67.874l34.961,8.662l8.031,4.881l42.677,56.693l0.158,15.748l-6.614,173.701l-26.772,38.268l-7.874,5.197l-96.535,20.63l-9.607,0.157l-62.519,-15.905l-8.504,-0l-28.819,39.055l-96.221,20.945l-17.48,-0l-66.299,-15.748l-29.922,40l-102.519,22.677l-69.449,-15.748l-8.661,-0.158l-30.867,39.528l-96.693,20.472l-12.283,0.158l-65.197,-15.906l-4.724,0.945l-28.977,39.055l-94.488,20.158l-20,-0l-66.457,-15.748l-24.724,34.803l-8.346,7.086l-96.693,20.788l-9.449,-0l-71.024,-17.638l-40.787,-52.913l-2.677,-2.52l-1.26,-31.969l2.677,-72.913l1.417,-36.693Z" style="fill:#1a1a1a;"/>
        <path d="M159.724,877.52l0.945,-2.677l2.52,-72.914l1.417,-10.551l5.197,-8.189l23.307,-31.496l32.914,-8.662l17.322,-2.992l12.441,-3.307l-0.315,55.591l20.945,25.984l12.126,0.158l42.52,-9.607l2.677,-64.252l1.417,-7.874l29.607,6.299l12.283,-0.157l25.67,-36.693l2.204,-1.102l59.213,-12.599l1.102,23.622l1.26,31.969l20.945,26.142l51.968,-9.292l1.575,-4.252l2.362,-49.763l4.567,-18.898l30.552,6.614l8.031,4.882l31.339,39.055l11.653,17.48l-0.157,36.851l-5.67,150.551l-2.834,0.945l-67.559,14.331l-4.41,1.732l-12.126,-0.158l-15.275,-20.945l-9.922,1.26l-205.669,44.252l-11.968,4.095l-1.733,6.614l-2.362,57.638l-1.102,0.787l-20.315,0.158l-64.882,-15.748l-44.252,-57.481l-1.26,-37.008l1.732,-70.393Z" style="fill:#1a1a1a;"/>
        <path d="M1989.96,327.913l8.976,-252.441l2.52,-56.692l23.779,-10.079l9.607,-1.418l20.157,-1.574l21.89,30.708l0.157,33.859l-10.236,291.653l-2.677,67.874l-2.362,5.984l-51.969,11.182l-20.157,-26.615l-2.363,-6.141l0.788,-49.607l1.575,-1.102l0.315,-35.591Z" style="fill:#c6c1bc;"/>
        <path d="M1779.09,398.307l11.497,-325.354l2.047,-9.922l26.929,-10.078l9.449,-1.575l10.708,-0l6.615,1.732l21.102,28.347l-1.26,59.212l-8.976,252.441l-1.418,36.536l-1.259,36.378l-1.26,10.708l-1.733,4.095l-33.858,7.716l-18.74,2.677l-20,-27.086l-1.26,-29.291l1.417,-36.536Z" style="fill:#c6c1bc;"/>
        <path d="M1568.07,452.953l1.26,-18.11l11.811,-325.67l32.756,-11.968l21.574,-0l22.205,30.393l0.158,13.071l-7.874,216.063l-2.52,96.221l-1.26,10.393l-1.417,36.693l-1.418,25.04l-3.149,2.047l-36.693,7.559l-14.803,-0.157l-20.788,-25.985l0.158,-55.59Z" style="fill:#c6c1bc;"/>
        <path d="M1359.88,468.543l10.394,-288.976l1.417,-25.039l25.984,-10.394l10.551,-2.677l14.016,-0.158l5.197,5.197l19.37,25.354l0.158,39.056l-8.977,252.44l-1.575,36.693l-2.204,67.874l-1.733,4.252l-52.756,10.237l-20.315,-26.772l-2.204,-6.142l-0,-7.874l1.417,-36.378l1.26,-36.693Z" style="fill:#c6c1bc;"/>
        <path d="M1149.02,539.094l11.496,-325.511l1.417,-13.229l6.614,-4.252l23.465,-7.716l9.449,-1.575l8.031,0l7.244,3.78l20.473,26.299l-1.26,64.409l-8.976,252.441l-1.418,36.536l-1.102,33.7l-1.575,10.552l-4.567,3.779l-36.535,7.559l-13.071,0.63l-20.315,-26.614l-0.945,-24.41l1.575,-36.378Z" style="fill:#c6c1bc;"/>
        <path d="M938.307,588.543l0.945,-13.071l11.654,-325.826l3.937,-6.929l31.496,-10.079l16.692,-0.158l2.678,2.363l21.889,28.031l0.158,18.425l-7.874,216.063l-2.52,91.024l-1.26,15.59l-1.417,36.536l-2.205,21.89l-53.858,10.393l-18.425,-25.984l-2.205,-6.142l0.315,-52.126Z" style="fill:#c6c1bc;"/>
        <path d="M466.654,679.409l11.496,-325.354l2.047,-7.244l24.409,-10.079l10.394,-2.519l16.693,-0.315l23.464,31.338l-1.417,56.693l-8.976,252.284l-1.418,36.693l-2.362,49.763l-1.575,4.252l-51.968,9.292l-20.945,-26.142l-1.26,-31.969l1.418,-36.693Z" style="fill:#c6c1bc;"/>
        <path d="M255.787,736.732l3.78,-93.543l9.291,-250.079l6.614,-4.409l23.465,-7.717l9.449,-1.417l8.031,-0.158l7.087,1.418l18.268,23.149l3.779,7.244l-0.157,8.032l-10.237,288.976l0,28.504l-1.417,7.874l-2.677,64.252l-42.52,9.607l-12.126,-0.158l-20.945,-25.984l0.315,-55.591Z" style="fill:#c6c1bc;"/>
        <path d="M2180.67,866.654l-36.378,7.559l-5.826,0.787l-4.252,13.071l1.259,5.827l5.355,5.196l9.449,0.158l49.606,-10.551l1.417,-1.103l-0.787,-5.669l0.315,-8.976l-7.717,-7.874l-4.409,-0.158l-8.032,1.733Z" style="fill:#c6c1bc;"/>
        <path d="M1417.68,903.976l19.685,-2.362l19.843,25.512l-0.315,4.409l-22.992,3.308l-21.26,-28.189l5.039,-2.678Z" style="fill:#c6c1bc;"/>
        <path d="M2222.4,911.85l-31.339,6.615l-19.213,4.881l0.158,17.481l5.197,5.197l9.449,0.157l51.023,-11.968l-3.149,-17.008l-5.197,-5.197l-6.929,-0.158Z" style="fill:#c6c1bc;"/>
        <path d="M1576.58,950.748l4.882,-0.945l13.386,0l15.905,16.851l-1.102,3.464l-11.654,1.89l15.118,1.102l6.929,6.772l11.181,-1.575l7.402,0.63l6.142,7.874l-0.158,10.866l0.158,3.937l1.89,0.315l10.236,0.473l6.141,7.716l-0.314,10.866l0.314,3.937l1.733,0.473l10.393,0.472l5.985,7.874l-0,14.646l1.889,0.472l10.237,0.315l4.882,6.142l1.102,14.961l0.472,1.574l11.969,0.63l4.724,8.819l0,14.173l-14.015,1.575l-22.52,0l-10.394,-10.551l-1.732,-5.197l2.047,-10.551l-3.149,-2.992l-3.15,0.472l-1.102,3.78l-2.205,0.315l-1.417,-3.78l-5.985,-1.26l-2.677,-7.716l1.102,-6.614l-1.259,-1.103l-0.473,-7.874l-5.984,-4.409l-66.929,-88.819Zm54.016,45.197l-14.331,-0.473l14.803,-2.047l-0.472,2.52Zm36.063,47.086l-3.308,-0.787l3.78,-2.205l-0.472,2.992Zm-17.796,-23.622l-14.33,-0.472l14.645,-2.205l-0.315,2.677Zm38.583,60.315l-0.472,-6.141l2.834,-0.63l-2.362,6.771Z" style="fill:#c6c1bc;"/>
        <path d="M2251.22,960.512l-13.385,2.205l-29.607,7.401l0.315,17.48l4.41,6.3l57.008,-11.339l2.362,-3.622l-1.26,-14.803l-5.354,-5.197l-8.977,-0.63l-5.512,2.205Z" style="fill:#c6c1bc;"/>
        <path d="M998.622,984.764l17.165,-2.677l2.993,2.677l16.063,22.362l-20.63,6.299l-13.859,-15.59l-6.929,-10.394l5.197,-2.677Z" style="fill:#c6c1bc;"/>
        <path d="M927.913,1002.56l2.835,-3.307l13.228,-2.52l7.402,-0.157l19.055,24.094l-12.756,3.465l-12.283,0.157l-1.575,-0.945l-2.992,-7.559l-4.882,-2.992l-2.992,-7.401l-5.04,-2.835Z" style="fill:#c6c1bc;"/>
        <path d="M2284.92,1007.28l-41.102,8.977l1.102,18.11l4.567,6.299l54.646,-11.023l4.567,-3.78l-1.26,-12.283l-5.197,-7.874l-8.976,-0.63l-8.347,2.204Z" style="fill:#c6c1bc;"/>
        <path d="M1232.8,1065.55l27.717,-9.449l4.094,-11.968l1.733,-7.717l7.401,-13.858l16.536,-10.079l10.551,-2.677l11.968,-1.732l7.874,10.866l-1.102,14.016l11.496,-1.418l7.559,10.552l-2.047,11.968l-1.418,1.417l9.922,-0.472l4.094,0.472l5.197,7.559l0.63,14.489l-1.575,1.417l7.087,-0.472l6.771,0.315l5.355,7.716l0.63,14.488l-1.575,1.418l7.087,-0.473l6.771,0.315l5.355,7.717l-0.158,14.015l-9.606,3.937l-5.355,1.575l-11.023,2.362l-10.394,31.181l-11.339,9.607l-23.307,8.031l-7.716,0.63l-7.087,-11.968l3.15,-13.544l10.866,-2.204l12.283,-3.465l2.678,-5.984l-14.961,9.449l-10.866,2.204l-4.882,0.945l-9.291,1.103l-7.087,-11.969l0.945,-10.394l1.26,-2.519l-13.386,1.417l-7.087,-11.968l0.945,-10.079l5.04,-3.15l7.716,-2.677l10.394,-2.047l5.197,-5.355l2.204,-4.409l-1.259,-0.472l-3.15,4.252l-5.512,5.039l-7.874,2.992l-7.716,2.677l-16.378,0.945l-7.874,-11.181l1.889,-9.606l3.937,-3.78l10.552,-2.362l7.874,-1.89l5.354,-3.149l-0,-2.205l1.89,-4.882l-1.26,-0.315l-3.15,4.252l-5.354,5.039l-5.354,3.15l-10.552,2.362l-8.346,2.835l-7.874,-1.732l-5.197,-5.355l-2.677,-8.504l0.787,-7.244Zm80.945,-0.945l-3.622,5.04l-0.315,-5.512l3.307,-1.732l1.575,-1.89l5.669,-0.315l-6.614,4.409Zm18.268,23.465l-3.622,5.039l-1.103,-6.456l3.78,-1.103l8.346,-2.52l-7.401,5.04Zm-31.654,42.047l-1.26,1.575l-5.669,-0.787l6.929,-0.788Zm0,0l5.355,-3.307l8.346,-4.724l4.252,-6.772l0.63,1.575l-2.835,5.827l-5.196,5.354l-10.552,2.047Zm43.465,-11.181l-0.315,-5.354l7.087,-6.3l7.244,-0.787l-14.016,12.441Zm-52.126,-72.913l-0,-5.197l4.567,-3.937l5.984,-0l-10.551,9.134Z" style="fill:#c6c1bc;"/>
        <path d="M2587.13,1028.39l110.866,-23.937l1.575,-4.252l1.575,-72.914l-9.292,0.473l-18.11,5.197l-1.89,4.094l-0.944,37.008l-1.733,6.614l-11.968,4.095l-60,13.071l-7.717,1.889l-2.047,10.552l-0.315,18.11Z" style="fill:#c6c1bc;"/>
        <path d="M1035.63,1036.42l-7.402,3.622l-14.015,1.103l-0.63,-10.079l1.102,-15.433l19.685,-4.41l1.26,25.197Z" style="fill:#c6c1bc;"/>
        <path d="M969.803,1051.38l-15.748,4.094l-4.094,-1.889l-0.158,-24.252l19.213,-2.835l1.417,22.835l-0.63,2.047Z" style="fill:#c6c1bc;"/>
        <path d="M2370.91,1297.36l27.401,-5.039l29.921,40.315l-31.496,8.819l-5.512,-5.985l-2.677,-7.401l-4.882,-2.047l-2.992,-3.622l-0.157,-4.252l-4.725,-2.52l-2.834,-3.622l-2.52,-7.244l-5.197,-2.362l-2.362,-2.52l8.032,-2.52Z" style="fill:#c6c1bc;"/>
        <path d="M2258.62,1323.03l7.874,-3.464l23.307,-5.354l2.992,3.464l1.575,5.984l3.465,0.945l2.992,3.622l1.26,5.827l3.622,0.945l2.834,3.622l1.26,5.827l6.299,3.464l3.15,3.78l-2.362,5.827l-27.559,5.197l-30.709,-39.686Z" style="fill:#c6c1bc;"/>
        <path d="M2284.13,1400.98l-28.662,-35.905l-1.417,-37.166l3.937,3.15l28.662,36.693l-2.52,33.228Z" style="fill:#c6c1bc;"/>
        <path d="M855.945,1341.3l3.464,-1.102l0.315,-14.803l-3.937,10.393l0.158,5.512Z" style="fill:#c6c1bc;"/>
        <path d="M490.748,1478.46l32.913,-5.67l85.355,-18.74l4.409,-3.779l1.418,-25.355l-45.985,10.394l-17.323,2.992l-9.448,-0.157l-7.874,-10.394l-0.158,-34.173l-31.024,5.669l-7.874,-10.866l-1.102,0.315l-3.307,89.764Z" style="fill:#c6c1bc;"/>
        <path d="M2321.14,1397.68l-28.662,6.457l-1.417,-1.417l-0.315,-34.961l29.606,-5.354l0.788,35.275Z" style="fill:#c6c1bc;"/>
        <path d="M1313.74,1064.61l-3.622,5.04l-0.315,-5.512l3.307,-1.732l0.63,2.204Z" style="fill:#003cd2;"/>
        <path d="M1274.53,1081.3l5.354,-3.149l-0,-2.205l-2.52,-0.945l-5.354,5.039l2.52,1.26Z" style="fill:#003cd2;"/>
        <path d="M1332.01,1088.07l-3.622,5.039l-1.103,-6.456l3.78,-1.103l0.945,2.52Z" style="fill:#003cd2;"/>
        <path d="M1292.64,1104.45l5.197,-5.355l-2.205,-0.629l-5.512,5.039l2.52,0.945Z" style="fill:#003cd2;"/>
        <path d="M1305.71,1126.81l8.346,-4.724l2.047,0.63l-5.196,5.354l-5.197,-1.26Z" style="fill:#003cd2;"/>
        <path d="M1318.94,1153.58l12.283,-3.465l2.678,-5.984l-14.961,9.449Z" style="fill:#003cd2;"/>
        <path d="M2076.89,36.417l1.26,0.788l-1.103,33.071l-0.157,-33.859Z" style="fill:#000020;"/>
        <path d="M1790.59,72.953l0.315,-9.607l1.732,-0.315l-2.047,9.922Z" style="fill:#000020;"/>
        <path d="M1657.68,127.598l1.26,0.788l-1.102,12.283l-0.158,-13.071Z" style="fill:#000020;"/>
        <path d="M1446.81,171.85l1.26,0.788l-1.102,38.268l-0.158,-39.056Z" style="fill:#000020;"/>
        <path d="M1027.6,262.874l1.26,0.787l-1.102,17.638l-0.158,-18.425Z" style="fill:#000020;"/>
        <path d="M478.15,354.055l0.472,-6.772l1.575,-0.472l-2.047,7.244Z" style="fill:#000020;"/>
        <path d="M1988.07,364.606l1.89,-36.693l-0.315,35.591l-1.575,1.102Z" style="fill:#000020;"/>
        <path d="M1769.33,410.591l6.614,-2.835l3.149,-9.449l-1.417,36.536l-1.417,-22.678l-6.929,-1.574Z" style="fill:#000020;"/>
        <path d="M345.551,411.22l1.26,1.103l-1.417,6.929l0.157,-8.032Z" style="fill:#000020;"/>
        <path d="M1857.2,393.11l1.102,15.591l-2.52,20.945l1.418,-36.536Z" style="fill:#000020;"/>
        <path d="M2152.48,432.165l4.725,13.859l-4.567,1.889l-0.158,-15.748Z" style="fill:#000020;"/>
        <path d="M1680.83,461.457l7.244,-0.473l-0.63,1.575l-6.614,-1.102Z" style="fill:#000020;"/>
        <path d="M1437.99,463.346l0.473,35.906l-2.048,0.787l1.575,-36.693Z" style="fill:#000020;"/>
        <path d="M1357.2,499.882l2.677,-31.339l-1.26,36.693l-1.417,-5.354Z" style="fill:#000020;"/>
        <path d="M1141.93,546.024l7.087,-6.93l-1.575,36.378l-1.417,-27.874l-4.095,-1.574Z" style="fill:#000020;"/>
        <path d="M1226.97,533.74l1.259,10.394l-2.677,26.142l1.418,-36.536Z" style="fill:#000020;"/>
        <path d="M2258.62,591.22l-4.724,4.567l6.771,-1.417l-2.047,-3.15Z" style="fill:#000020;"/>
        <path d="M544.764,674.213l3.149,17.795l-4.567,18.898l1.418,-36.693Z" style="fill:#000020;"/>
        <path d="M464.134,692.48l2.52,-13.071l-1.418,36.693l-1.102,-23.622Z" style="fill:#000020;"/>
        <path d="M2146.65,703.504l-1.575,0.315l-0.315,25.354l1.89,-25.669Z" style="fill:#000020;"/>
        <path d="M837.205,731.063l3.937,-2.992l3.149,-30.394l-1.417,36.693l-5.669,-3.307Z" style="fill:#000020;"/>
        <path d="M629.488,760.039l2.835,12.441l3.779,1.575l-3.622,2.835l-3.149,20l0.157,-36.851Z" style="fill:#000020;"/>
        <path d="M2717.52,794.055l1.26,0.788l-1.103,17.637l-0.157,-18.425Z" style="fill:#000020;"/>
        <path d="M2183.19,863.976l-2.52,2.678l8.032,-1.733l-5.512,-0.945Z" style="fill:#000020;"/>
        <path d="M2716.42,848.701l2.835,36.22l-4.252,0.315l1.417,-36.535Z" style="fill:#000020;"/>
        <path d="M2138.47,875l-3.78,0.472l-0.472,12.599l4.252,-13.071Z" style="fill:#000020;"/>
        <path d="M1407.13,905.394l10.551,-1.418l-5.039,2.678l-5.512,-1.26Z" style="fill:#000020;"/>
        <path d="M1339.88,921.457l0.63,-1.575l6.771,-0.315l-5.039,2.677l-2.362,-0.787Z" style="fill:#000020;"/>
        <path d="M1457.2,927.126l5.039,2.992l-5.354,1.417l0.315,-4.409Z" style="fill:#000020;"/>
        <path d="M1383.98,947.126l7.717,-1.26l-7.244,-0.63l-0.473,1.89Z" style="fill:#000020;"/>
        <path d="M2253.74,955.63l-2.52,4.882l5.512,-2.205l-2.992,-2.677Z" style="fill:#000020;"/>
        <path d="M1610.75,966.654l1.417,0.472l0.945,5.984l-15.118,-1.102l11.654,-1.89l1.102,-3.464Z" style="fill:#000020;"/>
        <path d="M1631.22,978.307l6.615,-1.102l0.787,1.732l-7.402,-0.63Z" style="fill:#000020;"/>
        <path d="M988.071,986.024l10.551,-1.26l-5.197,2.677l-5.354,-1.417Z" style="fill:#000020;"/>
        <path d="M1644.76,986.811l1.26,0.787l-1.418,10.079l0.158,-10.866Z" style="fill:#000020;"/>
        <path d="M1630.59,995.945l-14.331,-0.473l14.803,-2.047l-0.472,2.52Z" style="fill:#000020;"/>
        <path d="M2597.2,997.835l-6.929,-0l-0.788,1.889l7.717,-1.889Z" style="fill:#000020;"/>
        <path d="M1646.65,1001.93l9.606,-1.26l0.63,1.733l-10.236,-0.473Z" style="fill:#000020;"/>
        <path d="M2290.28,1002.56l-5.355,4.724l8.347,-2.204l-2.992,-2.52Z" style="fill:#000020;"/>
        <path d="M2589.49,999.724l-1.89,0.945l-0.157,9.607l2.047,-10.552Z" style="fill:#000020;"/>
        <path d="M1663.03,1010.12l1.26,0.945l-1.574,9.921l0.314,-10.866Z" style="fill:#000020;"/>
        <path d="M1648.86,1019.41l-14.33,-0.472l14.645,-2.205l-0.315,2.677Z" style="fill:#000020;"/>
        <path d="M1664.76,1025.39l9.764,-1.26l0.629,1.732l-10.393,-0.472Z" style="fill:#000020;"/>
        <path d="M1681.14,1033.74l1.417,0.945l-1.417,6.929l-0,-7.874Z" style="fill:#000020;"/>
        <path d="M1666.65,1043.03l-3.308,-0.787l3.78,-2.205l-0.472,2.992Z" style="fill:#000020;"/>
        <path d="M1291.69,1046.02l-0,-5.197l4.567,-3.937l5.984,-0l-10.551,9.134Z" style="fill:#000020;"/>
        <path d="M1683.03,1048.86l9.764,-1.26l0.473,1.575l-10.237,-0.315Z" style="fill:#000020;"/>
        <path d="M1336.58,1054.06l-1.418,1.417l9.922,-0.472l-8.504,-0.945Z" style="fill:#000020;"/>
        <path d="M1649.96,1051.85l0.157,7.717l1.102,-6.614l-1.259,-1.103Z" style="fill:#000020;"/>
        <path d="M1313.11,1062.4l1.575,-1.89l5.669,-0.315l-6.614,4.409l-0.63,-2.204Z" style="fill:#000020;"/>
        <path d="M1660.2,1072.32l-7.559,-2.362l0.157,-2.678l5.985,1.26l1.417,3.78Z" style="fill:#000020;"/>
        <path d="M1699.25,1070.28l11.811,0.787l0.63,1.417l-11.969,-0.63l-0.472,-1.574Z" style="fill:#000020;"/>
        <path d="M1232.01,1072.8l-0.945,-6.771l1.732,-0.473l-0.787,7.244Z" style="fill:#000020;"/>
        <path d="M1664.76,1077.84l-3.15,-1.418l-1.417,-4.094l2.205,-0.315l2.362,5.827Z" style="fill:#000020;"/>
        <path d="M1279.88,1075.94l1.89,-4.882l-1.26,-0.315l-3.15,4.252l2.52,0.945Z" style="fill:#000020;"/>
        <path d="M1687.44,1079.72l-0.472,-6.141l2.834,-0.63l-2.362,6.771Z" style="fill:#000020;"/>
        <path d="M1355,1077.52l-1.575,1.417l7.087,-0.472l-5.512,-0.945Z" style="fill:#000020;"/>
        <path d="M1266.65,1083.19l7.874,-1.89l-2.52,-1.26l-5.354,3.15Z" style="fill:#000020;"/>
        <path d="M1331.06,1085.55l8.346,-2.52l-7.401,5.04l-0.945,-2.52Z" style="fill:#000020;"/>
        <path d="M1297.84,1099.09l2.204,-4.409l-1.259,-0.472l-3.15,4.252l2.205,0.629Z" style="fill:#000020;"/>
        <path d="M1250.28,1098.94l-2.52,-10.551l8.346,-2.835l-3.937,3.78l-1.889,9.606Z" style="fill:#000020;"/>
        <path d="M1373.27,1100.98l-1.575,1.418l7.087,-0.473l-5.512,-0.945Z" style="fill:#000020;"/>
        <path d="M1282.24,1106.5l10.394,-2.047l-2.52,-0.945l-7.874,2.992Z" style="fill:#000020;"/>
        <path d="M1343.82,1118.94l-0.315,-5.354l7.087,-6.3l7.244,-0.787l-14.016,12.441Z" style="fill:#000020;"/>
        <path d="M2079.25,1115.16l1.732,-0.787l-1.26,7.874l-0.472,-7.087Z" style="fill:#000020;"/>
        <path d="M1314.06,1122.09l4.252,-6.772l0.63,1.575l-2.835,5.827l-2.047,-0.63Z" style="fill:#000020;"/>
        <path d="M1268.54,1122.4l-0.945,-9.607l1.89,-0.472l-0.945,10.079Z" style="fill:#000020;"/>
        <path d="M1380.98,1132.32l-5.197,-2.835l5.355,-1.575l-0.158,4.41Z" style="fill:#000020;"/>
        <path d="M1300.35,1130.12l5.355,-3.307l5.197,1.26l-10.552,2.047Z" style="fill:#000020;"/>
        <path d="M1300.35,1130.12l-1.26,1.575l-5.669,-0.787l6.929,-0.788Z" style="fill:#000020;"/>
        <path d="M1286.81,1145.87l-0.787,-9.764l1.732,-0.63l-0.945,10.394Z" style="fill:#000020;"/>
        <path d="M1304.92,1169.33l-1.732,-12.599l4.882,-0.945l-3.15,13.544Z" style="fill:#000020;"/>
        <path d="M2277.52,1184.61l1.102,0.945l0.315,12.284l-1.417,-13.229Z" style="fill:#000020;"/>
        <path d="M2594.05,1247.13l-1.417,-15.591l1.102,0.945l0.315,14.646Z" style="fill:#000020;"/>
        <path d="M2985.87,1236.58l1.103,0.945l0.314,12.441l-1.417,-13.386Z" style="fill:#000020;"/>
        <path d="M2300.51,1239.72l1.417,0.63l-0.945,27.717l-0.472,-28.347Z" style="fill:#000020;"/>
        <path d="M2357.52,1298.46l13.386,-1.103l-8.032,2.52l-5.354,-1.417Z" style="fill:#000020;"/>
        <path d="M859.724,1325.39l-2.834,-17.323l-1.575,-0.63l0.472,28.346l3.937,-10.393Z" style="fill:#000020;"/>
        <path d="M2430.75,1333.58l1.732,0.472l-1.26,25.197l-1.102,-15.748l0,-5.669l0.63,-4.252Z" style="fill:#000020;"/>
        <path d="M609.961,1674.21l-1.418,-15.748l0.945,0.944l0.473,14.804Z" style="fill:#000020;"/>
        <path d="M1337.52,926.969l2.362,-5.512l2.362,0.787l-0.315,4.725l-4.409,-0Z" style="fill:#fff;"/>
        <path d="M1341.93,926.969l2.047,6.141l5.512,3.15l-2.362,-6.299l-5.197,-2.992Z" style="fill:#fff;"/>
        <path d="M1360.67,950.276l-3.464,-7.559l-2.992,-2.048l-0,5.04l6.456,4.567Z" style="fill:#fff;"/>
        <path d="M927.913,1002.56l1.89,5.827l6.142,4.409l-2.992,-7.401l-5.04,-2.835Z" style="fill:#fff;"/>
        <path d="M1034.84,1007.13l1.732,1.26l-0.945,28.031l-1.26,-25.197l-19.685,4.41l-0.472,-2.205l20.63,-6.299Z" style="fill:#fff;"/>
        <path d="M935.945,1012.8l1.732,6.142l6.142,4.409l-2.992,-7.559l-4.882,-2.992Z" style="fill:#fff;"/>
        <path d="M1667.76,1081.3l-2.992,-3.464l-2.362,-5.827l1.102,-3.78l3.15,-0.472l3.149,2.992l-2.047,10.551Z" style="fill:#fff;"/>
        <path d="M2365.24,1302.4l2.047,5.511l5.67,4.095l-2.52,-7.244l-5.197,-2.362Z" style="fill:#fff;"/>
        <path d="M2375.79,1315.63l1.89,5.354l2.992,1.418l-0.157,-4.252l-4.725,-2.52Z" style="fill:#fff;"/>
        <path d="M2292.8,1317.68l1.575,5.984l3.465,0.945l-3.307,-6.456l-1.733,-0.473Z" style="fill:#fff;"/>
        <path d="M2383.66,1326.02l1.733,5.196l5.826,4.252l-2.677,-7.401l-4.882,-2.047Z" style="fill:#fff;"/>
        <path d="M2300.83,1328.23l1.26,5.827l3.622,0.945l-3.307,-6.457l-1.575,-0.315Z" style="fill:#fff;"/>
        <path d="M2308.54,1338.62l1.26,5.827l6.299,3.464l-3.149,-6.614l-4.41,-2.677Z" style="fill:#fff;"/>
        <path d="M478.307,1347.13l8.976,-0.315l0,14.173l-5.354,-6.141l-2.52,-2.993l-1.102,-4.724Z" style="fill:#fff;"/>
        <g id="Actor_.0">
            <g>
                <path d="M1290.75,1012.95l8.032,10.236l-5.512,1.732l-5.04,2.835l-4.567,3.622l-3.779,4.409l-2.835,4.725l-1.732,5.039l-3.465,15.906l-0.63,1.574l-0.944,1.733l-1.26,1.417l-1.418,1.26l-1.732,1.102l-1.89,0.63l-23.307,6.457l0.63,13.386" style="fill:none;stroke:#000;stroke-width:5.56px;"/>
                <path d="M1240.67,1075.63l-7.874,-10.236" style="fill:none;stroke:#000;stroke-width:5.56px;"/>
                <path d="M1259.25,1112.32l-0.63,-13.386l-7.874,-10.236" style="fill:none;stroke:#000;stroke-width:5.56px;"/>
                <path d="M1258.62,1098.94l23.465,-6.457l1.732,-0.63l1.732,-1.102l1.418,-1.26l1.259,-1.417l0.945,-1.732l0.63,-1.575l3.465,-15.906l-7.874,-10.236" style="fill:none;stroke:#000;stroke-width:5.56px;"/>
                <path d="M1256.1,1058.94l7.874,10.236" style="fill:none;stroke:#000;stroke-width:5.56px;"/>
                <path d="M1277.2,1135.63l-0.473,-13.386l-8.031,-10.236" style="fill:none;stroke:#000;stroke-width:5.56px;"/>
                <path d="M1276.73,1122.24l23.307,-6.457l1.733,-0.63l1.732,-1.102l1.575,-1.26l1.26,-1.417l0.787,-1.575l0.63,-1.732l-7.874,-10.236" style="fill:none;stroke:#000;stroke-width:5.56px;"/>
                <path d="M1282.09,1092.48l-8.032,-10.236" style="fill:none;stroke:#000;stroke-width:5.56px;"/>
                <path d="M1271.85,1061.46l-8.031,-10.394" style="fill:none;stroke:#000;stroke-width:5.56px;"/>
                <path d="M1267.44,1035.32l7.874,10.236" style="fill:none;stroke:#000;stroke-width:5.56px;"/>
                <path d="M1295.16,1158.94l-0.472,-13.228l-7.874,-10.394" style="fill:none;stroke:#000;stroke-width:5.56px;"/>
                <path d="M1294.68,1145.71l23.307,-6.615l-7.874,-10.236" style="fill:none;stroke:#000;stroke-width:5.56px;"/>
                <path d="M1300.04,1115.79l-7.874,-10.236" style="fill:none;stroke:#000;stroke-width:5.56px;"/>
                <path d="M1289.8,1084.76l-7.874,-10.236" style="fill:none;stroke:#000;stroke-width:5.56px;"/>
                <path d="M1293.27,1068.86l1.732,-5.039l2.835,-4.725l3.779,-4.409l4.567,-3.622l5.197,-2.835l5.354,-1.574l21.89,-4.882l10.079,13.071" style="fill:none;stroke:#000;stroke-width:5.56px;"/>
                <path d="M1298.78,1023.19l21.889,-4.724l10.079,13.07" style="fill:none;stroke:#000;stroke-width:5.56px;"/>
                <path d="M1339.41,1128.54l7.874,10.237l-3.464,15.905l-0.63,1.732l-0.945,1.575l-1.26,1.417l-1.575,1.418l-1.574,0.945l-1.89,0.63l-23.307,6.614l0.63,13.228" style="fill:none;stroke:#000;stroke-width:5.56px;"/>
                <path d="M1304.76,1158.62l7.874,10.394" style="fill:none;stroke:#000;stroke-width:5.56px;"/>
                <path d="M1307.76,1108.07l3.464,-15.906l1.733,-5.039l2.834,-4.724l3.78,-4.41l4.567,-3.622l5.197,-2.677l5.354,-1.732l22.047,-4.882l10.079,13.071" style="fill:none;stroke:#000;stroke-width:5.56px;"/>
                <path d="M1311.22,1092.16l-7.874,-10.236" style="fill:none;stroke:#000;stroke-width:5.56px;"/>
                <path d="M1308.23,1036.42l-1.259,-1.574" style="fill:none;stroke:#000;stroke-width:5.56px;"/>
                <path d="M1308.7,1036.26l8.031,10.394" style="fill:none;stroke:#000;stroke-width:5.56px;"/>
                <path d="M1302.09,1010.59l-0.158,-2.363l-0.787,-1.102" style="fill:none;stroke:#000;stroke-width:5.56px;"/>
                <path d="M1312.8,1008.23l-10.393,-13.543l-0.473,13.543l1.417,2.048" style="fill:none;stroke:#000;stroke-width:5.56px;"/>
                <path d="M1302.4,994.685l3.779,-21.26l-0.63,-1.26l-0.157,-1.259" style="fill:none;stroke:#000;stroke-width:5.56px;"/>
                <path d="M1301.61,992.48l0.158,0.945l-0,0.158" style="fill:none;stroke:#000;stroke-width:5.56px;"/>
                <path d="M1651.85,1073.9l-0.315,1.102l-0.787,1.102l-1.102,0.788l-1.418,0.787l-1.732,0.63l-231.496,49.921l1.89,-23.779l-1.89,0.157l-2.047,0l-2.047,-0.315l-1.733,-0.472l-1.732,-0.63l-1.417,-0.787l-0.945,-0.788l-98.898,-128.189l0.473,-1.89l0.944,-1.889l1.418,-1.733l1.732,-1.417l1.89,-1.102l2.047,-0.63l-0.945,-0.945l-0.787,-0.315l-0.788,-0" style="fill:none;stroke:#000;stroke-width:5.56px;"/>
                <path d="M1540.2,914.37l0.945,0.473l0.787,0.944l-227.244,48.977l98.898,128.189l-2.048,0.63l-1.889,1.102l-1.733,1.417l-1.417,1.733l-0.945,1.889l-0.472,1.89l-2.048,23.78l1.103,0.787l1.26,0.788l1.732,0.787l3.78,0.63l2.047,-0" style="fill:none;stroke:#000;stroke-width:5.56px;"/>
                <path d="M1335.94,1162.4l-7.874,-10.237" style="fill:none;stroke:#000;stroke-width:5.56px;"/>
                <path d="M1317.99,1139.09l1.732,-0.629l1.733,-0.945l1.574,-1.418l1.26,-1.417l0.945,-1.575l0.473,-1.732l-7.874,-10.236" style="fill:none;stroke:#000;stroke-width:5.56px;"/>
                <path d="M1325.71,1131.38l3.622,-15.906l-8.032,-10.236" style="fill:none;stroke:#000;stroke-width:5.56px;"/>
                <path d="M1329.33,1115.47l1.575,-5.039l2.834,-4.724l3.937,-4.41l4.567,-3.622l5.039,-2.677l5.355,-1.732l22.047,-4.725l10.079,12.914" style="fill:none;stroke:#000;stroke-width:5.56px;"/>
                <path d="M1334.68,1069.96l-7.874,-10.394" style="fill:none;stroke:#000;stroke-width:5.56px;"/>
                <path d="M1326.34,1059.72l-1.26,-1.574" style="fill:none;stroke:#000;stroke-width:5.56px;"/>
                <path d="M1320.2,1032.01l1.26,1.575" style="fill:none;stroke:#000;stroke-width:5.56px;"/>
                <path d="M1343.82,1154.68l-8.032,-10.236" style="fill:none;stroke:#000;stroke-width:5.56px;"/>
                <path d="M1347.28,1138.78l1.733,-5.04l2.834,-4.724l3.78,-4.41l4.567,-3.622l5.039,-2.677l5.355,-1.732l22.047,-4.725l10.393,13.544l-0.472,13.386l1.26,1.259l1.732,0.945l2.047,0.788l2.205,0.315l2.362,-0l2.363,-0.315l0.315,20.315l-0.315,1.574l-0.315,1.103l-0.63,0.787" style="fill:none;stroke:#000;stroke-width:5.56px;"/>
                <path d="M1344.29,1083.03l-1.26,-1.574" style="fill:none;stroke:#000;stroke-width:5.56px;"/>
                <path d="M1344.76,1083.03l7.874,10.237" style="fill:none;stroke:#000;stroke-width:5.56px;"/>
                <path d="M1338.15,1055.32l1.259,1.575" style="fill:none;stroke:#000;stroke-width:5.56px;"/>
                <path d="M1362.24,1106.5l-1.26,-1.732" style="fill:none;stroke:#000;stroke-width:5.56px;"/>
                <path d="M1370.59,1116.58l-7.874,-10.236" style="fill:none;stroke:#000;stroke-width:5.56px;"/>
                <path d="M1356.26,1078.62l1.102,1.575" style="fill:none;stroke:#000;stroke-width:5.56px;"/>
                <path d="M1404.29,1162.4l-0.945,-1.418l-0.315,-1.732l-24.094,-31.181" style="fill:none;stroke:#000;stroke-width:5.56px;"/>
                <path d="M1374.21,1101.93l1.102,1.575" style="fill:none;stroke:#000;stroke-width:5.56px;"/>
                <path d="M1640.67,1116.58l0.788,-0.788l0.472,-1.102l0.158,-1.575l-229.449,49.449l-2.362,0l-2.363,-0.315l-2.047,-0.63l-1.575,-1.102l-1.26,-1.26l-0.472,-20.472l-10.394,-13.544" style="fill:none;stroke:#000;stroke-width:5.56px;"/>
                <path d="M1412.8,1165.71l-0.157,-0.158" style="fill:none;stroke:#000;stroke-width:5.56px;"/>
                <path d="M1415,1128.23l-0.472,13.544l231.496,-49.922l-3.937,21.26l1.732,-0.315l1.575,-0.787l1.102,-0.788l0.787,-0.944" style="fill:none;stroke:#000;stroke-width:5.56px;"/>
                <path d="M1651.38,1087.6l-0.315,1.103l-0.787,1.102l-1.103,0.788l-1.417,0.787l-1.732,0.472l0.472,-13.543l-2.205,-22.835l-227.401,48.977l-0.158,-1.89l-0.315,-2.205l-0.472,-2.204l-0.63,-2.048l-0.787,-1.732l-0.945,-1.417l227.244,-48.977l2.047,-0.315l1.89,0.315l1.732,0.788l1.26,1.102" style="fill:none;stroke:#000;stroke-width:5.56px;"/>
                <path d="M1649.65,1051.06l-0.315,0.945l-0.788,1.102l-1.102,0.945l-1.575,0.788l-1.575,0.629l-0.157,-2.047l-0.315,-2.205l-1.26,-4.094l-0.787,-1.732l-0.945,-1.418l-98.898,-128.189l2.047,-0.315l1.89,0.315l1.575,0.788l1.417,1.102" style="fill:none;stroke:#000;stroke-width:5.56px;"/>
                <path d="M1609.02,964.764l-3.622,-2.835l-4.41,-1.575l-4.882,-0.63l-5.354,0.63l-7.717,1.575" style="fill:none;stroke:#000;stroke-width:5.56px;"/>
                <path d="M1590.75,960.354l-7.874,-10.393" style="fill:none;stroke:#000;stroke-width:5.56px;"/>
                <path d="M1626.97,988.071l-3.623,-2.835l-4.252,-1.575l-5.039,-0.63l-5.354,0.63l-7.717,1.575" style="fill:none;stroke:#000;stroke-width:5.56px;"/>
                <path d="M1608.7,983.661l-7.874,-10.393" style="fill:none;stroke:#000;stroke-width:5.56px;"/>
                <path d="M1644.92,1011.38l-3.464,-2.677l-4.41,-1.732l-5.039,-0.63l-5.354,0.63l-7.717,1.574" style="fill:none;stroke:#000;stroke-width:5.56px;"/>
                <path d="M1626.65,1006.97l-7.874,-10.237" style="fill:none;stroke:#000;stroke-width:5.56px;"/>
                <path d="M1645.87,988.386l-17.008,2.52" style="fill:none;stroke:#000;stroke-width:5.56px;"/>
                <path d="M1648.54,1047.28l0,0.158" style="fill:none;stroke:#000;stroke-width:5.56px;"/>
                <path d="M1650.12,1056.26l12.599,-2.677l-7.874,-10.237" style="fill:none;stroke:#000;stroke-width:5.56px;"/>
                <path d="M1662.87,1034.68l-3.465,-2.677l-4.409,-1.732l-5.039,-0.63l-5.197,0.63l-7.874,1.574" style="fill:none;stroke:#000;stroke-width:5.56px;"/>
                <path d="M1644.76,1030.28l-8.032,-10.237" style="fill:none;stroke:#000;stroke-width:5.56px;"/>
                <path d="M1663.82,1011.69l-16.85,2.52" style="fill:none;stroke:#000;stroke-width:5.56px;"/>
                <path d="M1658.15,1070.43l-1.418,-2.205" style="fill:none;stroke:#000;stroke-width:5.56px;"/>
                <path d="M1662.72,1053.58l5.354,-0.63l4.882,0.63l4.409,1.732l3.622,2.677" style="fill:none;stroke:#000;stroke-width:5.56px;"/>
                <path d="M1664.92,1037.52l16.851,-2.52" style="fill:none;stroke:#000;stroke-width:5.56px;"/>
                <path d="M1672.48,1086.02l1.26,4.252l2.362,3.464" style="fill:none;stroke:#000;stroke-width:5.56px;"/>
                <path d="M1670.12,1071.54l-0.472,-1.574l-0.945,-1.26" style="fill:none;stroke:#000;stroke-width:5.56px;"/>
                <path d="M1682.87,1060.83l16.85,-2.52" style="fill:none;stroke:#000;stroke-width:5.56px;"/>
                <path d="M1688.54,1083.35l1.103,0.945l1.417,0.63l1.732,0.315l1.733,-0.157l23.307,-3.465" style="fill:none;stroke:#000;stroke-width:5.56px;"/>
                <path d="M1694.53,1085.08l-7.874,-10.236" style="fill:none;stroke:#000;stroke-width:5.56px;"/>
            </g>
            <g>
                <path d="M1283.35,1067.91l-1.259,2.048l-3.465,4.094l-4.252,3.622l-4.724,2.835l-5.04,1.89l-23.307,6.614l-8.031,-10.394l-0.473,-13.228l23.307,-6.457l1.89,-0.63l1.575,-1.102l1.575,-1.26l1.26,-1.417l0.944,-1.733l0.473,-1.732l3.622,-15.748l1.575,-5.039l2.834,-4.882l3.937,-4.252l4.567,-3.622l5.04,-2.835l5.354,-1.732l22.047,-4.725l7.874,10.237l-0.472,13.543l-22.047,4.724l-1.89,0.63l-1.732,0.945l-1.733,1.417l-1.26,1.575l-1.102,1.575l-0.63,1.89l-1.417,6.614" style="fill:none;stroke:#000;stroke-width:11.1px;"/>
                <path d="M1306.34,1074.68l1.574,-6.614l0.63,-1.89l0.945,-1.575l1.418,-1.575l1.574,-1.259l1.733,-1.103l2.047,-0.63l21.89,-4.724l0.472,-13.543l-7.874,-10.237l-22.047,4.725l-5.355,1.732l-5.039,2.835l-4.567,3.622l-3.779,4.409l-2.835,4.725l-1.732,5.039l-3.465,15.906l-0.63,1.574l-0.945,1.733l-1.26,1.417l-1.417,1.26l-1.732,1.102l-1.89,0.63l-23.307,6.457l0.63,13.386l7.874,10.236l23.307,-6.614l5.039,-1.89l4.725,-2.835l4.252,-3.622l3.622,-4.094l1.102,-2.048" style="fill:none;stroke:#000;stroke-width:11.1px;"/>
                <path d="M1319.25,1114.53l-1.102,2.047l-3.465,4.252l-4.252,3.464l-4.882,2.835l-5.039,1.89l-23.307,6.614l-7.874,-10.236l-0.63,-13.386l23.464,-6.457l1.733,-0.63l1.732,-1.102l1.417,-1.26l1.26,-1.417l0.945,-1.733l0.63,-1.574l3.464,-15.906l1.733,-5.039l2.834,-4.725l3.78,-4.409l4.567,-3.622l5.197,-2.835l5.354,-1.732l21.89,-4.724l8.031,10.236l-0.472,13.543l-22.047,4.724l-1.89,0.63l-1.89,1.103l-1.575,1.26l-1.417,1.574l-0.945,1.733l-0.63,1.732l-1.417,6.614" style="fill:none;stroke:#000;stroke-width:11.1px;"/>
                <path d="M1342.4,1121.3l1.417,-6.614l0.63,-1.732l0.945,-1.733l1.417,-1.574l1.575,-1.26l1.89,-1.103l1.889,-0.472l22.048,-4.882l0.472,-13.386l-7.874,-10.393l-22.047,4.881l-5.355,1.575l-5.196,2.835l-4.567,3.622l-3.78,4.409l-2.835,4.725l-1.732,5.039l-3.464,15.906l-0.63,1.575l-0.945,1.732l-1.103,1.417l-1.574,1.26l-1.733,1.102l-1.732,0.63l-23.307,6.457l0.472,13.386l7.874,10.236l23.465,-6.457l5.039,-2.047l4.725,-2.835l4.252,-3.464l3.464,-4.252l1.103,-2.047" style="fill:none;stroke:#000;stroke-width:11.1px;"/>
                <path d="M1316.26,1181.3l-2.992,0.945l-8.032,-10.236l-0.472,-13.386l23.307,-6.457l1.732,-0.63l1.732,-1.102l1.575,-1.26l1.26,-1.417l0.945,-1.732l0.472,-1.575l3.622,-15.906l1.575,-5.039l2.835,-4.724l3.937,-4.41l4.567,-3.622l5.039,-2.835l5.355,-1.574l22.047,-4.882l7.874,10.393l-0.473,13.386l-22.047,4.882l-1.89,0.473l-1.732,1.102l-1.732,1.26l-1.26,1.575l-1.102,1.732l-0.63,1.732l-3.465,15.906l-1.575,4.724l-2.677,4.567l-3.464,4.252l-4.252,3.465l-4.725,2.834l-5.039,2.047l-20.315,5.512" style="fill:none;stroke:#000;stroke-width:11.1px;"/>
                <path d="M1307.28,1036.73l-1.259,-1.575" style="fill:none;stroke:#000;stroke-width:11.1px;"/>
                <path d="M1377.99,1128.39l26.142,34.016l2.205,1.889l1.102,0.63l2.047,0.63l2.205,0.315l1.89,-0.315l227.244,-49.134l1.417,-0.315l1.102,-0.63l2.205,-1.889l0.945,-1.418l0.473,-1.259l0.472,-1.89l3.937,-21.418l0.472,-13.7l-2.204,-22.835l-0.473,-2.52l-1.417,-2.677l-98.898,-128.189l-2.204,-1.89l-1.103,-0.63l-2.047,-0.629l-2.205,-0.315l-1.89,0.315l-227.244,48.976l-1.417,0.472l-1.102,0.63l-1.26,0.945l-0.945,0.945l-0.945,1.417l-0.472,1.26l-0.63,1.733l-3.78,21.574l-0.472,13.386l-0,1.26l0.472,3.622" style="fill:none;stroke:#000;stroke-width:11.1px;"/>
                <path d="M1301.77,993.583l0.63,1.102" style="fill:none;stroke:#000;stroke-width:11.1px;"/>
                <path d="M1325.24,1060.04l-1.26,-1.574" style="fill:none;stroke:#000;stroke-width:11.1px;"/>
                <path d="M1341.93,1081.77l1.26,1.732" style="fill:none;stroke:#000;stroke-width:11.1px;"/>
                <path d="M1361.3,1106.81l-1.417,-1.732" style="fill:none;stroke:#000;stroke-width:11.1px;"/>
                <path d="M1415,1128.23l-2.047,0.158" style="fill:none;stroke:#000;stroke-width:11.1px;"/>
                <path d="M1575,951.693l7.874,-1.732l5.197,-0.473l5.039,0.473l4.41,1.732l3.464,2.835l8.032,10.236l2.519,3.622l1.26,4.409l0.315,1.26" style="fill:none;stroke:#000;stroke-width:11.1px;"/>
                <path d="M1595.63,974.528l-1.732,-0.788l-1.89,-0.157" style="fill:none;stroke:#000;stroke-width:11.1px;"/>
                <path d="M1595.32,974.528l-0.315,-0.315" style="fill:none;stroke:#000;stroke-width:11.1px;"/>
                <path d="M1593.11,975l7.717,-1.732l5.354,-0.473l4.882,0.473l4.409,1.732l3.622,2.835l7.875,10.236l2.519,3.622l1.418,4.409l0.157,1.26" style="fill:none;stroke:#000;stroke-width:11.1px;"/>
                <path d="M1611.06,998.307l7.717,-1.575l5.354,-0.63l4.882,0.473l4.409,1.732l3.622,2.835l7.874,10.236l2.52,3.622l1.417,4.409l0.158,1.26" style="fill:none;stroke:#000;stroke-width:11.1px;"/>
                <path d="M1613.58,997.835l-1.733,-0.788l-1.889,-0.157" style="fill:none;stroke:#000;stroke-width:11.1px;"/>
                <path d="M1613.27,997.835l-0.158,-0.315" style="fill:none;stroke:#000;stroke-width:11.1px;"/>
                <path d="M1629.02,1021.61l7.716,-1.575l5.355,-0.63l5.039,0.63l4.409,1.575l3.465,2.835l7.874,10.236l2.52,3.622l1.417,4.41l0.315,1.417" style="fill:none;stroke:#000;stroke-width:11.1px;"/>
                <path d="M1627.91,1020.2l2.048,0.315l1.574,0.63" style="fill:none;stroke:#000;stroke-width:11.1px;"/>
                <path d="M1631.22,1021.14l-0.157,-0.315" style="fill:none;stroke:#000;stroke-width:11.1px;"/>
                <path d="M1638.47,1002.87l5.826,-0.787l1.575,-13.701l-8.031,-10.394l-16.693,2.677" style="fill:none;stroke:#000;stroke-width:11.1px;"/>
                <path d="M1649.49,1044.45l-1.575,-0.63l-2.047,-0.315" style="fill:none;stroke:#000;stroke-width:11.1px;"/>
                <path d="M1649.17,1044.45l-0.157,-0.315" style="fill:none;stroke:#000;stroke-width:11.1px;"/>
                <path d="M1688.54,1083.35l-0.787,-1.259l-0.473,-1.575l-2.519,-14.488l-1.26,-4.41l-2.52,-3.622l-8.031,-10.236l-3.465,-2.835l-4.409,-1.575l-5.04,-0.629l-5.196,0.629l-7.874,1.575" style="fill:none;stroke:#000;stroke-width:11.1px;"/>
                <path d="M1639.25,1003.98l16.693,-2.677l7.874,10.394l-1.575,13.701l-5.827,0.787" style="fill:none;stroke:#000;stroke-width:11.1px;"/>
                <path d="M1664.29,1074.53l-2.992,-1.418l-3.149,-2.677l-1.733,-2.047" style="fill:none;stroke:#000;stroke-width:11.1px;"/>
                <path d="M1668.7,1068.7l-1.26,-0.945l-1.575,-0.63l-1.732,-0.315l-1.89,0.315l-10.866,2.205" style="fill:none;stroke:#000;stroke-width:11.1px;"/>
                <path d="M1666.97,1067.44l3.149,4.094l2.362,14.489l-7.874,-10.237l1.26,4.252l2.362,3.465l7.874,10.236l3.307,2.677l3.937,1.89l4.725,0.787l4.882,-0.314l23.307,-3.465l1.575,-13.701l-8.032,-10.236l-23.464,3.465" style="fill:none;stroke:#000;stroke-width:11.1px;"/>
                <path d="M1664.61,1075.79l-1.417,-8.818" style="fill:none;stroke:#000;stroke-width:11.1px;"/>
                <path d="M1674.37,1049.49l5.827,-0.787l1.575,-13.701l-7.874,-10.236l-16.693,2.519" style="fill:none;stroke:#000;stroke-width:11.1px;"/>
                <path d="M1675.16,1050.59l16.693,-2.52l7.874,10.236l-1.417,13.701l-12.126,1.89" style="fill:none;stroke:#000;stroke-width:11.1px;"/>
            </g>
        </g>
        <g id="Actor_.1">
            <g>
                <path d="M19.409,1133.74l4.252,-117.953l-12.913,-25.354l-0.945,-26.142" style="fill:none;stroke:#000;stroke-width:5.56px;"/>
                <path d="M23.661,1015.79l552.284,715.748l24.252,22.993l33.858,18.897l41.26,13.701l45.669,7.402l47.087,0.787l45.197,-6.142l2066.93,-445.669l40.315,-12.441l32.756,-17.953l22.834,-22.204l11.339,-25.04" style="fill:none;stroke:#000;stroke-width:5.56px;"/>
                <path d="M203.346,1042.4l6.93,-190.867l-45.67,-59.212" style="fill:none;stroke:#000;stroke-width:5.56px;"/>
                <path d="M210.276,851.535l75.275,18.268l-6.771,190.866" style="fill:none;stroke:#000;stroke-width:5.56px;"/>
                <path d="M278.15,820.827l14.488,-398.268l-23.15,-29.764" style="fill:none;stroke:#000;stroke-width:5.56px;"/>
                <path d="M504.606,1400.04l4.567,-127.716l-215.905,-279.843" style="fill:none;stroke:#000;stroke-width:5.56px;"/>
                <path d="M285.551,869.803l105.04,-22.677l29.606,-40.945l-5.669,160.158" style="fill:none;stroke:#000;stroke-width:5.56px;"/>
                <path d="M313.583,379.252l8.661,11.181l23.307,20.787l-52.913,11.339l9.764,-27.874l-8.504,-11.181" style="fill:none;stroke:#000;stroke-width:5.56px;"/>
                <path d="M375.315,1130.12l-57.323,12.441l-12.598,-16.378l1.732,-45.039" style="fill:none;stroke:#000;stroke-width:5.56px;"/>
                <path d="M305.394,1126.18l57.323,-12.283" style="fill:none;stroke:#000;stroke-width:5.56px;"/>
                <path d="M302.402,394.685l19.842,-4.252" style="fill:none;stroke:#000;stroke-width:5.56px;"/>
                <path d="M473.583,1422.87l-158.268,-205.197l2.677,-75.118" style="fill:none;stroke:#000;stroke-width:5.56px;"/>
                <path d="M315.315,1217.68l109.291,-23.622" style="fill:none;stroke:#000;stroke-width:5.56px;"/>
                <path d="M320.984,1059.88l-1.26,37.48" style="fill:none;stroke:#000;stroke-width:5.56px;"/>
                <path d="M386.024,972.48l4.567,-125.354" style="fill:none;stroke:#000;stroke-width:5.56px;"/>
                <path d="M420.197,806.181l75.433,18.268l64.567,-13.858l40.472,-8.662l29.607,-40.945" style="fill:none;stroke:#000;stroke-width:5.56px;"/>
                <path d="M488.228,775.472l14.331,-398.11l52.913,-11.496l-23.149,-20.787l-19.843,4.252l-8.661,-11.181" style="fill:none;stroke:#000;stroke-width:5.56px;"/>
                <path d="M479.567,347.441l22.992,29.921l9.921,-28.031" style="fill:none;stroke:#000;stroke-width:5.56px;"/>
                <path d="M495.63,824.449l-4.567,125.354" style="fill:none;stroke:#000;stroke-width:5.56px;"/>
                <path d="M509.173,1272.32l228.347,-49.292" style="fill:none;stroke:#000;stroke-width:5.56px;"/>
                <path d="M523.661,333.898l8.662,11.181" style="fill:none;stroke:#000;stroke-width:5.56px;"/>
                <path d="M545.866,1391.06l-1.732,48.819" style="fill:none;stroke:#000;stroke-width:5.56px;"/>
                <path d="M571.693,1849.49l4.252,-117.953" style="fill:none;stroke:#000;stroke-width:5.56px;"/>
                <path d="M595.157,954.685l5.512,-152.756" style="fill:none;stroke:#000;stroke-width:5.56px;"/>
                <path d="M921.457,1677.52l-0.788,-22.835l-11.338,-22.205l-21.26,-20l-29.606,-16.535l-4.567,-1.575l-31.496,-10.394l-40,-6.614l-41.103,-0.63l-39.527,5.355l-35.433,10.866l-28.504,15.748l-20,19.37l-9.922,21.89" style="fill:none;stroke:#000;stroke-width:5.56px;"/>
                <path d="M626.811,1422.09l-1.417,41.417" style="fill:none;stroke:#000;stroke-width:5.56px;"/>
                <path d="M719.567,1199.72l122.992,-26.456" style="fill:none;stroke:#000;stroke-width:5.56px;"/>
                <path d="M743.661,1231.85l52.126,-11.338" style="fill:none;stroke:#000;stroke-width:5.56px;"/>
                <path d="M760.039,1255.47l53.701,-11.653" style="fill:none;stroke:#000;stroke-width:5.56px;"/>
                <path d="M813.268,1789.17l-4.252,117.953" style="fill:none;stroke:#000;stroke-width:5.56px;"/>
                <path d="M811.063,1319.09l45.512,-9.921" style="fill:none;stroke:#000;stroke-width:5.56px;"/>
                <path d="M812.008,1291.69l26.457,-5.827" style="fill:none;stroke:#000;stroke-width:5.56px;"/>
                <path d="M855.787,1327.13l4.725,-0.945" style="fill:none;stroke:#000;stroke-width:5.56px;"/>
                <path d="M847.126,645.079l45.669,59.212l-6.929,190.866" style="fill:none;stroke:#000;stroke-width:5.56px;"/>
                <path d="M892.795,704.291l75.276,18.268l-6.772,190.866" style="fill:none;stroke:#000;stroke-width:5.56px;"/>
                <path d="M925.866,1029.65l0.63,1.26" style="fill:none;stroke:#000;stroke-width:5.56px;"/>
                <path d="M926.811,1003.19l0.63,-1.417l1.417,-0.788l-0.472,-0.315" style="fill:none;stroke:#000;stroke-width:5.56px;"/>
                <path d="M946.496,1055.94l0.945,0.315l0.945,-26.457l1.102,-0.157l-0.787,-2.835l-1.418,0.787l-0.629,1.418l1.259,0.63l-1.417,26.299l-0.787,-0l-0,-0.473" style="fill:none;stroke:#000;stroke-width:5.56px;"/>
                <path d="M946.654,1046.81l0.787,-17.323l-0.787,17.323" style="fill:none;stroke:#000;stroke-width:5.56px;"/>
                <path d="M946.811,1056.26l1.575,-26.457l-0.473,-0.157" style="fill:none;stroke:#000;stroke-width:5.56px;"/>
                <path d="M945.709,1055.94l0.315,0.315" style="fill:none;stroke:#000;stroke-width:5.56px;"/>
                <path d="M960.039,1089.65l0.945,-2.205l2.047,-1.89l2.835,-1.575l7.559,-1.732l4.095,0.158l4.094,0.629l6.457,2.835l2.205,2.047l1.102,2.205l-0,2.205" style="fill:none;stroke:#000;stroke-width:5.56px;"/>
                <path d="M947.441,1056.26l1.102,-0.158l-0.472,1.103l20.945,-4.567l1.732,-1.89" style="fill:none;stroke:#000;stroke-width:5.56px;"/>
                <path d="M949.173,1027.6l15.433,-2.834l-15.59,3.464" style="fill:none;stroke:#000;stroke-width:5.56px;"/>
                <path d="M949.016,996.26l2.047,0.472" style="fill:none;stroke:#000;stroke-width:5.56px;"/>
                <path d="M960.669,673.583l14.331,-398.111l9.921,-28.031l-8.661,-11.181" style="fill:none;stroke:#000;stroke-width:5.56px;"/>
                <path d="M996.102,232.008l8.662,11.181l23.307,20.787l-53.071,11.496l-22.992,-29.921" style="fill:none;stroke:#000;stroke-width:5.56px;"/>
                <path d="M970.276,1051.22l0.944,-26.456l-0.787,0.472l-0.945,-2.992l1.103,0" style="fill:none;stroke:#000;stroke-width:5.56px;"/>
                <path d="M971.22,1024.76l0.473,-0.473" style="fill:none;stroke:#000;stroke-width:5.56px;"/>
                <path d="M964.606,1024.76l5.512,-1.26" style="fill:none;stroke:#000;stroke-width:5.56px;"/>
                <path d="M972.323,1023.03l41.26,-8.976" style="fill:none;stroke:#000;stroke-width:5.56px;"/>
                <path d="M1066.18,890.748l6.929,-190.866l-105.039,22.677" style="fill:none;stroke:#000;stroke-width:5.56px;"/>
                <path d="M993.425,987.756l1.575,-0.945l-0.472,-0.315" style="fill:none;stroke:#000;stroke-width:5.56px;"/>
                <path d="M1004.76,243.189l-19.843,4.252" style="fill:none;stroke:#000;stroke-width:5.56px;"/>
                <path d="M1036.73,1035.94l-1.732,2.362l-20.787,4.567l0.472,-0.945l-1.575,-0.157l0.63,-12.599l-0.157,12.756" style="fill:none;stroke:#000;stroke-width:5.56px;"/>
                <path d="M1013.74,1029.17l0.788,-13.701l-0.473,-0.157l-0.945,18.268" style="fill:none;stroke:#000;stroke-width:5.56px;"/>
                <path d="M1014.53,1015.47l1.102,0l-0.473,-2.677l-0.787,-0.157l-1.102,0.787" style="fill:none;stroke:#000;stroke-width:5.56px;"/>
                <path d="M1015.16,1014.06l20.945,-4.724l0.315,1.575l1.103,-0.788l-1.103,26.929" style="fill:none;stroke:#000;stroke-width:5.56px;"/>
                <path d="M1015.32,1013.43l19.685,-4.409l1.102,-0.158l0.473,0.473" style="fill:none;stroke:#000;stroke-width:5.56px;"/>
                <path d="M1015.16,981.929l2.52,1.102" style="fill:none;stroke:#000;stroke-width:5.56px;"/>
                <path d="M1055.32,1175.32l-0,-2.362l-1.102,-2.205l-2.205,-1.89l-6.457,-2.992l-4.094,-0.63l-4.095,0l-7.401,1.575l-2.992,1.575l-1.89,2.047l-1.103,2.047" style="fill:none;stroke:#000;stroke-width:5.56px;"/>
                <path d="M1037.68,1011.69l-0.315,-1.102" style="fill:none;stroke:#000;stroke-width:5.56px;"/>
                <path d="M1036.1,1008.86l-0.472,-0.787l1.732,0.472" style="fill:none;stroke:#000;stroke-width:5.56px;"/>
                <path d="M1070.12,1121.14l0.945,-2.205l1.89,-1.732l2.992,-1.733l7.559,-1.574l4.252,-0l7.401,1.889l2.993,1.575l2.047,2.047l1.26,2.205l-0,2.362" style="fill:none;stroke:#000;stroke-width:5.56px;"/>
                <path d="M1073.11,699.882l29.607,-40.788l-6.772,190.709" style="fill:none;stroke:#000;stroke-width:5.56px;"/>
                <path d="M1102.72,659.094l75.433,18.268l-6.93,190.709" style="fill:none;stroke:#000;stroke-width:5.56px;"/>
                <path d="M1145.87,1197.2l-0.157,-2.205l-1.103,-2.205l-2.047,-2.047l-2.992,-1.732l-7.559,-1.733l-7.402,0.315l-4.252,1.26l-2.834,1.575l-2.048,1.89l-1.102,2.205" style="fill:none;stroke:#000;stroke-width:5.56px;"/>
                <path d="M1170.75,628.386l14.331,-398.268l9.764,-27.716l-8.504,-11.339" style="fill:none;stroke:#000;stroke-width:5.56px;"/>
                <path d="M1206.18,186.811l8.662,11.181l23.149,20.788l-52.913,11.338l-22.992,-29.764" style="fill:none;stroke:#000;stroke-width:5.56px;"/>
                <path d="M1178.15,677.362l104.881,-22.677l-6.771,190.866" style="fill:none;stroke:#000;stroke-width:5.56px;"/>
                <path d="M1194.37,1218.78l0.945,-2.205l2.047,-2.047l2.835,-1.575l3.622,-1.103l8.031,-0.472l5.827,1.417l4.725,2.205l2.047,1.89l1.26,2.362l-0,2.205" style="fill:none;stroke:#000;stroke-width:5.56px;"/>
                <path d="M1194.84,202.402l20,-4.41" style="fill:none;stroke:#000;stroke-width:5.56px;"/>
                <path d="M1283.03,654.685l29.764,-40.945l-6.929,190.866" style="fill:none;stroke:#000;stroke-width:5.56px;"/>
                <path d="M1312.8,613.74l75.276,18.268l105.039,-22.677l-6.929,190.866" style="fill:none;stroke:#000;stroke-width:5.56px;"/>
                <path d="M1361.77,952.953l-22.363,-29.922l1.418,-0.787l-0.473,-0.315" style="fill:none;stroke:#000;stroke-width:5.56px;"/>
                <path d="M1339.41,923.031l-0.787,1.418" style="fill:none;stroke:#000;stroke-width:5.56px;"/>
                <path d="M1339.72,922.717l23.15,29.921" style="fill:none;stroke:#000;stroke-width:5.56px;"/>
                <path d="M1339.09,923.661l13.701,17.638" style="fill:none;stroke:#000;stroke-width:5.56px;"/>
                <path d="M1362.87,917.992l-1.89,-0.472l-9.449,2.047" style="fill:none;stroke:#000;stroke-width:5.56px;"/>
                <path d="M1388.07,632.008l-6.772,190.866" style="fill:none;stroke:#000;stroke-width:5.56px;"/>
                <path d="M1380.67,583.031l14.331,-398.11l-22.992,-29.921" style="fill:none;stroke:#000;stroke-width:5.56px;"/>
                <path d="M1404.92,156.89l19.843,-4.252l23.149,20.787l-52.913,11.496l9.921,-28.031l-8.661,-11.181" style="fill:none;stroke:#000;stroke-width:5.56px;"/>
                <path d="M1437.2,936.575l-22.992,-29.921l-0.63,0.472l0.157,-0.472" style="fill:none;stroke:#000;stroke-width:5.56px;"/>
                <path d="M1413.58,907.126l8.976,11.654" style="fill:none;stroke:#000;stroke-width:5.56px;"/>
                <path d="M1414.21,906.654l0.944,-0.473l-0.314,-0.315" style="fill:none;stroke:#000;stroke-width:5.56px;"/>
                <path d="M1416.1,141.457l8.662,11.181" style="fill:none;stroke:#000;stroke-width:5.56px;"/>
                <path d="M1460.35,931.693l-22.992,-29.764l-2.047,-0.472l-13.543,2.992" style="fill:none;stroke:#000;stroke-width:5.56px;"/>
                <path d="M1608.86,1495.32l-0.315,-9.764l-4.882,-9.291l-8.976,-8.504l-12.441,-7.087l-15.275,-5.039l-17.008,-2.677l-17.323,-0.315l-16.851,2.205l-14.96,4.566l-12.126,6.772l-8.504,8.189l-4.095,9.291" style="fill:none;stroke:#000;stroke-width:5.56px;"/>
                <path d="M1493.11,609.331l29.607,-40.945l-6.772,190.866" style="fill:none;stroke:#000;stroke-width:5.56px;"/>
                <path d="M1522.72,568.386l75.433,18.268l104.881,-22.52l-6.771,190.866" style="fill:none;stroke:#000;stroke-width:5.56px;"/>
                <path d="M1571.69,939.567l-0.158,-2.205l-1.102,-2.205l-2.047,-2.047l-2.992,-1.575l-7.402,-1.889" style="fill:none;stroke:#000;stroke-width:5.56px;"/>
                <path d="M1591.22,777.52l6.93,-190.866" style="fill:none;stroke:#000;stroke-width:5.56px;"/>
                <path d="M1590.75,537.677l14.331,-398.11l52.913,-11.496l-23.149,-20.788l-19.843,4.41l-9.921,27.874l-22.992,-29.921" style="fill:none;stroke:#000;stroke-width:5.56px;"/>
                <path d="M1615,111.693l-8.661,-11.181" style="fill:none;stroke:#000;stroke-width:5.56px;"/>
                <path d="M1626.18,96.102l8.662,11.181" style="fill:none;stroke:#000;stroke-width:5.56px;"/>
                <path d="M1703.03,564.134l29.764,-40.945l-6.929,190.866" style="fill:none;stroke:#000;stroke-width:5.56px;"/>
                <path d="M1801.14,732.323l6.929,-190.866l-75.276,-18.268" style="fill:none;stroke:#000;stroke-width:5.56px;"/>
                <path d="M1808.07,541.457l105.039,-22.363l-6.929,190.552" style="fill:none;stroke:#000;stroke-width:5.56px;"/>
                <path d="M1792.01,64.449l22.992,29.764l-14.331,398.267" style="fill:none;stroke:#000;stroke-width:5.56px;"/>
                <path d="M1836.1,50.906l8.662,11.181l23.149,20.787l-52.913,11.339l9.921,-27.874l-8.661,-11.182" style="fill:none;stroke:#000;stroke-width:5.56px;"/>
                <path d="M1824.92,66.339l19.843,-4.252" style="fill:none;stroke:#000;stroke-width:5.56px;"/>
                <path d="M1870.75,1089.33l0,-2.362l-1.102,-2.205l-2.205,-2.047l-6.614,-2.835l-3.937,-0.63l-4.095,-0l-7.559,1.575l-2.834,1.575l-1.89,1.889l-1.103,2.205" style="fill:none;stroke:#000;stroke-width:5.56px;"/>
                <path d="M1896.1,1392.95l4.252,-9.134l8.347,-8.347l12.126,-6.614l14.96,-4.567l16.851,-2.204l17.323,0.157l17.008,2.835l15.118,5.039l12.598,7.087l8.976,8.504l4.882,9.291l0.315,9.606" style="fill:none;stroke:#000;stroke-width:5.56px;"/>
                <path d="M1884.61,1048.7l0.788,-1.89l2.204,-2.205l2.835,-1.575l3.465,-1.102l8.189,-0.472l7.559,1.889l2.992,1.575l2.047,2.048l1.102,2.204l0.158,2.205" style="fill:none;stroke:#000;stroke-width:5.56px;"/>
                <path d="M1913.11,519.094l29.607,-41.259l-6.772,190.866" style="fill:none;stroke:#000;stroke-width:5.56px;"/>
                <path d="M1942.72,477.835l75.433,18.267l-6.93,190.867" style="fill:none;stroke:#000;stroke-width:5.56px;"/>
                <path d="M2018.15,496.102l105.039,-22.519l-6.929,190.708" style="fill:none;stroke:#000;stroke-width:5.56px;"/>
                <path d="M2010.75,447.126l14.331,-398.11l-22.992,-29.922" style="fill:none;stroke:#000;stroke-width:5.56px;"/>
                <path d="M2054.84,16.732l23.149,20.788l-52.913,11.496l9.921,-28.032l19.843,-4.252l-8.662,-11.181" style="fill:none;stroke:#000;stroke-width:5.56px;"/>
                <path d="M2035,20.984l-8.661,-11.181" style="fill:none;stroke:#000;stroke-width:5.56px;"/>
                <path d="M2075.79,1148.86l-21.574,-27.874" style="fill:none;stroke:#000;stroke-width:5.56px;"/>
                <path d="M2083.66,1105.39l68.189,88.346l-4.094,48.504l21.575,27.874l38.425,-8.189" style="fill:none;stroke:#000;stroke-width:5.56px;"/>
                <path d="M2123.19,473.583l29.606,-40.945" style="fill:none;stroke:#000;stroke-width:5.56px;"/>
                <path d="M2142.4,901.457l0.629,-15.118l-7.244,-9.292" style="fill:none;stroke:#000;stroke-width:5.56px;"/>
                <path d="M2151.85,1193.74l123.622,-26.614" style="fill:none;stroke:#000;stroke-width:5.56px;"/>
                <path d="M2143.03,886.339l57.796,-12.441" style="fill:none;stroke:#000;stroke-width:5.56px;"/>
                <path d="M2164.61,727.913l-17.952,-23.307" style="fill:none;stroke:#000;stroke-width:5.56px;"/>
                <path d="M2168.07,1307.76l1.26,-37.638" style="fill:none;stroke:#000;stroke-width:5.56px;"/>
                <path d="M2178.47,948.071l0.472,-15.118l-7.244,-9.292" style="fill:none;stroke:#000;stroke-width:5.56px;"/>
                <path d="M2358.78,1089.65l3.779,-105.197l-17.953,-23.307l4.095,-112.756l-180,-233.229" style="fill:none;stroke:#000;stroke-width:5.56px;"/>
                <path d="M2178.94,932.953l57.953,-12.441" style="fill:none;stroke:#000;stroke-width:5.56px;"/>
                <path d="M2301.77,1241.61l-38.426,8.347l-5.984,-3.15l-7.086,-2.362l-7.874,-1.103l-8.032,-0.157l-7.874,1.102l-6.929,2.048l-5.512,2.992l-4.094,3.779l-2.048,4.252" style="fill:none;stroke:#000;stroke-width:5.56px;"/>
                <path d="M2214.37,994.685l0.63,-15.118l-7.244,-9.291" style="fill:none;stroke:#000;stroke-width:5.56px;"/>
                <path d="M2215,979.567l57.795,-12.441" style="fill:none;stroke:#000;stroke-width:5.56px;"/>
                <path d="M2250.43,1041.3l0.473,-14.96l-7.245,-9.449" style="fill:none;stroke:#000;stroke-width:5.56px;"/>
                <path d="M2254.84,1363.82l-1.103,-2.52" style="fill:none;stroke:#000;stroke-width:5.56px;"/>
                <path d="M2323.82,1357.99l-1.102,-0.945l-1.575,0l0.945,2.362l-31.496,5.67l0.472,3.149l-3.15,-0.315l-1.102,-0.787l0.787,-1.732l-31.496,-41.575" style="fill:none;stroke:#000;stroke-width:5.56px;"/>
                <path d="M2287.28,1365.71l-31.496,-40.945l2.52,-1.89l-0.63,-0.472" style="fill:none;stroke:#000;stroke-width:5.56px;"/>
                <path d="M2255.79,1324.76l-0.472,1.417l-0.315,-0.945" style="fill:none;stroke:#000;stroke-width:5.56px;"/>
                <path d="M2263.35,1249.96l-1.417,37.48" style="fill:none;stroke:#000;stroke-width:5.56px;"/>
                <path d="M2250.91,1026.34l57.952,-12.599" style="fill:none;stroke:#000;stroke-width:5.56px;"/>
                <path d="M2273.74,565.394l18.11,23.307" style="fill:none;stroke:#000;stroke-width:5.56px;"/>
                <path d="M2286.02,1404.45l-0.473,-1.103l2.52,0.788l0.157,-0.473l1.103,-35.433" style="fill:none;stroke:#000;stroke-width:5.56px;"/>
                <path d="M2288.07,1404.13l1.732,-0l-0.787,1.417" style="fill:none;stroke:#000;stroke-width:5.56px;"/>
                <path d="M2286.5,1403.82l2.362,-36.063" style="fill:none;stroke:#000;stroke-width:5.56px;"/>
                <path d="M2286.81,1398.62l1.102,-30.709" style="fill:none;stroke:#000;stroke-width:5.56px;"/>
                <path d="M2287.6,1365.39l2.363,-1.575l0.63,1.26" style="fill:none;stroke:#000;stroke-width:5.56px;"/>
                <path d="M2288.7,1315.79l2.205,0.315l1.417,1.103" style="fill:none;stroke:#000;stroke-width:5.56px;"/>
                <path d="M2320.35,1398.94l0.788,-1.575l1.26,-0.472l0.629,-0.945" style="fill:none;stroke:#000;stroke-width:5.56px;"/>
                <path d="M2322.4,1396.89l1.259,-35.906l0.63,-1.417" style="fill:none;stroke:#000;stroke-width:5.56px;"/>
                <path d="M2323.66,1360.98l-1.259,0.473l-0.315,-2.048" style="fill:none;stroke:#000;stroke-width:5.56px;"/>
                <path d="M2325.39,1358.15l70.393,-15.119" style="fill:none;stroke:#000;stroke-width:5.56px;"/>
                <path d="M2344.61,961.142l45.512,-9.922l17.953,23.465l-45.512,9.764" style="fill:none;stroke:#000;stroke-width:5.56px;"/>
                <path d="M2348.7,848.386l122.992,-26.457l17.953,23.307l-25.197,42.677l-53.701,11.496l-2.677,75.276" style="fill:none;stroke:#000;stroke-width:5.56px;"/>
                <path d="M2395.63,1341.93l-0.473,0.158l-31.653,-40.945l0.157,-0.473" style="fill:none;stroke:#000;stroke-width:5.56px;"/>
                <path d="M2363.5,1301.14l2.362,-1.418l-0.945,-0.472" style="fill:none;stroke:#000;stroke-width:5.56px;"/>
                <path d="M2396.58,1382.4l0.63,-1.418l-2.835,-0.315" style="fill:none;stroke:#000;stroke-width:5.56px;"/>
                <path d="M2395.47,1380.98l1.418,-35.905l-1.26,-0.315" style="fill:none;stroke:#000;stroke-width:5.56px;"/>
                <path d="M2395.16,1342.09l1.89,-1.26l0.788,0.315l0.787,3.937l-1.732,-0" style="fill:none;stroke:#000;stroke-width:5.56px;"/>
                <path d="M2398.47,1343.5l31.338,-6.772l0,1.575l1.417,-0.63l-1.259,36.063l-1.418,0.473l-0.787,1.417" style="fill:none;stroke:#000;stroke-width:5.56px;"/>
                <path d="M2388.86,1294.21l7.244,-1.733l2.363,0.473l1.259,1.102" style="fill:none;stroke:#000;stroke-width:5.56px;"/>
                <path d="M2410.75,899.409l-17.953,-23.307l-2.677,75.118" style="fill:none;stroke:#000;stroke-width:5.56px;"/>
                <path d="M2464.45,887.913l-17.953,-23.307l-53.701,11.496" style="fill:none;stroke:#000;stroke-width:5.56px;"/>
                <path d="M2430.43,1372.8l-0.472,0.945" style="fill:none;stroke:#000;stroke-width:5.56px;"/>
                <path d="M2429.8,1336.73l-1.102,-2.834l1.417,-0l1.102,0.945" style="fill:none;stroke:#000;stroke-width:5.56px;"/>
                <path d="M2431.85,1336.42l-0.63,1.26" style="fill:none;stroke:#000;stroke-width:5.56px;"/>
                <path d="M2446.5,864.606l25.197,-42.677" style="fill:none;stroke:#000;stroke-width:5.56px;"/>
                <path d="M2489.65,845.236l228.346,-49.291" style="fill:none;stroke:#000;stroke-width:5.56px;"/>
                <path d="M2592.16,1221.93l9.922,-21.732l6.299,-6.142l13.701,-13.386l28.504,-15.59l35.275,-10.866l13.543,-1.89l26.142,-3.465l41.103,0.63l40,6.457l36.063,11.968l29.606,16.536l21.26,20.157l11.338,22.205l0.788,22.677" style="fill:none;stroke:#000;stroke-width:5.56px;"/>
                <path d="M2880.2,1343.5l-4.252,117.953" style="fill:none;stroke:#000;stroke-width:5.56px;"/>
            </g>
            <g>
                <path d="M2715,879.409l258.583,335.119l13.071,25.354l0.787,25.984l-4.252,117.953l-11.339,25.039l-22.834,22.205l-32.756,17.953l-40.315,12.441l-2066.93,445.669l-45.197,6.142l-47.087,-0.788l-45.669,-7.401l-41.26,-13.701l-31.811,-17.795l-2.047,-1.103l-24.252,-22.992l-552.284,-715.748l-13.07,-25.354l-0.788,-26.142l4.252,-117.953l11.496,-24.882l22.677,-22.204l32.756,-17.953l40.315,-12.441l44.41,-9.606" style="fill:none;stroke:#000;stroke-width:11.1px;"/>
                <path d="M290.906,1057.99l-11.969,2.677l-75.591,-18.267l-45.669,-59.213l6.929,-190.866l29.607,-40.945l62.834,-13.543" style="fill:none;stroke:#000;stroke-width:11.1px;"/>
                <path d="M255.157,790.906l14.331,-398.111l24.41,-9.291l19.685,-4.252l8.819,2.047l23.149,29.921l-14.488,398.111l-52.913,11.496l-22.993,-29.921" style="fill:none;stroke:#000;stroke-width:11.1px;"/>
                <path d="M303.346,1237.52l0.158,-3.78l179.842,233.071l-0.157,3.78l7.244,9.291l123.937,-26.614l0.158,-3.78l10.866,14.016l227.244,-49.134l3.937,-105.197l-18.11,-23.307l4.094,-112.598l-179.842,-233.229l-123.15,26.457l-17.953,-23.307l-228.346,49.291l-4.567,127.717l10.866,14.016l-3.465,93.858l7.244,9.449l2.52,-0.63" style="fill:none;stroke:#000;stroke-width:11.1px;"/>
                <path d="M345.709,1091.85l-25.985,5.512l-12.598,-16.22" style="fill:none;stroke:#000;stroke-width:11.1px;"/>
                <path d="M473.583,1422.87l2.834,-75.118l12.599,16.22l0.63,-18.11l0.945,-26.929l-12.599,-16.378l1.26,-37.48l-158.268,-205.197" style="fill:none;stroke:#000;stroke-width:11.1px;"/>
                <path d="M467.126,692.48l-62.835,13.544l-29.763,40.945l-40.788,-9.922" style="fill:none;stroke:#000;stroke-width:11.1px;"/>
                <path d="M472.323,754.843l-7.087,-9.134l14.331,-398.268l24.252,-9.291l19.842,-4.252l8.819,2.204l22.992,29.764l-14.33,398.268l-52.914,11.338l-15.905,-20.629" style="fill:none;stroke:#000;stroke-width:11.1px;"/>
                <path d="M476.417,1347.76l13.229,-2.992" style="fill:none;stroke:#000;stroke-width:11.1px;"/>
                <path d="M490.433,1479.88l3.307,-93.858l10.866,14.015l41.26,-8.976" style="fill:none;stroke:#000;stroke-width:11.1px;"/>
                <path d="M626.811,1422.09l-82.677,17.795l-10.709,-13.858l1.103,-32.441" style="fill:none;stroke:#000;stroke-width:11.1px;"/>
                <path d="M623.504,948.543l6.772,-187.559l-45.67,-59.212l-40.945,-9.922" style="fill:none;stroke:#000;stroke-width:11.1px;"/>
                <path d="M921.457,1677.52l-9.922,21.889l-20,19.371l-28.661,15.748l-35.276,10.708l-21.259,2.992l-18.268,2.363l-41.26,-0.63l-40,-6.457l-35.905,-11.969l-29.764,-16.535l-21.103,-20.157l-11.496,-22.048l-0.63,-22.834" style="fill:none;stroke:#000;stroke-width:11.1px;"/>
                <path d="M614.528,1449.49l0.944,-24.882" style="fill:none;stroke:#000;stroke-width:11.1px;"/>
                <path d="M2066.18,363.504l40.945,9.921l45.669,59.213l-6.929,190.708l-29.606,40.945l-105.04,22.678l-75.275,-18.268l-29.764,40.945l-105.039,22.677l-75.276,-18.268l-29.606,40.945l-105.04,22.52l-75.275,-18.268l-29.764,40.945l-105.039,22.677l-75.276,-18.268l-29.606,40.945l-105.04,22.677l-75.275,-18.425l-29.764,40.945l-104.882,22.677l-75.433,-18.268l-45.669,-59.212l3.779,-105.827l-214.33,46.142" style="fill:none;stroke:#000;stroke-width:11.1px;"/>
                <path d="M648.071,1718.78l14.016,-7.874l35.433,-10.867l39.527,-5.354l41.103,0.63l40,6.614l36.063,11.969l22.992,12.756" style="fill:none;stroke:#000;stroke-width:11.1px;"/>
                <path d="M760.039,1255.47l-22.519,-32.441l-17.953,-23.307" style="fill:none;stroke:#000;stroke-width:11.1px;"/>
                <path d="M811.063,1319.09l2.677,-75.275l-17.953,-23.307" style="fill:none;stroke:#000;stroke-width:11.1px;"/>
                <path d="M856.102,1320.35l4.41,5.827l-0,2.047l-0.473,12.914l-4.724,0.945" style="fill:none;stroke:#000;stroke-width:11.1px;"/>
                <path d="M843.976,730.118l3.15,-85.039l29.606,-40.945l62.835,-13.543" style="fill:none;stroke:#000;stroke-width:11.1px;"/>
                <path d="M926.496,1030.91l2.992,4.094l-3.622,-5.354l19.843,25.826l0.945,-26.299l-19.843,-25.984l-0.63,16.22" style="fill:none;stroke:#000;stroke-width:11.1px;"/>
                <path d="M929.488,1035l17.166,21.89l1.417,0.315l16.535,-3.622l-10.078,2.204" style="fill:none;stroke:#000;stroke-width:11.1px;"/>
                <path d="M925.866,1029.65l0.788,-26.929l-0.158,4.094" style="fill:none;stroke:#000;stroke-width:11.1px;"/>
                <path d="M926.496,1008.07l-0.157,3.622l0.315,-8.976l1.259,-1.89l22.048,-4.567l0.787,0.315l11.496,15.118l-11.496,-15.118l0,-1.26l21.575,27.716l-0.945,29.922l-1.102,-1.26l0.315,-4.882l-0,4.409" style="fill:none;stroke:#000;stroke-width:11.1px;"/>
                <path d="M929.488,1001.77l-0.63,-0.788l20.945,-4.409l19.685,25.669l-20.787,4.567l-19.213,-25.039" style="fill:none;stroke:#000;stroke-width:11.1px;"/>
                <path d="M946.024,1056.26l-7.402,-9.449" style="fill:none;stroke:#000;stroke-width:11.1px;"/>
                <path d="M937.677,642.244l0,1.575l22.992,29.764l52.914,-11.339l14.488,-398.268l-23.15,-29.763l-8.819,-2.205l-19.842,4.252l-24.252,9.291l-14.331,396.693" style="fill:none;stroke:#000;stroke-width:11.1px;"/>
                <path d="M991.378,1092.32l-0.945,2.205l-2.047,2.047l-2.835,1.575l-3.464,0.944l-8.189,0.473l-7.559,-1.732l-2.993,-1.733l-2.047,-2.047l-1.102,-2.205l-0.158,-2.204" style="fill:none;stroke:#000;stroke-width:11.1px;"/>
                <path d="M970.276,1051.69l-1.26,0.945l-20.945,4.567" style="fill:none;stroke:#000;stroke-width:11.1px;"/>
                <path d="M948.543,1056.1l16.063,-3.464l-16.063,3.464l0.945,-26.299l20.788,-4.567l-0.945,26.457l-4.725,0.945" style="fill:none;stroke:#000;stroke-width:11.1px;"/>
                <path d="M964.606,1014.69l6.3,7.874l-19.528,-25.512" style="fill:none;stroke:#000;stroke-width:11.1px;"/>
                <path d="M962.244,1011.69l8.976,11.181l-0.314,-0.315" style="fill:none;stroke:#000;stroke-width:11.1px;"/>
                <path d="M950.748,995.315l41.417,-9.291l1.103,1.574l1.26,-1.102l22.047,-4.409l21.102,26.771l-0.945,28.189" style="fill:none;stroke:#000;stroke-width:11.1px;"/>
                <path d="M970.591,1046.81l1.102,-23.15l-0.473,-0.787" style="fill:none;stroke:#000;stroke-width:11.1px;"/>
                <path d="M971.378,1052.95l41.26,-8.819l-0,-1.26l4.724,-0.63l-3.149,0.63" style="fill:none;stroke:#000;stroke-width:11.1px;"/>
                <path d="M971.535,1024.61l-0.157,4.567" style="fill:none;stroke:#000;stroke-width:11.1px;"/>
                <path d="M1012.64,1042.87l1.102,-28.819l-20.472,-26.457" style="fill:none;stroke:#000;stroke-width:11.1px;"/>
                <path d="M995,986.811l19.843,25.669l20.787,-4.409l-19.843,-25.827l-20.787,4.567" style="fill:none;stroke:#000;stroke-width:11.1px;"/>
                <path d="M1015.16,1029.17l-0.472,12.756l20.787,-4.567l1.103,-26.456l-20.945,4.566l-0.473,13.701" style="fill:none;stroke:#000;stroke-width:11.1px;"/>
                <path d="M1149.65,545.236l-62.992,13.701l-29.607,40.945l-40.787,-9.921" style="fill:none;stroke:#000;stroke-width:11.1px;"/>
                <path d="M1055.32,1175.32l-0.945,2.205l-1.89,1.889l-2.992,1.575l-7.401,1.575l-4.095,0l-7.716,-1.89l-2.835,-1.575l-2.205,-2.047l-1.102,-2.204l-0.158,-2.363" style="fill:none;stroke:#000;stroke-width:11.1px;"/>
                <path d="M1036.58,1037.36l-1.575,1.103l-17.638,3.779" style="fill:none;stroke:#000;stroke-width:11.1px;"/>
                <path d="M1037.36,1008.54l-2.362,-2.992" style="fill:none;stroke:#000;stroke-width:11.1px;"/>
                <path d="M1101.46,1122.56l-0.945,3.465l-2.047,2.047l-2.835,1.575l-3.465,1.102l-8.189,0.472l-7.559,-1.889l-2.992,-1.733l-2.047,-1.889l-1.102,-2.363l-0.158,-2.204" style="fill:none;stroke:#000;stroke-width:11.1px;"/>
                <path d="M1114.37,1194.53l0.158,2.204l1.102,2.205l2.205,2.047l2.834,1.733l7.717,1.732l4.094,0.157l7.402,-1.732l2.992,-1.575l1.89,-1.89l1.102,-2.204" style="fill:none;stroke:#000;stroke-width:11.1px;"/>
                <path d="M1147.6,598.465l23.15,29.921l52.913,-11.496l14.331,-398.11l-22.992,-29.922l-8.819,-2.047l-19.842,4.252l-24.252,9.291l-14.489,398.111" style="fill:none;stroke:#000;stroke-width:11.1px;"/>
                <path d="M1225.71,1221.46l-0.945,2.204l-2.047,1.89l-2.835,1.575l-7.559,1.575l-4.095,-0l-7.559,-1.89l-2.992,-1.575l-2.047,-2.047l-1.102,-2.205l-0.158,-2.204" style="fill:none;stroke:#000;stroke-width:11.1px;"/>
                <path d="M1226.18,544.606l40.945,9.922l29.606,-40.945l62.835,-13.544" style="fill:none;stroke:#000;stroke-width:11.1px;"/>
                <path d="M1363.98,952.323l-23.307,-30.079l20.63,-4.724l-21.102,4.409l-1.417,0.945l-1.418,35.276" style="fill:none;stroke:#000;stroke-width:11.1px;"/>
                <path d="M1337.84,941.299l0.787,-16.85l22.205,28.661" style="fill:none;stroke:#000;stroke-width:11.1px;"/>
                <path d="M1351.54,919.882l10.237,-1.89l23.149,29.921" style="fill:none;stroke:#000;stroke-width:11.1px;"/>
                <path d="M1385.71,947.756l-22.363,-29.449l-2.047,-0.787" style="fill:none;stroke:#000;stroke-width:11.1px;"/>
                <path d="M1362.87,918.15l17.795,23.149" style="fill:none;stroke:#000;stroke-width:11.1px;"/>
                <path d="M1362.56,917.677l0.158,-1.417l24.094,31.181l-4.724,-6.142" style="fill:none;stroke:#000;stroke-width:11.1px;"/>
                <path d="M1362.72,916.26l49.606,-10.866l0.945,1.417l1.417,-0.945l20.945,-4.567l0.315,0.315l-20.788,4.567l23.308,30.236" style="fill:none;stroke:#000;stroke-width:11.1px;"/>
                <path d="M1358.46,554.213l22.204,28.818l52.914,-11.338l14.33,-398.268l-22.992,-29.764l-8.819,-2.204l-19.842,4.252l-24.252,9.291l-14.331,398.268l0.788,0.945" style="fill:none;stroke:#000;stroke-width:11.1px;"/>
                <path d="M1413.27,906.811l23.149,29.921" style="fill:none;stroke:#000;stroke-width:11.1px;"/>
                <path d="M1453.9,923.661l5.826,7.402l-22.047,-28.976l-1.26,-0.788l-0.472,0.315l23.307,30.236" style="fill:none;stroke:#000;stroke-width:11.1px;"/>
                <path d="M1437.2,902.087l3.149,3.937" style="fill:none;stroke:#000;stroke-width:11.1px;"/>
                <path d="M1569.65,454.685l-62.835,13.543l-29.764,40.945l-40.787,-9.921" style="fill:none;stroke:#000;stroke-width:11.1px;"/>
                <path d="M1459.72,931.063l0.315,0.63" style="fill:none;stroke:#000;stroke-width:11.1px;"/>
                <path d="M1608.86,1495.32l-4.252,9.134l-8.346,8.346l-12.126,6.614l-14.961,4.567l-16.85,2.205l-17.48,-0.157l-16.851,-2.835l-15.275,-5.039l-12.599,-7.087l-8.976,-8.346l-4.725,-9.449l-0.315,-9.607" style="fill:none;stroke:#000;stroke-width:11.1px;"/>
                <path d="M1568.86,943.661l1.733,-1.889l1.102,-2.205" style="fill:none;stroke:#000;stroke-width:11.1px;"/>
                <path d="M1576.26,519.094l-8.662,-11.181l14.489,-398.267l24.252,-9.134l19.842,-4.41l8.819,2.205l22.992,29.764l-14.331,398.268l-52.913,11.338l-14.488,-18.583" style="fill:none;stroke:#000;stroke-width:11.1px;"/>
                <path d="M1646.18,454.055l40.945,9.921l29.606,-40.945l62.835,-13.543" style="fill:none;stroke:#000;stroke-width:11.1px;"/>
                <path d="M1780.51,466.339l20.157,26.141l52.914,-11.496l14.33,-398.11l-22.992,-29.921l-8.819,-2.047l-19.842,4.251l-24.252,9.292l-14.331,398.11l2.835,3.78" style="fill:none;stroke:#000;stroke-width:11.1px;"/>
                <path d="M1870.75,1089.33l-0.945,2.047l-2.047,2.047l-2.835,1.575l-7.401,1.575l-4.095,-0l-7.716,-1.89l-2.992,-1.732l-2.048,-1.89l-1.102,-2.362l-0.158,-2.205" style="fill:none;stroke:#000;stroke-width:11.1px;"/>
                <path d="M1989.65,364.134l-62.992,13.543l-29.607,40.945l-40.787,-9.921" style="fill:none;stroke:#000;stroke-width:11.1px;"/>
                <path d="M2028.86,1404.61l-4.252,9.292l-8.346,8.346l-12.126,6.614l-14.961,4.567l-16.85,2.205l-17.48,-0.315l-16.851,-2.677l-15.275,-5.04l-12.599,-7.086l-8.976,-8.504l-4.567,-8.977l-0.473,-10.078" style="fill:none;stroke:#000;stroke-width:11.1px;"/>
                <path d="M1915.94,1051.38l-1.102,2.205l-1.89,2.047l-2.835,1.575l-7.559,1.575l-4.094,-0l-7.559,-1.89l-2.993,-1.733l-2.204,-1.889l-1.103,-2.362l0,-2.205" style="fill:none;stroke:#000;stroke-width:11.1px;"/>
                <path d="M2002.09,435.945l-14.489,-18.583l14.489,-398.268l24.252,-9.291l19.842,-4.252l8.662,2.205l23.149,29.764l-14.331,398.267l-52.913,11.339l-8.661,-11.181" style="fill:none;stroke:#000;stroke-width:11.1px;"/>
                <path d="M2073.58,1181.3l-2.677,0.473l-17.953,-23.307l1.26,-37.481l27.716,-5.984" style="fill:none;stroke:#000;stroke-width:11.1px;"/>
                <path d="M2070.91,1181.77l0.157,-3.78l79.213,102.677l-0.158,3.78l17.953,23.307l38.425,-8.347l0,-0.472" style="fill:none;stroke:#000;stroke-width:11.1px;"/>
                <path d="M2089.96,1167.28l-14.016,-18.425l7.716,-43.464l123.622,-26.772l68.189,88.504l4.567,46.614l-132.283,28.504l-57.795,-74.961" style="fill:none;stroke:#000;stroke-width:11.1px;"/>
                <path d="M2140.2,898.465l-5.04,-6.457l0.63,-14.961l57.796,-12.441l7.244,9.292l-0.315,10.551l3.149,4.094l-61.259,12.914l-2.205,-2.992" style="fill:none;stroke:#000;stroke-width:11.1px;"/>
                <path d="M2186.34,866.181l-43.465,-56.378l3.78,-105.197l19.055,-4.094" style="fill:none;stroke:#000;stroke-width:11.1px;"/>
                <path d="M2152.16,447.913l31.811,-6.771l45.197,-6.142l47.087,0.787l45.669,7.402l41.26,13.701l33.858,18.897l24.252,22.835l23.15,29.921" style="fill:none;stroke:#000;stroke-width:11.1px;"/>
                <path d="M2239.41,934.843l-61.102,13.228l-7.087,-9.291l0.473,-15.119l57.953,-12.441l7.244,9.292l-0.473,10.551l21.89,28.346" style="fill:none;stroke:#000;stroke-width:11.1px;"/>
                <path d="M2291.85,588.701l-123.149,26.456l-4.095,112.756" style="fill:none;stroke:#000;stroke-width:11.1px;"/>
                <path d="M2206.65,1294.84l2.047,-4.095l3.937,-3.779l5.669,-2.993l6.929,-2.204l7.717,-0.945l8.031,-0l7.874,1.26l7.087,2.204l5.984,3.15l38.425,-8.189l1.418,-37.638l-21.733,-27.874" style="fill:none;stroke:#000;stroke-width:11.1px;"/>
                <path d="M2207.91,1257.36l-1.417,42.047" style="fill:none;stroke:#000;stroke-width:11.1px;"/>
                <path d="M2294.37,1006.02l-21.89,-28.347l0.315,-10.551l-6.929,-8.976l-58.11,12.126l-0.63,15.118l7.244,9.291l60.945,-13.228" style="fill:none;stroke:#000;stroke-width:11.1px;"/>
                <path d="M2203.66,888.543l18.741,24.252" style="fill:none;stroke:#000;stroke-width:11.1px;"/>
                <path d="M2255.47,596.575l18.268,-31.181l228.347,-49.292l215.905,279.843l-4.567,127.716l-41.417,8.977l-1.732,48.819l-82.678,17.795l-1.417,41.26l-227.401,49.134l-50.394,-65.355l0.472,-10.551l-7.244,-9.291l-57.953,12.441l-0.472,15.118l7.087,9.291l61.102,-13.228" style="fill:none;stroke:#000;stroke-width:11.1px;"/>
                <path d="M2323.03,1396.1l0.315,-15.118l-0.315,15.118l-1.259,2.205l-32.599,7.244l-2.677,-0.63l-32.598,-42.519l0.315,-16.536l-0.315,16.536l31.653,40.629l1.26,-35.905l-31.496,-40.945l-1.575,35.433" style="fill:none;stroke:#000;stroke-width:11.1px;"/>
                <path d="M2262.56,1328.23l27.402,35.591l31.181,-6.772l-31.654,-40.945l-31.181,6.772l4.252,5.354" style="fill:none;stroke:#000;stroke-width:11.1px;"/>
                <path d="M2430.12,1333.9l-32.283,-41.418l-33.859,7.244l-0.787,1.103l32.598,42.204l-1.574,41.26l-70.237,15.118l1.418,-41.259l-34.174,-44.41l-0.157,2.205l1.102,1.102l-1.574,-1.26l-1.733,-0.157l-31.496,6.772l-1.26,0.787l-0.945,1.26l-0.314,3.779l0.157,-2.519" style="fill:none;stroke:#000;stroke-width:11.1px;"/>
                <path d="M2289.96,1398.62l-0.158,5.512l31.339,-6.772l1.26,-35.905l-31.339,6.929l-1.102,30.236" style="fill:none;stroke:#000;stroke-width:11.1px;"/>
                <path d="M2292.16,1317.05l8.504,11.181l-8.819,-11.496" style="fill:none;stroke:#000;stroke-width:11.1px;"/>
                <path d="M2300.67,1328.23l17.953,23.15l-17.638,-22.677" style="fill:none;stroke:#000;stroke-width:11.1px;"/>
                <path d="M2291.22,1313.74l70.394,-15.118l1.575,2.205" style="fill:none;stroke:#000;stroke-width:11.1px;"/>
                <path d="M2314.05,1345.87l8.662,11.181" style="fill:none;stroke:#000;stroke-width:11.1px;"/>
                <path d="M2323.98,1399.41l-1.574,-1.732" style="fill:none;stroke:#000;stroke-width:11.1px;"/>
                <path d="M2322.72,1397.05l1.574,-37.795l-5.669,-7.874l4.567,5.984" style="fill:none;stroke:#000;stroke-width:11.1px;"/>
                <path d="M2323.98,1363.5l0.315,-4.252" style="fill:none;stroke:#000;stroke-width:11.1px;"/>
                <path d="M2371.38,1298.46l-5.512,1.259l31.496,40.945l31.339,-6.771l-31.496,-40.788l-25.827,5.355" style="fill:none;stroke:#000;stroke-width:11.1px;"/>
                <path d="M2430.28,1373.9l0.315,-10.394l-0.315,10.394l-1.733,1.574l-31.968,6.93l-2.205,-0.315" style="fill:none;stroke:#000;stroke-width:11.1px;"/>
                <path d="M2397.36,1380.98l1.26,-35.905l31.181,-6.772l-1.26,35.906l-31.181,6.771" style="fill:none;stroke:#000;stroke-width:11.1px;"/>
                <path d="M2398.62,1293.11l1.102,0.945l-0.63,-0.787" style="fill:none;stroke:#000;stroke-width:11.1px;"/>
                <path d="M2399.72,1294.06l6.772,8.819l-6.772,-8.819" style="fill:none;stroke:#000;stroke-width:11.1px;"/>
                <path d="M2406.5,1302.87l25.039,32.441l-1.102,37.638" style="fill:none;stroke:#000;stroke-width:11.1px;"/>
                <path d="M2431.69,1336.1l-0.473,9.764l0.473,-8.976" style="fill:none;stroke:#000;stroke-width:11.1px;"/>
                <path d="M2430.75,1334.21l-4.567,-5.985" style="fill:none;stroke:#000;stroke-width:11.1px;"/>
                <path d="M2905.71,1249.49l-9.922,21.89l-20,19.528l-28.661,15.59l-35.276,10.866l-39.527,5.355l-41.26,-0.63l-40,-6.615l-35.906,-11.811l-29.763,-16.692l-21.103,-20l-11.496,-22.205l-0.63,-22.835" style="fill:none;stroke:#000;stroke-width:11.1px;"/>
                <path d="M2586.5,1027.91l112.756,-24.252l2.835,-77.48" style="fill:none;stroke:#000;stroke-width:11.1px;"/>
                <path d="M2632.16,1290.75l14.174,-7.717l35.275,-10.866l39.685,-5.354l41.103,0.63l40,6.457l36.063,11.968l22.992,12.914" style="fill:none;stroke:#000;stroke-width:11.1px;"/>
            </g>
        </g>
    </g>
</svg>
