<?xml version="1.0" encoding="UTF-8" standalone="no"?>
<!DOCTYPE svg PUBLIC "-//W3C//DTD SVG 1.1//EN" "http://www.w3.org/Graphics/SVG/1.1/DTD/svg11.dtd">
<svg width="100%" height="100%" viewBox="0 0 2791 1627" version="1.1" xmlns="http://www.w3.org/2000/svg" xmlns:xlink="http://www.w3.org/1999/xlink" xml:space="preserve" xmlns:serif="http://www.serif.com/" style="fill-rule:evenodd;clip-rule:evenodd;stroke-linecap:round;stroke-linejoin:round;">
    <g>
        <path d="M1080.04,22.087l9.292,6.929l-136.851,79.685l-2.047,50.551l-43.307,23.937l34.803,21.417l8.189,-1.26l1.575,45.985l138.74,80.315l5.512,-1.733l42.362,-23.779l4.252,14.803l33.858,21.102l7.087,0l29.449,-18.897l-10.394,-7.559l-10.394,-5.355l-5.511,-12.598l-3.465,-19.213l58.425,-31.338l2.362,11.496l2.993,4.882l31.023,18.582l9.764,0l25.984,-16.063l0.945,-2.834l-20.945,-12.756l-5.354,-15.433l-3.622,-14.331l11.653,-8.189l1.26,-61.732l3.622,0.787l230.079,132.756l-139.685,80.787l-1.417,51.182l-3.622,0.787l-37.166,20.945l1.89,4.409l28.031,16.693l9.764,-0.157l1.26,-0.788l2.205,47.559l135.275,78.426l6.93,-0l43.307,-24.725l4.252,14.331l5.354,5.039l25.984,15.748l12.441,0l26.142,-16.22l0.472,-2.205l-20.63,-13.228l-5.511,-10.079l-3.623,-19.37l57.481,-33.858l3.464,14.173l2.993,4.882l33.7,18.582l7.717,-1.889l26.299,-16.063l0,-2.835l-18.583,-10.551l-5.354,-5.039l-5.984,-27.087l11.811,-5.984l0.945,-64.41l218.267,127.087l-138.74,80.315l-2.204,50.393l-39.686,22.678l0,3.937l28.662,16.063l10.866,1.574l2.362,45.04l135.276,78.425l9.764,0l41.259,-24.567l3.465,11.496l5.197,7.874l31.496,18.268l7.716,-1.89l26.3,-16.063l0.157,-2.835l-23.779,-16.063l-5.985,-26.929l28.347,-14.96l30.079,-16.221l4.881,16.536l31.497,18.11l9.448,0.472l29.607,-18.897l-20.945,-12.756l-5.512,-7.559l-4.095,-23.78l8.662,-5.039l2.205,-65.984l234.015,135.905l-139.842,81.102l-1.575,51.182l-3.622,0.787l-37.008,20.945l1.732,4.409l30.867,16.693l6.929,-0.157l1.26,-0.788l1.417,45.67l138.74,80.315l7.717,-2.048l40.314,-23.149l6.772,16.85l31.024,18.583l9.764,0.157l26.141,-16.063l0.945,-2.834l-20.945,-12.914l-5.354,-15.275l-3.78,-14.331l58.741,-33.228l4.094,17.008l34.646,20.314l7.716,-2.047l26.299,-15.905l0.473,-3.15l-21.26,-13.228l-2.992,-4.725l-4.409,-24.094l10.078,-6.299l1.103,-64.41l181.259,104.725l-1.259,104.409l-879.843,507.874l-715.59,0l-267.874,-154.016l-2.363,-3.307l9.134,-6.929l109.292,-62.52l3.937,-0.944l67.559,40l4.094,0.472l178.268,-103.465l1.26,-22.834l6.141,0.945l12.284,-0l15.748,-2.52l13.858,-9.449l1.26,-2.047l4.094,-3.15l0,-9.134l-4.094,-5.826l-1.26,-64.252l-4.882,-10.709l-21.26,-15.433l-23.307,-13.071l-14.173,0l-21.732,10.551l-60.315,-34.645l-0.158,-25.355l-10.551,-12.913l-38.897,-20.945l-11.497,0.158l-7.716,2.677l-14.173,9.291l-57.638,-32.756l-2.52,-3.464l-0.157,-22.835l-7.874,-12.913l-41.575,-23.465l-14.173,-0l-10.237,5.354l-9.291,6.929l-59.37,-34.33l-3.465,-27.402l-10.393,-12.913l-39.055,-20.945l-11.339,-0l-22.047,12.126l-57.48,-32.914l-2.678,-3.307l0,-25.354l-8.031,-10.236l-41.575,-23.622l-11.339,-0l-7.874,2.677l-14.33,9.606l-59.528,-34.33l-0.63,-22.205l-4.882,-10.709l-13.543,-9.921l-25.984,-15.748l-7.717,-2.677l-11.496,-0l-21.575,12.598l-71.181,-41.417l-3.464,-0l-176.063,102.677l-1.733,83.779l-104.251,59.843l1.732,-448.346l885.512,-511.182l17.952,10.552Z" style="fill:#005db8;"/>
        <path d="M531.535,766.181l35.906,60.63l3.779,-0.157l31.497,-18.583l3.464,-0l11.181,6.772l59.528,34.33l7.401,13.858l28.819,47.875l32.756,-19.528l14.173,4.724l2.678,3.307l57.48,32.914l33.386,58.268l9.763,0.315l25.827,-16.221l5.984,0l11.339,6.772l59.37,34.33l33.701,60.945l3.779,-0.157l31.654,-18.583l14.173,4.725l2.52,3.464l57.638,32.756l36.063,61.89l32.756,-19.528l6.141,0l8.032,4.725l60.315,34.645l35.905,62.362l1.418,61.733l-1.26,22.834l-178.268,103.465l-4.094,-0.472l-67.559,-40l9.291,-6.772l42.677,-24.882l0,-40.472l-10.551,-7.559l-23.622,-13.386l-5.984,0.157l-37.953,22.205l-48.819,27.244l-70.551,-40.315l50.551,-29.764l0.945,-44.252l-31.339,-18.582l-5.984,-0l-89.449,51.023l-8.661,-6.456l-59.528,-34.804l51.969,-31.811l-0.315,-42.677l-33.859,-18.582l-3.464,-0l-89.291,51.023l-68.347,-41.26l9.291,-6.771l42.678,-25.04l0.157,-40.472l-34.173,-20.788l-5.984,0l-37.953,22.205l-48.977,27.402l-47.401,-26.142l-22.992,-14.173l51.653,-31.339l-0.315,-42.677l-31.338,-18.583l-5.985,0l-89.448,51.024l-68.189,-41.26l51.968,-31.811l0,-40.315l-10.551,-7.716l-23.465,-13.229l-3.464,0l-52.914,30.236l1.733,-83.779l176.063,-102.677l3.464,-0l71.181,41.417Z" style="fill:#0a0a0a;"/>
        <path d="M1074.84,331.693l8.976,6.614l-29.764,17.795l-1.732,26.457l-14.803,-8.189l0.945,-28.661l31.496,-16.378l4.882,2.362Z" style="fill:#bfbfbf;"/>
        <path d="M2143.5,950.118l-29.606,17.953l-1.733,26.299l-14.803,-8.189l0.788,-28.504l31.653,-16.535l13.701,8.976Z" style="fill:#bfbfbf;"/>
        <path d="M1311.85,1183.19l21.26,15.433l4.882,10.709l1.26,64.252l-0,18.11l-1.26,2.047l-13.858,9.449l-15.748,2.52l-12.284,-0l-6.141,-0.945l-1.418,-61.733l-35.905,-62.362l21.732,-10.551l14.173,0l23.307,13.071Z" style="fill:#bfbfbf;"/>
        <path d="M869.803,213.268l-31.811,17.952l-1.732,26.3l-26.772,-14.174l-2.519,-3.464l1.574,-25.197l30.237,-18.583l31.023,17.166Z" style="fill:#0a0a0a;"/>
        <path d="M1108.86,349.961l3.78,4.567l-30.709,19.055l-1.102,24.724l-6.142,-1.102l-22.362,-14.646l1.732,-26.457l29.764,-17.795l6.772,1.26l18.267,10.394Z" style="fill:#0a0a0a;"/>
        <path d="M1307.91,466.496l-0.944,1.575l-29.764,17.48l-0.788,26.929l-29.134,-17.637l2.048,-26.772l29.763,-17.795l4.252,1.259l24.567,14.961Z" style="fill:#0a0a0a;"/>
        <path d="M1554.68,609.016l-31.968,17.953l-1.733,26.299l-26.614,-14.174l-2.677,-3.307l1.575,-25.196l30.551,-18.898l4.252,0.472l26.614,16.851Z" style="fill:#0a0a0a;"/>
        <path d="M1731.22,709.331l3.15,3.937l-31.968,17.795l-1.418,26.142l-21.732,-11.654l-7.559,-5.984l1.26,-24.882l30.866,-19.213l27.401,13.859Z" style="fill:#0a0a0a;"/>
        <path d="M1439.41,753.74l21.89,14.016l-51.338,30.236l-0.945,34.961l-45.197,-24.41l-5.039,-5.984l1.732,-33.228l51.338,-30.079l6.93,1.26l20.629,13.228Z" style="fill:#0a0a0a;"/>
        <path d="M1979.25,854.055l-32.913,19.37l-0.945,24.725l-26.614,-14.331l-2.52,-3.307l2.362,-24.41l31.969,-18.11l28.661,16.063Z" style="fill:#0a0a0a;"/>
        <path d="M2168.54,961.772l3.78,4.567l-0.945,1.732l-29.764,17.323l-0.945,24.724l-6.141,-0.945l-22.363,-14.803l1.733,-26.299l29.606,-17.953l6.929,1.417l18.11,10.237Z" style="fill:#0a0a0a;"/>
        <path d="M2411.38,1103.98l-31.969,20.315l-1.732,23.78l-26.614,-14.331l-2.677,-3.307l2.362,-24.409l31.969,-19.213l2.047,0.315l26.614,16.85Z" style="fill:#0a0a0a;"/>
        <path d="M1132.64,399.409l-0,6.3l-6.299,4.409l-12.599,0l-7.086,-6.142l15.905,-8.661l7.244,1.417l2.835,2.677Z" style="fill:#fbd3aa;"/>
        <path d="M874.37,532.323l31.339,7.716l28.661,13.071l25.669,18.583l13.386,17.953l5.197,20.945l-5.354,24.094l-10.394,15.591l-16.85,13.858l-24.725,-14.646l-41.732,-12.913l-18.268,-2.677l-52.913,-0l-49.449,10.393l-23.307,10.394l-11.811,9.449l-13.228,-9.606l-16.063,-20.473l-2.363,-13.228l-0.157,-17.481l5.354,-15.433l14.803,-19.055l25.985,-18.267l36.535,-12.914l20.787,-5.354l47.717,-2.52l31.181,2.52Z" style="fill:#fbd3aa;"/>
        <path d="M1572.64,654.843l-0.315,5.826l-3.15,2.205l-20.472,-0.315l-1.89,-5.512l16.063,-8.976l4.095,1.26l5.669,5.512Z" style="fill:#fbd3aa;"/>
        <path d="M1572.64,795.315l-0.315,5.984l-3.15,2.205l-20.315,-0.315l-2.834,-2.835l-0,-6.614l9.763,-3.779l8.662,-0l8.189,5.354Z" style="fill:#fbd3aa;"/>
        <path d="M1993.9,896.89l5.511,6.299l-8.661,6.929l-9.764,0l-7.874,-2.992l-2.047,-3.15l18.268,-10.393l4.567,3.307Z" style="fill:#fbd3aa;"/>
        <path d="M1809.17,1063.5l25.984,10.394l31.654,20.472l13.071,18.268l7.244,23.622l-5.039,21.89l-12.756,18.425l-15.118,11.338l-26.772,-14.96l-34.016,-10.394l-38.897,-5.354l-50.394,2.677l-23.307,5.197l-28.662,10.393l-21.889,12.441l-13.701,-9.921l-12.914,-18.268l-2.834,-12.913l-0,-20l4.409,-13.858l12.914,-18.268l29.448,-20l36.536,-13.071l27.874,-5.827l60.63,0l36.535,7.717Z" style="fill:#fbd3aa;"/>
        <path d="M2444.92,1149.33l-1.102,8.031l-10.551,2.677l-12.284,-2.992l-3.307,-5.039l1.732,-5.984l14.489,-2.048l11.023,5.355Z" style="fill:#fbd3aa;"/>
        <path d="M1343.35,1279.41l0,9.134l-4.094,3.15l-0,-18.11l4.094,5.826Z" style="fill:#fbd3aa;"/>
        <path d="M1296.26,100.039l1.417,48.662l-1.26,61.732l-11.653,8.189l-6.772,-22.205l-10.079,-10.866l-6.299,-2.52l-30.394,16.851l0,14.646l2.52,2.677l7.874,27.874l-58.425,31.338l-9.134,-25.511l-10.709,-7.875l-5.984,0l-31.181,18.583l0,11.181l3.307,1.89l5.355,7.559l3.464,21.89l-42.362,23.779l-5.512,1.733l-138.74,-80.315l-1.575,-45.985l0.315,-44.094l2.047,-50.551l136.851,-79.685l43.149,-22.677l163.78,93.7Z" style="fill:#4c4c4c;"/>
        <path d="M1736.58,355l0.945,46.299l-0.945,64.41l-11.811,5.984l-6.299,-20.473l-8.189,-10.078l-5.197,-2.835l-6.142,0l-27.717,16.693l0.158,14.803l2.362,2.677l6.772,25.04l-57.481,33.858l-6.456,-19.843l-7.559,-10.708l-7.874,-4.882l-34.173,19.055l0.157,12.126l7.874,10.236l3.15,20l-43.307,24.725l-6.93,-0l-135.275,-78.426l-2.205,-47.559l-0.157,-41.889l1.417,-51.182l139.685,-80.787l37.48,-20.945l5.985,0l161.732,93.701Z" style="fill:#4c4c4c;"/>
        <path d="M2160.98,599.724l1.103,46.3l-2.205,65.984l-8.662,5.039l-8.661,-23.307l-13.071,-10.709l-3.464,0.158l-30.394,16.693l-0,14.646l5.354,5.196l5.355,25.197l-30.079,16.221l-28.347,14.96l-6.929,-22.519l-13.071,-10.552l-6.141,0l-27.717,16.693l0,14.804l5.354,5.039l3.937,22.677l-41.259,24.567l-9.764,0l-135.276,-78.425l-2.362,-45.04l0.158,-44.252l2.204,-50.393l138.74,-80.315l40,-22.362l3.465,-0l161.732,93.7Z" style="fill:#4c4c4c;"/>
        <path d="M2590.28,847.441l10.708,7.559l1.103,46.299l-1.103,64.41l-10.078,6.299l-8.347,-23.15l-10.394,-10.551l-8.819,0l-27.716,16.693l-0.63,12.913l5.984,7.087l5.355,22.835l-58.741,33.228l-6.614,-22.362l-10.393,-10.394l-5.04,-2.52l-31.496,16.536l0.158,14.646l5.196,7.874l3.622,22.047l-40.314,23.149l-7.717,2.048l-138.74,-80.315l-1.417,-45.67l-0.158,-41.889l1.575,-51.182l139.842,-81.102l37.008,-20.63l8.819,0l148.347,86.142Z" style="fill:#4c4c4c;"/>
        <path d="M838.78,196.102l-30.237,18.583l-1.574,25.197l-16.693,-8.819l0.787,-25.984l30.394,-16.693l5.984,-0l11.339,7.716Z" style="fill:#bfbfbf;"/>
        <path d="M884.764,222.559l0.315,24.41l-26.929,17.322l-12.284,-0.315l-9.606,-6.456l1.732,-26.3l31.811,-17.952l14.961,9.291Z" style="fill:#bfbfbf;"/>
        <path d="M1129.49,363.031l0,26.93l-6.929,5.354l-15.905,8.661l-6.457,3.622l-4.41,0l-14.96,-9.291l1.102,-24.724l30.709,-19.055l16.85,8.503Z" style="fill:#bfbfbf;"/>
        <path d="M1279.09,450.276l-29.763,17.795l-2.048,26.772l-16.22,-9.292l-0,-25.197l32.913,-19.212l15.118,9.134Z" style="fill:#bfbfbf;"/>
        <path d="M1325.08,477.362l-0.315,24.567l-29.292,17.795l-7.086,0l-11.969,-7.244l0.788,-26.929l29.764,-17.48l0.944,-1.575l17.166,10.866Z" style="fill:#bfbfbf;"/>
        <path d="M1523.82,591.693l-30.551,18.898l-1.575,25.196l-13.228,-7.086l-0.788,-28.662l28.662,-15.905l5.984,-0l11.496,7.559Z" style="fill:#bfbfbf;"/>
        <path d="M1569.8,617.992l0.158,24.882l-7.087,5.197l-16.063,8.976l-4.252,2.677l-9.449,0.315l-12.126,-6.771l1.733,-26.299l31.968,-17.953l15.118,8.976Z" style="fill:#bfbfbf;"/>
        <path d="M1703.82,695.472l-30.866,19.213l-1.26,24.882l-13.543,-6.772l-0.788,-28.661l28.662,-15.906l5.984,0l11.811,7.244Z" style="fill:#bfbfbf;"/>
        <path d="M1749.49,722.087l-1.102,26.456l-25.827,15.748l-9.921,0l-11.654,-7.086l1.418,-26.142l31.968,-17.795l15.118,8.819Z" style="fill:#bfbfbf;"/>
        <path d="M1411.85,739.252l-51.338,30.079l-1.732,33.228l-21.733,-11.653l0.788,-36.378l45.984,-27.087l8.819,-0l19.212,11.811Z" style="fill:#bfbfbf;"/>
        <path d="M572.323,756.26l25.984,15.748l13.543,9.921l4.882,10.709l0.63,22.205l-11.181,-6.772l-3.464,-0l-31.497,18.583l-3.779,0.157l-35.906,-60.63l21.575,-12.598l11.496,-0l7.717,2.677Z" style="fill:#bfbfbf;"/>
        <path d="M1486.5,782.087l-0.157,34.96l-47.559,28.032l-9.607,-0.315l-20.157,-11.811l0.945,-34.961l51.338,-30.236l25.197,14.331Z" style="fill:#bfbfbf;"/>
        <path d="M1950.59,837.992l-31.969,18.11l-2.362,24.41l-13.386,-7.087l0,-27.716l30.551,-16.851l3.307,0.158l13.859,8.976Z" style="fill:#bfbfbf;"/>
        <path d="M752.008,860.512l8.031,10.236l0,25.354l-14.173,-4.724l-32.756,19.528l-28.819,-47.875l-7.401,-13.858l14.33,-9.606l7.874,-2.677l11.339,-0l41.575,23.622Z" style="fill:#bfbfbf;"/>
        <path d="M1993.9,863.031l-0,26.615l-4.567,3.937l-18.268,10.393l-6.457,3.622l-4.094,-0.315l-15.118,-9.133l0.945,-24.725l32.913,-19.37l14.646,8.976Z" style="fill:#bfbfbf;"/>
        <path d="M358.937,894.213l10.551,7.716l0,40.315l-51.968,31.811l-3.937,0.788l-118.583,69.448l-152.126,87.244l-4.094,-0.315l-31.497,-18.267l-0.787,-44.095l168.347,-97.795l104.251,-59.843l52.914,-30.236l3.464,0l23.465,13.229Z" style="fill:#bfbfbf;"/>
        <path d="M892.638,941.142l10.393,12.913l3.465,27.402l-11.339,-6.772l-5.984,0l-25.827,16.221l-9.763,-0.315l-33.386,-58.268l22.047,-12.126l11.339,-0l39.055,20.945Z" style="fill:#bfbfbf;"/>
        <path d="M512.48,982.874l0.315,42.677l-51.653,31.339l-122.677,71.023l-148.662,85.355l-5.354,1.575l-34.646,-20.315l-0.157,-42.52l114.173,-65.984l121.89,-70.709l89.448,-51.024l5.985,0l31.338,18.583Z" style="fill:#bfbfbf;"/>
        <path d="M2189.33,975l-0.158,26.772l-25.984,15.748l-7.717,2.047l-14.803,-9.449l0.945,-24.724l29.764,-17.323l0.945,-1.732l17.008,8.661Z" style="fill:#bfbfbf;"/>
        <path d="M1041.14,1026.97l7.874,12.913l0.157,22.835l-14.173,-4.725l-31.654,18.583l-3.779,0.157l-33.701,-60.945l9.291,-6.929l10.237,-5.354l14.173,-0l41.575,23.465Z" style="fill:#bfbfbf;"/>
        <path d="M658.622,1068.39l-0.157,40.472l-42.678,25.04l-9.291,6.771l-3.937,0.945l-120.315,70.079l-150.236,86.614l-4.095,-0.472l-31.496,-18.268l0,-45.984l110.709,-64.095l123.78,-71.023l0.629,-1.26l48.977,-27.402l37.953,-22.205l5.984,0l34.173,20.788Z" style="fill:#bfbfbf;"/>
        <path d="M2382.72,1086.81l-31.969,19.213l-2.362,24.409l-13.229,-7.087l0,-27.716l30.394,-16.693l3.465,0l13.701,7.874Z" style="fill:#bfbfbf;"/>
        <path d="M1181.61,1107.76l10.551,12.913l0.158,25.355l-8.032,-4.725l-6.141,0l-32.756,19.528l-36.063,-61.89l14.173,-9.291l7.716,-2.677l11.497,-0.158l38.897,20.945Z" style="fill:#bfbfbf;"/>
        <path d="M2426.5,1112.8l-0.315,27.087l-6.772,6.142l-4.566,0.63l-12.914,7.874l-12.283,0.315l-11.969,-6.772l1.732,-23.78l31.969,-20.315l15.118,8.819Z" style="fill:#bfbfbf;"/>
        <path d="M801.457,1149.49l0.315,42.677l-51.969,31.811l-4.094,0.788l-118.426,69.449l-146.771,84.567l-12.441,-0l-29.291,-17.638l-0,-42.362l110.551,-64.095l1.102,-1.89l30.079,-16.22l94.331,-54.646l89.291,-51.023l3.464,-0l33.859,18.582Z" style="fill:#bfbfbf;"/>
        <path d="M944.764,1232.8l-0.945,44.252l-50.551,29.764l-122.52,71.024l-148.661,85.354l-5.512,1.732l-34.646,-20.472l0,-42.362l114.016,-66.142l122.047,-70.709l89.449,-51.023l5.984,-0l31.339,18.582Z" style="fill:#bfbfbf;"/>
        <path d="M1080.2,1310.91l10.551,7.559l0,40.472l-42.677,24.882l-9.291,6.772l-3.937,0.944l-109.292,62.52l-9.134,6.929l-3.937,0.788l-143.149,83.307l-12.284,0.315l-28.504,-15.748l0,-45.985l110.866,-64.252l123.78,-70.866l0.63,-1.417l48.819,-27.244l37.953,-22.205l5.984,-0.157l23.622,13.386Z" style="fill:#bfbfbf;"/>
        <path d="M1267.91,185.551l10.079,10.866l6.772,22.205l3.622,14.331l5.354,15.433l20.945,12.756l-0.945,2.834l-25.984,16.063l-9.764,0l-31.023,-18.582l-2.993,-4.882l-2.362,-11.496l-7.874,-27.874l-2.52,-2.677l0,-14.646l30.394,-16.851l6.299,2.52Z" style="fill:#d3d6d4;"/>
        <path d="M907.126,183.189l43.307,-23.937l-0.315,44.094l-8.189,1.26l-34.803,-21.417Z" style="fill:#d3d6d4;"/>
        <path d="M1174.06,250.906l9.134,25.511l3.465,19.213l5.511,12.598l10.394,5.355l10.394,7.559l-29.449,18.897l-7.087,0l-33.858,-21.102l-4.252,-14.803l-3.464,-21.89l-5.355,-7.559l-3.307,-1.89l0,-11.181l31.181,-18.583l5.984,0l10.709,7.875Z" style="fill:#d3d6d4;"/>
        <path d="M1710.28,441.142l8.189,10.078l6.299,20.473l5.984,27.087l5.354,5.039l18.583,10.551l0,2.835l-26.299,16.063l-7.717,1.889l-33.7,-18.582l-2.993,-4.882l-3.464,-14.173l-6.772,-25.04l-2.362,-2.677l-0.158,-14.803l27.717,-16.693l6.142,0l5.197,2.835Z" style="fill:#d3d6d4;"/>
        <path d="M1351.38,440.354l-1.89,-4.409l37.166,-20.945l3.622,-0.787l0.157,41.889l-1.26,0.788l-9.764,0.157l-28.031,-16.693Z" style="fill:#d3d6d4;"/>
        <path d="M1609.02,500.827l7.559,10.708l6.456,19.843l3.623,19.37l5.511,10.079l20.63,13.228l-0.472,2.205l-26.142,16.22l-12.441,0l-25.984,-15.748l-5.354,-5.039l-4.252,-14.331l-3.15,-20l-7.874,-10.236l-0.157,-12.126l34.173,-19.055l7.874,4.882Z" style="fill:#d3d6d4;"/>
        <path d="M2142.56,693.74l8.661,23.307l4.095,23.78l5.512,7.559l20.945,12.756l-29.607,18.897l-9.448,-0.472l-31.497,-18.11l-4.881,-16.536l-5.355,-25.197l-5.354,-5.196l-0,-14.646l30.394,-16.693l3.464,-0.158l13.071,10.709Z" style="fill:#d3d6d4;"/>
        <path d="M1775.16,681.772l39.686,-22.678l-0.158,44.252l-10.866,-1.574l-28.662,-16.063l0,-3.937Z" style="fill:#d3d6d4;"/>
        <path d="M2040.98,753.583l6.929,22.519l5.985,26.929l23.779,16.063l-0.157,2.835l-26.3,16.063l-7.716,1.89l-31.496,-18.268l-5.197,-7.874l-3.465,-11.496l-3.937,-22.677l-5.354,-5.039l0,-14.804l27.717,-16.693l6.141,0l13.071,10.552Z" style="fill:#d3d6d4;"/>
        <path d="M2582.56,948.858l8.347,23.15l4.409,24.094l2.992,4.725l21.26,13.228l-0.473,3.15l-26.299,15.905l-7.716,2.047l-34.646,-20.314l-4.094,-17.008l-5.355,-22.835l-5.984,-7.087l0.63,-12.913l27.716,-16.693l8.819,0l10.394,10.551Z" style="fill:#d3d6d4;"/>
        <path d="M2215.79,940.354l-1.732,-4.409l37.008,-20.945l3.622,-0.787l0.158,41.889l-1.26,0.788l-6.929,0.157l-30.867,-16.693Z" style="fill:#d3d6d4;"/>
        <path d="M2470.59,998.307l10.393,10.394l6.614,22.362l3.78,14.331l5.354,15.275l20.945,12.914l-0.945,2.834l-26.141,16.063l-9.764,-0.157l-31.024,-18.583l-6.772,-16.85l-3.622,-22.047l-5.196,-7.874l-0.158,-14.646l31.496,-16.536l5.04,2.52Z" style="fill:#d3d6d4;"/>
        <path d="M385.709,1015.32l-121.89,70.709l-66.299,-38.426l-2.52,-3.307l118.583,-69.448l3.937,-0.788l68.189,41.26Z" style="fill:#005db8;"/>
        <path d="M484.134,1071.06l47.401,26.142l-0.629,1.26l-123.78,71.023l-68.661,-41.575l122.677,-71.023l22.992,14.173Z" style="fill:#005db8;"/>
        <path d="M674.843,1181.93l-94.331,54.646l-30.079,16.22l-9.449,-6.929l-58.74,-34.173l120.315,-70.079l3.937,-0.945l68.347,41.26Z" style="fill:#005db8;"/>
        <path d="M809.331,1258.78l8.661,6.456l-122.047,70.709l-68.662,-41.732l118.426,-69.449l4.094,-0.788l59.528,34.804Z" style="fill:#005db8;"/>
        <path d="M963.819,1347.13l-0.63,1.417l-123.78,70.866l-9.291,-6.929l-59.37,-34.645l122.52,-71.024l70.551,40.315Z" style="fill:#005db8;"/>
        <path d="M879.567,636.575l41.732,12.913l24.725,14.646l-9.134,7.086l-36.536,15.591l-37.165,6.929l-56.535,0l-28.662,-5.039l-20.945,-5.197l-31.023,-15.906l-2.205,-3.464l11.811,-9.449l23.307,-10.394l49.449,-10.393l52.913,-0l18.268,2.677Z" style="fill:#fff;"/>
        <path d="M1793.42,1162.56l34.016,10.394l26.772,14.96l-3.307,4.095l-29.449,14.803l-39.055,10.394l-31.339,2.519l-14.803,0l-33.858,-2.519l-39.056,-10.394l-23.307,-10.551l-9.763,-8.347l21.889,-12.441l28.662,-10.393l23.307,-5.197l50.394,-2.677l38.897,5.354Z" style="fill:#fff;"/>
        <g id="Actor_.0">
            <g>
                <path d="M1359.09,803.819l-0.472,-0.473l-0.157,-0.315l-0,-0.629l-21.418,-12.284l0,-31.338l21.418,12.283l-0,31.339l0.629,0.315l0.63,0.157l0.788,0" style="fill:none;stroke:#000;stroke-width:5.56px;"/>
                <path d="M1337.52,791.378l-0.315,-0.315l-0,-0.157l-0.158,-0.315l0,-0.473l-0.787,-0.787l-0.158,-0.473" style="fill:none;stroke:#000;stroke-width:5.56px;"/>
                <path d="M1361.93,769.016l-0.472,-0.473l-0.473,-0.63l-0.472,-0.315l-21.418,-12.441l49.764,-28.818l0.473,-0.158l0.945,0" style="fill:none;stroke:#000;stroke-width:5.56px;"/>
                <path d="M1337.52,755l0.472,-0.157l0.473,0.157l0.629,0.157l-0.629,0.473l-0.473,0.472l-0.472,0.63l-0.315,0.63l-0,0.158l-0.158,0.472l0,0.788l-0.787,-0.788l-0.158,-0.472" style="fill:none;stroke:#000;stroke-width:5.56px;"/>
                <path d="M1411.85,740.354l-0.944,-1.26l-0.63,-0.314l-49.764,28.818l-0.63,0.315l-0.473,0.63l-0.315,0.473l-0.314,0.787l-0.315,0.63l-0,0.63l0.629,0.315l0.473,0.157l0.945,0" style="fill:none;stroke:#000;stroke-width:5.56px;"/>
                <path d="M1462.72,766.654l-54.016,31.181l-48.189,-27.874" style="fill:none;stroke:#000;stroke-width:5.56px;"/>
                <path d="M1387.44,726.181l0.945,0l0.472,0.158l21.418,12.441l0.63,-0.158l0.472,-0.157l0.472,0.157" style="fill:none;stroke:#000;stroke-width:5.56px;"/>
                <path d="M1409.96,831.535l0.157,0.315l0.158,0.473l0.472,0.315l0,-31.339l-0.472,-0.315l-0.158,-0.472l-0.157,-0.315" style="fill:none;stroke:#000;stroke-width:5.56px;"/>
                <path d="M1411.38,834.055l-0.315,-0.315l-0,-0.157l-0.157,-0.315l-0.158,-0.63l21.575,12.441l-0,-31.339l0.472,0.315l0.788,0.158l1.417,-0l0.157,-0.158l0.63,0l0.63,-0.315l0,31.339l-0.787,0.315l-0.63,0.157l-1.417,0l-0.63,-0.157l-0.63,-0.315l-0,0.472l0.157,0.473l0.315,0.315" style="fill:none;stroke:#000;stroke-width:5.56px;"/>
                <path d="M1408.7,833.898l-0,-36.063" style="fill:none;stroke:#000;stroke-width:5.56px;"/>
                <path d="M1464.13,768.858l-0.473,-0.157l-0.472,-0l-0.472,0.315l-49.922,28.819l21.575,12.283l-0.63,0.473l-0.472,0.472l-0.473,0.63l-0.315,0.63l-0.157,0.63l-0,0.787l-21.575,-12.441l0.158,-0.63l0.157,-0.472l-0,-0.158l0.315,-0.787l0.472,-0.63l0.473,-0.472l0.472,-0.315l-0.472,-0.315l-0.473,-0l-0.472,0.157" style="fill:none;stroke:#000;stroke-width:5.56px;"/>
                <path d="M1486.97,783.661l-0,0.473l-0.315,0.472l-0.473,0.315l0,31.339l-49.764,28.819l-0.315,0.945l-0.315,0.315" style="fill:none;stroke:#000;stroke-width:5.56px;"/>
                <path d="M1461.3,768.858l0.315,-0.157l0.473,-0l0.63,0.315l21.417,12.441l0.472,0.315l0.63,0.472l0.315,0.63l0.315,0.787l0.158,0.158l0.157,0.472l0,0.63l-49.764,28.819l-0.157,-0.787l-0.158,-0.63l-0.315,-0.63l-0.472,-0.63l-0.945,-0.945l49.764,-28.661l0.472,-0.315l0.473,-0l0.472,0.157" style="fill:none;stroke:#000;stroke-width:5.56px;"/>
                <path d="M1486.97,815.157l-0,0.315l-0.158,0.158l-0.157,0.315l-0.473,0.315l0,0.63l-0.157,0.315l-0.158,0.157l-0.315,0.158" style="fill:none;stroke:#000;stroke-width:5.56px;"/>
            </g>
            <g>
                <path d="M1360.51,804.134l-0.788,-0.158l-0.63,-0.157l-21.574,-12.441l-1.103,-1.102l-0.157,-0.63l-0.158,-0.788l0,-31.811l0.63,-1.26l0.788,-0.787l49.921,-28.819l0.787,-0.315l0.473,0l0.945,0.158l0.63,0.157l21.574,12.441l0.63,0.472l0.315,0.473l0,0.157" style="fill:none;stroke:#000;stroke-width:11.1px;"/>
                <path d="M1410.28,832.953l-1.575,0.945l-48.189,-27.874l-0,-36.063l53.858,-31.181l48.347,27.874l-0,1.889" style="fill:none;stroke:#000;stroke-width:11.1px;"/>
                <path d="M1409.96,829.803l-0,1.732l0.157,0.788l0.158,0.472l0.63,0.788l0.472,0.472l21.417,12.284l0.63,0.315l0.945,0.157l0.63,-0.157l0.787,-0.315l49.764,-28.819l0.473,-0.158l0.472,-0.472l0.315,-0.63l0.158,-0.788l-0,-32.126l-0.158,-0.787l-0.315,-0.472l-0.472,-0.63l-0.473,-0.158l-21.417,-12.441l-0.63,-0.315l-1.575,0l-0.63,0.315l-49.921,28.819l-0.472,0.315l-0.63,0.788l-0.158,0.629l-0.157,0.788l-0,29.606" style="fill:none;stroke:#000;stroke-width:11.1px;"/>
            </g>
        </g>
        <g id="Actor_.1">
            <g>
                <path d="M790.906,230.433l-0,0.315l0.157,0.315l0.315,0.157l14.331,8.347l0.472,0.157l0.315,0l0.63,0.158" style="fill:none;stroke:#000;stroke-width:5.56px;"/>
                <path d="M791.85,232.165l-0.472,-0.472l-0,-23.937l0.157,-0.473l0.315,-0.472l0.158,-0.315l0.472,-0.472l0.315,-0.158l14.331,8.189l31.339,-18.11l-14.331,-8.189l-0.315,-0.158l-0.63,0" style="fill:none;stroke:#000;stroke-width:5.56px;"/>
                <path d="M825.079,187.598l-0.63,0l-0.315,0.158l-31.339,18.11l-0.63,-0.315l-0.157,0l-0.158,0.158" style="fill:none;stroke:#000;stroke-width:5.56px;"/>
                <path d="M808.071,215l-0.945,-0.945l-0.472,0.315l-0.315,0.315l-0.158,0.315l-0.315,0.472l-0.157,0.473l-0,0.472l-14.331,-8.189l-0.315,-0.315l-0.157,-0.315l-0,-0.157" style="fill:none;stroke:#000;stroke-width:5.56px;"/>
                <path d="M807.126,216.732l-0.472,0l-0.945,-0.315l-0,23.465l0.157,0.315l0.315,0.157" style="fill:none;stroke:#000;stroke-width:5.56px;"/>
                <path d="M807.126,215.63l28.346,16.378l0,26.299" style="fill:none;stroke:#000;stroke-width:5.56px;"/>
                <path d="M837.205,258.307l-0.158,-0.157l-0.157,-0.315l-0,-23.465l14.173,8.347l0.472,-1.418l0.315,-0.472l0.315,-0.315l0.315,-0.158l31.339,-18.11l0.315,0.158l0.315,0.315l0.63,0.944l-0,0.473l0.157,0.472l0,22.992l0.315,-0.157l0.158,-0.315l-0,-0.315" style="fill:none;stroke:#000;stroke-width:5.56px;"/>
                <path d="M884.764,248.543l0.315,-0.157l-0,-0.315l0.157,-0.473l-31.338,18.111l-0.945,0.315l-0.945,-0l-0.945,-0.315l-14.173,-8.189l-0.63,-0.63l-0,-0.158" style="fill:none;stroke:#000;stroke-width:5.56px;"/>
                <path d="M884.764,222.087l-0.315,-0.158l-0.63,0.315l-14.331,-8.346l-31.338,18.11l14.33,8.346l0.315,0.158l0.315,0.315l0.63,0.945l0,0.472l0.158,0.473l-0,22.992l-0.158,0.472l0,0.158l-0.315,0.315" style="fill:none;stroke:#000;stroke-width:5.56px;"/>
                <path d="M837.205,231.85l0.63,0l0.315,0.158l-0.63,0.63l-0.315,0.472l-0.158,0.315l-0.157,0.473l-0,0.472l-0.315,-0.157l-0.315,-0.315l-0,-0.315" style="fill:none;stroke:#000;stroke-width:5.56px;"/>
                <path d="M835.472,232.008l34.016,-19.685" style="fill:none;stroke:#000;stroke-width:5.56px;"/>
                <path d="M839.409,195.945l-0.315,-0.158l-0.314,0l-0.315,0.158l0.629,0.63l0.315,0.472" style="fill:none;stroke:#000;stroke-width:5.56px;"/>
                <path d="M885.709,223.819l-0,0.157l-0.158,0.315l-0.315,0.315l-31.338,18.111l-0.473,0.157l-0.472,0l-0.473,0.157l-0.472,-0.157l-0.473,0l-0.472,-0.157l-0,22.992l0.157,0.472l0.158,0.158l0.157,0.315" style="fill:none;stroke:#000;stroke-width:5.56px;"/>
                <path d="M868.543,213.898l0.315,-0.158l0.315,0l0.315,0.158l0.315,-0.158l0.473,0l0.157,0.158" style="fill:none;stroke:#000;stroke-width:5.56px;"/>
            </g>
            <g>
                <path d="M807.126,240.669l-0.315,0l-0.472,-0.157l-0.158,-0.158l-14.331,-8.189l-0.472,-0.315l-0.315,-0.472l-0.157,-0.315l-0,-24.252l0.157,-0.315l0.157,-0.157l0.158,-0.315l0.472,-0.315l31.339,-18.111l0.315,-0.157l0.63,-0.158l0.945,0.315l14.33,8.347l0.473,0.315l0.157,0.315" style="fill:none;stroke:#000;stroke-width:11.1px;"/>
                <path d="M836.575,257.677l-1.103,0.63l-28.346,-16.378l-0,-26.299l34.016,-19.685l28.346,16.378l0,1.26" style="fill:none;stroke:#000;stroke-width:11.1px;"/>
                <path d="M836.26,256.732l-0,0.473l0.157,0.315l0.788,0.787l14.33,8.347l0.315,0.157l0.945,0l0.315,-0.157l0.315,-0l31.181,-18.111l0.473,-0.157l0.315,-0.315l0.315,-0.945l-0,-23.622l-0.315,-0.945l-0.315,-0.315l-0.315,-0.157l-14.331,-8.189l-0.472,-0.315l-0.945,-0l-0.473,0.315l-31.338,17.952l-0.788,0.788l-0.157,0.472l-0,23.622" style="fill:none;stroke:#000;stroke-width:11.1px;"/>
            </g>
        </g>
        <g id="Actor_.2">
            <g>
                <path d="M174.843,906.654l-0,64.881" style="fill:none;stroke:#000;stroke-width:5.56px;"/>
                <path d="M209.803,951.378l-34.96,-20" style="fill:none;stroke:#000;stroke-width:5.56px;"/>
                <path d="M174.843,798.15l0.157,27.874" style="fill:none;stroke:#000;stroke-width:5.56px;"/>
                <path d="M282.402,993.425l71.653,41.26" style="fill:none;stroke:#000;stroke-width:5.56px;"/>
                <path d="M498.15,1117.99l-71.496,-41.417" style="fill:none;stroke:#000;stroke-width:5.56px;"/>
                <path d="M642.402,1201.3l-71.496,-41.417" style="fill:none;stroke:#000;stroke-width:5.56px;"/>
                <path d="M786.654,1284.45l-71.497,-41.26" style="fill:none;stroke:#000;stroke-width:5.56px;"/>
                <path d="M930.906,1367.76l-71.654,-41.26" style="fill:none;stroke:#000;stroke-width:5.56px;"/>
                <path d="M2785.24,1006.18l-886.929,512.126l-706.614,0l-188.189,-108.661" style="fill:none;stroke:#000;stroke-width:5.56px;"/>
                <path d="M1191.69,1621.3l-0,-102.992" style="fill:none;stroke:#000;stroke-width:5.56px;"/>
                <path d="M1898.31,1621.3l0,-102.992" style="fill:none;stroke:#000;stroke-width:5.56px;"/>
            </g>
            <g>
                <path d="M174.843,877.992l-0,-13.386l-0,106.929" style="fill:none;stroke:#000;stroke-width:11.1px;"/>
                <path d="M174.843,877.362l0.157,-51.338" style="fill:none;stroke:#000;stroke-width:11.1px;"/>
                <path d="M174.843,829.803l-0,-306.457l886.929,-512.126l30.393,17.481" style="fill:none;stroke:#000;stroke-width:11.1px;"/>
                <path d="M174.843,812.323l-0,-12.756" style="fill:none;stroke:#000;stroke-width:11.1px;"/>
                <path d="M193.268,1044.92l71.496,41.26" style="fill:none;stroke:#000;stroke-width:11.1px;"/>
                <path d="M409.016,1169.49l-71.496,-41.417" style="fill:none;stroke:#000;stroke-width:11.1px;"/>
                <path d="M481.772,1211.38l71.496,41.26" style="fill:none;stroke:#000;stroke-width:11.1px;"/>
                <path d="M697.52,1335.94l-71.496,-41.26" style="fill:none;stroke:#000;stroke-width:11.1px;"/>
                <path d="M697.992,638.307l11.654,16.221l22.992,17.322l29.921,13.229l34.803,8.346l37.481,2.835l37.322,-2.835l34.961,-8.346l29.764,-13.229l22.992,-17.165l14.488,-20.157l4.882,-21.575l-4.882,-21.733l-14.331,-20l-22.992,-17.322l-29.921,-13.229l-34.961,-8.346l-37.322,-2.835l-37.481,2.835l-34.803,8.346l-29.921,13.229l-22.992,17.322l-14.489,20l-4.881,21.733l4.881,21.575l2.835,3.779" style="fill:none;stroke:#000;stroke-width:11.1px;"/>
                <path d="M946.969,664.291l-9.922,-7.559l-29.921,-13.228l-34.961,-8.347l-37.322,-2.834l-37.481,2.834l-34.803,8.347l-29.921,13.228l-10.079,7.559" style="fill:none;stroke:#000;stroke-width:11.1px;"/>
                <path d="M841.772,1419.25l-71.654,-41.417" style="fill:none;stroke:#000;stroke-width:11.1px;"/>
                <path d="M2601.93,900.512l183.307,105.669l0,102.992l-886.929,512.126l-706.614,0l-277.323,-160.157" style="fill:none;stroke:#000;stroke-width:11.1px;"/>
                <path d="M1106.5,403.661l0.315,1.575l1.417,1.89l2.205,1.732l6.299,2.048l3.622,0.314l7.087,-1.102l2.835,-1.26l2.204,-1.732l1.418,-1.89l0.472,-2.205l-0.472,-2.047l-1.418,-1.89l-2.204,-1.732l-2.835,-1.26l-6.142,-1.102" style="fill:none;stroke:#000;stroke-width:11.1px;"/>
                <path d="M1289.17,1304.92l3.622,0.945l10.551,0.788l10.867,-0.788l9.606,-2.362l8.504,-3.78l6.457,-4.881l4.094,-5.67l1.417,-6.142l-1.417,-5.984l-4.094,-5.669" style="fill:none;stroke:#000;stroke-width:11.1px;"/>
                <path d="M1532.01,282.717l-235.118,-135.748" style="fill:none;stroke:#000;stroke-width:11.1px;"/>
                <path d="M1555.79,805.866l7.244,0l6.3,-2.047l2.204,-1.732l1.418,-1.89l0.472,-2.047l-0.472,-2.205l-1.418,-1.89l-2.204,-1.732l-6.3,-2.047l-7.244,-0l-3.464,0.787l-2.835,1.26l-2.362,1.732l-1.26,1.89l-0.472,2.205l0.472,2.047l1.417,1.89l2.205,1.732l2.835,1.26l3.464,0.787" style="fill:none;stroke:#000;stroke-width:11.1px;"/>
                <path d="M1561.14,649.016l6.141,0.945l2.835,1.259l2.205,1.733l1.417,2.047l0.473,2.047l-0.473,2.205l-1.417,1.89l-2.205,1.575l-6.299,2.204l-7.244,0l-6.299,-2.204l-2.205,-1.575l-1.417,-2.048l-0.315,-1.574" style="fill:none;stroke:#000;stroke-width:11.1px;"/>
                <path d="M1603.5,1158.94l14.488,20.157l22.992,17.323l29.922,13.229l34.803,8.346l37.48,2.835l37.323,-2.835l34.96,-8.346l29.922,-13.229l7.874,-5.984l15.118,-11.339l14.331,-20.157l5.039,-21.575l-5.039,-21.575l-14.331,-20.157l-22.992,-17.323l-29.922,-13.228l-14.488,-3.465l-20.472,-4.882l-37.323,-2.834l-37.48,2.834l-34.803,8.347l-29.922,13.228l-22.992,17.323l-14.488,20.157l-4.882,21.575l4.882,21.575" style="fill:none;stroke:#000;stroke-width:11.1px;"/>
                <path d="M1855.32,1188.86l-9.921,-7.559l-29.922,-13.228l-34.96,-8.347l-37.323,-2.834l-37.48,2.834l-34.803,8.347l-29.922,13.228l-10.078,7.559" style="fill:none;stroke:#000;stroke-width:11.1px;"/>
                <path d="M1736.73,400.827l220.63,127.401" style="fill:none;stroke:#000;stroke-width:11.1px;"/>
                <path d="M1986.5,894.528l6.142,1.102l2.992,1.26l2.205,1.732l1.417,1.89l0.472,2.205l-0.472,2.047l-1.417,1.89l-2.205,1.732l-2.992,1.26l-6.142,1.102l-4.409,-0.315l-6.3,-2.047l-2.362,-1.732l-1.26,-1.89l-0.472,-1.575" style="fill:none;stroke:#000;stroke-width:11.1px;"/>
                <path d="M2397.2,782.244l-235.118,-135.748" style="fill:none;stroke:#000;stroke-width:11.1px;"/>
                <path d="M2421.93,1158.15l-2.205,-1.575l-1.417,-2.047l-0.472,-2.048l0.472,-2.204l1.417,-1.89l2.205,-1.732l2.835,-1.26l3.464,-0.788l7.244,0l6.3,2.048l2.204,1.732l1.418,1.89l0.472,2.362l-0.472,1.89l-1.103,1.417l-2.519,2.205l-2.992,1.259l-6.93,1.103l-3.622,-0.158l-6.299,-2.204" style="fill:none;stroke:#000;stroke-width:11.1px;"/>
            </g>
        </g>
        <g id="Actor_.3">
            <g>
                <path d="M1035.94,372.008l0.157,0.315l0.473,0.472l14.331,8.189l0.472,0.315l0.787,0" style="fill:none;stroke:#000;stroke-width:5.56px;"/>
                <path d="M1036.89,373.74l-0.315,-0.63l-0,-23.464l14.331,8.346l-0,23.465l0.157,0.315l0.157,0.157" style="fill:none;stroke:#000;stroke-width:5.56px;"/>
                <path d="M1035.94,348.858l0.315,0.63l0.315,0.158l-0,-0.473l0.157,-0.315l0.158,-0.472l0.315,-0.473l0.315,-0.315l0.472,-0.315l-0.472,-0.157l-0.315,-0l-0.315,0.157" style="fill:none;stroke:#000;stroke-width:5.56px;"/>
                <path d="M1070.28,329.173l-0.315,-0.157l-0.315,0.157l-0.315,0l-31.339,18.11l14.173,8.347l-0.315,0.157l-0.315,0.473l-0.315,0.315l-0.314,0.945l-0,0.472l0.472,0.158l0.315,0.157l0.472,0" style="fill:none;stroke:#000;stroke-width:5.56px;"/>
                <path d="M1068.39,329.173l0.157,-0.157l0.158,-0l0.157,0.157l0.473,0l14.173,8.347l-31.339,18.11l0.473,0.157l0.157,0.315l0.473,0.473" style="fill:none;stroke:#000;stroke-width:5.56px;"/>
                <path d="M1052.16,357.205l28.504,16.378l34.016,-19.685" style="fill:none;stroke:#000;stroke-width:5.56px;"/>
                <path d="M1096.73,408.228l-0.315,-0.315l0,-0.315l-0.157,-0.315l-14.331,-8.346l0,-22.992l-0.472,-0.473l-0,-0.315" style="fill:none;stroke:#000;stroke-width:5.56px;"/>
                <path d="M1081.46,398.15l-0,0.315l0.157,0.315l0.315,0.157l0.158,0.472l0.157,0.315l0.158,0.158" style="fill:none;stroke:#000;stroke-width:5.56px;"/>
                <path d="M1080.67,399.724l0,-26.141" style="fill:none;stroke:#000;stroke-width:5.56px;"/>
                <path d="M1098.62,408.228l0.158,-0.315l0.157,0l0,-0.315l0.157,-0.315l-0.944,0.315l-0.945,0l-0.945,-0.315l-0,-23.149l-14.331,-8.189l0.473,-1.417l0.944,-0.945l-0.315,-0.158l-0.629,0" style="fill:none;stroke:#000;stroke-width:5.56px;"/>
                <path d="M1129.96,390.118l0.472,-0.945l0,-23.149l-0.157,-0.315l-0.315,-0.945l-0.315,-0.473l-0.63,-0.63l-14.331,-8.189l-31.339,18.111l14.331,8.189l0.63,0.63l0.315,0.472l0.315,0.945l0.157,0.315l0,23.149l31.339,-18.11l0.315,-0.157l0.158,-0.315l-0,-0.315" style="fill:none;stroke:#000;stroke-width:5.56px;"/>
                <path d="M1084.61,337.362l-0.63,0l-0.472,0.158l0.472,0.315l0.63,0.63" style="fill:none;stroke:#000;stroke-width:5.56px;"/>
                <path d="M1129.96,363.661l-0.315,-0.157l-0.315,0.157l-0.315,0l-31.339,18.111l-0.63,0.63l-0.63,0.944l0,0.473l-0.157,0.315l0.945,0.315l0.945,-0l0.944,-0.315l31.339,-18.11l0.315,-0.158l0.158,-0.315l-0,-0.315" style="fill:none;stroke:#000;stroke-width:5.56px;"/>
                <path d="M1113.74,355.315l0.63,-0l0.315,0.157l0.315,-0.157l0.63,-0" style="fill:none;stroke:#000;stroke-width:5.56px;"/>
            </g>
            <g>
                <path d="M1085.24,338.15l-0.157,-0.158l-0.315,-0.472l-0.158,-0.158l-14.33,-8.189l-0.945,-0.315l-0.63,0.158l-0.315,0.157l-31.496,18.11l-0.473,0.473l-0.315,0.63l-0.157,0.472l-0,23.15l0.315,0.945l0.315,0.472l0.315,0.315l14.33,8.189l0.945,0.315" style="fill:none;stroke:#000;stroke-width:11.1px;"/>
                <path d="M1081.77,399.252l-1.103,0.472l-28.504,-16.378l0,-26.141l34.174,-19.685l28.346,16.378l0,1.259" style="fill:none;stroke:#000;stroke-width:11.1px;"/>
                <path d="M1081.46,394.685l-0,4.095l0.157,0.314l0.788,0.788l14.33,8.346l0.473,0.158l0.945,-0l0.472,-0.158l31.339,-18.11l0.315,-0.157l0.315,-0.473l0.157,-0.315l0.158,-0.472l-0,-23.622l-0.315,-0.945l-0.315,-0.315l-0.315,-0.158l-14.331,-8.346l-0.473,-0.158l-0.944,0l-0.473,0.158l-31.338,18.11l-0.473,0.315l-0.472,0.945l-0,20" style="fill:none;stroke:#000;stroke-width:11.1px;"/>
            </g>
        </g>
        <g id="Actor_.4">
            <g>
                <path d="M16.89,1117.84l-0,-13.071l-11.339,-6.614" style="fill:none;stroke:#000;stroke-width:5.56px;"/>
                <path d="M5.551,1069.33l36.221,20.945l-0,42.047" style="fill:none;stroke:#000;stroke-width:5.56px;"/>
                <path d="M16.89,1104.76l353.071,-203.937" style="fill:none;stroke:#000;stroke-width:5.56px;"/>
                <path d="M149.646,1181.46l11.338,6.614l0,13.071" style="fill:none;stroke:#000;stroke-width:5.56px;"/>
                <path d="M160.984,1188.07l25.04,-14.488l-36.378,-20.945" style="fill:none;stroke:#000;stroke-width:5.56px;"/>
                <path d="M186.024,1215.63l-0,-42.047l328.189,-189.449" style="fill:none;stroke:#000;stroke-width:5.56px;"/>
                <path d="M305.236,1284.45l0,-13.071l-11.338,-6.614" style="fill:none;stroke:#000;stroke-width:5.56px;"/>
                <path d="M305.236,1271.38l25.04,-14.488l-0,41.89" style="fill:none;stroke:#000;stroke-width:5.56px;"/>
                <path d="M658.465,1067.44l-328.189,189.449l-36.378,-20.945" style="fill:none;stroke:#000;stroke-width:5.56px;"/>
                <path d="M306.654,812.48l-17.796,10.394" style="fill:none;stroke:#000;stroke-width:5.56px;"/>
                <path d="M315.787,807.283l72.126,41.575l144.252,-83.149" style="fill:none;stroke:#000;stroke-width:5.56px;"/>
                <path d="M387.913,848.858l36.063,62.52l8.977,-5.197" style="fill:none;stroke:#000;stroke-width:5.56px;"/>
                <path d="M427.441,909.331l140.63,-81.26" style="fill:none;stroke:#000;stroke-width:5.56px;"/>
                <path d="M438.15,1348.07l11.338,6.457l25.04,-14.331l-0,41.89" style="fill:none;stroke:#000;stroke-width:5.56px;"/>
                <path d="M438.15,1319.09l36.378,21.103l328.189,-189.449" style="fill:none;stroke:#000;stroke-width:5.56px;"/>
                <path d="M449.488,1354.53l0,13.228" style="fill:none;stroke:#000;stroke-width:5.56px;"/>
                <path d="M460.039,890.591l72.126,41.574l36.063,62.52" style="fill:none;stroke:#000;stroke-width:5.56px;"/>
                <path d="M532.165,932.165l144.095,-83.307" style="fill:none;stroke:#000;stroke-width:5.56px;"/>
                <path d="M550.118,796.89l31.024,-17.953l-36.221,-20.945" style="fill:none;stroke:#000;stroke-width:5.56px;"/>
                <path d="M582.402,1431.22l11.338,6.615l0,13.071" style="fill:none;stroke:#000;stroke-width:5.56px;"/>
                <path d="M582.402,1402.4l36.22,20.944l0,42.048" style="fill:none;stroke:#000;stroke-width:5.56px;"/>
                <path d="M581.142,778.937l9.449,-3.937l8.818,-0.945l7.56,2.362" style="fill:none;stroke:#000;stroke-width:5.56px;"/>
                <path d="M593.74,1437.84l353.071,-203.937" style="fill:none;stroke:#000;stroke-width:5.56px;"/>
                <path d="M604.134,973.898l72.126,41.574l36.063,62.363l9.134,-5.197" style="fill:none;stroke:#000;stroke-width:5.56px;"/>
                <path d="M676.26,1015.47l144.252,-83.307" style="fill:none;stroke:#000;stroke-width:5.56px;"/>
                <path d="M689.016,841.142l36.378,21.102l-31.024,17.953" style="fill:none;stroke:#000;stroke-width:5.56px;"/>
                <path d="M720.039,1073.42l136.536,-78.74" style="fill:none;stroke:#000;stroke-width:5.56px;"/>
                <path d="M737.992,1534.21l0,-13.071l-11.496,-6.614" style="fill:none;stroke:#000;stroke-width:5.56px;"/>
                <path d="M737.992,1521.14l24.882,-14.488l-36.378,-20.945" style="fill:none;stroke:#000;stroke-width:5.56px;"/>
                <path d="M751.063,859.724l-7.402,-2.362l-8.818,0.788l-9.449,4.094" style="fill:none;stroke:#000;stroke-width:5.56px;"/>
                <path d="M748.543,1057.05l71.969,41.733l36.063,62.362" style="fill:none;stroke:#000;stroke-width:5.56px;"/>
                <path d="M762.874,1548.7l0,-42.047l328.189,-189.449" style="fill:none;stroke:#000;stroke-width:5.56px;"/>
                <path d="M820.512,1098.78l144.252,-83.308" style="fill:none;stroke:#000;stroke-width:5.56px;"/>
                <path d="M833.268,924.449l36.378,20.945l-31.024,17.952" style="fill:none;stroke:#000;stroke-width:5.56px;"/>
                <path d="M869.646,945.394l9.448,-3.937l8.662,-0.945l7.559,2.362" style="fill:none;stroke:#000;stroke-width:5.56px;"/>
                <path d="M892.638,1140.35l72.126,41.575l36.063,62.52" style="fill:none;stroke:#000;stroke-width:5.56px;"/>
                <path d="M1109.02,1098.78l-144.252,83.149" style="fill:none;stroke:#000;stroke-width:5.56px;"/>
                <path d="M977.52,1007.76l36.378,20.945l-31.181,17.953" style="fill:none;stroke:#000;stroke-width:5.56px;"/>
                <path d="M1013.9,1028.7l9.291,-3.937l8.819,-0.945l7.559,2.362" style="fill:none;stroke:#000;stroke-width:5.56px;"/>
                <path d="M1036.89,1223.66l72.126,41.575l36.063,62.52l-0,83.15" style="fill:none;stroke:#000;stroke-width:5.56px;"/>
                <path d="M1109.02,1265.24l144.094,-83.307" style="fill:none;stroke:#000;stroke-width:5.56px;"/>
                <path d="M1121.77,1091.06l36.378,20.945l-31.181,17.953" style="fill:none;stroke:#000;stroke-width:5.56px;"/>
                <path d="M1145.08,1327.76l144.094,-83.307" style="fill:none;stroke:#000;stroke-width:5.56px;"/>
                <path d="M1158.15,1112.01l9.291,-4.095l8.819,-0.787l7.559,2.362" style="fill:none;stroke:#000;stroke-width:5.56px;"/>
                <path d="M1271.22,1213.27l31.024,-17.953l-36.22,-21.102" style="fill:none;stroke:#000;stroke-width:5.56px;"/>
                <path d="M1302.24,1306.5l0,-58.74l-8.976,-5.354" style="fill:none;stroke:#000;stroke-width:5.56px;"/>
                <path d="M1302.24,1247.76l-0.315,-2.52l-0.787,-2.047l-1.575,-1.417" style="fill:none;stroke:#000;stroke-width:5.56px;"/>
                <path d="M1302.24,1195.32l9.449,-4.095l8.819,-0.787l7.401,2.205" style="fill:none;stroke:#000;stroke-width:5.56px;"/>
            </g>
            <g>
                <path d="M5.551,1069.33l0,42.047l36.221,20.945l328.189,-189.449l-0,-42.047l-36.378,-20.945l-328.032,189.449l0,2.519" style="fill:none;stroke:#000;stroke-width:11.1px;"/>
                <path d="M160.984,1201.14l-11.338,-6.614l-0,-41.89l328.189,-189.449l36.378,20.945l-0,42.047l-328.189,189.449l-25.04,-14.488" style="fill:none;stroke:#000;stroke-width:11.1px;"/>
                <path d="M280.669,827.598l7.717,-4.409l-8.662,4.882l0,82.992" style="fill:none;stroke:#000;stroke-width:11.1px;"/>
                <path d="M293.898,1264.92l-0,-28.976l328.189,-189.449l36.378,20.945l-0,41.89l-328.189,189.449l-36.378,-20.945l-0,-12.914l-0,0.473" style="fill:none;stroke:#000;stroke-width:11.1px;"/>
                <path d="M293.898,1235.94l-0,2.205" style="fill:none;stroke:#000;stroke-width:11.1px;"/>
                <path d="M288.858,822.874l-0.472,0.315l17.323,-10.079l-16.851,9.764" style="fill:none;stroke:#000;stroke-width:11.1px;"/>
                <path d="M316.102,974.055l71.496,41.26" style="fill:none;stroke:#000;stroke-width:11.1px;"/>
                <path d="M306.654,812.48l0.315,-0.157l-1.26,0.787" style="fill:none;stroke:#000;stroke-width:11.1px;"/>
                <path d="M306.969,812.323l16.22,-9.292l-16.22,9.292l9.606,-5.512" style="fill:none;stroke:#000;stroke-width:11.1px;"/>
                <path d="M410.118,752.795l17.323,-9.921l-104.252,60.157l0.63,-0.472" style="fill:none;stroke:#000;stroke-width:11.1px;"/>
                <path d="M427.441,742.874l17.323,-10.079l-17.323,10.079" style="fill:none;stroke:#000;stroke-width:11.1px;"/>
                <path d="M444.764,1364.92l-6.614,-3.779l-0,-42.048l328.189,-189.448l36.378,21.102l-0,41.89l-328.189,189.449l-29.764,-17.166" style="fill:none;stroke:#000;stroke-width:11.1px;"/>
                <path d="M569.961,993.583l142.362,-82.205l-36.063,-62.52l-72.126,-41.575l-171.181,98.898" style="fill:none;stroke:#000;stroke-width:11.1px;"/>
                <path d="M460.197,1057.2l71.496,41.417" style="fill:none;stroke:#000;stroke-width:11.1px;"/>
                <path d="M450.748,729.331l-5.984,3.464l15.275,-8.819l72.126,41.733l35.906,62.362l3.149,-1.732" style="fill:none;stroke:#000;stroke-width:11.1px;"/>
                <path d="M531.85,765.551l13.071,-7.559l9.292,-4.094l8.818,-0.788l7.56,2.362l30.708,17.638l5.67,3.307l5.669,5.355l3.622,8.031l1.26,10.079l-0,15.118" style="fill:none;stroke:#000;stroke-width:11.1px;"/>
                <path d="M582.402,1444.45l36.22,20.945l328.189,-189.449l0,-42.047l-36.22,-20.945l-13.701,7.874l-314.488,181.575l-0,42.047" style="fill:none;stroke:#000;stroke-width:11.1px;"/>
                <path d="M568.228,994.685l14.174,-8.189l-12.284,6.929" style="fill:none;stroke:#000;stroke-width:11.1px;"/>
                <path d="M601.299,975.472l11.181,-6.456" style="fill:none;stroke:#000;stroke-width:11.1px;"/>
                <path d="M676.102,1181.77l-71.653,-41.26" style="fill:none;stroke:#000;stroke-width:11.1px;"/>
                <path d="M676.102,848.701l12.914,-7.559l9.449,-3.937l8.818,-0.788l7.56,2.205l8.188,4.882l28.032,16.22l5.827,5.355l3.622,8.031l1.26,10.079l-0,15.118" style="fill:none;stroke:#000;stroke-width:11.1px;"/>
                <path d="M721.457,1072.64l171.181,-98.898l72.126,41.732l36.063,62.363l-144.252,83.307" style="fill:none;stroke:#000;stroke-width:11.1px;"/>
                <path d="M721.457,906.181l1.574,-0.945l-17.322,10.079l15.748,-9.134l-9.134,5.197" style="fill:none;stroke:#000;stroke-width:11.1px;"/>
                <path d="M737.992,1534.21l24.882,14.488l328.189,-189.607l-0,-41.889l-36.378,-20.945l-328.189,189.449l0,41.889l11.496,6.615" style="fill:none;stroke:#000;stroke-width:11.1px;"/>
                <path d="M723.031,905.236l25.355,-14.645l72.126,41.574l36.063,62.52l2.992,-1.732" style="fill:none;stroke:#000;stroke-width:11.1px;"/>
                <path d="M740.354,895.157l7.717,-4.409" style="fill:none;stroke:#000;stroke-width:11.1px;"/>
                <path d="M820.197,1265.08l-71.496,-41.26" style="fill:none;stroke:#000;stroke-width:11.1px;"/>
                <path d="M820.197,932.008l13.071,-7.559l9.449,-3.937l8.818,-0.945l7.402,2.362l20.63,11.811l15.748,9.134l5.827,5.354l3.622,8.032l1.26,10.236l-0,14.961" style="fill:none;stroke:#000;stroke-width:11.1px;"/>
                <path d="M857.52,1160.67l0.315,-0.157" style="fill:none;stroke:#000;stroke-width:11.1px;"/>
                <path d="M862.087,1157.99l17.48,-10.079" style="fill:none;stroke:#000;stroke-width:11.1px;"/>
                <path d="M892.953,1306.97l71.496,41.417" style="fill:none;stroke:#000;stroke-width:11.1px;"/>
                <path d="M887.913,1143.03l8.977,-5.196" style="fill:none;stroke:#000;stroke-width:11.1px;"/>
                <path d="M964.449,1015.32l13.071,-7.559l9.449,-3.937l8.661,-0.945l7.559,2.362l36.378,20.945l5.827,5.354l3.622,8.032l1.26,10.079l-0,15.118" style="fill:none;stroke:#000;stroke-width:11.1px;"/>
                <path d="M983.819,1087.76l17.48,-10.079l-0.472,0.158" style="fill:none;stroke:#000;stroke-width:11.1px;"/>
                <path d="M1000.83,1244.45l180.315,-104.095l71.968,41.575l36.063,62.52l0,83.307l-180.157,103.937l-71.811,-41.417" style="fill:none;stroke:#000;stroke-width:11.1px;"/>
                <path d="M1001.3,1077.68l17.323,-10.079l-10.079,5.827" style="fill:none;stroke:#000;stroke-width:11.1px;"/>
                <path d="M1018.62,1067.6l18.268,-10.551l72.126,41.733l36.063,62.362" style="fill:none;stroke:#000;stroke-width:11.1px;"/>
                <path d="M1035.94,1057.52l0.787,-0.315" style="fill:none;stroke:#000;stroke-width:11.1px;"/>
                <path d="M1108.7,1098.62l13.071,-7.559l9.291,-4.094l8.819,-0.788l7.559,2.362l4.094,2.363l32.284,18.582l5.669,5.355l3.622,8.031l1.26,10.079l0,15.118" style="fill:none;stroke:#000;stroke-width:11.1px;"/>
                <path d="M1338.62,1295l0,-78.74l-1.26,-10.236l-3.622,-8.032l-5.827,-5.354l-36.22,-20.945l-7.559,-2.362l-8.819,0.945l-9.291,3.937l-13.071,7.559" style="fill:none;stroke:#000;stroke-width:11.1px;"/>
                <path d="M1289.17,1244.76l4.095,-2.362l2.204,-0.945l2.205,-0.158l1.89,0.473" style="fill:none;stroke:#000;stroke-width:11.1px;"/>
            </g>
        </g>
        <g id="Actor_.5">
            <g>
                <path d="M1347.76,436.89l20.787,11.968l5.985,-3.464" style="fill:none;stroke:#000;stroke-width:5.56px;"/>
                <path d="M1368.54,448.858l1.418,0.63l1.417,0.158l1.102,-0.315" style="fill:none;stroke:#000;stroke-width:5.56px;"/>
                <path d="M1390.28,455.315l-4.882,2.835l-0.63,1.417" style="fill:none;stroke:#000;stroke-width:5.56px;"/>
                <path d="M1385.39,458.15l4.882,-16.063" style="fill:none;stroke:#000;stroke-width:5.56px;"/>
                <path d="M1385.87,415.63l2.992,-0.787l1.418,0.157" style="fill:none;stroke:#000;stroke-width:5.56px;"/>
                <path d="M1390.28,390.591l142.047,82.047l-0,111.496" style="fill:none;stroke:#000;stroke-width:5.56px;"/>
                <path d="M1438.46,398.78l-0,-3.15l-6.142,-2.205l-5.827,-3.307l-5.039,-4.409l-1.733,-2.048l-2.834,-4.409l-1.575,-3.78l-0.315,-0.787l-0.63,-4.567l0,14.803" style="fill:none;stroke:#000;stroke-width:5.56px;"/>
                <path d="M1414.37,370.118l63.937,-36.85l0,39.37l-39.842,22.992" style="fill:none;stroke:#000;stroke-width:5.56px;"/>
                <path d="M1478.31,372.638l96.536,55.748l-42.52,24.567" style="fill:none;stroke:#000;stroke-width:5.56px;"/>
                <path d="M1478.31,333.268l130.709,75.433" style="fill:none;stroke:#000;stroke-width:5.56px;"/>
                <path d="M1495.32,323.504l76.693,-44.252l-0,39.213l-42.52,24.724" style="fill:none;stroke:#000;stroke-width:5.56px;"/>
                <path d="M1532.32,472.638l204.409,-118.11" style="fill:none;stroke:#000;stroke-width:5.56px;"/>
                <path d="M1566.34,515.157l5.984,3.465l3.622,2.677l3.307,3.465l2.835,4.094l2.362,4.567l1.417,4.725l8.189,36.22l0.63,1.89l0.945,1.89l1.102,1.574l1.418,1.418l1.417,1.102l20.787,11.969l0,1.259" style="fill:none;stroke:#000;stroke-width:5.56px;"/>
                <path d="M1572.32,518.622l34.016,-19.685" style="fill:none;stroke:#000;stroke-width:5.56px;"/>
                <path d="M1572.01,318.465l96.535,55.748l-42.519,24.567" style="fill:none;stroke:#000;stroke-width:5.56px;"/>
                <path d="M1572.01,279.252l130.551,75.276" style="fill:none;stroke:#000;stroke-width:5.56px;"/>
                <path d="M1585.87,538.15l34.016,-19.685" style="fill:none;stroke:#000;stroke-width:5.56px;"/>
                <path d="M1594.06,574.37l34.173,-19.685" style="fill:none;stroke:#000;stroke-width:5.56px;"/>
                <path d="M1599.57,582.244l34.016,-19.685" style="fill:none;stroke:#000;stroke-width:5.56px;"/>
                <path d="M1620.35,594.213l34.016,-19.685" style="fill:none;stroke:#000;stroke-width:5.56px;"/>
                <path d="M1668.54,456.26l5.985,3.307l3.464,2.677l3.465,3.465l2.834,4.252l2.363,4.567l1.417,4.566l8.189,36.378l0.63,1.89l0.945,1.732l1.102,1.733l1.417,1.417l1.418,0.945l34.015,-19.685" style="fill:none;stroke:#000;stroke-width:5.56px;"/>
                <path d="M1674.53,459.567l34.015,-19.685" style="fill:none;stroke:#000;stroke-width:5.56px;"/>
                <path d="M1696.26,515.472l34.173,-19.685" style="fill:none;stroke:#000;stroke-width:5.56px;"/>
                <path d="M1688.07,479.094l34.016,-19.685" style="fill:none;stroke:#000;stroke-width:5.56px;"/>
                <path d="M1722.56,536.575l0,-1.418l-20.787,-11.968" style="fill:none;stroke:#000;stroke-width:5.56px;"/>
                <path d="M1722.56,535.157l34.016,-19.685" style="fill:none;stroke:#000;stroke-width:5.56px;"/>
            </g>
            <g>
                <path d="M1383.35,418.15l-1.574,-0.945l-34.016,19.685l-0,1.26" style="fill:none;stroke:#000;stroke-width:11.1px;"/>
                <path d="M1372.48,449.331l0.945,-0.788l0.473,-1.26l8.346,-26.771l1.417,-2.992l2.205,-1.89l4.41,-2.52" style="fill:none;stroke:#000;stroke-width:11.1px;"/>
                <path d="M1390.28,502.087l-0,-137.638l181.732,-104.882l164.724,94.961l0,111.496l-11.653,6.614" style="fill:none;stroke:#000;stroke-width:11.1px;"/>
                <path d="M1390.28,501.772l-0,0.315l142.047,82.047l46.929,-27.244" style="fill:none;stroke:#000;stroke-width:11.1px;"/>
                <path d="M1414.37,384.921l117.953,68.032l76.693,-44.252" style="fill:none;stroke:#000;stroke-width:11.1px;"/>
                <path d="M1495.32,323.504l130.709,75.276l76.535,-44.252" style="fill:none;stroke:#000;stroke-width:11.1px;"/>
                <path d="M1583.35,574.213l-0.787,-2.205l-8.189,-36.378l-0.63,-1.89l-0.787,-1.732l-1.26,-1.732l-1.26,-1.418l-1.417,-0.945l-2.677,-1.574l-0,-11.182l34.015,-19.685l5.985,3.465l3.622,2.677l3.307,3.465l2.992,4.094l2.205,4.567l1.417,4.725l8.346,36.22l0.473,1.89l0.945,1.89l1.102,1.732l1.417,1.26l1.418,1.102l20.787,11.969l0,1.259" style="fill:none;stroke:#000;stroke-width:11.1px;"/>
                <path d="M1681.46,497.992l-58.583,33.701" style="fill:none;stroke:#000;stroke-width:11.1px;"/>
                <path d="M1756.58,516.89l-0,-1.418l-20.788,-11.968l-1.417,-0.945l-1.417,-1.417l-1.103,-1.733l-0.944,-1.732l-0.473,-1.89l-8.346,-36.378l-1.418,-4.566l-2.204,-4.567l-2.363,-3.465l-0.63,-0.787l-3.307,-3.465l-3.622,-2.677l-5.984,-3.307l-34.016,19.685l0,11.023l2.677,1.575l1.418,1.103l1.26,1.259l1.259,1.733l0.788,1.89l0.63,1.889l8.189,36.221l0.787,2.204" style="fill:none;stroke:#000;stroke-width:11.1px;"/>
            </g>
        </g>
        <g id="Actor_.6">
            <g>
                <path d="M2095.95,983.976l0.315,0.63l0.315,0.158l-0,-23.465l0.315,-0.945l0.315,-0.472l0.315,-0.315l0.472,-0.315l14.173,8.346l-0.315,0.315l-0.315,0.158l0,0.157l-0.315,0.315l-0.314,0.945l-0,0.473l0.314,0.157l0.473,0.158l0.472,-0" style="fill:none;stroke:#000;stroke-width:5.56px;"/>
                <path d="M2112.16,993.425l-0.472,-0.157l-0.473,-0l-0.314,-0.315l-14.331,-8.189l-0,0.315l0.315,0.63" style="fill:none;stroke:#000;stroke-width:5.56px;"/>
                <path d="M2111.22,993.898l-0.157,-0.158l-0.157,-0.315l-0,-23.464l-14.331,-8.347l-0.315,-0.157l-0.315,-0.63" style="fill:none;stroke:#000;stroke-width:5.56px;"/>
                <path d="M2112.16,969.173l28.504,16.378l0,26.299" style="fill:none;stroke:#000;stroke-width:5.56px;"/>
                <path d="M2113.11,968.543l-0.157,-0.315l-0.315,-0.315l-0.473,-0.315l31.339,-18.11l-14.173,-8.189l-0.473,-0.157l-0.157,-0.158l-0.158,0l-0.315,0.158" style="fill:none;stroke:#000;stroke-width:5.56px;"/>
                <path d="M2130.28,941.142l-0.315,-0.158l-0.63,0.315l-31.339,17.953l-0.472,-0l-0.158,-0.158l-0.157,0l-0.315,0.158" style="fill:none;stroke:#000;stroke-width:5.56px;"/>
                <path d="M2142.4,985.394l0.629,-0l0.315,0.157l31.339,-18.11l14.331,8.346l-31.339,17.953l-14.331,-8.189l-0.944,0.945l-0.315,0.473l-0,0.472l-0.158,0.472l0,23.15l0.158,0.315l-0,0.315l0.315,0.157" style="fill:none;stroke:#000;stroke-width:5.56px;"/>
                <path d="M2141.46,1010.28l-0,0.157l0.157,0.315l0.315,0.315l14.331,8.189l-0,-23.465l0.157,-0.472l0.315,-0.472l0.158,-0.473l0.315,-0.315l0.472,-0.315l0.63,0.63l0.315,0.473l0.315,0.944l0,23.465l31.339,-18.11l-0,-22.992l-31.339,17.952l-0.315,0.315l-0.472,0l-0.473,0.158l-0.472,-0.158l-0.473,0l-0.472,-0.315l-14.331,-8.189l-0.472,-0.472l-0,-0.315" style="fill:none;stroke:#000;stroke-width:5.56px;"/>
                <path d="M2140.67,985.551l34.016,-19.685" style="fill:none;stroke:#000;stroke-width:5.56px;"/>
                <path d="M2144.61,949.331l-0.63,-0l-0.472,0.157l0.472,0.315l0.63,0.63" style="fill:none;stroke:#000;stroke-width:5.56px;"/>
                <path d="M2158.62,1020.2l0.315,-0.63l0,-0.315l-0.63,0.315l-1.26,-0l-0.315,-0.158l-0.472,-0.157l-0,0.315l0.157,0.315l0.315,0.315" style="fill:none;stroke:#000;stroke-width:5.56px;"/>
                <path d="M2173.74,967.441l0.315,-0.158l0.315,0l0.315,0.158l0.315,-0.158l0.315,0l0.315,0.158" style="fill:none;stroke:#000;stroke-width:5.56px;"/>
                <path d="M2189.96,1002.09l0.157,-0.315l0.158,-0.158l-0,-0.472l0.315,-0.158l0.315,-0.315l-0,-0.315" style="fill:none;stroke:#000;stroke-width:5.56px;"/>
                <path d="M2190.91,977.205l-0,0.315l-0.63,0.63l-0,-0.473l-0.315,-0.945l-0.315,-0.472l-0.315,-0.315l-0.315,-0.158l0.63,-0.315l0.315,0.158" style="fill:none;stroke:#000;stroke-width:5.56px;"/>
            </g>
            <g>
                <path d="M2145.24,950.118l-0.315,-0.315l-0.315,-0.472l-14.33,-8.189l-0.63,-0.158l-0.315,-0.157l-0.63,0.157l-0.473,0.158l-31.338,18.11l-0.315,0.315l-0.158,0.315l-0.157,0.157l-0.158,0.315l-0.157,0.473l-0,23.149l0.315,0.945l0.315,0.473l0.315,0.315l14.33,8.189l0.315,0.157l0.473,0.158l0.157,-0" style="fill:none;stroke:#000;stroke-width:11.1px;"/>
                <path d="M2174.68,967.126l0,-1.26l-28.346,-16.378l-34.174,19.685l0,26.142l28.504,16.535l0.945,-0.63" style="fill:none;stroke:#000;stroke-width:11.1px;"/>
                <path d="M2142.4,1011.85l-0.473,-0.315l-0.315,-0.472l-0.157,-0.315l-0,-24.094l0.157,-0.473l0.315,-0.472l0.473,-0.315l31.338,-18.111l0.473,-0.157l0.944,-0l0.473,0.315l14.331,8.189l0.157,0.157l0.473,0.315l0.315,0.945l-0,23.622l-0.158,0.473l-0.157,0.315l-0.63,0.63l-31.339,18.11l-0.315,-0l-0.472,0.157l-0.473,0l-0.472,-0.157l-0.158,-0l-14.33,-8.347" style="fill:none;stroke:#000;stroke-width:11.1px;"/>
            </g>
        </g>
        <g id="Actor_.7">
            <g>
                <path d="M1656.1,729.961l0.315,0.63l0.315,0.157l14.331,8.346l0.63,0.315l0.63,0" style="fill:none;stroke:#000;stroke-width:5.56px;"/>
                <path d="M1657.05,731.693l-0.157,-0.158l-0,-0.157l-0.158,-0.158l0,-23.464l14.331,8.189l-0,-0.315l0.315,-0.945l0.315,-0.472l0.63,-0.63l31.338,-18.111l-14.33,-8.189l-0.315,-0.157l-0.63,-0" style="fill:none;stroke:#000;stroke-width:5.56px;"/>
                <path d="M1673.27,714.685l-0.158,-0.472l-0.315,-0.315l-0.472,-0.315l-14.331,-8.189l-0.315,-0.158l-0.63,0" style="fill:none;stroke:#000;stroke-width:5.56px;"/>
                <path d="M1690.43,687.126l-0.63,-0l-0.472,0.157l-31.339,18.111l-0.945,0.945l-0.315,0.944l0,0.473l-0.472,-0.473l-0.158,-0.314" style="fill:none;stroke:#000;stroke-width:5.56px;"/>
                <path d="M1672.32,716.26l-0.473,-0l-0.472,-0.158l-0.315,-0.157l-0,23.464l0.315,0.63" style="fill:none;stroke:#000;stroke-width:5.56px;"/>
                <path d="M1672.32,715.157l28.504,16.378l-0,26.3" style="fill:none;stroke:#000;stroke-width:5.56px;"/>
                <path d="M1701.61,733.11l0,0.315l0.158,0.315l0.315,0.158l14.33,8.346l0.945,0.315l0.945,0l0.473,-0.157l0.314,-0.158l31.339,-18.11l0,23.149l-31.339,17.953l0,-23.464l-0.314,-0.945l-0.945,-0.945l-14.331,-8.347l31.339,-17.952l14.33,8.189l-31.338,18.11l-0.473,0.315l-0.315,0.315l-0.157,0.315l-0.315,0.472l-0.158,0.473l0,23.464l-14.33,-8.189l-0,-23.464l0.157,-0.473l0.63,-0.945l0.63,-0.63l-0.315,-0.157l-0.315,-0l-0.315,0.157" style="fill:none;stroke:#000;stroke-width:5.56px;"/>
                <path d="M1701.61,756.26l0,0.315l0.473,0.472l-0,0.315l0.157,0.315l0.315,0.315" style="fill:none;stroke:#000;stroke-width:5.56px;"/>
                <path d="M1700.83,731.535l34.016,-19.527" style="fill:none;stroke:#000;stroke-width:5.56px;"/>
                <path d="M1704.61,695.472l-0.157,-0.157l-0.315,-0l-0.473,0.157l0.473,0.315l0.157,0.315l0.158,0l0.157,0.473" style="fill:none;stroke:#000;stroke-width:5.56px;"/>
                <path d="M1718.78,766.181l0.157,-0.157l0.157,-0.315l0,-0.473l-0.314,0.315l-1.89,0l-0.473,-0.315l0,0.473l0.158,0.315l0.315,0.157" style="fill:none;stroke:#000;stroke-width:5.56px;"/>
                <path d="M1735.79,713.425l-0.315,-0.157l-0.629,0.315l-0.63,-0.315l-0.315,0.157" style="fill:none;stroke:#000;stroke-width:5.56px;"/>
                <path d="M1750.12,748.071l0.158,-0.158l-0,-0.157l0.157,-0.158l0,-0.315l0.63,-0.629l-0,-0.158" style="fill:none;stroke:#000;stroke-width:5.56px;"/>
                <path d="M1751.06,723.346l-0,0.315l-0.315,0.158l-0.315,0.315l0,-0.473l-0.315,-0.944l-0.315,-0.315l0,-0.158l-0.315,-0.157l-0.315,-0.315l0.315,-0.158l0.63,0" style="fill:none;stroke:#000;stroke-width:5.56px;"/>
            </g>
            <g>
                <path d="M1672.32,740.197l-0.158,-0l-0.472,-0.158l-0.315,-0.157l-14.331,-8.189l-0.315,-0.315l-0.315,-0.472l-0.157,-0.315l-0.158,-0.63l0,-22.992l0.158,-0.63l0.157,-0.315l0,-0.158l0.63,-0.63l31.339,-18.11l0.472,-0.157l0.945,-0l0.63,0.157l14.173,8.346l0.473,0.315l0.315,0.315" style="fill:none;stroke:#000;stroke-width:11.1px;"/>
                <path d="M1701.77,757.205l-0.945,0.63l-28.504,-16.378l-0,-26.3l34.173,-19.685l28.347,16.536l-0,1.102" style="fill:none;stroke:#000;stroke-width:11.1px;"/>
                <path d="M1706.34,760.197l-3.78,-2.205l-0.472,-0.315l-0.315,-0.472l-0.158,-0.473l0,-24.094l0.158,-0.315l0.315,-0.473l0.472,-0.315l31.339,-18.11l0.315,-0.157l0.63,-0.158l0.944,0.315l14.331,8.189l0.158,0.158l0.315,0.472l0.315,0.315l0.157,0.472l-0,23.623l-0.157,0.472l-0.315,0.472l-0.473,0.473l-31.338,18.11l-0.315,0.158l-0.473,0.157l-0.472,0l-0.473,-0.157l-0.157,-0.158l-10.551,-5.984" style="fill:none;stroke:#000;stroke-width:11.1px;"/>
            </g>
        </g>
        <g id="Actor_.8">
            <g>
                <path d="M1773.27,682.559l20.63,11.969l6.141,-3.465" style="fill:none;stroke:#000;stroke-width:5.56px;"/>
                <path d="M1793.9,694.528l1.574,0.629l1.26,0.158l1.103,-0.315" style="fill:none;stroke:#000;stroke-width:5.56px;"/>
                <path d="M1810.12,705.079l0.788,-1.418l4.881,-2.834" style="fill:none;stroke:#000;stroke-width:5.56px;"/>
                <path d="M1810.91,703.661l4.881,-15.905" style="fill:none;stroke:#000;stroke-width:5.56px;"/>
                <path d="M1811.38,661.299l2.835,-0.787l1.574,0.157" style="fill:none;stroke:#000;stroke-width:5.56px;"/>
                <path d="M1815.79,636.26l141.89,81.89l0,111.496" style="fill:none;stroke:#000;stroke-width:5.56px;"/>
                <path d="M1863.98,644.449l0,-3.15l-6.299,-2.205l-5.827,-3.307l-4.881,-4.409l-1.89,-2.047l-2.835,-4.41l-1.417,-3.779l-0.315,-0.788l-0.63,-4.567l-0,14.804" style="fill:none;stroke:#000;stroke-width:5.56px;"/>
                <path d="M1839.88,615.787l63.937,-36.85l130.551,75.433" style="fill:none;stroke:#000;stroke-width:5.56px;"/>
                <path d="M1863.98,641.299l39.843,-22.992l-0,-39.37" style="fill:none;stroke:#000;stroke-width:5.56px;"/>
                <path d="M1903.82,618.307l96.535,55.591l-42.677,24.724" style="fill:none;stroke:#000;stroke-width:5.56px;"/>
                <path d="M1920.83,569.016l76.693,-44.252l-0,39.37l-42.677,24.567" style="fill:none;stroke:#000;stroke-width:5.56px;"/>
                <path d="M1957.68,718.15l204.41,-117.953" style="fill:none;stroke:#000;stroke-width:5.56px;"/>
                <path d="M1991.85,760.827l5.827,3.464l34.173,-19.685" style="fill:none;stroke:#000;stroke-width:5.56px;"/>
                <path d="M1997.68,764.291l3.622,2.52l3.307,3.622l2.992,4.095l2.205,4.566l1.575,4.725l8.189,36.22l0.63,1.89l0.787,1.89l1.26,1.575l1.26,1.417l1.417,1.102l34.173,-19.685" style="fill:none;stroke:#000;stroke-width:5.56px;"/>
                <path d="M1997.52,564.134l96.535,55.748l-42.677,24.567" style="fill:none;stroke:#000;stroke-width:5.56px;"/>
                <path d="M1997.52,524.764l130.551,75.433" style="fill:none;stroke:#000;stroke-width:5.56px;"/>
                <path d="M2019.57,820.039l34.016,-19.685" style="fill:none;stroke:#000;stroke-width:5.56px;"/>
                <path d="M2024.92,827.913l20.788,11.969l-0,1.26" style="fill:none;stroke:#000;stroke-width:5.56px;"/>
                <path d="M2011.38,783.819l34.016,-19.685" style="fill:none;stroke:#000;stroke-width:5.56px;"/>
                <path d="M2045.71,839.882l34.173,-19.685" style="fill:none;stroke:#000;stroke-width:5.56px;"/>
                <path d="M2094.05,701.772l5.827,3.464l34.173,-19.685" style="fill:none;stroke:#000;stroke-width:5.56px;"/>
                <path d="M2099.88,705.236l3.622,2.677l3.307,3.465l2.992,4.094l2.205,4.567l1.575,4.725l8.189,36.22l0.63,1.89l0.787,1.89l1.26,1.575l1.26,1.417l1.417,1.102l34.173,-19.685" style="fill:none;stroke:#000;stroke-width:5.56px;"/>
                <path d="M2113.58,724.764l34.015,-19.685" style="fill:none;stroke:#000;stroke-width:5.56px;"/>
                <path d="M2147.91,782.087l0,-1.26l-20.787,-11.969" style="fill:none;stroke:#000;stroke-width:5.56px;"/>
                <path d="M2121.77,760.984l34.015,-19.527" style="fill:none;stroke:#000;stroke-width:5.56px;"/>
                <path d="M2181.93,761.142l-34.016,19.685" style="fill:none;stroke:#000;stroke-width:5.56px;"/>
            </g>
            <g>
                <path d="M1808.86,663.661l-1.575,-0.787l-34.015,19.685l-0,1.26" style="fill:none;stroke:#000;stroke-width:11.1px;"/>
                <path d="M1797.84,695l0.945,-0.787l0.629,-1.26l8.189,-26.772l1.575,-2.992l2.205,-1.89l4.409,-2.519" style="fill:none;stroke:#000;stroke-width:11.1px;"/>
                <path d="M2150.59,718.307l11.496,-6.614l-0,-111.496l-164.567,-95.118l-181.733,105.039l0,137.638l141.89,81.89l46.929,-27.087" style="fill:none;stroke:#000;stroke-width:11.1px;"/>
                <path d="M1815.79,610.591l0,-0.473l0,0.63" style="fill:none;stroke:#000;stroke-width:11.1px;"/>
                <path d="M1839.88,630.591l117.795,68.031l76.693,-44.252" style="fill:none;stroke:#000;stroke-width:11.1px;"/>
                <path d="M1920.83,569.016l130.551,75.433l76.693,-44.252" style="fill:none;stroke:#000;stroke-width:11.1px;"/>
                <path d="M2008.7,819.882l-0.63,-2.362l-8.189,-36.221l-0.63,-1.89l-0.945,-1.889l-1.102,-1.575l-1.418,-1.417l-1.417,-1.103l-2.52,-1.417l0,-11.181l34.016,-19.685l5.984,3.464l3.465,2.52l3.465,3.622l2.834,4.095l2.362,4.566l1.418,4.725l8.189,36.22l0.63,1.89l0.944,1.89l1.103,1.575l1.417,1.417l1.417,1.102l20.788,11.969l-0,1.26" style="fill:none;stroke:#000;stroke-width:11.1px;"/>
                <path d="M2048.39,777.362l58.425,-33.858" style="fill:none;stroke:#000;stroke-width:11.1px;"/>
                <path d="M2110.91,760.827l-0.63,-2.205l-8.189,-36.378l-0.63,-1.89l-0.945,-1.732l-1.103,-1.732l-1.417,-1.418l-1.417,-0.944l-2.52,-1.575l0,-11.181l34.016,-19.528l5.984,3.307l3.465,2.677l3.464,3.465l2.835,4.094l2.205,4.567l1.574,4.725l8.189,36.378l0.63,1.732l0.945,1.89l1.103,1.732l1.417,1.26l1.417,1.102l20.63,11.969l0,1.417" style="fill:none;stroke:#000;stroke-width:11.1px;"/>
            </g>
        </g>
        <g id="Actor_.9">
            <g>
                <path d="M1901.3,871.535l0,0.315l0.315,0.315l0.315,0.158l14.173,8.346l0.945,0.315l0.473,0" style="fill:none;stroke:#000;stroke-width:5.56px;"/>
                <path d="M1902.24,873.268l-0.157,-0.158l-0,-0.157l-0.158,-0.158l0,-23.464l14.173,8.189l0,23.149l0.315,0.63l0.158,0.158" style="fill:none;stroke:#000;stroke-width:5.56px;"/>
                <path d="M1917.52,857.835l-0.473,-0l-0.945,-0.315l0.315,-0.945l0.158,-0.315l0.315,-0.473l0.63,-0.63l-14.331,-8.188l-0.315,-0.158l-0.63,0" style="fill:none;stroke:#000;stroke-width:5.56px;"/>
                <path d="M1901.3,848.543l0,0.315l0.315,0.158l0.315,0.315l0,-0.473l0.315,-0.945l0.315,-0.315l0.315,-0.472l0.315,-0.157l31.339,-18.111l0.315,-0.157l0.629,-0" style="fill:none;stroke:#000;stroke-width:5.56px;"/>
                <path d="M1933.58,828.701l0.63,-0l0.315,0.157l14.33,8.189l-31.338,18.11l0.63,0.63l0.315,0.473" style="fill:none;stroke:#000;stroke-width:5.56px;"/>
                <path d="M1980.04,853.425l-34.173,19.685l-28.346,-16.378" style="fill:none;stroke:#000;stroke-width:5.56px;"/>
                <path d="M1961.93,907.756l-0.157,-0.158l-0.158,-0.315l0,-0.472l-14.331,-8.189l0,0.315l0.158,0.315l0.315,0.157" style="fill:none;stroke:#000;stroke-width:5.56px;"/>
                <path d="M1946.65,897.835l0.157,0.315l0.472,0.472l0,-23.15l-0.314,-0.157l-0.315,-0.63" style="fill:none;stroke:#000;stroke-width:5.56px;"/>
                <path d="M1945.87,899.409l0,-26.299" style="fill:none;stroke:#000;stroke-width:5.56px;"/>
                <path d="M1995.32,863.189l-0.63,-0l-0.315,0.157l-31.339,18.111l-0.472,0.157l-0.315,0.473l-0.315,0.315l-0.315,0.944l0,0.473l-14.331,-8.347l0,-0.472l0.158,-0.315l0.315,-0.472l0.157,-0.473l0.315,-0.315l0.473,-0.315l14.33,8.347l0.315,0.157l0.315,0.473l0.315,0.315l0.315,0.944l0,23.465l-0.315,0.158l-0.472,0.157l-1.102,-0l-0.473,-0.157l-0.315,-0.158l0,-22.992l0.315,0.157l0.473,0.158l1.102,-0l0.472,-0.158l0.315,-0.157l31.339,-18.11l-0,-0.473l-0.315,-0.945l-0.315,-0.315l-0.315,-0.472l-0.315,-0.158l-14.331,-8.346l-31.338,18.11l-0.473,-0.157l-0.315,-0l-0.157,0.157" style="fill:none;stroke:#000;stroke-width:5.56px;"/>
                <path d="M1949.8,837.047l-0.315,-0.157l-0.315,-0l-0.315,0.157l0.63,0.63l0.315,0.473" style="fill:none;stroke:#000;stroke-width:5.56px;"/>
                <path d="M1963.98,907.756l0.158,-0.158l0.157,-0.315l0,-0.472l31.339,-18.11l0.315,-0.158l0.315,-0.63" style="fill:none;stroke:#000;stroke-width:5.56px;"/>
                <path d="M1979.09,855l0.158,-0.157l0.315,-0l0.472,0.157l0.315,-0.157l0.315,-0l0.315,0.157" style="fill:none;stroke:#000;stroke-width:5.56px;"/>
                <path d="M1995.32,889.646l0.157,-0.158l0.158,-0.315l-0,-23.464l0.472,-0.473l0.158,-0.315" style="fill:none;stroke:#000;stroke-width:5.56px;"/>
            </g>
            <g>
                <path d="M1917.52,881.772l-0.945,-0.315l-14.331,-8.189l-0.787,-0.788l-0.158,-0.315l0,-24.252l0.158,-0.315l0.787,-0.787l31.339,-18.11l0.472,-0.158l0.945,0l0.472,0.158l14.331,8.346l0.315,0.158l0.473,0.472" style="fill:none;stroke:#000;stroke-width:11.1px;"/>
                <path d="M1946.97,898.78l-1.103,0.629l-28.346,-16.378l-0,-26.299l34.015,-19.685l28.504,16.378l0,1.26" style="fill:none;stroke:#000;stroke-width:11.1px;"/>
                <path d="M1957.52,905.079l-9.764,-5.67l-0.473,-0.157l-0.472,-0.945l-0.157,-0.472l-0,-23.15l0.315,-0.945l0.314,-0.315l0.473,-0.315l27.087,-15.748l4.251,-2.362l0.473,-0.315l0.315,0l0.63,0.158l0.472,0.157l14.331,8.189l0.472,0.472l0.315,0.473l0.158,0.472l-0,23.622l-0.158,0.473l-0.315,0.472l-0.472,0.473l-31.339,18.11l-0.63,0.157l-0.944,0l-0.473,-0.157l-4.409,-2.677" style="fill:none;stroke:#000;stroke-width:11.1px;"/>
            </g>
        </g>
        <g id="Actor_.10">
            <g>
                <path d="M907.913,182.874l20.788,11.969l5.984,-3.465" style="fill:none;stroke:#000;stroke-width:5.56px;"/>
                <path d="M928.701,194.843l1.417,0.629l1.26,0.158l1.26,-0.315" style="fill:none;stroke:#000;stroke-width:5.56px;"/>
                <path d="M950.433,201.299l-4.882,2.835l-0.63,1.417" style="fill:none;stroke:#000;stroke-width:5.56px;"/>
                <path d="M945.551,204.134l4.882,-15.906" style="fill:none;stroke:#000;stroke-width:5.56px;"/>
                <path d="M946.024,161.614l2.992,-0.787l1.417,0.157" style="fill:none;stroke:#000;stroke-width:5.56px;"/>
                <path d="M950.433,136.732l142.047,81.89l0,111.496" style="fill:none;stroke:#000;stroke-width:5.56px;"/>
                <path d="M998.622,144.921l0,-3.307l-6.142,-2.047l-5.826,-3.465l-5.04,-4.252l-1.732,-2.047l-2.992,-4.409l-1.418,-3.937l-0.315,-0.63l-0.629,-4.567l-0,14.646" style="fill:none;stroke:#000;stroke-width:5.56px;"/>
                <path d="M974.528,116.26l63.937,-37.008l130.551,75.433" style="fill:none;stroke:#000;stroke-width:5.56px;"/>
                <path d="M998.622,141.614l39.843,-22.992l96.535,55.748l-42.52,24.567" style="fill:none;stroke:#000;stroke-width:5.56px;"/>
                <path d="M1038.46,118.622l-0,-39.37" style="fill:none;stroke:#000;stroke-width:5.56px;"/>
                <path d="M1055.47,69.488l76.693,-44.252l0,39.37l-42.519,24.567" style="fill:none;stroke:#000;stroke-width:5.56px;"/>
                <path d="M1092.48,218.622l204.41,-117.953" style="fill:none;stroke:#000;stroke-width:5.56px;"/>
                <path d="M1166.5,245.079l-34.016,19.527l-5.984,-3.307" style="fill:none;stroke:#000;stroke-width:5.56px;"/>
                <path d="M1132.48,264.606l3.465,2.677l3.464,3.465l2.835,4.252l2.362,4.567l1.418,4.567l8.189,36.378l34.173,-19.685" style="fill:none;stroke:#000;stroke-width:5.56px;"/>
                <path d="M1132.16,64.606l96.536,55.748l-42.52,24.567" style="fill:none;stroke:#000;stroke-width:5.56px;"/>
                <path d="M1262.72,100.669l-130.552,-75.433" style="fill:none;stroke:#000;stroke-width:5.56px;"/>
                <path d="M1154.21,320.512l0.63,1.89l0.944,1.732l1.103,1.732l1.417,1.417l1.417,0.945l34.016,-19.685" style="fill:none;stroke:#000;stroke-width:5.56px;"/>
                <path d="M1146.02,284.134l34.015,-19.685" style="fill:none;stroke:#000;stroke-width:5.56px;"/>
                <path d="M1159.72,328.228l20.788,11.969l-0,1.417" style="fill:none;stroke:#000;stroke-width:5.56px;"/>
                <path d="M1180.51,340.197l34.016,-19.528" style="fill:none;stroke:#000;stroke-width:5.56px;"/>
                <path d="M1268.7,186.024l-34.016,19.685l3.465,2.519l3.464,3.622l2.835,4.095l2.362,4.567l1.417,4.724l8.189,36.221l34.016,-19.685" style="fill:none;stroke:#000;stroke-width:5.56px;"/>
                <path d="M1234.68,205.709l-5.984,-3.465" style="fill:none;stroke:#000;stroke-width:5.56px;"/>
                <path d="M1295.94,249.646l-34.016,19.685l20.788,11.968l-0,1.26" style="fill:none;stroke:#000;stroke-width:5.56px;"/>
                <path d="M1261.93,269.331l-1.417,-1.103l-1.418,-1.417l-1.102,-1.575l-0.945,-1.89l-0.63,-1.889" style="fill:none;stroke:#000;stroke-width:5.56px;"/>
                <path d="M1248.23,225.236l34.016,-19.685" style="fill:none;stroke:#000;stroke-width:5.56px;"/>
                <path d="M1316.73,261.614l-34.015,19.685" style="fill:none;stroke:#000;stroke-width:5.56px;"/>
            </g>
            <g>
                <path d="M943.504,164.134l-1.575,-0.945l-34.016,19.685l0,1.417" style="fill:none;stroke:#000;stroke-width:11.1px;"/>
                <path d="M932.638,195.315l0.945,-0.787l0.472,-1.103l8.347,-26.771l1.417,-2.993l2.205,-2.047l4.409,-2.52" style="fill:none;stroke:#000;stroke-width:11.1px;"/>
                <path d="M1139.41,303.031l-46.929,27.087l-142.047,-81.89l0,-137.795l181.732,-104.882l164.725,95.118l-0,111.496l-11.654,6.615" style="fill:none;stroke:#000;stroke-width:11.1px;"/>
                <path d="M950.433,247.913l0,0.315l0,-0.157" style="fill:none;stroke:#000;stroke-width:11.1px;"/>
                <path d="M1169.02,154.685l-76.536,44.252l-117.952,-68.031" style="fill:none;stroke:#000;stroke-width:11.1px;"/>
                <path d="M1055.47,69.488l130.709,75.433l76.536,-44.252" style="fill:none;stroke:#000;stroke-width:11.1px;"/>
                <path d="M1214.53,321.929l-0,-1.26l-20.788,-12.126l-1.417,-0.945l-1.417,-1.417l-1.103,-1.732l-0.945,-1.732l-0.472,-1.89l-8.347,-36.378l-1.417,-4.567l-2.362,-4.567l-2.835,-4.252l-3.307,-3.465l-3.622,-2.519l-5.984,-3.465l-34.016,19.685l0,11.181l2.677,1.418l1.418,1.102l1.259,1.417l1.26,1.575l0.788,1.89l0.63,1.89l8.189,36.22l0.787,2.205" style="fill:none;stroke:#000;stroke-width:11.1px;"/>
                <path d="M1241.61,243.976l-58.583,33.859" style="fill:none;stroke:#000;stroke-width:11.1px;"/>
                <path d="M1316.73,262.874l0,-1.26l-20.787,-11.968l-1.417,-1.103l-1.418,-1.417l-1.102,-1.575l-0.945,-1.89l-0.63,-1.889l-8.189,-36.221l-1.417,-4.724l-2.362,-4.567l-2.835,-4.095l-3.307,-3.622l-3.622,-2.519l-5.984,-3.465l-34.016,19.685l-0,11.181l2.519,1.418l1.575,1.102l1.26,1.417l1.26,1.575l0.787,1.89l0.63,1.89l8.189,36.22l0.788,2.362" style="fill:none;stroke:#000;stroke-width:11.1px;"/>
            </g>
        </g>
        <g id="Actor_.11">
            <g>
                <path d="M2333.9,1121.3l0.315,0.63l0.315,0.158l-0,-23.465l0.315,-0.945l0.629,-0.63l0.473,-0.315l-0.473,-0.157l-0.629,-0" style="fill:none;stroke:#000;stroke-width:5.56px;"/>
                <path d="M2333.9,1098.31l0.157,0.315l0.473,0.472l14.33,8.189l0,23.15l-14.33,-8.346l-0,0.472l0.157,0.158l0,0.157l0.158,0.157" style="fill:none;stroke:#000;stroke-width:5.56px;"/>
                <path d="M2350.12,1107.6l-0.472,0l-0.473,-0.157l-0.315,-0.158l0,-0.314l0.315,-0.945l0.315,-0.473l0.63,-0.63l-14.173,-8.189l31.338,-18.11l0.315,-0.157l0.63,-0" style="fill:none;stroke:#000;stroke-width:5.56px;"/>
                <path d="M2350.12,1130.75l-0.472,0l-0.473,-0.157l-0.315,-0.158l0,0.315l0.158,0.315l0.157,0.157" style="fill:none;stroke:#000;stroke-width:5.56px;"/>
                <path d="M2412.64,1103.35l-34.016,19.528l-28.504,-16.378" style="fill:none;stroke:#000;stroke-width:5.56px;"/>
                <path d="M2366.18,1078.46l0.63,-0l0.472,0.157l14.174,8.189l-31.339,18.11l0.473,0.315l0.157,0.315l0.158,0l0.314,0.473" style="fill:none;stroke:#000;stroke-width:5.56px;"/>
                <path d="M2379.41,1147.6l0,0.315l0.473,0.473l-0,-23.15l-0.315,-0.157l-0.158,-0.158l0,-0.472" style="fill:none;stroke:#000;stroke-width:5.56px;"/>
                <path d="M2394.68,1157.52l-0.315,-0.158l-0.157,-0.315l-0,-0.472l-14.331,-8.189l0.157,0.315l0,0.315l0.315,0.315" style="fill:none;stroke:#000;stroke-width:5.56px;"/>
                <path d="M2378.62,1149.17l0,-26.299" style="fill:none;stroke:#000;stroke-width:5.56px;"/>
                <path d="M2392.16,1132.32l-12.283,-7.087l0.157,-0.315l0,-0.472l0.63,-0.945l0.63,-0.63l14.331,8.346l0.315,0.158l0.315,0.472l0.315,0.315l0.315,0.945l-0,23.465l-0.315,0.315l-1.89,-0l-0.472,-0.315l-0,-22.992l-2.048,-1.26" style="fill:none;stroke:#000;stroke-width:5.56px;"/>
                <path d="M2396.58,1157.52l0.157,-0.158l0.158,-0.315l-0,-0.472l31.338,-18.11l0,-23.465l-0.315,-0.945l-0.944,-0.945l-14.331,-8.346l-31.339,18.11l-0.315,-0.157l-0.315,-0l-0.315,0.157" style="fill:none;stroke:#000;stroke-width:5.56px;"/>
                <path d="M2382.56,1086.81l-0.315,-0.157l-0.315,-0l-0.472,0.157l0.472,0.315l0.158,0.315l0.157,-0l0.315,0.472" style="fill:none;stroke:#000;stroke-width:5.56px;"/>
                <path d="M2427.91,1112.95l-0.63,-0l-0.314,0.157l-31.339,18.11l-0.315,0.158l-0.472,0.472l-0.158,0.315l-0.315,0.473l-0.157,0.472l-0,0.473l0.944,0.315l0.945,-0l0.473,-0.158l0.315,-0.157l31.338,-18.111l0.315,-0.315l0.315,-0.157l0,-0.315" style="fill:none;stroke:#000;stroke-width:5.56px;"/>
                <path d="M2411.69,1104.76l0.315,-0.158l0.315,0.158l0.63,-0l0.315,-0.158l0.315,0.158" style="fill:none;stroke:#000;stroke-width:5.56px;"/>
                <path d="M2427.91,1139.41l0.158,-0.157l0.157,-0.315l0,-0.472l0.315,-0.158l0.315,-0.315l0,-0.315" style="fill:none;stroke:#000;stroke-width:5.56px;"/>
            </g>
            <g>
                <path d="M2350.12,1131.54l-0.472,0l-0.473,-0.315l-14.33,-8.189l-0.315,-0.314l-0.315,-0.473l-0.158,-0.315l-0.157,-0.63l-0,-22.992l0.157,-0.63l0.158,-0.315l0.157,-0.157l0.158,-0.315l0.315,-0.315l31.338,-18.11l0.473,-0.158l0.944,0l0.63,0.158l14.331,8.346l0.63,0.63" style="fill:none;stroke:#000;stroke-width:11.1px;"/>
                <path d="M2379.57,1148.54l-0.945,0.63l-28.504,-16.378l0,-26.299l34.173,-19.685l28.347,16.535l-0,1.103" style="fill:none;stroke:#000;stroke-width:11.1px;"/>
                <path d="M2392.16,1156.1l-11.811,-6.771l-0.472,-0.315l-0.315,-0.473l-0.158,-0.472l0,-24.095l0.315,-0.472l0.158,-0.315l0.472,-0.315l29.292,-16.85l2.047,-1.26l0.945,-0.315l0.945,0.315l14.33,8.189l0.315,0.157l0.315,0.473l0.158,0.315l0.157,0.472l0,23.622l-0.315,0.945l-0.315,0.315l-0.315,0.157l-31.338,18.111l-0.945,0.315l-0.63,-0.158l-0.315,-0.157l-2.52,-1.418" style="fill:none;stroke:#000;stroke-width:11.1px;"/>
            </g>
        </g>
        <g id="Actor_.12">
            <g>
                <path d="M1230.75,484.449l0,0.315l0.472,0.472l14.331,8.189l0.473,0.158l0.315,0.157l0.63,0" style="fill:none;stroke:#000;stroke-width:5.56px;"/>
                <path d="M1231.69,486.024l-0.315,-0.158l-0,-0.315l-0.158,-0.315l0,-23.149l14.331,8.346l0,-0.472l0.158,-0.473l0.315,-0.472l-0,-0.158l0.157,-0.315l0.473,-0.315l0.315,-0.157l6.456,-3.78l24.882,-14.33l0.315,0.157l0.315,0.473l0.315,0.315" style="fill:none;stroke:#000;stroke-width:5.56px;"/>
                <path d="M1247.91,469.016l-0.315,-0.473l-0.315,-0.315l-0.314,-0.157l-2.363,-1.417l-11.968,-6.93l-0.315,-0.157l-0.315,-0l-0.315,0.157" style="fill:none;stroke:#000;stroke-width:5.56px;"/>
                <path d="M1230.75,461.299l0,0.315l0.158,0.315l0.314,0.158l0.158,-0.473l-0,-0.472l0.315,-0.315l0.315,-0.473l0.63,-0.63l31.338,-18.11l-0.315,-0.157l-0.315,-0l-0.315,0.157" style="fill:none;stroke:#000;stroke-width:5.56px;"/>
                <path d="M1246.97,470.748l-0.473,-0.157l-0.472,-0l-0.473,-0.158l0,23.465l0.473,0.472" style="fill:none;stroke:#000;stroke-width:5.56px;"/>
                <path d="M1275.32,512.165l-0,-26.141l-28.346,-16.378" style="fill:none;stroke:#000;stroke-width:5.56px;"/>
                <path d="M1293.27,520.512l0.315,-0.158l0.157,-0.315l0,-23.937l-0.157,-0.315l-0,-0.157l-0.315,-0.315l-0.158,-0.472l-0.472,-0.315l-0.315,-0.315l-0.63,0.63l-0.315,0.472l-0.158,0.315l-0.157,0.472l-0,0.473l-14.331,-8.189l0,23.464l0.158,0.315l0.157,0.158" style="fill:none;stroke:#000;stroke-width:5.56px;"/>
                <path d="M1291.38,520.512l-0.158,-0.158l-0.157,-0.315l-0,-23.464l0.315,0.157l0.472,0.158l0.945,-0l0.945,-0.315l31.339,-18.11l-0,23.149l-31.339,18.11l-0.945,0.315l-0.945,0l-0.472,-0.157l-0.315,-0.158l-14.331,-8.346l-0.315,-0.158l-0.315,-0.629" style="fill:none;stroke:#000;stroke-width:5.56px;"/>
                <path d="M1276.1,487.598l0.158,0.315l0.472,0.473l0,-0.473l0.315,-0.944l0.315,-0.315l0.315,-0.473l0.315,-0.157l31.339,-18.111l0.472,-0.157l0.63,-0" style="fill:none;stroke:#000;stroke-width:5.56px;"/>
                <path d="M1325.55,477.677l0,0.315l-0.157,0.315l-0.315,0.158l-0,-0.473l-0.158,-0.315l-0.315,-0.472l-0.157,-0.473l-0.158,0l-0.63,-0.63l-31.338,18.111l-14.331,-8.189l-0.315,-0.158l-0.63,0" style="fill:none;stroke:#000;stroke-width:5.56px;"/>
                <path d="M1275.32,486.024l34.016,-19.685" style="fill:none;stroke:#000;stroke-width:5.56px;"/>
                <path d="M1264.92,441.614l-0.315,-0.157l-0.315,-0l-0.315,0.157l14.331,8.347l0.315,-0.158l0.63,0" style="fill:none;stroke:#000;stroke-width:5.56px;"/>
                <path d="M1324.61,476.102l-0.157,-0.157l-0.473,-0l-0.315,0.157l-14.33,-8.189l-0.315,-0.157l-0.63,-0" style="fill:none;stroke:#000;stroke-width:5.56px;"/>
                <path d="M1325.55,500.827l0,0.315l-0.472,0.472l-0,0.315l-0.158,0.315l-0.315,0.158" style="fill:none;stroke:#000;stroke-width:5.56px;"/>
            </g>
            <g>
                <path d="M1279.88,450.591l-0.158,-0.473l-0.472,-0.315l-14.331,-8.189l-0.472,-0.315l-0.473,0l-0.945,0.315l-31.338,18.11l-0.473,0.158l-0.157,0.315l-0.157,0.157l-0.158,0.473l0,24.094l0.472,0.945l0.473,0.158l14.331,8.346l0.157,0.158l0.788,-0" style="fill:none;stroke:#000;stroke-width:11.1px;"/>
                <path d="M1309.33,467.598l-0,-1.259l-28.347,-16.378l-34.015,19.685l-0,26.141l28.346,16.378l1.102,-0.63" style="fill:none;stroke:#000;stroke-width:11.1px;"/>
                <path d="M1277.05,512.323l-0.315,-0.315l-0.315,-0.473l-0.157,-0.315l-0.158,-0.629l0,-22.993l0.158,-0.629l0.157,-0.315l0.315,-0.473l0.315,-0.315l31.339,-18.11l0.472,-0.158l0.945,0l0.473,0.158l14.33,8.346l0.315,0.158l0.315,0.315l0.158,0.315l0.157,0.472l0,23.78l-0.157,0.472l-0.158,0.315l-0.315,0.315l-0.315,0.158l-31.338,18.11l-0.158,0.157l-0.472,0.158l-0.473,-0l-0.472,-0.158l-0.315,-0.157l-14.331,-8.189" style="fill:none;stroke:#000;stroke-width:11.1px;"/>
            </g>
        </g>
        <g id="Actor_.13">
            <g>
                <path d="M2213.11,936.417l20.788,11.969l5.984,-3.465" style="fill:none;stroke:#000;stroke-width:5.56px;"/>
                <path d="M2233.9,948.386l1.417,0.63l1.26,0.157l1.26,-0.315" style="fill:none;stroke:#000;stroke-width:5.56px;"/>
                <path d="M2255.63,941.772l-4.882,15.905l-0.787,1.417" style="fill:none;stroke:#000;stroke-width:5.56px;"/>
                <path d="M2250.75,957.677l4.882,-2.834" style="fill:none;stroke:#000;stroke-width:5.56px;"/>
                <path d="M2251.22,915.157l2.993,-0.787l1.417,0.158" style="fill:none;stroke:#000;stroke-width:5.56px;"/>
                <path d="M2255.63,890.276l141.89,81.889l-0,111.496" style="fill:none;stroke:#000;stroke-width:5.56px;"/>
                <path d="M2303.82,898.307l-0,-3.15l-6.299,-2.047l-5.67,-3.464l-5.039,-4.252l-1.89,-2.048l-2.834,-4.409l-1.418,-3.937l-0.315,-0.787l-0.63,-4.41l0,14.646" style="fill:none;stroke:#000;stroke-width:5.56px;"/>
                <path d="M2279.72,869.803l63.937,-37.008l130.552,75.433" style="fill:none;stroke:#000;stroke-width:5.56px;"/>
                <path d="M2303.82,895.157l39.842,-22.992l0,-39.37" style="fill:none;stroke:#000;stroke-width:5.56px;"/>
                <path d="M2343.66,872.165l96.536,55.748l-42.677,24.567" style="fill:none;stroke:#000;stroke-width:5.56px;"/>
                <path d="M2360.67,823.031l76.693,-44.251l0,39.37l-42.677,24.567" style="fill:none;stroke:#000;stroke-width:5.56px;"/>
                <path d="M2397.52,972.165l204.409,-117.952" style="fill:none;stroke:#000;stroke-width:5.56px;"/>
                <path d="M2471.69,998.465l-34.173,19.685l-5.827,-3.307" style="fill:none;stroke:#000;stroke-width:5.56px;"/>
                <path d="M2485.24,1017.99l-34.016,19.685l-1.574,-4.567l-2.205,-4.567l-2.992,-4.252l-3.307,-3.464l-3.622,-2.677" style="fill:none;stroke:#000;stroke-width:5.56px;"/>
                <path d="M2437.36,818.15l96.536,55.748l-42.678,24.567" style="fill:none;stroke:#000;stroke-width:5.56px;"/>
                <path d="M2437.36,778.78l130.551,75.433" style="fill:none;stroke:#000;stroke-width:5.56px;"/>
                <path d="M2493.43,1054.37l-34.016,19.685l0.63,1.89l0.788,1.732l1.26,1.732l1.259,1.418l1.418,0.945l34.173,-19.685" style="fill:none;stroke:#000;stroke-width:5.56px;"/>
                <path d="M2459.41,1074.06l-8.189,-36.378" style="fill:none;stroke:#000;stroke-width:5.56px;"/>
                <path d="M2464.76,1081.77l20.787,11.968l0,1.417" style="fill:none;stroke:#000;stroke-width:5.56px;"/>
                <path d="M2485.55,1093.74l34.173,-19.685" style="fill:none;stroke:#000;stroke-width:5.56px;"/>
                <path d="M2595.63,995.315l-34.016,19.685l-8.189,-36.22l-1.575,-4.725l-2.204,-4.567l-0.945,-1.417l-2.047,-2.835l-3.308,-3.464l-3.622,-2.52l-5.826,-3.465" style="fill:none;stroke:#000;stroke-width:5.56px;"/>
                <path d="M2539.72,959.252l34.174,-19.685" style="fill:none;stroke:#000;stroke-width:5.56px;"/>
                <path d="M2587.76,1036.1l-0,-1.259l-20.787,-11.969l-1.418,-1.102l-1.26,-1.418l-1.26,-1.732l-0.787,-1.732l-0.63,-1.89" style="fill:none;stroke:#000;stroke-width:5.56px;"/>
                <path d="M2553.43,978.78l34.016,-19.686" style="fill:none;stroke:#000;stroke-width:5.56px;"/>
                <path d="M2566.97,1022.87l34.173,-19.685" style="fill:none;stroke:#000;stroke-width:5.56px;"/>
                <path d="M2587.76,1034.84l34.173,-19.686" style="fill:none;stroke:#000;stroke-width:5.56px;"/>
            </g>
            <g>
                <path d="M2248.7,917.677l-1.575,-0.945l-34.016,19.685l0,1.418" style="fill:none;stroke:#000;stroke-width:11.1px;"/>
                <path d="M2255.63,912.638l-4.41,2.519l-2.204,2.048l-1.575,2.992l-8.189,26.772l-0.63,1.102l-0.787,0.787" style="fill:none;stroke:#000;stroke-width:11.1px;"/>
                <path d="M2444.45,1056.58l-46.929,27.086l-141.89,-82.047l-0,-137.638l181.732,-104.882l164.567,95.119l0,111.338l-11.496,6.772" style="fill:none;stroke:#000;stroke-width:11.1px;"/>
                <path d="M2279.72,884.449l117.796,68.031l76.693,-44.252" style="fill:none;stroke:#000;stroke-width:11.1px;"/>
                <path d="M2567.91,854.213l-76.693,44.252l-130.551,-75.434" style="fill:none;stroke:#000;stroke-width:11.1px;"/>
                <path d="M2519.72,1075.47l0,-1.417l-20.787,-11.968l-1.417,-0.945l-1.418,-1.418l-1.102,-1.732l-0.945,-1.732l-0.63,-1.89l-8.189,-36.378l-1.417,-4.567l-2.362,-4.567l-2.363,-3.464l-0.472,-0.788l-3.465,-3.464l-3.464,-2.677l-5.984,-3.308l-34.016,19.686l-0,11.023l2.52,1.575l1.417,1.102l1.417,1.26l1.103,1.732l0.944,1.89l0.63,1.89l8.189,36.22l0.788,2.205" style="fill:none;stroke:#000;stroke-width:11.1px;"/>
                <path d="M2546.65,997.52l-58.426,33.7" style="fill:none;stroke:#000;stroke-width:11.1px;"/>
                <path d="M2550.75,1014.69l-0.63,-2.205l-8.189,-36.22l-0.63,-1.89l-0.945,-1.89l-1.102,-1.574l-1.417,-1.418l-1.418,-1.102l-2.519,-1.417l-0,-11.182l34.015,-19.685l5.985,3.465l3.464,2.52l3.465,3.622l2.834,4.094l2.363,4.567l1.417,4.724l8.189,36.221l0.63,1.89l0.945,1.889l1.102,1.575l1.417,1.418l1.418,1.102l20.787,11.968l0,1.26" style="fill:none;stroke:#000;stroke-width:11.1px;"/>
            </g>
        </g>
        <g id="Actor_.14">
            <g>
                <path d="M1475.79,626.024l0.158,0.157l0.157,0.315l0.315,0.315l0,-23.15l-0.315,-0.157l-0.315,-0.63" style="fill:none;stroke:#000;stroke-width:5.56px;"/>
                <path d="M1476.89,601.142l0.472,-0l0.473,0.157l-0.473,0.315l-0.315,0.315l-0.157,0.315l-0.315,0.473l-0.158,0.472l0,0.472l14.331,8.189l0,23.15l-14.331,-8.189l0,0.315l0.158,0.315l0.315,0.157" style="fill:none;stroke:#000;stroke-width:5.56px;"/>
                <path d="M1492.16,612.323l-0.63,-0.158l-0.315,0l-0.472,-0.315l0,-0.315l0.315,-0.944l0.315,-0.473l0.315,-0.315l0.472,-0.315l-14.33,-8.189l31.338,-18.11l0.315,-0.158l0.315,0l0.315,0.158" style="fill:none;stroke:#000;stroke-width:5.56px;"/>
                <path d="M1492.16,635.315l-0.63,-0l-0.315,-0.158l-0.472,-0.157l0,0.315l0.315,0.63" style="fill:none;stroke:#000;stroke-width:5.56px;"/>
                <path d="M1508.23,583.031l0.473,0l0.472,0.158l14.331,8.346l-31.339,17.953l0.315,0.315l0.158,0.315l0.157,0l0.315,0.473" style="fill:none;stroke:#000;stroke-width:5.56px;"/>
                <path d="M1492.16,611.063l28.347,16.535l34.016,-19.685" style="fill:none;stroke:#000;stroke-width:5.56px;"/>
                <path d="M1536.58,662.087l-0.315,-0.158l-0,-0.315l-0.158,-0.315l-14.33,-8.346l-0,-22.992l-0.158,-0.315l-0.315,-0.315l0,-0.158" style="fill:none;stroke:#000;stroke-width:5.56px;"/>
                <path d="M1521.3,652.165l0,0.315l0.473,0.473l0.472,0.945" style="fill:none;stroke:#000;stroke-width:5.56px;"/>
                <path d="M1520.51,653.74l-0,-26.142" style="fill:none;stroke:#000;stroke-width:5.56px;"/>
                <path d="M1522.24,627.441l0.315,-0.158l0.63,0.315l14.331,8.189l0.315,0.315l0.315,0.158l-0,0.157l0.315,0.315l0.157,0.473l0.158,0.157l-0,0.315l0.157,0.473l0,23.149l-0.472,0.158l-0.473,-0l-0.472,0.157l-0.473,-0.157l-0.472,-0l-0.473,-0.158l0,-23.149l-14.33,-8.189l0.472,-1.418l0.315,-0.472l0.315,-0.315l0.315,-0.158l31.339,-18.11l0.315,-0.157l0.314,-0l0,-0.158l0.315,0.158" style="fill:none;stroke:#000;stroke-width:5.56px;"/>
                <path d="M1570.75,642.402l0,0.157l-0.157,0.315l-0.315,0.315l-31.339,18.11l-0.315,0.63l-0.157,0.158" style="fill:none;stroke:#000;stroke-width:5.56px;"/>
                <path d="M1569.8,617.677l-0.315,-0.157l-0.315,-0l-0.315,0.157l0.315,0.315l0.315,0.158l0,0.157l0.315,0.473l0.315,0.314l0,0.473l0.158,0.472l-31.339,18.111l-0.945,0.315l-0.945,-0l-0.945,-0.315l0.158,-0.473l-0,-0.472l0.315,-0.473l0.945,-0.945l31.338,-18.11l-14.33,-8.189l-0.63,-0.315l-0.315,0.158" style="fill:none;stroke:#000;stroke-width:5.56px;"/>
                <path d="M1524.45,591.378l-0.315,-0.158l-0.63,0.315l0.315,0.158l0.157,0.315l0.158,-0l0.315,0.472" style="fill:none;stroke:#000;stroke-width:5.56px;"/>
                <path d="M1569.8,643.976l0.315,-0.315l0,-0.157l0.158,-0.315l-0,-23.15l0.315,-0.157l0.157,-0.315l0,-0.315" style="fill:none;stroke:#000;stroke-width:5.56px;"/>
            </g>
            <g>
                <path d="M1525.08,592.008l-0.63,-0.63l-14.331,-8.347l-0.472,-0.157l-1.103,0l-0.315,0.157l-31.338,18.111l-0.473,0.315l-0.157,0.315l-0.158,0.157l-0.315,0.945l0,23.15l0.158,0.472l0.157,0.315l0.315,0.472l0.473,0.315l14.173,8.347l0.472,0.157l0.63,0" style="fill:none;stroke:#000;stroke-width:11.1px;"/>
                <path d="M1521.61,653.11l-1.102,0.63l-28.347,-16.378l0,-26.299l34.016,-19.528l28.347,16.378l-0,1.103" style="fill:none;stroke:#000;stroke-width:11.1px;"/>
                <path d="M1521.3,652.165l0,0.473l0.158,0.472l0.787,0.788l14.331,8.189l0.945,0.315l0.945,-0.315l31.338,-18.111l0.315,-0.157l0.315,-0.315l0.158,-0.473l0.157,-0.314l0,-23.78l-0.157,-0.472l-0.158,-0.315l-0.63,-0.63l-14.331,-8.189l-0.315,-0.158l-0.629,-0.157l-0.945,0.315l-31.339,18.11l-0.472,0.315l-0.473,0.945l0,23.464" style="fill:none;stroke:#000;stroke-width:11.1px;"/>
            </g>
        </g>
    </g>
</svg>
