<?xml version="1.0" encoding="UTF-8" standalone="no"?>
<!DOCTYPE svg PUBLIC "-//W3C//DTD SVG 1.1//EN" "http://www.w3.org/Graphics/SVG/1.1/DTD/svg11.dtd">
<svg width="100%" height="100%" viewBox="0 0 2704 1814" version="1.1" xmlns="http://www.w3.org/2000/svg" xmlns:xlink="http://www.w3.org/1999/xlink" xml:space="preserve" xmlns:serif="http://www.serif.com/" style="fill-rule:evenodd;clip-rule:evenodd;stroke-linecap:round;stroke-linejoin:round;">
    <g>
        <path d="M5.551,167.441l0,-13.071l6.614,-41.732l22.048,-43.622l36.693,-36.221l41.574,-20.945l28.032,-3.937l14.803,-3.149l16.378,1.732l35.59,5.354l41.733,20.945l36.693,36.221l15.275,28.976l6.614,17.323l1.418,7.716l1.26,8.032l1.417,7.559l1.102,7.874l1.575,10.551l0,7.874l-1.575,7.559l-5.039,34.016l-19.685,40.787l-24.725,24.252l-1.102,-2.519l6.299,-46.929l5.355,-36.536l-0.158,-47.086l-11.496,-30.709l-2.047,-3.465l-3.15,-6.614l-28.976,-31.023l-32.914,-16.851l-5.354,-1.89l-10.394,-0.944l-10.236,-1.418l-7.874,-1.102l-7.874,-0.158l-7.716,1.418l-5.985,1.889l-30.236,8.347l-2.205,0.157l-3.779,4.725l-15.748,9.606l-13.386,12.913l0,5.355l-11.181,9.291l-8.661,16.851l-1.418,0.944l1.418,4.882l-1.89,0.473l-2.835,4.882l-0.63,7.401l-5.669,15.591l-10.394,75.748l-2.677,15.59l-1.575,0l-16.535,-31.338l-0.315,-9.607l-1.102,-0.787l-1.26,-7.874l-0.315,-6.772l-1.103,-0.945l-1.102,-7.874l-0.315,-6.771l-1.26,-0.945Z" style="fill:#a2a8ad;"/>
        <path d="M260.669,276.732l-0.945,10.394l-10.393,72.913l-1.89,7.874l2.205,5.827l606.929,85.827l36.693,4.882l1.417,2.992l0.787,129.134l-31.181,-0.158l-0.63,-100.945l-0.315,-1.889l-6.771,-0.315l-614.646,-86.772l0,-2.205l2.677,-5.354l-0.787,-1.575l-1.89,6.929l-10.394,0.63l-218.74,-31.338l-1.26,-3.78l1.89,-6.929l15.591,-112.126l1.417,-10.394l2.677,-15.59l10.394,-75.748l5.669,-15.591l2.047,7.087l-0.314,-5.984l-1.733,-1.103l0.63,-7.401l3.937,1.259l0.788,-6.614l1.574,-4.409l-1.574,-1.417l8.661,-16.851l11.181,-9.291l0,-5.355l13.386,-12.913l15.748,-9.606l4.252,1.102l3.15,-3.464l-1.418,-2.52l30.236,-8.347l4.882,1.89l1.103,-3.779l7.716,-1.418l7.874,0.158l7.874,1.102l-7.086,3.15l13.228,-0.158l4.094,-1.574l10.394,0.944l-1.575,3.15l5.197,-0l1.732,-1.26l32.914,16.851l28.976,31.023l3.15,6.614l-0.945,4.882l2.992,-1.417l11.496,30.709l-1.26,1.574l-0.315,41.418l1.733,4.094l-5.355,36.536l-6.299,46.929l-1.575,7.716Z" style="fill:#bfbfbf;"/>
        <path d="M898.15,596.575l976.535,0.945l53.858,8.031l51.969,26.142l17.165,17.323l0.945,3.464l3.622,1.103l14.961,14.33l19.37,35.748l0.787,6.457l3.622,3.78l4.725,8.819l1.26,12.283l1.417,7.717l1.26,8.031l1.417,7.559l1.102,8.032l1.418,7.874l4.724,6.141l98.11,66.615l0,197.952l-1.102,2.048l-48.976,27.086l-1.733,0.315l-0.787,217.48l-48.662,27.244l-0.472,17.481l0,36.378l-1.102,67.559l-1.26,13.228l-6.614,43.465l-21.733,43.307l-21.574,25.827l-2.048,0.157l-2.677,4.567l-18.268,16.063l-31.338,18.11l-18.74,7.874l-49.449,7.874l-1442.68,0l-49.449,-7.874l-18.74,-7.874l-31.339,-18.11l-26.142,-23.465l-12.913,-15.59l-21.26,-36.063l-5.197,-13.071l-2.047,-16.693l-0.315,-6.772l-1.26,-0.944l-1.102,-7.874l-0.315,-6.772l-1.102,-0.945l-1.26,-7.874l-0.315,-9.606l-1.103,-0.788l0,-664.094l5.197,-31.181l3.622,-24.41l10.552,-20.787l15.905,-28.347l16.063,-18.267l4.567,-2.677l0.157,-2.048l25.827,-21.575l43.307,-21.732l66.929,-9.134l2.678,0.158l179.527,-0.158l226.614,0l31.181,0.158l2.678,-0Zm882.047,211.338l-2.992,-3.937l-0,-51.968l2.992,-3.937l2.834,-5.197l13.701,-23.78l2.835,-7.086l5.669,-4.882l4.095,-0.472l21.575,-15.748l5.196,-4.567l7.244,-1.418l13.071,-1.26l7.717,-1.417l15.905,-1.26l7.087,-2.362l5.669,3.78l5.04,2.834l28.819,11.181l4.566,0l2.678,2.835l0.315,4.252l26.299,29.449l1.575,0.472l0.63,6.457l0.787,3.149l1.417,0.945l0.315,6.457l0.945,2.992l1.26,0.945l0.472,6.457l0.788,2.992l1.417,0.945l0.315,6.456l0.945,2.993l1.417,1.102l-1.26,6.614l-1.574,4.41l-3.78,16.22l-3.464,13.386l-0.63,9.449l-3.307,1.102l-22.048,23.307l-2.519,7.244l-7.244,2.677l-27.087,10.552l-0.315,1.574l-6.614,1.26l-7.087,3.937l-4.094,-1.26l-20.315,-2.204l-7.717,-1.26l-17.48,-0.315l-0.315,-4.095l-24.095,-16.063l-5.669,-1.417l-10.551,-10.551l-1.575,-5.669l-11.024,-21.26l-2.834,-5.04Zm-1381.58,731.811l-38.425,-29.921l-20.315,-42.047l-0,-54.173l23.779,-43.937l35.276,-27.244l89.606,-0l37.638,28.189l3.937,0.629l0.473,4.095l19.055,39.37l1.26,0.787l-1.26,51.182l-22.048,43.622l-38.267,29.921l-90.079,0.945l-0.63,-1.418Z" style="fill:#003cd2;"/>
        <path d="M455.472,596.417l2.048,-64.567l0.63,64.725l-2.678,-0.158Z"/>
        <path d="M1780.2,807.913l-2.992,-3.937l-0,-51.968l2.992,-3.937l1.26,2.52l-1.575,9.606l-0,35.59l1.575,9.607l-1.26,2.519Z"/>
        <path d="M2156.42,846.969l1.26,0.629l1.26,103.465l0,33.858l-2.52,60l0,-197.952Z"/>
        <path d="M179.409,46.969l-10.236,-1.418l-7.086,3.15l13.228,-0.158l4.094,-1.574Z" style="fill:#000020;"/>
        <path d="M145.709,45.709l-5.985,1.889l4.882,1.89l1.103,-3.779Z" style="fill:#000020;"/>
        <path d="M195.157,49.803l-5.354,-1.89l-1.575,3.15l5.197,-0l1.732,-1.26Z" style="fill:#000020;"/>
        <path d="M109.488,55.945l-2.205,0.157l-3.779,4.725l4.252,1.102l3.15,-3.464l-1.418,-2.52Z" style="fill:#000020;"/>
        <path d="M262.244,107.756l-2.047,-3.465l-0.945,4.882l2.992,-1.417Z" style="fill:#000020;"/>
        <path d="M54.528,114.843l-1.418,0.944l1.418,4.882l1.574,-4.409l-1.574,-1.417Z" style="fill:#000020;"/>
        <path d="M54.528,120.669l-1.89,0.473l-2.835,4.882l3.937,1.259l0.788,-6.614Z" style="fill:#000020;"/>
        <path d="M49.173,133.425l2.047,7.087l-0.314,-5.984l-1.733,-1.103Z" style="fill:#000020;"/>
        <path d="M273.898,185.551l-0.158,-47.086l-1.26,1.574l-0.315,41.418l1.733,4.094Z" style="fill:#000020;"/>
        <path d="M29.016,250.748l-0.158,-10.394l1.575,0l-1.417,10.394Z" style="fill:#000020;"/>
        <path d="M263.346,271.535l-2.677,5.197l1.575,-7.716l1.102,2.519Z" style="fill:#000020;"/>
        <path d="M241.929,404.291l2.677,-5.354l-0.787,-1.575l-1.89,6.929Z" style="fill:#000020;"/>
        <path d="M241.929,406.496l-10.394,-1.575l10.394,-0.63l0,2.205Z" style="fill:#000020;"/>
        <path d="M893.268,464.449l3.937,0.472l0.945,131.654l-2.678,-0l-0.787,-129.134l-1.417,-2.992Z" style="fill:#000020;"/>
        <path d="M863.661,495.472l-7.086,-2.204l6.771,0.315l0.315,1.889Z" style="fill:#000020;"/>
        <path d="M1997.68,649.016l3.465,1.102l1.102,3.465l-3.622,-1.103l-0.945,-3.464Z" style="fill:#000020;"/>
        <path d="M314.685,653.583l1.26,-3.465l3.464,-1.26l-0.157,2.048l-4.567,2.677Z" style="fill:#000020;"/>
        <path d="M1892.8,682.402l5.04,2.834l-7.559,-1.732l2.519,-1.102Z" style="fill:#000020;"/>
        <path d="M1830.91,690.906l5.196,-4.567l7.244,-1.418l2.363,1.103l-14.803,4.882Z" style="fill:#000020;"/>
        <path d="M2036.58,703.661l3.937,3.308l0.472,6.929l-3.622,-3.78l-0.787,-6.457Z" style="fill:#000020;"/>
        <path d="M1780.2,748.071l2.834,-5.197l-1.574,7.717l-1.26,-2.52Z" style="fill:#000020;"/>
        <path d="M1783.03,812.953l-2.834,-5.04l1.26,-2.519l1.574,7.559Z" style="fill:#000020;"/>
        <path d="M1811.85,851.85l-5.669,-1.417l-10.551,-10.551l-1.575,-5.669l17.795,17.637Z" style="fill:#000020;"/>
        <path d="M1892.95,873.11l-7.087,3.937l-4.094,-1.26l11.181,-2.677Z" style="fill:#000020;"/>
        <path d="M2002.4,1566.34l-0.315,1.889l-4.41,2.835l2.677,-4.567l2.048,-0.157Z" style="fill:#000020;"/>
        <path d="M457.52,531.85l7.401,-5.984l48.662,-27.086l68.819,-0l54.488,31.338l0.787,66.299l-179.527,0.158l-0.63,-64.725Z" style="fill:#1a1a1a;"/>
        <path d="M2158.94,951.063l537.638,0.787l-0,32.284l-537.638,0.787l0,-33.858Z" style="fill:#bfbfbf;"/>
        <path d="M2696.89,1339.09l-0,31.339l-642.205,-0.157l0,-31.182l642.205,0Z" style="fill:#bfbfbf;"/>
        <path d="M1283.5,1623.5l0.472,150.551l0.315,1.575l538.268,0.787l0,31.496l-572.441,0l-0.472,-184.409l33.858,-0Z" style="fill:#bfbfbf;"/>
        <path d="M307.598,115.315l1.26,0.945l0.158,6.771l-1.418,-7.716Z"/>
        <path d="M310.276,131.063l1.102,0.787l0.315,6.772l-1.417,-7.559Z"/>
        <path d="M312.795,146.496l1.26,0.945l0.315,9.606l-1.575,-10.551Z"/>
        <path d="M7.126,175.157l-1.575,-7.716l1.26,0.945l0.315,6.771Z"/>
        <path d="M9.646,190.748l-1.418,-7.717l1.103,0.945l0.315,6.772Z"/>
        <path d="M12.323,209.016l-1.417,-10.394l1.102,0.787l0.315,9.607Z"/>
        <path d="M1880.04,680.984l7.087,-2.362l5.669,3.78l-2.519,1.102l-10.237,-2.52Z"/>
        <path d="M1843.35,684.921l13.071,-1.26l-10.708,2.363l-2.363,-1.103Z"/>
        <path d="M1926.65,696.417l4.566,0l2.678,2.835l0.315,4.252l-7.559,-7.087Z"/>
        <path d="M1796.73,719.094l2.835,-7.086l5.669,-4.882l4.095,-0.472l-12.599,12.44Z"/>
        <path d="M1960.51,732.953l1.575,0.472l0.63,6.457l-2.205,-6.929Z"/>
        <path d="M2046.97,735l1.102,0.945l0.315,6.772l-1.417,-7.717Z"/>
        <path d="M1963.5,743.031l1.417,0.945l0.315,6.457l-1.732,-7.402Z"/>
        <path d="M2049.65,750.748l1.102,0.787l0.315,6.772l-1.417,-7.559Z"/>
        <path d="M1966.18,753.425l1.26,0.945l0.472,6.457l-1.732,-7.402Z"/>
        <path d="M1968.7,763.819l1.417,0.945l0.315,6.456l-1.732,-7.401Z"/>
        <path d="M2052.16,766.339l1.26,0.787l0.158,7.087l-1.418,-7.874Z"/>
        <path d="M1971.38,774.213l1.417,1.102l-1.26,6.614l-0.157,-7.716Z"/>
        <path d="M1962.72,815.945l-0.63,9.449l-3.307,1.102l3.937,-10.551Z"/>
        <path d="M1936.73,849.803l-2.519,7.244l-7.244,2.677l9.763,-9.921Z"/>
        <path d="M1853.74,872.323l-17.48,-0.315l-0.315,-4.095l9.134,0.63l8.661,3.78Z"/>
        <path d="M1899.88,870.276l-0.315,1.574l-6.614,1.26l6.929,-2.834Z"/>
        <path d="M2106.34,1074.06l-0.945,217.323l-1.575,0.472l0.787,-217.48l1.733,-0.315Z"/>
        <path d="M2054.68,1336.58l641.89,0.787l0.315,1.732l-642.205,0l0,-2.519Z"/>
        <path d="M2696.89,1370.43l-0.315,1.575l-641.89,0.945l0,-2.677l642.205,0.157Z"/>
        <path d="M526.181,1370.59l3.937,0.629l0.473,4.095l-4.41,-4.724Z"/>
        <path d="M264.764,1451.06l-1.418,-10.394l1.103,0.788l0.315,9.606Z"/>
        <path d="M549.646,1414.68l1.26,0.787l-1.26,51.182l-0,-51.969Z"/>
        <path d="M267.441,1466.65l-1.417,-7.717l1.102,0.945l0.315,6.772Z"/>
        <path d="M270.118,1482.24l-1.575,-7.716l1.26,0.944l0.315,6.772Z"/>
        <path d="M489.331,1540.2l-90.079,0.945l-0.63,-1.418l90.709,0.473Z"/>
        <path d="M1879.88,1620.98l-596.378,2.52l-33.858,-0l-812.441,-2.52l1442.68,0Z"/>
        <path d="M1283.98,1774.06l537.796,0.63l0.787,1.732l-538.268,-0.787l-0.315,-1.575Z"/>
        <path d="M1822.56,1776.42l1.732,0.945l0,29.607l-1.732,0.944l0,-31.496Z"/>
        <path d="M1822.56,1807.91l-0.787,1.733l-571.339,-0.158l-0.315,-1.575l572.441,0Z"/>
        <g id="Actor_.0">
            <g>
                <path d="M270.748,180.827l0,-41.418" style="fill:none;stroke:#000;stroke-width:5.56px;"/>
            </g>
            <g>
                <path d="M12.795,373.268l32.441,-229.449l12.441,-38.268l24.882,-31.653l34.173,-21.26l39.37,-8.347l39.843,5.67l35.433,18.897l26.929,29.922l15.118,37.322l1.26,40.315l-32.441,229.449l-229.449,-32.598" style="fill:none;stroke:#000;stroke-width:11.1px;"/>
                <path d="M72.638,381.772l18.268,2.519l-78.111,-11.023" style="fill:none;stroke:#000;stroke-width:11.1px;"/>
                <path d="M31.22,243.346l-18.11,-35.433l4.725,9.292l-4.725,-9.292l-0.63,-3.779" style="fill:none;stroke:#000;stroke-width:11.1px;"/>
                <path d="M13.11,207.913l-7.559,-47.874l7.559,-47.716l-0.63,3.307" style="fill:none;stroke:#000;stroke-width:11.1px;"/>
                <path d="M23.976,90.748l-10.866,21.575l-0.63,3.307" style="fill:none;stroke:#000;stroke-width:11.1px;"/>
                <path d="M52.165,52.165l13.071,-13.071l-30.236,30.237l-21.89,42.992" style="fill:none;stroke:#000;stroke-width:11.1px;"/>
                <path d="M17.835,217.205l13.385,26.141" style="fill:none;stroke:#000;stroke-width:11.1px;"/>
                <path d="M126.969,265.866l0.472,0.158l-17.638,-5.04l-33.071,-25.039l-21.732,-35.118l-7.717,-40.788l7.717,-40.63l21.732,-35.275l33.071,-24.882l39.843,-11.339l20.63,1.89" style="fill:none;stroke:#000;stroke-width:11.1px;"/>
                <path d="M65.236,39.094l3.937,-3.937l43.15,-22.047l47.716,-7.559l47.717,7.559l42.992,22.047l34.173,34.174l22.048,42.992l7.559,47.716l-7.559,47.874l-22.048,42.993l-24.252,24.251" style="fill:none;stroke:#000;stroke-width:11.1px;"/>
                <path d="M54.37,49.961l14.803,-14.804l0.473,-0.314" style="fill:none;stroke:#000;stroke-width:11.1px;"/>
                <path d="M90.906,384.291l13.228,1.89l-13.228,-1.89" style="fill:none;stroke:#000;stroke-width:11.1px;"/>
                <path d="M104.134,386.181l54.96,7.874" style="fill:none;stroke:#000;stroke-width:11.1px;"/>
                <path d="M127.441,266.024l22.205,6.299l32.598,-3.15l-11.968,1.26" style="fill:none;stroke:#000;stroke-width:11.1px;"/>
                <path d="M160.039,5.551l-20.63,3.307" style="fill:none;stroke:#000;stroke-width:11.1px;"/>
                <path d="M145.709,7.913l14.33,-2.362l23.78,3.78" style="fill:none;stroke:#000;stroke-width:11.1px;"/>
                <path d="M145.709,392.165l13.385,1.89" style="fill:none;stroke:#000;stroke-width:11.1px;"/>
                <path d="M163.976,49.331l26.772,2.362l9.764,4.882l-9.606,-4.725" style="fill:none;stroke:#000;stroke-width:11.1px;"/>
                <path d="M209.331,259.252l-18.583,9.134l-8.504,0.787" style="fill:none;stroke:#000;stroke-width:11.1px;"/>
                <path d="M200.512,56.575l27.401,13.701l8.662,9.448" style="fill:none;stroke:#000;stroke-width:11.1px;"/>
                <path d="M200.512,263.661l27.401,-13.7l27.874,-30.552l14.961,-38.582l1.89,-20.788l-1.89,-20.63l-14.961,-38.582l-22.992,-25.197" style="fill:none;stroke:#000;stroke-width:11.1px;"/>
                <path d="M244.449,389.803l0.472,-3.622l-2.677,18.74" style="fill:none;stroke:#000;stroke-width:11.1px;"/>
                <path d="M242.244,405.866l622.362,88.189l0,104.095" style="fill:none;stroke:#000;stroke-width:11.1px;"/>
                <path d="M246.654,373.898l-1.733,12.283" style="fill:none;stroke:#000;stroke-width:11.1px;"/>
                <path d="M246.654,373.898l575.118,81.574l-339.843,-48.189" style="fill:none;stroke:#000;stroke-width:11.1px;"/>
                <path d="M244.921,386.181l2.677,-18.268" style="fill:none;stroke:#000;stroke-width:11.1px;"/>
                <path d="M260.669,275.157l24.252,-24.251l5.512,-10.867l-5.512,10.867" style="fill:none;stroke:#000;stroke-width:11.1px;"/>
                <path d="M273.583,184.291l0.315,-2.519" style="fill:none;stroke:#000;stroke-width:11.1px;"/>
                <path d="M290.433,240.039l16.536,-32.126l3.149,-20.315l-2.52,15.906" style="fill:none;stroke:#000;stroke-width:11.1px;"/>
                <path d="M273.74,148.701l0.315,7.401" style="fill:none;stroke:#000;stroke-width:11.1px;"/>
                <path d="M306.811,112.165l-18.11,-35.59" style="fill:none;stroke:#000;stroke-width:11.1px;"/>
                <path d="M310.118,187.598l4.41,-27.559" style="fill:none;stroke:#000;stroke-width:11.1px;"/>
                <path d="M297.52,93.898l9.449,18.425l6.929,44.567" style="fill:none;stroke:#000;stroke-width:11.1px;"/>
                <path d="M313.898,156.89l-1.26,-8.189" style="fill:none;stroke:#000;stroke-width:11.1px;"/>
                <path d="M821.772,455.472l36.535,5.197l-36.535,-5.197" style="fill:none;stroke:#000;stroke-width:11.1px;"/>
                <path d="M896.89,466.181l-38.583,-5.512l38.583,5.512l-0,131.969" style="fill:none;stroke:#000;stroke-width:11.1px;"/>
            </g>
        </g>
        <g id="Actor_.1">
            <g>
                <path d="M363.661,1600.04l1.26,0.788l-26.456,-13.544l-39.843,-40l-25.512,-50.236l-8.819,-55.59l0,-663.15l8.819,-55.59l3.622,-7.402l1.26,-5.984l7.874,-11.654" style="fill:none;stroke:#000;stroke-width:11.1px;"/>
                <path d="M276.732,1504.45l1.26,5.984l7.874,11.811" style="fill:none;stroke:#000;stroke-width:11.1px;"/>
                <path d="M276.732,715.315l21.89,-42.992l12.126,-11.969l6.299,-9.448l9.449,-6.3" style="fill:none;stroke:#000;stroke-width:11.1px;"/>
                <path d="M310.748,1559.41l6.299,9.449l9.449,6.299" style="fill:none;stroke:#000;stroke-width:11.1px;"/>
                <path d="M310.748,660.354l27.717,-27.874l-7.087,7.087" style="fill:none;stroke:#000;stroke-width:11.1px;"/>
                <path d="M331.535,1580.2l6.93,7.086" style="fill:none;stroke:#000;stroke-width:11.1px;"/>
                <path d="M511.063,1524.61l17.953,-13.7l22.047,-44.567l-0,-49.764l-22.047,-44.725l-39.528,-30.236l-89.921,0l-39.528,30.236l-22.204,44.725l-0,49.764l22.204,44.567l39.528,30.236l89.921,-0l21.575,-16.536l-16.535,12.756" style="fill:none;stroke:#000;stroke-width:11.1px;"/>
                <path d="M338.465,632.48l26.456,-13.386l-1.26,0.63" style="fill:none;stroke:#000;stroke-width:11.1px;"/>
                <path d="M400.984,1614.68l-12.126,-1.89l-23.937,-11.968l10.551,7.086l6.142,1.26" style="fill:none;stroke:#000;stroke-width:11.1px;"/>
                <path d="M401.142,604.921l-12.284,2.048l-23.937,12.125l10.551,-7.244l6.142,-1.259" style="fill:none;stroke:#000;stroke-width:11.1px;"/>
                <path d="M388.858,1612.8l55.591,8.819l1429.13,0l55.748,-8.819l25.039,-12.756l-11.811,7.874l-5.984,1.26" style="fill:none;stroke:#000;stroke-width:11.1px;"/>
                <path d="M397.835,605.551l46.614,-7.401l1429.13,-0l44.252,6.929l-16.378,-2.52" style="fill:none;stroke:#000;stroke-width:11.1px;"/>
                <path d="M457.362,598.15l0,-66.3l57.166,-32.441l65.826,0l57.323,32.441l0,66.3" style="fill:none;stroke:#000;stroke-width:11.1px;"/>
                <path d="M506.339,1354.68l-7.717,-5.984" style="fill:none;stroke:#000;stroke-width:11.1px;"/>
                <path d="M1282.72,1621.61l-0,154.488l540.629,0l0,32.284l-572.913,-0l0,-186.772" style="fill:none;stroke:#000;stroke-width:11.1px;"/>
                <path d="M1826.81,863.819l11.339,7.874l-39.213,-27.244l-22.205,-42.205l0,-47.716l13.701,-26.3" style="fill:none;stroke:#000;stroke-width:11.1px;"/>
                <path d="M1789.96,827.598l0.472,0.945" style="fill:none;stroke:#000;stroke-width:11.1px;"/>
                <path d="M1776.73,789.173l7.087,26.772" style="fill:none;stroke:#000;stroke-width:11.1px;"/>
                <path d="M1783.82,740.827l-7.087,26.771" style="fill:none;stroke:#000;stroke-width:11.1px;"/>
                <path d="M1813.58,854.685l-19.685,-19.685" style="fill:none;stroke:#000;stroke-width:11.1px;"/>
                <path d="M1793.9,721.772l19.685,-19.685" style="fill:none;stroke:#000;stroke-width:11.1px;"/>
                <path d="M1789.96,729.173l8.976,-17.008l39.213,-27.086l-11.339,7.716" style="fill:none;stroke:#000;stroke-width:11.1px;"/>
                <path d="M1831.06,866.811l27.559,7.244" style="fill:none;stroke:#000;stroke-width:11.1px;"/>
                <path d="M1856.42,873.898l-18.267,-2.205" style="fill:none;stroke:#000;stroke-width:11.1px;"/>
                <path d="M1844.76,872.48l40.787,4.882l14.961,-5.669" style="fill:none;stroke:#000;stroke-width:11.1px;"/>
                <path d="M1858.62,682.559l-27.559,7.402" style="fill:none;stroke:#000;stroke-width:11.1px;"/>
                <path d="M1838.15,685.079l18.267,-2.205" style="fill:none;stroke:#000;stroke-width:11.1px;"/>
                <path d="M1844.76,684.291l40.787,-5.039l44.725,17.008l24.252,27.244l-3.15,-3.465" style="fill:none;stroke:#000;stroke-width:11.1px;"/>
                <path d="M1908.07,868.858l-28.819,7.717" style="fill:none;stroke:#000;stroke-width:11.1px;"/>
                <path d="M1908.07,687.756l-28.819,-7.717" style="fill:none;stroke:#000;stroke-width:11.1px;"/>
                <path d="M1899.57,684.606l0.945,0.315" style="fill:none;stroke:#000;stroke-width:11.1px;"/>
                <path d="M1899.57,872.008l30.709,-11.496l9.921,-11.339" style="fill:none;stroke:#000;stroke-width:11.1px;"/>
                <path d="M1926.18,861.929l23.465,-23.307l-3.937,3.937" style="fill:none;stroke:#000;stroke-width:11.1px;"/>
                <path d="M1936.26,702.874l3.937,4.567" style="fill:none;stroke:#000;stroke-width:11.1px;"/>
                <path d="M1926.34,694.685l23.307,23.307" style="fill:none;stroke:#000;stroke-width:11.1px;"/>
                <path d="M1917.84,605.079l11.496,1.89l25.197,12.755l-11.969,-7.874l-5.984,-1.259" style="fill:none;stroke:#000;stroke-width:11.1px;"/>
                <path d="M1954.37,1600.04l25.197,-12.756l39.842,-40l-6.929,7.087" style="fill:none;stroke:#000;stroke-width:11.1px;"/>
                <path d="M1936.26,853.74l18.268,-20.63l-3.15,3.465" style="fill:none;stroke:#000;stroke-width:11.1px;"/>
                <path d="M1954.53,833.11l7.401,-8.346l3.78,-15.433" style="fill:none;stroke:#000;stroke-width:11.1px;"/>
                <path d="M1954.53,723.504l7.401,8.504l9.134,37.953l-0,-0.945" style="fill:none;stroke:#000;stroke-width:11.1px;"/>
                <path d="M1946.65,715.157l-0.945,-1.102" style="fill:none;stroke:#000;stroke-width:11.1px;"/>
                <path d="M1954.53,619.724l25.039,12.756l27.874,27.874l-6.457,-9.448l-9.449,-6.3" style="fill:none;stroke:#000;stroke-width:11.1px;"/>
                <path d="M1960.51,826.339l9.606,-35.748" style="fill:none;stroke:#000;stroke-width:11.1px;"/>
                <path d="M1961.93,824.764l8.819,-36.536l-4.882,18.268" style="fill:none;stroke:#000;stroke-width:11.1px;"/>
                <path d="M1970.75,788.228l2.047,-7.244l-1.732,6.772" style="fill:none;stroke:#000;stroke-width:11.1px;"/>
                <path d="M1972.8,780.984l0.63,-2.677l-7.244,-26.614l3.937,14.331" style="fill:none;stroke:#000;stroke-width:11.1px;"/>
                <path d="M1966.18,751.693l-5.669,-21.26" style="fill:none;stroke:#000;stroke-width:11.1px;"/>
                <path d="M1965.71,747.441l-3.465,-14.016" style="fill:none;stroke:#000;stroke-width:11.1px;"/>
                <path d="M2007.28,1559.41l-6.299,9.449l-9.449,6.299" style="fill:none;stroke:#000;stroke-width:11.1px;"/>
                <path d="M2007.44,660.354l11.968,11.969l-7.086,-6.929" style="fill:none;stroke:#000;stroke-width:11.1px;"/>
                <path d="M2019.41,1547.28l25.67,-50.236l8.819,-55.59l-0.788,4.567" style="fill:none;stroke:#000;stroke-width:11.1px;"/>
                <path d="M2041.3,715.472l-21.89,-43.149" style="fill:none;stroke:#000;stroke-width:11.1px;"/>
                <path d="M2041.3,1504.45l-1.26,5.984l-7.874,11.811" style="fill:none;stroke:#000;stroke-width:11.1px;"/>
                <path d="M2027.6,1531.38l4.41,-8.661" style="fill:none;stroke:#000;stroke-width:11.1px;"/>
                <path d="M2032.32,697.677l7.716,11.654l1.103,5.826l3.937,7.56l8.819,55.59l-0.158,-0.315" style="fill:none;stroke:#000;stroke-width:11.1px;"/>
                <path d="M2031.85,696.89l8.032,15.59" style="fill:none;stroke:#000;stroke-width:11.1px;"/>
                <path d="M2053.9,1441.46l-0,-122.363l51.496,-28.976l-0,-215.59l51.496,-28.977l-0,-197.638l-102.992,-69.606" style="fill:none;stroke:#000;stroke-width:11.1px;"/>
                <path d="M2053.9,1370.59l643.622,-0l-0,-32.126l-643.622,-0" style="fill:none;stroke:#000;stroke-width:11.1px;"/>
                <path d="M2156.89,952.165l540.63,0l-0,32.126l-540.63,0" style="fill:none;stroke:#000;stroke-width:11.1px;"/>
            </g>
        </g>
    </g>
</svg>
