<?xml version="1.0" encoding="UTF-8" standalone="no"?>
<!DOCTYPE svg PUBLIC "-//W3C//DTD SVG 1.1//EN" "http://www.w3.org/Graphics/SVG/1.1/DTD/svg11.dtd">
<svg width="100%" height="100%" viewBox="0 0 2607 1934" version="1.1" xmlns="http://www.w3.org/2000/svg" xmlns:xlink="http://www.w3.org/1999/xlink" xml:space="preserve" xmlns:serif="http://www.serif.com/" style="fill-rule:evenodd;clip-rule:evenodd;stroke-linecap:round;stroke-linejoin:round;">
    <g>
        <path d="M223.504,398.465l-1.732,-0.473l1.102,-6.772l0.63,7.245Z" style="fill:#000020;"/>
        <path d="M241.142,258.307l-18.583,-35.433l-2.047,-14.016l-0.315,-6.771l-1.26,-0.945l-1.102,-7.874l-0.315,-6.929l-1.103,-0.788l-1.26,-7.874l0,-13.071l7.402,-47.874l23.78,-43.937l37.952,-37.48l43.465,-22.362l33.858,-5.197l19.843,-3.78l8.819,2.52l41.417,6.772l43.622,22.047l36.693,36.22l24.567,46.142l1.575,7.874l1.102,7.874l1.417,7.717l1.103,10.551l1.417,7.716l2.52,8.819l-9.134,53.701l-19.528,40.788l-27.401,26.771l-1.103,-2.362l13.229,-91.181l-0,-39.055l-1.575,-15.591l-19.37,-41.26l-26.299,-28.346l-37.796,-19.685l-8.346,-1.575l-10.236,-0.945l-7.717,-1.417l-10.551,-1.26l-7.874,0l-5.197,1.417l-8.031,1.26l-4.882,0.945l-8.032,1.417l-17.795,6.615l-3.465,2.047l-5.512,6.457l-2.362,-0l-8.819,4.881l-12.283,8.819l-0,5.197l-4.41,3.622l-4.409,0.158l-2.677,4.724l-11.654,14.961l-6.614,16.22l-2.992,7.717l-0.787,2.519l-1.575,5.512l-3.465,10.551l-1.732,7.559l-12.913,93.859l-1.26,5.039Z" style="fill:#a2a8ad;"/>
        <path d="M1129.49,526.339l-33.701,-4.41l-872.283,-123.464l-0.63,-7.245l17.008,-119.842l1.26,-13.071l1.26,-5.039l12.913,-93.859l1.732,-7.559l3.465,-10.551l4.252,4.095l-0.158,-5.827l-2.519,-3.78l0.787,-2.519l4.882,-5.197l-1.89,-2.52l6.614,-16.22l11.654,-14.961l6.614,-3.307l0.472,-1.575l4.41,-3.622l-0,-5.197l12.283,-8.819l8.819,-4.881l2.362,-0l5.512,-6.457l4.882,0.787l-1.417,-2.834l17.795,-6.615l4.567,1.89l5.197,-0.157l-1.732,-3.15l4.882,-0.945l1.889,1.575l5.197,0.787l0.945,-3.622l5.197,-1.417l7.874,0l10.551,1.26l0,2.047l-12.598,0.788l11.496,0.787l1.102,-1.575l7.717,-0.63l10.236,0.945l-1.732,2.992l8.189,0l1.889,-1.417l37.796,19.685l26.299,28.346l19.37,41.26l-1.575,3.937l0.158,9.921l2.992,1.733l-0,39.055l-13.229,91.181l-1.417,10.394l-13.071,91.181l1.102,8.661l11.497,2.205l661.259,93.701l17.481,2.992l0.787,139.212l-33.858,0l-0.63,-110.708l-2.205,1.575Z" style="fill:#bfbfbf;"/>
        <path d="M5.394,1542.09l-0,-718.741l4.094,-23.307l4.725,-32.283l10.551,-20.787l18.425,-33.701l13.701,-12.914l11.338,-9.134l1.103,-3.307l17.952,-16.378l31.654,-17.952l21.26,-7.874l49.606,-7.717l20.788,-2.52l955.59,0l557.323,0.945l15.59,2.677l41.733,6.615l4.409,1.574l46.772,23.308l20.787,18.267l20.945,23.15l10.551,15.59l20.63,39.213l1.26,9.764l1.575,7.716l1.102,8.032l1.418,7.559l1.102,8.031l1.575,7.717l2.047,11.496l108.031,74.803l0.315,213.228l-52.755,31.497l-1.418,0.629l-0.472,228.189l-1.103,2.048l-51.653,29.449l-1.417,0.629l-0.315,134.489l-7.874,49.606l-6.772,19.842l-19.055,35.591l-18.898,20.63l-3.622,0.945l-3.779,6.299l-12.914,13.543l-41.417,23.78l-16.536,7.401l-57.322,9.292l-632.756,1.102l-36.378,0l-864.567,-1.102l-41.732,-6.772l-13.859,-2.047l-7.086,-3.937l-5.827,-4.252l-4.41,-0.158l-37.165,-20.63l-25.984,-23.464l-13.071,-15.591l-20.63,-37.165l-2.992,-9.449l-1.417,-0.787l-3.937,-6.929l-2.048,-14.174l-0.315,-6.771l-1.259,-0.945l-1.103,-7.874l-0.315,-6.772l-1.102,-0.945l-1.102,-10.551l-0.315,-6.772l-1.26,-0.944Zm142.677,99.527l-39.843,-31.181l-23.149,-44.882l-0,-57.323l25.827,-47.559l37.165,-28.504l99.055,0l38.583,29.607l24.252,46.456l1.259,0.788l-0.157,55.433l-1.417,0.63l-21.733,43.937l-41.259,32.126l-0.63,1.417l-97.953,-0.945Zm1471.81,-825.984l-1.417,-13.701l6.141,-6.614l15.748,-29.449l2.835,-7.086l5.669,-4.882l4.095,-0.473l26.299,-18.897l2.362,-2.835l15.748,-2.047l1.103,-1.575l9.291,-0.473l10.394,-1.102l17.637,-3.622l11.024,6.772l7.559,2.362l22.835,8.976l37.323,38.74l1.574,0.473l0.63,6.457l0.945,3.149l1.26,0.788l0.315,6.614l0.945,2.992l1.417,0.787l0.158,6.772l5.354,23.464l-4.252,17.953l-5.827,20.945l0.315,2.992l-2.677,7.087l-33.386,34.96l-29.921,12.284l-0.315,1.575l-6.772,1.26l-6.771,3.622l-11.496,-0.473l-20.788,-2.677l-5.197,-1.26l-19.212,-1.102l-4.095,-5.669l-26.299,-18.898l-9.606,-3.307l-0.473,-6.457l-15.748,-32.126l-3.622,-1.102l-1.102,-16.693l-0,-28.504Z" style="fill:#003cd2;"/>
        <path d="M2023.03,901.929l1.418,0.473l1.732,110.393l573.858,1.575l0.473,1.575l-574.331,0.945l-0.157,33.071l-2.678,65.196l-0.315,-213.228Z"/>
        <path d="M1915.94,1406.97l0.945,17.165l683.149,1.575l0.473,1.732l-683.622,0.787l-0.315,33.071l-2.362,80.788l0.315,-134.489l1.417,-0.629Z"/>
        <path d="M390.433,48.071l0,2.047l7.717,-0.63l-7.717,-1.417Z" style="fill:#000020;"/>
        <path d="M358.78,49.488l1.889,1.575l5.197,0.787l0.945,-3.622l-8.031,1.26Z" style="fill:#000020;"/>
        <path d="M390.433,50.118l-12.598,0.788l11.496,0.787l1.102,-1.575Z" style="fill:#000020;"/>
        <path d="M345.866,51.85l4.567,1.89l5.197,-0.157l-1.732,-3.15l-8.032,1.417Z" style="fill:#000020;"/>
        <path d="M408.386,50.433l-1.732,2.992l8.189,0l1.889,-1.417l-8.346,-1.575Z" style="fill:#000020;"/>
        <path d="M324.606,60.512l4.882,0.787l-1.417,-2.834l-3.465,2.047Z" style="fill:#000020;"/>
        <path d="M284.134,94.37l6.614,-3.307l0.472,-1.575l-4.409,0.158l-2.677,4.724Z" style="fill:#000020;"/>
        <path d="M262.874,133.268l4.882,-5.197l-1.89,-2.52l-2.992,7.717Z" style="fill:#000020;"/>
        <path d="M260.512,141.299l4.252,4.095l-0.158,-5.827l-2.519,-3.78l-1.575,5.512Z" style="fill:#000020;"/>
        <path d="M500.197,141.299l-1.575,3.937l0.158,9.921l2.992,1.733l-1.575,-15.591Z" style="fill:#000020;"/>
        <path d="M489.646,289.488l-2.52,8.032l1.417,-10.394l1.103,2.362Z" style="fill:#000020;"/>
        <path d="M1129.8,635.472l-0.315,-109.133l2.205,-1.575l0.63,110.708l-2.52,0Z" style="fill:#000020;"/>
        <path d="M56.89,700.354l5.827,-9.291l6.614,-3.15l-1.103,3.307l-11.338,9.134Z" style="fill:#000020;"/>
        <path d="M1679.25,734.528l2.362,-2.835l5.355,1.26l-7.717,1.575Z" style="fill:#000020;"/>
        <path d="M1817.05,870.118l0.315,2.992l-2.677,7.087l2.362,-10.079Z" style="fill:#000020;"/>
        <path d="M22.559,1615l-2.835,-1.732l-1.574,-8.504l1.417,0.787l2.992,9.449Z" style="fill:#000020;"/>
        <path d="M1861.61,1667.76l-0.787,3.779l-6.614,3.465l3.779,-6.299l3.622,-0.945Z" style="fill:#000020;"/>
        <path d="M129.646,1716.26l-8.504,-1.575l-1.733,-2.835l4.41,0.158l5.827,4.252Z" style="fill:#000020;"/>
        <path d="M210.591,635.472l1.732,-70.708l56.22,-32.284l76.693,0l58.11,33.544l0,69.448l-192.755,0Z" style="fill:#1a1a1a;"/>
        <path d="M2600.51,1015.95l-0.315,33.228l-574.173,0.788l0.157,-33.071l574.331,-0.945Z" style="fill:#bfbfbf;"/>
        <path d="M2600.51,1427.44l-0.315,33.071l-683.622,0.787l0.315,-33.071l683.622,-0.787Z" style="fill:#bfbfbf;"/>
        <path d="M1093.27,1893.11l574.645,1.26l0.315,33.071l-611.023,-0l-0.315,-197.323l33.858,0l0.787,162.677l1.733,0.315Z" style="fill:#bfbfbf;"/>
        <path d="M536.575,117.677l1.26,0.945l0.315,6.929l-1.575,-7.874Z"/>
        <path d="M539.252,133.425l1.102,0.945l0.315,6.772l-1.417,-7.717Z"/>
        <path d="M541.772,151.693l1.259,0.787l0.158,6.929l-1.417,-7.716Z"/>
        <path d="M217.835,193.268l-1.418,-7.717l1.103,0.788l0.315,6.929Z"/>
        <path d="M220.512,208.858l-1.575,-7.716l1.26,0.945l0.315,6.771Z"/>
        <path d="M403.346,566.024l1.575,0.472l0.945,68.976l-2.52,0l0,-69.448Z"/>
        <path d="M1718.15,726.496l17.637,-3.622l11.024,6.772l-28.661,-3.15Z"/>
        <path d="M1697.36,729.646l1.103,-1.575l9.291,-0.473l-10.394,2.048Z"/>
        <path d="M1681.61,731.693l15.748,-2.047l-10.393,3.307l-5.355,-1.26Z"/>
        <path d="M1640.35,765.866l2.835,-7.086l5.669,-4.882l4.095,-0.473l-12.599,12.441Z"/>
        <path d="M1906.18,776.575l1.26,0.945l0.315,6.771l-1.575,-7.716Z"/>
        <path d="M1814.53,779.724l1.574,0.473l0.63,6.457l-2.204,-6.93Z"/>
        <path d="M1817.68,789.803l1.26,0.788l0.315,6.614l-1.575,-7.402Z"/>
        <path d="M1908.86,792.323l1.103,0.787l0.315,6.772l-1.418,-7.559Z"/>
        <path d="M1619.88,815.63l-1.417,-13.701l6.141,-6.614l-4.724,20.315Z"/>
        <path d="M1820.2,800.197l1.417,0.787l0.158,6.772l-1.575,-7.559Z"/>
        <path d="M1911.38,807.913l1.26,0.788l0.315,6.929l-1.575,-7.717Z"/>
        <path d="M1624.61,861.929l-3.622,-1.102l-1.102,-16.693l0.787,1.102l3.937,16.693Z"/>
        <path d="M1650.43,903.819l-9.606,-3.307l-0.473,-6.457l10.079,9.764Z"/>
        <path d="M1700.04,929.488l-19.212,-1.102l-4.095,-5.669l23.307,6.771Z"/>
        <path d="M1751.38,927.441l-0.315,1.575l-6.772,1.26l7.087,-2.835Z"/>
        <path d="M1744.29,930.276l-6.771,3.622l-11.496,-0.473l18.267,-3.149Z"/>
        <path d="M1970.59,1146.65l-1.89,228.818l0.472,-228.189l1.418,-0.629Z"/>
        <path d="M6.969,1549.8l-1.575,-7.716l1.26,0.944l0.315,6.772Z"/>
        <path d="M309.961,1508.23l1.259,0.788l-0.157,55.433l-1.417,0.63l0.315,-56.851Z"/>
        <path d="M9.488,1568.07l-1.417,-7.717l1.102,0.945l0.315,6.772Z"/>
        <path d="M12.165,1583.66l-1.574,-7.716l1.259,0.945l0.315,6.771Z"/>
        <path d="M246.654,1641.14l-0.63,1.417l-97.953,-0.945l98.583,-0.472Z"/>
        <path d="M1093.27,1730.12l-0,162.992l-1.733,-0.315l-0.787,-162.677l2.52,0Z"/>
        <path d="M1668.23,1927.44l-0.315,1.732l-610.236,0l-0.472,-1.732l611.023,-0Z"/>
        <g id="Actor_.0">
            <g>
                <path d="M151.693,1721.93l-13.228,-2.205l-53.701,-27.244l-42.52,-42.519l-27.401,-53.701l-9.292,-59.37l0,-707.402l9.292,-59.37l27.401,-53.543l42.52,-42.52l-7.559,7.559" style="fill:none;stroke:#000;stroke-width:11.1px;"/>
                <path d="M28.543,1623.03l-8.346,-12.598l-1.26,-6.299" style="fill:none;stroke:#000;stroke-width:11.1px;"/>
                <path d="M18.937,762.402l1.26,-6.457l8.346,-12.441" style="fill:none;stroke:#000;stroke-width:11.1px;"/>
                <path d="M72.008,1679.57l-10.236,-6.772l-6.615,-10.078" style="fill:none;stroke:#000;stroke-width:11.1px;"/>
                <path d="M72.008,686.811l-10.236,6.772l-6.772,10.078" style="fill:none;stroke:#000;stroke-width:11.1px;"/>
                <path d="M83.346,1691.06l-6.141,-6.299" style="fill:none;stroke:#000;stroke-width:11.1px;"/>
                <path d="M255.63,1635.79l13.228,-10.236l-23.149,17.795l-95.906,0l-42.205,-32.283l-23.464,-47.559l-0,-53.228l23.464,-47.559l42.205,-32.284l95.906,0l23.149,17.638l-16.85,-12.756" style="fill:none;stroke:#000;stroke-width:11.1px;"/>
                <path d="M84.764,674.055l53.701,-27.401l13.07,-2.048" style="fill:none;stroke:#000;stroke-width:11.1px;"/>
                <path d="M130.748,1715.79l-6.457,-1.259l-12.598,-8.347" style="fill:none;stroke:#000;stroke-width:11.1px;"/>
                <path d="M111.535,660.354l12.756,-8.504l6.457,-1.259" style="fill:none;stroke:#000;stroke-width:11.1px;"/>
                <path d="M140.984,646.339l56.851,-9.134l1524.41,-0l44.882,7.086l-15.118,-2.362" style="fill:none;stroke:#000;stroke-width:11.1px;"/>
                <path d="M140.984,1720.2l56.851,8.976l859.685,0l-0,199.213l611.181,-0l-0,-34.488l-576.851,-0l0,-164.725l-37.322,0" style="fill:none;stroke:#000;stroke-width:11.1px;"/>
                <path d="M211.535,637.205l0,-70.551l61.103,-34.646l70.079,-0l61.102,34.646l-0,70.551" style="fill:none;stroke:#000;stroke-width:11.1px;"/>
                <path d="M268.858,1625.55l19.055,-14.488l23.622,-47.559l0,-53.228l-23.622,-47.559l-19.055,-14.646" style="fill:none;stroke:#000;stroke-width:11.1px;"/>
                <path d="M1057.52,1729.17l15.275,0" style="fill:none;stroke:#000;stroke-width:11.1px;"/>
                <path d="M1091.06,1729.17l18.268,0l-17.481,0" style="fill:none;stroke:#000;stroke-width:11.1px;"/>
                <path d="M1109.33,1729.17l612.913,0l59.528,-9.449l53.543,-27.244l37.953,-37.952l-2.992,2.834" style="fill:none;stroke:#000;stroke-width:11.1px;"/>
                <path d="M1626.65,869.646l-7.717,-14.646l0,-50.866l14.803,-28.189" style="fill:none;stroke:#000;stroke-width:11.1px;"/>
                <path d="M1618.94,841.142l7.244,27.716l7.559,14.173" style="fill:none;stroke:#000;stroke-width:11.1px;"/>
                <path d="M1618.94,817.992l7.717,-28.346" style="fill:none;stroke:#000;stroke-width:11.1px;"/>
                <path d="M1637.36,889.961l15.433,15.433l4.725,4.882l-7.244,-4.882l6.299,4.409" style="fill:none;stroke:#000;stroke-width:11.1px;"/>
                <path d="M1650.28,905.394l-7.559,-5.197l-16.536,-31.339" style="fill:none;stroke:#000;stroke-width:11.1px;"/>
                <path d="M1632.95,777.52l9.606,-18.268l14.961,-10.236l-20.158,20.157" style="fill:none;stroke:#000;stroke-width:11.1px;"/>
                <path d="M1642.56,759.252l14.016,-9.921" style="fill:none;stroke:#000;stroke-width:11.1px;"/>
                <path d="M1672.48,738.307l3.307,-2.205l-18.267,12.914l0.787,-0.788" style="fill:none;stroke:#000;stroke-width:11.1px;"/>
                <path d="M1658.31,911.063l-0.787,-0.787l18.267,12.755l-3.307,-2.362" style="fill:none;stroke:#000;stroke-width:11.1px;"/>
                <path d="M1675.79,923.031l8.819,5.985l19.37,2.362" style="fill:none;stroke:#000;stroke-width:11.1px;"/>
                <path d="M1677.05,923.819l29.449,7.874" style="fill:none;stroke:#000;stroke-width:11.1px;"/>
                <path d="M1677.05,735.315l29.292,-7.874" style="fill:none;stroke:#000;stroke-width:11.1px;"/>
                <path d="M1675.79,736.102l8.819,-6.141l19.37,-2.205" style="fill:none;stroke:#000;stroke-width:11.1px;"/>
                <path d="M1694.06,728.858l41.102,-4.882l15.906,5.985" style="fill:none;stroke:#000;stroke-width:11.1px;"/>
                <path d="M1694.06,930.276l41.102,4.881l15.906,-5.984" style="fill:none;stroke:#000;stroke-width:11.1px;"/>
                <path d="M1728.23,934.37l30.866,-8.189" style="fill:none;stroke:#000;stroke-width:11.1px;"/>
                <path d="M1759.09,732.953l-30.708,-8.189" style="fill:none;stroke:#000;stroke-width:11.1px;"/>
                <path d="M1748.86,930.118l33.859,-12.913l20.787,-23.307l-4.252,4.252" style="fill:none;stroke:#000;stroke-width:11.1px;"/>
                <path d="M1748.86,729.016l33.859,12.913l10.708,11.969" style="fill:none;stroke:#000;stroke-width:11.1px;"/>
                <path d="M1805.24,891.693l4.095,-4.567l-5.827,6.772l-25.039,24.882" style="fill:none;stroke:#000;stroke-width:11.1px;"/>
                <path d="M1799.25,760.984l4.409,4.41l-25.196,-25.04" style="fill:none;stroke:#000;stroke-width:11.1px;"/>
                <path d="M1870.43,709.016l6.299,6.299l-41.417,-41.26l-53.543,-27.401l-14.646,-2.363" style="fill:none;stroke:#000;stroke-width:11.1px;"/>
                <path d="M1789.49,1715.79l6.457,-1.259l12.441,-8.347" style="fill:none;stroke:#000;stroke-width:11.1px;"/>
                <path d="M1820.67,796.575l-4.094,-16.536l-31.181,-35.275" style="fill:none;stroke:#000;stroke-width:11.1px;"/>
                <path d="M1789.49,650.591l6.457,1.259l12.598,8.504" style="fill:none;stroke:#000;stroke-width:11.1px;"/>
                <path d="M1815,880.827l10.236,-38.11" style="fill:none;stroke:#000;stroke-width:11.1px;"/>
                <path d="M1809.33,887.126l7.244,-8.032l11.496,-46.771l-4.882,18.268" style="fill:none;stroke:#000;stroke-width:11.1px;"/>
                <path d="M1819.09,868.858l1.575,-6.299" style="fill:none;stroke:#000;stroke-width:11.1px;"/>
                <path d="M1825.24,816.417l-10.236,-37.952" style="fill:none;stroke:#000;stroke-width:11.1px;"/>
                <path d="M1820.35,795.787l8.347,33.859l-4.095,-15.591" style="fill:none;stroke:#000;stroke-width:11.1px;"/>
                <path d="M1814.21,777.52l-8.977,-10.079" style="fill:none;stroke:#000;stroke-width:11.1px;"/>
                <path d="M1826.34,819.567l2.362,10.079l-2.362,9.921" style="fill:none;stroke:#000;stroke-width:11.1px;"/>
                <path d="M1865.08,1662.72l-6.772,10.078l-10.079,6.772" style="fill:none;stroke:#000;stroke-width:11.1px;"/>
                <path d="M1848.23,686.811l10.237,6.929l6.614,9.921" style="fill:none;stroke:#000;stroke-width:11.1px;"/>
                <path d="M1914.53,1537.2l-0,-0.315l-9.292,59.37l-27.401,53.701l-4.567,4.567" style="fill:none;stroke:#000;stroke-width:11.1px;"/>
                <path d="M1891.54,1623.19l8.347,-12.756l1.417,-6.299" style="fill:none;stroke:#000;stroke-width:11.1px;"/>
                <path d="M1891.54,743.504l8.347,12.441l1.417,6.457" style="fill:none;stroke:#000;stroke-width:11.1px;"/>
                <path d="M1914.53,1536.89l-0,-130.551l54.96,-30.867l0,-230.078l54.961,-30.866l-0,-210.867l-109.921,-74.015l-9.292,-59.528l-27.401,-53.543l-1.103,-1.26" style="fill:none;stroke:#000;stroke-width:11.1px;"/>
                <path d="M1914.53,1461.3l686.771,0l0,-34.33l-686.771,-0" style="fill:none;stroke:#000;stroke-width:11.1px;"/>
                <path d="M1914.53,829.646l-0,-0.473" style="fill:none;stroke:#000;stroke-width:11.1px;"/>
                <path d="M1960.83,1380.35l2.677,-1.417" style="fill:none;stroke:#000;stroke-width:11.1px;"/>
                <path d="M2024.45,1015l576.85,0l0,34.331l-576.85,-0" style="fill:none;stroke:#000;stroke-width:11.1px;"/>
            </g>
        </g>
        <g id="Actor_.1">
            <g>
                <path d="M497.992,192.323l0,-44.095" style="fill:none;stroke:#000;stroke-width:5.56px;"/>
            </g>
            <g>
                <path d="M227.441,365.709l1.102,-8.504l-5.669,40.63l356.693,50.393l-59.685,-8.504" style="fill:none;stroke:#000;stroke-width:11.1px;"/>
                <path d="M242.559,259.252l-19.37,-37.953l19.37,37.953l-15.118,106.457" style="fill:none;stroke:#000;stroke-width:11.1px;"/>
                <path d="M228.543,357.205l25.985,-182.677l-0.158,0.157" style="fill:none;stroke:#000;stroke-width:11.1px;"/>
                <path d="M223.189,221.299l-7.402,-46.771l7.402,46.771l4.094,8.032" style="fill:none;stroke:#000;stroke-width:11.1px;"/>
                <path d="M218.622,192.795l-3.622,-22.362l0.315,-2.047" style="fill:none;stroke:#000;stroke-width:11.1px;"/>
                <path d="M215.787,174.528l-0.787,-4.095l8.189,-51.024l23.307,-45.984l36.535,-36.378l40.63,-20.787l-24.252,12.441" style="fill:none;stroke:#000;stroke-width:11.1px;"/>
                <path d="M424.606,280.039l8.662,-4.409l-20.473,10.236l-43.937,4.095l-42.519,-12.126l-35.276,-26.457l-23.15,-37.638l-8.189,-43.307l3.15,-16.693" style="fill:none;stroke:#000;stroke-width:11.1px;"/>
                <path d="M254.528,174.528l2.992,-21.575l13.228,-40.788l26.457,-33.858l7.401,-4.567" style="fill:none;stroke:#000;stroke-width:11.1px;"/>
                <path d="M262.402,156.26l5.354,-29.291l23.307,-37.481l8.189,-6.299l-5.354,4.094" style="fill:none;stroke:#000;stroke-width:11.1px;"/>
                <path d="M297.205,78.307l36.535,-22.677l26.457,-5.669l-11.496,2.519" style="fill:none;stroke:#000;stroke-width:11.1px;"/>
                <path d="M446.969,71.693l-34.174,-17.008l-44.094,-4.094l-42.362,12.126l-27.087,20.472" style="fill:none;stroke:#000;stroke-width:11.1px;"/>
                <path d="M305.394,25.551l23.464,-11.968l13.071,-2.048l-13.071,2.048l-5.197,2.677" style="fill:none;stroke:#000;stroke-width:11.1px;"/>
                <path d="M341.929,11.535l36.536,-5.826l-36.536,5.826" style="fill:none;stroke:#000;stroke-width:11.1px;"/>
                <path d="M360.197,8.543l19.685,-2.992l10.551,1.575" style="fill:none;stroke:#000;stroke-width:11.1px;"/>
                <path d="M419.252,53.268l-1.102,-0.473l-42.52,-5.984l-15.433,3.15" style="fill:none;stroke:#000;stroke-width:11.1px;"/>
                <path d="M449.961,23.346l26.771,13.544l-45.984,-23.307l-50.866,-8.032l-1.417,0.158" style="fill:none;stroke:#000;stroke-width:11.1px;"/>
                <path d="M433.268,275.63l19.055,-9.449l29.764,-32.598l15.905,-41.26l2.047,-22.047l-1.259,-14.016l0.629,6.771" style="fill:none;stroke:#000;stroke-width:11.1px;"/>
                <path d="M433.268,64.921l19.055,9.449l29.764,32.599l12.283,31.968" style="fill:none;stroke:#000;stroke-width:11.1px;"/>
                <path d="M418.15,52.795l37.952,20.158l28.662,31.968l16.063,39.843l1.417,42.834l-34.646,244.725" style="fill:none;stroke:#000;stroke-width:11.1px;"/>
                <path d="M467.756,432.008l19.685,-138.898l0.787,-0.787l-0.787,0.63l25.827,-25.827l23.307,-45.984l8.189,-50.866l-8.189,-51.024l-7.244,-14.331l7.244,14.331l4.882,31.024" style="fill:none;stroke:#000;stroke-width:11.1px;"/>
                <path d="M469.803,246.969l1.103,-1.103" style="fill:none;stroke:#000;stroke-width:11.1px;"/>
                <path d="M470.591,412.008l2.519,-18.268" style="fill:none;stroke:#000;stroke-width:11.1px;"/>
                <path d="M472.48,398.465l52.284,7.401l-52.284,-7.401" style="fill:none;stroke:#000;stroke-width:11.1px;"/>
                <path d="M469.803,33.425l6.929,3.465l11.496,11.496l-11.496,-11.496" style="fill:none;stroke:#000;stroke-width:11.1px;"/>
                <path d="M493.583,53.898l-5.355,-5.512l25.04,25.039l23.307,45.827" style="fill:none;stroke:#000;stroke-width:11.1px;"/>
                <path d="M506.496,403.189l602.835,85.354l-584.567,-82.677" style="fill:none;stroke:#000;stroke-width:11.1px;"/>
                <path d="M502.874,277.52l-14.646,14.803" style="fill:none;stroke:#000;stroke-width:11.1px;"/>
                <path d="M498.78,156.26l-0.788,-8.032l-3.937,-10.236" style="fill:none;stroke:#000;stroke-width:11.1px;"/>
                <path d="M579.567,448.228l18.268,2.52l-18.268,-2.52" style="fill:none;stroke:#000;stroke-width:11.1px;"/>
                <path d="M597.835,450.748l501.102,70.866l-501.102,-70.866" style="fill:none;stroke:#000;stroke-width:11.1px;"/>
                <path d="M1098.94,521.614l32.756,4.725l-0,110.866l34.331,-0l-0,-5.827l-0,5.669" style="fill:none;stroke:#000;stroke-width:11.1px;"/>
                <path d="M1131.69,637.205l-0,-110.866l-40.63,-5.827" style="fill:none;stroke:#000;stroke-width:11.1px;"/>
                <path d="M1166.02,613.11l-0,-116.693l-56.693,-7.874l56.693,7.874l-0,140.63" style="fill:none;stroke:#000;stroke-width:11.1px;"/>
                <path d="M1132.32,637.205l13.543,-0l-13.543,-0" style="fill:none;stroke:#000;stroke-width:11.1px;"/>
                <path d="M1131.69,526.339l-0,13.543" style="fill:none;stroke:#000;stroke-width:11.1px;"/>
                <path d="M1166.02,637.205l-20.158,-0" style="fill:none;stroke:#000;stroke-width:11.1px;"/>
            </g>
        </g>
    </g>
</svg>
