<?xml version="1.0" encoding="UTF-8" standalone="no"?>
<!DOCTYPE svg PUBLIC "-//W3C//DTD SVG 1.1//EN" "http://www.w3.org/Graphics/SVG/1.1/DTD/svg11.dtd">
<svg width="100%" height="100%" viewBox="0 0 2842 1534" version="1.1" xmlns="http://www.w3.org/2000/svg" xmlns:xlink="http://www.w3.org/1999/xlink" xml:space="preserve" xmlns:serif="http://www.serif.com/" style="fill-rule:evenodd;clip-rule:evenodd;stroke-linecap:round;stroke-linejoin:round;">
    <g>
        <path d="M6.969,1115.79l-1.103,-7.874l0,-783.937l9.921,-63.307l3.937,-7.086l4.41,-2.992l-0,-4.567l23.307,-42.363l14.646,-16.692l34.645,-30.394l34.646,-17.795l9.606,-3.15l0.63,-1.26l8.819,-4.724l43.622,-6.615l15.433,-2.677l1671.81,0l61.575,9.292l12.913,5.354l46.93,25.984l17.165,17.166l1.102,3.307l8.819,6.614l14.961,14.173l21.89,41.102l0.787,6.615l3.937,3.307l1.417,1.732l4.252,11.811l1.418,7.717l1.259,8.031l1.418,7.717l1.102,7.874l1.575,7.716l1.102,10.551l1.418,7.717l2.362,6.142l101.417,67.716l15.906,12.756l1.102,119.055l-0,41.732l-1.102,69.607l-57.481,33.701l-2.677,252.44l-57.165,31.339l-1.26,21.732l-0,39.055l-1.102,88.504l-9.292,57.323l-1.417,4.41l-24.252,48.504l-24.252,28.504l-1.89,-0l-2.677,4.566l-20.945,18.741l-36.535,20.787l-23.937,10.394l-57.323,9.291l-692.599,1.102l-39.055,0l-942.519,-1.102l-57.481,-9.291l-21.259,-7.874l-44.41,-25.827l-12.913,-13.543l-7.874,-10.237l-4.725,-2.362l-16.22,-15.59l-20.63,-39.685l-3.15,-9.449l-1.26,-0.788l-3.937,-7.086l-2.047,-11.339l-0.315,-6.929l-1.26,-0.787l-1.102,-7.874l-0.315,-9.607l-1.102,-0.945l-1.103,-7.716l-0.315,-6.929l-1.259,-0.788Zm1761.73,-749.921l-3.15,-4.094l0.158,-62.048l6.299,-8.818l15.748,-29.449l3.464,-9.134l7.717,-5.512l3.937,-0.472l26.457,-18.898l8.346,-6.772l17.323,-0.157l2.835,-1.103l23.307,-2.677l12.283,-1.102l8.662,3.779l5.039,2.835l31.496,11.181l4.409,0l2.678,2.835l0.315,4.409l31.496,34.488l1.574,0.473l1.103,6.772l1.575,1.102l0.945,9.449l1.574,1.102l0.63,6.457l0.945,2.992l1.26,0.945l0.315,6.457l0.945,2.992l1.417,0.945l0.315,6.456l0.945,2.835l1.26,1.102l-1.103,9.449l-10.708,41.26l-3.78,9.764l-33.543,36.85l-31.024,13.858l-7.559,2.363l-12.126,6.299l-8.504,-1.89l-23.464,-2.52l-14.016,-1.102l-12.283,-2.835l-2.363,-2.992l-34.173,-23.937l-5.827,-1.417l-2.677,-2.677l-1.417,-5.827l-16.221,-31.654l-2.834,-2.362Zm-1608.19,848.819l-42.835,-33.071l-25.827,-50.236l0,-60l28.347,-52.756l43.149,-32.441l102.678,0l44.567,33.701l27.086,51.496l1.26,0.787l-1.26,59.213l-24.724,48.661l-43.937,34.646l-0.63,1.575l-107.402,-0l-0.472,-1.575Z" style="fill:#003cd2;"/>
        <path d="M209.488,120.354l17.481,-2.677l2.834,-74.803l1.417,74.803l206.772,0l1.26,-74.803l1.26,0.787l1.575,74.016l1439.21,2.677l-1671.81,0Z"/>
        <path d="M1768.7,365.866l-3.15,-4.094l0.158,-62.048l6.299,-8.818l-3.78,16.692l0,43.465l1.733,9.606l-1.26,5.197Z"/>
        <path d="M131.378,138.78l3.307,-4.095l6.929,-0.315l-0.63,1.26l-9.606,3.15Z" style="fill:#000020;"/>
        <path d="M2019.88,178.15l6.772,3.149l3.149,6.772l-8.819,-6.614l-1.102,-3.307Z" style="fill:#000020;"/>
        <path d="M1902.09,219.409l5.039,2.835l-7.559,-1.732l2.52,-1.103Z" style="fill:#000020;"/>
        <path d="M2066.65,243.346l3.937,3.465l0.787,6.457l-3.937,-3.307l-0.787,-6.615Z" style="fill:#000020;"/>
        <path d="M1977.52,275.157l1.574,0.473l1.103,6.772l-2.677,-7.245Z" style="fill:#000020;"/>
        <path d="M1771.54,368.228l-2.834,-2.362l1.26,-5.197l1.574,7.559Z" style="fill:#000020;"/>
        <path d="M1834.21,436.732l-2.363,-2.992l7.717,1.732l-5.354,1.26Z" style="fill:#000020;"/>
        <path d="M24.134,1186.02l-2.835,-1.733l-1.575,-8.504l1.26,0.788l3.15,9.449Z" style="fill:#000020;"/>
        <path d="M2027.13,1246.65l-0.157,1.889l-4.41,2.677l2.677,-4.566l1.89,-0Z" style="fill:#000020;"/>
        <path d="M229.803,42.874l65.512,-37.008l78.425,0l4.41,1.417l61.102,35.591l-1.26,74.803l-206.772,0l-1.417,-74.803Z" style="fill:#1a1a1a;"/>
        <path d="M2207.13,532.48l-0,36.378l626.299,-0.787l0,-34.803l-626.299,-0.788Z" style="fill:#bfbfbf;"/>
        <path d="M2087.44,980.354l746.772,0.315l-0,38.268l-746.772,0.472l-0,-39.055Z" style="fill:#bfbfbf;"/>
        <path d="M1818.31,1490.59l0,36.535l-665.669,-0l-0.473,-215.591l36.378,0l0.788,178.268l628.976,0.788Z" style="fill:#bfbfbf;"/>
        <path d="M1881.14,216.732l12.283,-1.102l8.662,3.779l-2.52,1.103l-18.425,-3.78Z"/>
        <path d="M1829.33,227.441l8.346,-6.772l17.323,-0.157l-25.669,6.929Z"/>
        <path d="M1938.62,233.425l4.409,0l2.678,2.835l0.315,4.409l-7.402,-7.244Z"/>
        <path d="M19.724,253.583l2.993,-6.929l1.417,-0.63l-0,4.567l-4.41,2.992Z"/>
        <path d="M1787.76,261.457l3.464,-9.134l7.717,-5.512l3.937,-0.472l-15.118,15.118Z"/>
        <path d="M2077.05,266.811l1.26,0.945l0.158,6.772l-1.418,-7.717Z"/>
        <path d="M2079.72,282.559l1.103,0.787l0.315,6.93l-1.418,-7.717Z"/>
        <path d="M1980.2,282.402l1.575,1.102l0.945,9.449l-2.52,-10.551Z"/>
        <path d="M1982.72,292.953l1.574,1.102l0.63,6.457l-2.204,-7.559Z"/>
        <path d="M2082.24,298.15l1.26,0.944l0.315,6.772l-1.575,-7.716Z"/>
        <path d="M1985.87,303.504l1.26,0.945l0.315,6.457l-1.575,-7.402Z"/>
        <path d="M1988.39,313.898l1.417,0.945l0.315,6.456l-1.732,-7.401Z"/>
        <path d="M2084.92,316.417l1.103,0.788l0.315,6.929l-1.418,-7.717Z"/>
        <path d="M1991.06,324.134l1.26,1.102l-1.103,9.449l-0.157,-10.551Z"/>
        <path d="M1797.68,409.803l-5.827,-1.417l-2.677,-2.677l-1.417,-5.827l9.921,9.921Z"/>
        <path d="M1860.51,440.669l-14.016,-1.102l-12.283,-2.835l5.354,-1.26l20.945,5.197Z"/>
        <path d="M1904.61,438.78l-12.126,6.299l-8.504,-1.89l20.63,-4.409Z"/>
        <path d="M2207.13,529.803l628.976,0.788l0,40.157l-628.976,0.787l-0,-2.677l626.299,-0.787l0,-34.803l-626.299,-0.788l-0,-2.677Z"/>
        <path d="M2834.21,980.669l1.732,0.473l-0,37.48l-1.732,0.315l-0,-38.268Z"/>
        <path d="M8.543,1123.5l-1.574,-7.717l1.259,0.788l0.315,6.929Z"/>
        <path d="M337.677,1071.38l1.26,0.787l-1.26,59.213l0,-60Z"/>
        <path d="M11.063,1141.77l-1.417,-10.552l1.102,0.945l0.315,9.607Z"/>
        <path d="M13.74,1157.36l-1.575,-7.716l1.26,0.787l0.315,6.929Z"/>
        <path d="M269.016,1214.68l-0.63,1.575l-107.402,-0l-0.472,-1.575l108.504,0Z"/>
        <path d="M73.583,1253.9l-8.032,-4.567l-4.567,-8.032l4.725,2.362l7.874,10.237Z"/>
        <path d="M1191.22,1311.54l0.788,175.748l625.984,1.575l0.315,1.733l-628.976,-0.788l-0.788,-178.268l2.677,0Z"/>
        <path d="M1818.31,1527.13l-0.315,1.732l-665.039,0l-0.315,-1.732l665.669,-0Z"/>
        <g id="Actor_.0">
            <g>
                <path d="M30.748,1195.16l-9.134,-13.7l-0.945,-6.142l-4.724,-9.291l-10.394,-64.882l0,-771.024l10.394,-64.882l29.606,-58.267l41.418,-41.418l-2.993,2.992" style="fill:none;stroke:#000;stroke-width:11.1px;"/>
                <path d="M83.976,1262.72l2.993,2.992l-41.26,-41.26l-25.512,-49.921" style="fill:none;stroke:#000;stroke-width:11.1px;"/>
                <path d="M20.197,256.732l1.417,-6.929l9.134,-13.701" style="fill:none;stroke:#000;stroke-width:11.1px;"/>
                <path d="M59.724,1238.46l7.245,11.023l11.023,7.402" style="fill:none;stroke:#000;stroke-width:11.1px;"/>
                <path d="M59.724,192.795l7.245,-11.023l11.023,-7.402" style="fill:none;stroke:#000;stroke-width:11.1px;"/>
                <path d="M86.969,1265.71l5.039,5.039l49.764,25.512l-6.772,-1.417l-13.701,-9.134" style="fill:none;stroke:#000;stroke-width:11.1px;"/>
                <path d="M86.969,165.551l5.039,-5.039l49.764,-25.355l-6.772,1.26l-13.701,9.134" style="fill:none;stroke:#000;stroke-width:11.1px;"/>
                <path d="M278.307,1209.02l9.606,-7.402l-20.315,15.591l-104.567,-0l-45.984,-35.118l-11.811,-23.78l-13.858,-28.189l-0,-57.795l25.669,-51.969l45.984,-35.118l104.567,0l20.315,15.433l-9.606,-7.244" style="fill:none;stroke:#000;stroke-width:11.1px;"/>
                <path d="M165.079,128.386l-14.646,2.362l-8.661,4.409l0.315,-0.157" style="fill:none;stroke:#000;stroke-width:11.1px;"/>
                <path d="M164.764,1302.87l-14.331,-2.362l-8.661,-4.252l0.315,-0" style="fill:none;stroke:#000;stroke-width:11.1px;"/>
                <path d="M160.039,129.173l55.276,-8.819l17.795,0l-17.795,0" style="fill:none;stroke:#000;stroke-width:11.1px;"/>
                <path d="M1909.8,1305.71l-32.441,5.197l-1662.05,-0l-55.276,-8.819" style="fill:none;stroke:#000;stroke-width:11.1px;"/>
                <path d="M230.276,120.354l-0,-77.008l66.456,-37.795l76.536,0l24.252,13.858l-5.04,-2.992" style="fill:none;stroke:#000;stroke-width:11.1px;"/>
                <path d="M233.11,120.354l206.772,0l-0,-77.008l-42.362,-23.937" style="fill:none;stroke:#000;stroke-width:11.1px;"/>
                <path d="M287.913,1201.61l25.67,-19.527l25.669,-51.969l-0,-57.795l-25.669,-51.969l-25.67,-19.685" style="fill:none;stroke:#000;stroke-width:11.1px;"/>
                <path d="M434.055,120.354l18.268,0l-12.441,0" style="fill:none;stroke:#000;stroke-width:11.1px;"/>
                <path d="M452.323,120.354l1425.04,0l64.725,10.394l8.504,4.252l6.929,1.417l13.858,9.134" style="fill:none;stroke:#000;stroke-width:11.1px;"/>
                <path d="M1190.12,1310.91l0,179.685l628.819,-0l0,37.322l-666.299,0l-0,-217.007" style="fill:none;stroke:#000;stroke-width:11.1px;"/>
                <path d="M1780.67,388.386l-15.905,-30.551l-0,-41.26l-0,0.945" style="fill:none;stroke:#000;stroke-width:11.1px;"/>
                <path d="M1764.76,342.717l8.189,31.023" style="fill:none;stroke:#000;stroke-width:11.1px;"/>
                <path d="M1780.67,271.693l-15.905,30.551l-0,14.331l8.189,-30.079" style="fill:none;stroke:#000;stroke-width:11.1px;"/>
                <path d="M1784.61,395.787l22.992,22.993" style="fill:none;stroke:#000;stroke-width:11.1px;"/>
                <path d="M1823.03,429.488l13.229,9.134l-45.669,-31.653l-18.741,-35.434" style="fill:none;stroke:#000;stroke-width:11.1px;"/>
                <path d="M1776.26,280.039l14.331,-26.929l40.157,-27.874l-7.717,5.355" style="fill:none;stroke:#000;stroke-width:11.1px;"/>
                <path d="M1784.61,264.291l22.992,-22.992" style="fill:none;stroke:#000;stroke-width:11.1px;"/>
                <path d="M1827.91,432.795l31.181,8.504l-22.834,-2.677" style="fill:none;stroke:#000;stroke-width:11.1px;"/>
                <path d="M1840.83,439.094l16.693,2.048" style="fill:none;stroke:#000;stroke-width:11.1px;"/>
                <path d="M1827.91,227.283l31.181,-8.346l-22.834,2.52l-5.512,3.779" style="fill:none;stroke:#000;stroke-width:11.1px;"/>
                <path d="M1840.83,220.984l16.693,-2.047" style="fill:none;stroke:#000;stroke-width:11.1px;"/>
                <path d="M1954.84,412.48l-11.497,13.071l-51.968,19.685l-32.284,-3.937l0.945,0.158" style="fill:none;stroke:#000;stroke-width:11.1px;"/>
                <path d="M1978.47,385.866l14.96,-55.748l-13.228,-54.016l-36.851,-41.574l-51.968,-19.685l-32.284,4.094l0.945,-0.315" style="fill:none;stroke:#000;stroke-width:11.1px;"/>
                <path d="M1883.82,444.291l33.701,-8.976" style="fill:none;stroke:#000;stroke-width:11.1px;"/>
                <path d="M1883.98,215.787l33.544,8.977" style="fill:none;stroke:#000;stroke-width:11.1px;"/>
                <path d="M1895.63,216.417l15.59,5.985" style="fill:none;stroke:#000;stroke-width:11.1px;"/>
                <path d="M1895.63,1307.91l46.457,-7.401l8.346,-4.252l7.087,-1.417l13.7,-9.134" style="fill:none;stroke:#000;stroke-width:11.1px;"/>
                <path d="M1950.43,1296.26l50.236,-25.512l40.473,-40.472l-2.362,2.362" style="fill:none;stroke:#000;stroke-width:11.1px;"/>
                <path d="M1961.14,404.764l4.724,-4.567l-27.244,27.086" style="fill:none;stroke:#000;stroke-width:11.1px;"/>
                <path d="M1961.14,255.315l4.567,4.567l-27.087,-27.087" style="fill:none;stroke:#000;stroke-width:11.1px;"/>
                <path d="M1950.43,417.362l10.236,-11.338" style="fill:none;stroke:#000;stroke-width:11.1px;"/>
                <path d="M1958.78,408.071l21.417,-24.095l11.968,-49.133l-1.417,6.141" style="fill:none;stroke:#000;stroke-width:11.1px;"/>
                <path d="M1951.22,243.504l3.623,4.094" style="fill:none;stroke:#000;stroke-width:11.1px;"/>
                <path d="M1956.58,137.992l-5.984,-2.992l50.078,25.512l41.26,41.26l-3.149,-3.15" style="fill:none;stroke:#000;stroke-width:11.1px;"/>
                <path d="M1989.8,316.575l-11.338,-42.362" style="fill:none;stroke:#000;stroke-width:11.1px;"/>
                <path d="M1986.97,306.339l2.677,9.448" style="fill:none;stroke:#000;stroke-width:11.1px;"/>
                <path d="M1987.28,353.268l2.363,-8.977" style="fill:none;stroke:#000;stroke-width:11.1px;"/>
                <path d="M1993.42,330.118l-2.677,-10.866" style="fill:none;stroke:#000;stroke-width:11.1px;"/>
                <path d="M2032.95,1238.46l-7.402,11.023l-11.023,7.244" style="fill:none;stroke:#000;stroke-width:11.1px;"/>
                <path d="M2032.95,192.795l-7.402,-11.023l-10.866,-7.244" style="fill:none;stroke:#000;stroke-width:11.1px;"/>
                <path d="M2041.14,1230.28l5.827,-5.827l13.228,-25.827l-3.307,6.299" style="fill:none;stroke:#000;stroke-width:11.1px;"/>
                <path d="M2060.2,1198.62l2.52,-4.882l-0.945,1.575" style="fill:none;stroke:#000;stroke-width:11.1px;"/>
                <path d="M2155.79,376.417l-68.818,-46.299l-10.237,-64.882l-20.63,-40.472" style="fill:none;stroke:#000;stroke-width:11.1px;"/>
                <path d="M2056.42,225.236l-9.291,-18.267l-5.197,-5.197" style="fill:none;stroke:#000;stroke-width:11.1px;"/>
                <path d="M2071.06,1181.46l0.945,-6.142l-9.291,18.425l8.346,-12.283" style="fill:none;stroke:#000;stroke-width:11.1px;"/>
                <path d="M2086.97,1101.61l-0,-0.472l-10.237,64.882l-4.724,9.291l0.472,-0.787" style="fill:none;stroke:#000;stroke-width:11.1px;"/>
                <path d="M2072.48,256.89l-1.417,-7.087l-9.134,-13.701" style="fill:none;stroke:#000;stroke-width:11.1px;"/>
                <path d="M2086.97,1101.14l-0,-142.205l60,-33.701l-0,-250.708l59.842,-33.701l0,-229.921l-55.276,-37.323" style="fill:none;stroke:#000;stroke-width:11.1px;"/>
                <path d="M2086.97,1018.78l748.818,-0l0,-37.323l-748.818,-0" style="fill:none;stroke:#000;stroke-width:11.1px;"/>
                <path d="M2086.97,330.118l-0,-0.472" style="fill:none;stroke:#000;stroke-width:11.1px;"/>
                <path d="M2206.81,532.165l628.976,0l0,37.481l-628.976,-0" style="fill:none;stroke:#000;stroke-width:11.1px;"/>
            </g>
        </g>
    </g>
</svg>
