<?xml version="1.0" encoding="UTF-8" standalone="no"?>
<!DOCTYPE svg PUBLIC "-//W3C//DTD SVG 1.1//EN" "http://www.w3.org/Graphics/SVG/1.1/DTD/svg11.dtd">
<svg width="100%" height="100%" viewBox="0 0 1938 1724" version="1.1" xmlns="http://www.w3.org/2000/svg" xmlns:xlink="http://www.w3.org/1999/xlink" xml:space="preserve" xmlns:serif="http://www.serif.com/" style="fill-rule:evenodd;clip-rule:evenodd;stroke-linecap:round;stroke-linejoin:round;">
    <g>
        <path d="M836.417,564.134l2.52,85.984l10.551,2.52l17.481,0.157l130.078,-52.283l2.362,-55.591l451.654,94.646l46.929,20.787l39.213,38.898l28.504,54.803l10.393,60l70.394,70.079l0.945,139.212l-152.126,-32.126l-11.339,-0.157l-151.338,59.213l-1.418,-152.914l-7.716,-46.929l-25.984,-51.968l-26.142,-28.662l-23.465,-18.268l-36.378,-15.59l-984.252,-205.669l-48.818,-1.575l62.204,-25.197l1.26,22.362l120.788,25.354l6.771,0.158l136.378,-54.173l0.788,-53.229l5.354,-1.259l324.409,121.417Z" style="fill:#ffef24;"/>
        <path d="M1211.54,735.945l36.378,15.59l23.465,18.268l26.142,28.662l25.984,51.968l7.716,46.929l1.418,152.914l0.157,25.826l0,289.134l-0.157,28.662l-1.418,69.291l-5.039,34.016l-16.535,32.913l-24.095,27.559l-102.52,41.89l-6.299,0.63l-18.11,8.189l-27.874,-0.158l-25.984,-2.519l-327.244,-68.032l-646.772,-134.96l-41.417,-15.906l-33.701,-28.819l-26.142,-36.378l-15.905,-38.74l-5.04,-31.339l-2.677,-20.787l0,-545.984l5.04,-39.213l19.842,-42.677l27.244,-24.882l120.473,-49.291l48.818,1.575l984.252,205.669Z" style="fill:#003cd2;"/>
        <path d="M535.472,21.929l22.835,18.425l25.669,34.174l12.914,31.338l7.874,44.252l-3.78,35.433l-13.386,37.166l-1.732,0.314l-23.779,23.15l-149.922,61.26l-0.157,-21.102l5.354,-44.252l0,-52.914l-10.393,-31.338l-18.111,-26.142l-13.228,-12.913l-20.787,-12.914l-15.591,-5.354l-29.764,-0l-14.645,6.142l-53.544,29.291l17.323,-36.851l23.307,-21.102l178.583,-71.181l40.315,0l34.645,15.118Z" style="fill:#a2a8ad;"/>
        <path d="M461.457,423.661l42.834,17.323l2.363,2.992l-0.788,53.229l-136.378,54.173l-6.771,-0.158l-120.788,-25.354l-1.26,-22.362l2.048,-32.284l74.803,-32.126l61.732,-24.724l24.094,-9.291l8.819,-0l49.292,18.582Z" style="fill:#1a1a1a;"/>
        <path d="M563.189,30.276l26.142,20.63l18.425,25.984l12.756,36.693l-0,34.96l-10.551,28.504l-8.977,8.504l3.78,-35.433l-7.874,-44.252l-12.914,-31.338l-25.669,-34.174l-22.835,-18.425l27.717,8.347Z" style="fill:#bfbfbf;"/>
        <path d="M354.843,105.866l20.787,12.914l13.228,12.913l18.111,26.142l10.393,31.338l0,52.914l-5.354,44.252l0.157,21.102l149.922,-61.26l23.779,-23.15l1.732,-0.314l-12.441,110.393l422.678,158.11l1.574,53.701l-2.362,55.591l-130.078,52.283l-17.481,-0.157l-10.551,-2.52l-2.52,-85.984l-324.409,-121.417l-7.717,-1.733l-42.834,-17.323l-49.292,-18.582l-8.819,-0l-24.094,9.291l-154.646,-58.583l0,-20l10.709,-86.771l-8.189,-15.433l-5.039,-26.142l-0,-22.677l5.196,-25.827l14.016,-22.992l53.544,-29.291l14.645,-6.142l29.764,-0l15.591,5.354Z" style="fill:#bfbfbf;"/>
        <path d="M1647.44,1023.35l282.677,58.898l0,26.929l-149.291,59.37l-6.772,-0.157l-162.677,-32.441l-37.953,-9.449l-240.63,-50.394l-0.157,-25.826l151.338,-59.213l11.339,0.157l152.126,32.126Z" style="fill:#bfbfbf;"/>
        <path d="M1574.06,1323.35l1.89,1.26l351.968,72.441l2.52,2.52l0,25.039l-146.772,58.74l-14.96,-0.157l-222.205,-45.039l-202.205,-43.465l-11.653,-0.787l0.157,-28.662l28.977,-9.449l124.882,-49.763l87.401,17.322Z" style="fill:#bfbfbf;"/>
        <path d="M1104.76,1605.71l25.984,2.519l27.874,0.158l18.11,-8.189l6.299,-0.63l12.756,3.464l125.197,25.827l5.04,2.835l-0.788,25.984l-143.149,57.48l-20.158,-0.157l-383.622,-79.843l-0.787,-97.48l327.244,68.032Z" style="fill:#bfbfbf;"/>
        <path d="M1154.53,857.992l23.149,34.173l7.717,33.859l-2.363,24.252l-7.874,-3.622l-21.102,-28.347l-7.874,-18.11l-2.52,-10.551l0.158,-39.37l10.709,7.716Z" style="fill:#ffef24;"/>
        <path d="M1573.42,1126.5l37.953,9.449l-1.575,103.307l-33.858,15.748l-1.89,68.346l-87.401,-17.322l-124.882,49.763l-28.977,9.449l0,-289.134l240.63,50.394Z" style="fill:#ffef24;"/>
        <path d="M162.244,1181.14l23.78,25.669l17.795,44.567l0.157,40.315l-2.992,5.039l-12.756,-3.622l-25.984,-28.661l-13.228,-33.701l-0,-51.496l7.874,-0.945l5.354,2.835Z" style="fill:#ffef24;"/>
        <path d="M1546.5,1438.15l-6.929,12.126l-38.74,23.779l-199.055,79.528l-16.221,4.094l24.095,-27.559l16.535,-32.913l5.039,-34.016l1.418,-69.291l11.653,0.787l202.205,43.465Z" style="fill:#ffef24;"/>
        <path d="M512.008,442.717l-5.354,1.259l-2.363,-2.992l7.717,1.733Z" style="fill:#fff;"/>
        <g id="Actor_.0">
            <g>
                <path d="M263.504,121.929l27.559,-3.464l28.504,8.976l25.512,20.472l19.37,28.977l10.236,33.858l0.158,33.858l-10.394,29.449l-19.213,20.945" style="fill:none;stroke:#000;stroke-width:5.56px;"/>
                <path d="M371.063,284.921l19.213,-21.102l10.393,-29.449l1.26,-16.693l-1.26,-17.165l-10.393,-33.701l-19.37,-29.134l-25.512,-20.472l-28.504,-8.977l-27.559,3.622" style="fill:none;stroke:#000;stroke-width:5.56px;"/>
                <path d="M294.213,107.283l27.086,-1.102l27.559,10.394l24.567,20.63l18.583,28.346l10.394,32.599l0.944,33.228l-22.362,182.992" style="fill:none;stroke:#000;stroke-width:5.56px;"/>
                <path d="M310.433,66.811l33.071,0.63l32.913,13.071l29.764,24.094l23.622,32.914l15.276,38.425l5.197,40.157l-5.197,37.953l-15.118,32.126l-20.315,19.685" style="fill:none;stroke:#000;stroke-width:5.56px;"/>
                <path d="M400.197,382.559l11.338,-4.409l-3.149,25.354" style="fill:none;stroke:#000;stroke-width:5.56px;"/>
                <path d="M411.535,378.15l449.292,168.819l-0,108.031" style="fill:none;stroke:#000;stroke-width:5.56px;"/>
                <path d="M403.346,231.378l16.221,-6.457" style="fill:none;stroke:#000;stroke-width:5.56px;"/>
                <path d="M469.646,284.134l92.126,34.646l-11.181,4.566" style="fill:none;stroke:#000;stroke-width:5.56px;"/>
                <path d="M561.772,318.78l9.921,-80.945" style="fill:none;stroke:#000;stroke-width:5.56px;"/>
                <path d="M860.827,546.969l139.055,-54.804" style="fill:none;stroke:#000;stroke-width:5.56px;"/>
            </g>
            <g>
                <path d="M550.591,323.346l449.291,168.819l-0,108.032l-139.055,54.803l-22.205,-4.567l0,-85.197l-430.236,-161.732l-27.402,10.866l-158.582,-59.527l12.755,-104.725" style="fill:none;stroke:#000;stroke-width:11.1px;"/>
                <path d="M371.063,284.921l-25.827,10.079l-25.669,9.764l-28.504,-2.677l-27.559,-15.118l-22.835,-25.04l-14.96,-31.968l-5.355,-34.489l5.197,-32.126l15.118,-25.669l22.835,-15.748l25.827,-10.079" style="fill:none;stroke:#000;stroke-width:11.1px;"/>
                <path d="M241.457,137.047l0.472,-3.307l15.118,-32.126l23.622,-23.149l184.882,-72.914l33.071,0.63l32.913,13.071l29.764,24.094l23.622,32.914l15.276,38.425l5.197,40.158l-5.197,37.952l-15.118,32.126l-23.622,22.992l-152.126,60.158l-9.134,74.488" style="fill:none;stroke:#000;stroke-width:11.1px;"/>
                <path d="M409.331,308.071l10.236,-83.15l-0.945,-33.071l-10.394,-32.756l-18.582,-28.346l-24.567,-20.63l-27.559,-10.236l-27.244,1.102l-16.063,6.299l-18.898,10.079" style="fill:none;stroke:#000;stroke-width:11.1px;"/>
                <path d="M534.685,21.772l2.047,-0.315l28.347,9.134l25.669,20.315l19.37,29.133l10.236,33.701l0,33.858l-10.236,29.449l-9.134,9.922" style="fill:none;stroke:#000;stroke-width:11.1px;"/>
                <path d="M575.472,332.638l14.489,-118.268" style="fill:none;stroke:#000;stroke-width:11.1px;"/>
            </g>
        </g>
        <g id="Actor_.1">
            <g>
                <path d="M161.299,1343.35l-62.205,-12.913l-27.244,-30.236l-15.275,-39.843l-0,-40.787l15.118,-33.386l27.401,-19.055" style="fill:none;stroke:#000;stroke-width:5.56px;"/>
                <path d="M99.094,1330.43l104.725,-41.26" style="fill:none;stroke:#000;stroke-width:5.56px;"/>
                <path d="M1450.75,639.567l-332.913,131.339l-987.717,-205.827l-38.425,-0.788" style="fill:none;stroke:#000;stroke-width:5.56px;"/>
                <path d="M130.118,565.079l112.441,-44.252" style="fill:none;stroke:#000;stroke-width:5.56px;"/>
                <path d="M282.087,453.583l45.511,9.448l39.528,34.961l138.898,-54.961" style="fill:none;stroke:#000;stroke-width:5.56px;"/>
                <path d="M367.126,497.992l-0,54.173" style="fill:none;stroke:#000;stroke-width:5.56px;"/>
                <path d="M919.094,1567.13l-118.425,46.772l0,-71.496" style="fill:none;stroke:#000;stroke-width:5.56px;"/>
                <path d="M800.669,1613.9l373.701,77.795l153.543,-60.63" style="fill:none;stroke:#000;stroke-width:5.56px;"/>
                <path d="M1157.05,993.74l-30.866,7.402l-32.913,-11.496l-27.087,-27.874l-15.275,-37.796l-0,-39.055l15.275,-31.338l27.087,-16.536" style="fill:none;stroke:#000;stroke-width:5.56px;"/>
                <path d="M1117.84,770.906l38.425,15.275l34.803,28.189l27.559,38.268l17.638,44.882l6.142,46.929l71.181,71.653l-0,161.733l-35.591,16.22l0,176.536l-35.59,16.22l-0,100.158l-6.142,44.251l-17.638,37.481l-27.559,26.929" style="fill:none;stroke:#000;stroke-width:5.56px;"/>
                <path d="M1174.37,1717.99l0,-26.299" style="fill:none;stroke:#000;stroke-width:5.56px;"/>
                <path d="M1242.4,1486.97l187.401,-74.016" style="fill:none;stroke:#000;stroke-width:5.56px;"/>
                <path d="M1242.4,1386.81l19.37,-7.559" style="fill:none;stroke:#000;stroke-width:5.56px;"/>
                <path d="M1242.4,944.449l313.543,-123.78l-0,183.622" style="fill:none;stroke:#000;stroke-width:5.56px;"/>
                <path d="M1277.99,1370.59l19.37,-7.717" style="fill:none;stroke:#000;stroke-width:5.56px;"/>
                <path d="M1277.99,1194.06l19.37,-7.559" style="fill:none;stroke:#000;stroke-width:5.56px;"/>
                <path d="M1313.58,1177.84l19.37,-7.717" style="fill:none;stroke:#000;stroke-width:5.56px;"/>
                <path d="M1313.58,1016.1l19.37,-7.716" style="fill:none;stroke:#000;stroke-width:5.56px;"/>
                <path d="M1778.47,1485.71l-0,-26.3l-444.882,-92.755" style="fill:none;stroke:#000;stroke-width:5.56px;"/>
                <path d="M1778.47,1169.65l-0,-26.457l-444.882,-92.598" style="fill:none;stroke:#000;stroke-width:5.56px;"/>
                <path d="M1555.94,1123.19l-0,140l19.37,-7.717" style="fill:none;stroke:#000;stroke-width:5.56px;"/>
                <path d="M1555.94,1263.19l35.59,-16.378l0,-116.22" style="fill:none;stroke:#000;stroke-width:5.56px;"/>
                <path d="M1627.13,1019.09l-0,-126.771l-71.181,-71.654l19.37,-7.716" style="fill:none;stroke:#000;stroke-width:5.56px;"/>
                <path d="M1591.54,1246.81l19.371,-7.559" style="fill:none;stroke:#000;stroke-width:5.56px;"/>
                <path d="M1627.13,892.323l19.37,-7.559" style="fill:none;stroke:#000;stroke-width:5.56px;"/>
                <path d="M1778.47,1459.41l153.543,-60.629" style="fill:none;stroke:#000;stroke-width:5.56px;"/>
                <path d="M1778.47,1143.19l153.543,-60.472" style="fill:none;stroke:#000;stroke-width:5.56px;"/>
            </g>
            <g>
                <path d="M171.063,532.953l0.63,-0.158l-114.488,45.197l-27.874,26.929l-17.638,37.481l-6.142,44.252l0,542.677l6.142,46.771l17.638,44.882l27.559,38.425l34.803,28.189l38.425,15.119l987.717,205.826l38.425,0.788l42.677,-16.851l-14.646,5.827" style="fill:none;stroke:#000;stroke-width:11.1px;"/>
                <path d="M161.299,1343.35l27.244,-19.055l2.677,-5.826l12.599,-27.559l-0,-40.63l-15.276,-39.685l-27.244,-30.552l-62.205,-12.913" style="fill:none;stroke:#000;stroke-width:11.1px;"/>
                <path d="M91.693,564.291l0.472,-0.157" style="fill:none;stroke:#000;stroke-width:11.1px;"/>
                <path d="M200.984,1297.05l-11.338,-2.362l-27.402,-30.394l-15.118,-39.685l-0,-40.787l2.677,-6.142" style="fill:none;stroke:#000;stroke-width:11.1px;"/>
                <path d="M177.205,530.591l2.204,-0.945l-7.716,3.149l5.512,-2.204l-4.095,0.157l-8.189,4.724" style="fill:none;stroke:#000;stroke-width:11.1px;"/>
                <path d="M242.559,503.346l-69.449,27.402" style="fill:none;stroke:#000;stroke-width:11.1px;"/>
                <path d="M179.409,529.646l2.835,-0.945l-0.472,-0" style="fill:none;stroke:#000;stroke-width:11.1px;"/>
                <path d="M182.244,528.701l38.425,0.787l988.189,205.984" style="fill:none;stroke:#000;stroke-width:11.1px;"/>
                <path d="M408.701,403.661l-126.614,49.922l-39.528,18.425l0,54.173l124.567,25.984l138.898,-54.96l-0,-54.174l-5.512,-4.881" style="fill:none;stroke:#000;stroke-width:11.1px;"/>
                <path d="M505.394,442.559l15.118,3.15" style="fill:none;stroke:#000;stroke-width:11.1px;"/>
                <path d="M1179.57,1600.2l148.346,30.866l0,26.299l-153.543,60.63l-395.905,-82.52l-0,-97.637" style="fill:none;stroke:#000;stroke-width:11.1px;"/>
                <path d="M1646.5,1023.19l0,-138.425l-71.181,-71.811l-9.606,-58.425l-26.929,-53.386l-40.315,-40.473l-47.717,-21.102l-450.866,-94.016" style="fill:none;stroke:#000;stroke-width:11.1px;"/>
                <path d="M1093.27,837.047l32.913,2.047l30.866,20.315l21.733,33.859l8.031,39.527l-8.031,36.221l-21.733,24.724" style="fill:none;stroke:#000;stroke-width:11.1px;"/>
                <path d="M1146.34,900.669l-5.04,-12.441l0,-10.551l5.04,22.992l6.456,15.748l14.174,20.315l-0.945,-1.417" style="fill:none;stroke:#000;stroke-width:11.1px;"/>
                <path d="M1143.66,850.591l-2.362,9.448l0,17.638" style="fill:none;stroke:#000;stroke-width:11.1px;"/>
                <path d="M1141.3,860.039l0,-10.866" style="fill:none;stroke:#000;stroke-width:11.1px;"/>
                <path d="M1153.27,917.52l3.464,8.504l22.205,22.834l3.937,2.048" style="fill:none;stroke:#000;stroke-width:11.1px;"/>
                <path d="M1178.94,948.858l3.465,3.622" style="fill:none;stroke:#000;stroke-width:11.1px;"/>
                <path d="M1198.94,1592.48l52.913,-20.787l4.095,-0.158l242.52,-95.748l40.315,-23.464l9.291,-14.646" style="fill:none;stroke:#000;stroke-width:11.1px;"/>
                <path d="M1208.23,735.157l38.583,15.276l5.039,4.095l4.095,1.889l8.504,8.347l6.771,5.512l-7.086,-5.827l-6.772,-6.772" style="fill:none;stroke:#000;stroke-width:11.1px;"/>
                <path d="M1245.24,1574.21l12.126,-4.725l-5.512,2.205" style="fill:none;stroke:#000;stroke-width:11.1px;"/>
                <path d="M1255.94,1571.54l8.189,-4.724l-6.772,2.677l1.575,-0.63" style="fill:none;stroke:#000;stroke-width:11.1px;"/>
                <path d="M1251.85,754.528l12.599,10.236l-7.087,-5.67" style="fill:none;stroke:#000;stroke-width:11.1px;"/>
                <path d="M1264.13,1566.81l11.496,-4.567l-18.268,7.244" style="fill:none;stroke:#000;stroke-width:11.1px;"/>
                <path d="M1261.77,1379.25l35.59,-16.378l0,-176.378l35.433,-16.22l0,281.732" style="fill:none;stroke:#000;stroke-width:11.1px;"/>
                <path d="M1332.8,1170.28l0.158,-161.89l-71.181,-71.654" style="fill:none;stroke:#000;stroke-width:11.1px;"/>
                <path d="M1271.22,770.276l10.237,8.346l19.212,26.772l-4.252,-8.662l-6.614,-6.456" style="fill:none;stroke:#000;stroke-width:11.1px;"/>
                <path d="M1280.83,1560.2l-5.197,2.047l5.669,-2.205l8.504,-8.189l6.614,-3.937l4.252,-6.771l-10.866,10.708" style="fill:none;stroke:#000;stroke-width:11.1px;"/>
                <path d="M1300.67,1541.14l8.347,-8.189l8.976,-18.74l5.354,-8.504l-5.511,8.819l6.456,-13.386l-0.945,4.567" style="fill:none;stroke:#000;stroke-width:11.1px;"/>
                <path d="M1332.95,1008.39l-0.158,-99.685l-5.984,-46.929l-2.52,-6.3l-0.945,-5.196l-5.354,-10.709l-8.976,-22.52l-8.347,-11.653l0.158,0.157l-4.41,-8.819" style="fill:none;stroke:#000;stroke-width:11.1px;"/>
                <path d="M1332.64,1452.32l0.157,-0.788l-5.984,44.095l-2.52,5.512l0,-0.315" style="fill:none;stroke:#000;stroke-width:11.1px;"/>
                <path d="M1324.29,855.472l-6.456,-16.378" style="fill:none;stroke:#000;stroke-width:11.1px;"/>
                <path d="M1331.06,1464.61l1.732,-13.386l0,0.315" style="fill:none;stroke:#000;stroke-width:11.1px;"/>
                <path d="M1333.58,1392.95l-0,-26.299l153.543,-60.63l444.882,92.756l-0,26.299l-153.543,60.63l-444.882,-92.756" style="fill:none;stroke:#000;stroke-width:11.1px;"/>
                <path d="M1333.58,1076.89l444.882,92.756l153.543,-60.63l-0,-26.299l-444.882,-92.756l-153.543,60.63l-0,26.299" style="fill:none;stroke:#000;stroke-width:11.1px;"/>
                <path d="M1332.64,907.598l0.157,1.103l-0.157,-1.418" style="fill:none;stroke:#000;stroke-width:11.1px;"/>
                <path d="M1610.91,1134.68l-0,104.567l-35.591,16.22l-0,68.977" style="fill:none;stroke:#000;stroke-width:11.1px;"/>
            </g>
        </g>
    </g>
</svg>
