<?xml version="1.0" encoding="UTF-8" standalone="no"?>
<!DOCTYPE svg PUBLIC "-//W3C//DTD SVG 1.1//EN" "http://www.w3.org/Graphics/SVG/1.1/DTD/svg11.dtd">
<svg width="100%" height="100%" viewBox="0 0 2427 1479" version="1.1" xmlns="http://www.w3.org/2000/svg" xmlns:xlink="http://www.w3.org/1999/xlink" xml:space="preserve" xmlns:serif="http://www.serif.com/" style="fill-rule:evenodd;clip-rule:evenodd;stroke-linecap:round;stroke-linejoin:round;">
    <g>
        <path d="M2019.09,225.079l2.678,2.677l4.094,159.842l5.827,2.048l182.362,25.826l41.732,10.394l36.536,18.268l34.016,25.669l28.661,31.339l28.661,44.252l17.953,39.37l13.071,46.929l5.197,41.575l-0,32.126l-2.677,31.181l-7.717,34.016l-18.425,44.094l-20.315,28.976l-32.598,29.922l-33.701,18.425l-85.827,23.464l-61.732,0l-36.536,-5.196l-26.771,-0l-60.158,7.716l1.103,146.772l-279.371,80l-22.677,-0.158l-335.275,-47.086l-209.134,-30.866l-5.197,-73.071l-44.409,-8.032l-2.993,0.158l-2.204,3.149l-15.118,67.874l-324.095,-46.614l-1.575,-74.016l-36.535,-5.039l-13.858,-0l-12.126,55.591l-4.725,14.173l-517.008,-74.016l-4.252,-73.858l-172.441,-25.355l-9.763,-5.826l-8.819,-1.733l-7.717,-461.732l16.378,-7.087l2.677,-65.039l25.827,-8.031l22.52,-45.197l21.102,-28.504l16.693,-14.488l25.827,-15.748l20.63,-10.552l36.693,-10.393l-0.158,-65.197l283.15,-81.26l13.858,0l1528.66,218.268Z" style="fill:#525252;"/>
        <path d="M284.764,459.724l31.181,13.071l31.024,26.299l13.228,17.953l15.59,31.339l10.394,39.055l0,50.236l-7.716,28.662l-10.552,18.11l-12.913,18.268l-19.37,14.488l-20.315,8.346l-18.425,2.362l-14.961,0.158l-20.787,-5.197l-31.181,-15.748l-28.504,-20.945l-18.426,-23.307l-15.59,-31.181l-5.197,-23.465l0,-40.787l7.874,-31.339l21.102,-38.74l18.111,-20.945l25.039,-14.015l20.787,-5.197l29.607,2.519Z" style="fill:#c0c0c0;"/>
        <path d="M1303.03,636.575l26.142,31.181l17.953,34.173l10.394,31.339l5.197,28.504l-0.158,52.913l-7.559,31.496l-2.52,2.677l-24.409,6.772l-35.748,-0l-23.622,-5.197l-28.189,-15.905l-15.591,-13.071l-13.386,-17.953l-13.07,-28.504l-2.52,-10.551l-0,-46.142l10.394,-31.181l18.582,-25.827l22.205,-19.37l28.661,-12.913l16.693,-0.158l10.551,7.717Z" style="fill:#c0c0c0;"/>
        <path d="M792.48,936.102l1.575,74.016l324.095,46.614l15.118,-67.874l2.204,-3.149l2.993,-0.158l44.409,8.032l5.197,73.071l209.134,30.866l1.889,8.031l5.355,302.677l-29.449,9.922l-14.961,-0.158l-36.378,-5.197l-13.858,0l-200.472,57.323l-25.355,0l-145.984,-20.63l-5.827,-2.047l-1.732,-71.024l-2.677,-10.393l-10.394,-2.678l-21.575,0l-23.464,7.717l0.787,60.787l-16.378,4.567l-9.606,-0.157l-162.362,-22.52l-1.733,-29.606l-5.984,-351.496l44.252,-13.071l3.465,-9.449l0.472,-9.291l4.725,-14.173l12.126,-55.591l13.858,-0l36.535,5.039Z" style="fill:#c0c0c0;"/>
        <path d="M2185.39,579.567l10.866,7.559l20.63,18.268l15.748,23.307l12.756,34.173l2.519,20.787l-2.519,32.126l-7.874,23.465l-13.859,20.157l-12.283,-2.677l-15.591,-7.874l-17.952,-13.228l-15.906,-20.63l-10.394,-20.787l-7.716,-28.662l-0.158,-43.622l9.292,-27.086l15.748,-20.473l16.693,5.197Z" style="fill:#fff;"/>
        <g id="Actor_.0">
            <g>
                <path d="M5.551,357.205l851.339,121.889l8.189,463.937" style="fill:none;stroke:#000;stroke-width:5.56px;"/>
                <path d="M92.795,401.772l6.457,373.543l-60.158,17.323l-6.929,-399.528" style="fill:none;stroke:#000;stroke-width:5.56px;"/>
                <path d="M1572.8,1048.39l-9.449,-541.103l-1540.94,-220.787" style="fill:none;stroke:#000;stroke-width:5.56px;"/>
                <path d="M39.094,792.638l799.213,114.488" style="fill:none;stroke:#000;stroke-width:5.56px;"/>
                <path d="M85.709,334.055l851.496,122.047l8.031,463.937" style="fill:none;stroke:#000;stroke-width:5.56px;"/>
                <path d="M99.252,775.315l162.835,23.307l-26.142,-6.457l-34.016,-16.378l-31.338,-24.567l-27.087,-31.811l-21.89,-37.48l-15.275,-41.26l-8.347,-43.307l-0.157,-12.756l-0.473,-30.393l6.772,-41.103l14.016,-37.008l20.472,-31.338l26.299,-24.252l12.756,-6.457" style="fill:none;stroke:#000;stroke-width:5.56px;"/>
                <path d="M193.583,156.575l-3.622,-0l-36.536,8.504" style="fill:none;stroke:#000;stroke-width:5.56px;"/>
                <path d="M195,236.89l1540.94,220.787l-172.599,49.606" style="fill:none;stroke:#000;stroke-width:5.56px;"/>
                <path d="M192.323,88.701l1541.1,220.787l2.52,148.189" style="fill:none;stroke:#000;stroke-width:5.56px;"/>
                <path d="M837.835,881.142l-575.748,-82.52l8.819,0.945l34.488,-2.047l32.126,-11.339l28.661,-20l23.465,-27.874l17.48,-34.488l10.394,-39.37l2.992,-42.362l-4.41,-43.465l-11.968,-42.52l-18.74,-39.685l-24.567,-34.803l-26.142,-25.197" style="fill:none;stroke:#000;stroke-width:5.56px;"/>
                <path d="M1101.3,1473.11l-6.614,-380.157l-417.795,-59.843" style="fill:none;stroke:#000;stroke-width:5.56px;"/>
                <path d="M722.717,1019.88l26.141,3.779l45.827,-13.228" style="fill:none;stroke:#000;stroke-width:5.56px;"/>
                <path d="M748.858,1023.66l19.685,-90.393" style="fill:none;stroke:#000;stroke-width:5.56px;"/>
                <path d="M853.268,1437.52l-4.567,-257.638" style="fill:none;stroke:#000;stroke-width:5.56px;"/>
                <path d="M856.89,479.094l80.315,-22.992" style="fill:none;stroke:#000;stroke-width:5.56px;"/>
                <path d="M902.244,1361.61l-2.992,-174.645" style="fill:none;stroke:#000;stroke-width:5.56px;"/>
                <path d="M1029.33,503.819l391.811,56.22l8.031,463.78" style="fill:none;stroke:#000;stroke-width:5.56px;"/>
                <path d="M1094.68,1092.95l45.827,-13.229l-25.984,-3.779" style="fill:none;stroke:#000;stroke-width:5.56px;"/>
                <path d="M1335.16,886.496l-22.519,23.307l-26.929,15.591l-29.922,6.771l-31.496,-2.204l-31.181,-11.181l-29.291,-19.528l-25.669,-26.929l-20.788,-32.599l-14.645,-36.85l-8.032,-38.898l-0.63,-38.897l6.614,-36.851l13.544,-32.598l19.685,-26.929l24.882,-19.685l28.818,-11.181l30.867,-2.363l31.496,6.772" style="fill:none;stroke:#000;stroke-width:5.56px;"/>
                <path d="M1109.8,480.827l391.654,56.063l-80.315,23.149" style="fill:none;stroke:#000;stroke-width:5.56px;"/>
                <path d="M1140.51,1079.72l19.842,-90.393" style="fill:none;stroke:#000;stroke-width:5.56px;"/>
                <path d="M1314.06,1411.85l-5.669,-327.874" style="fill:none;stroke:#000;stroke-width:5.56px;"/>
                <path d="M1368.86,1419.72l-5.669,-327.874" style="fill:none;stroke:#000;stroke-width:5.56px;"/>
                <path d="M1509.49,1000.83l-8.031,-463.937" style="fill:none;stroke:#000;stroke-width:5.56px;"/>
                <path d="M1747.91,1146.97l-2.519,-148.189" style="fill:none;stroke:#000;stroke-width:5.56px;"/>
                <path d="M1733.42,309.488l288.977,-83.149" style="fill:none;stroke:#000;stroke-width:5.56px;"/>
                <path d="M1772.8,947.126l-8.504,-483.15l336.536,-38.267l60,8.504l38.267,10.236l37.008,18.897l34.331,27.245l30.079,34.33l25.039,40l18.898,44.41l11.968,46.929l4.567,47.716l-2.992,46.615l-10.394,43.622l-17.322,39.212l-23.78,33.071l-29.134,25.827l-33.386,17.48" style="fill:none;stroke:#000;stroke-width:5.56px;"/>
                <path d="M1764.92,463.819l260.315,-74.961" style="fill:none;stroke:#000;stroke-width:5.56px;"/>
                <path d="M2100.83,425.709l0.157,11.653l-40.945,12.284l-39.37,13.858l-40.63,16.85l-37.795,18.583l-34.961,19.843l-31.653,21.259l-27.874,22.205l-24.095,22.992l-20,23.78l-15.59,24.094l-11.024,24.252l-6.614,24.252l-1.89,23.937l2.677,23.307l7.402,22.677l11.969,21.575l16.378,20.473l20.629,19.212l24.725,17.481l28.661,15.905l32.126,13.858l35.591,11.969l38.425,9.764l40.945,7.559l39.685,5.039l41.26,2.835l0.157,11.653" style="fill:none;stroke:#000;stroke-width:5.56px;"/>
                <path d="M2100.98,437.362l-32.283,12.441l-31.339,21.732l-26.614,29.607l-20.472,36.22l-13.859,41.575l-6.771,45.354l0.63,33.071l0.157,14.173l8.347,47.559l15.433,45.827l21.889,42.362l27.717,37.323l32.283,30.866l32.914,21.733" style="fill:none;stroke:#000;stroke-width:5.56px;"/>
                <path d="M2188.39,778.622l-21.575,0.315l-21.575,-6.614l-20.472,-13.071l-17.481,-18.898l-13.7,-23.307l-8.819,-25.984l-3.307,-27.087l2.362,-26.299l8.031,-23.779l12.756,-19.37l17.166,-13.859l20,-7.401" style="fill:none;stroke:#000;stroke-width:5.56px;"/>
                <path d="M2160.83,434.213l60.157,-17.323" style="fill:none;stroke:#000;stroke-width:5.56px;"/>
            </g>
            <g>
                <path d="M945.236,920.039l-80.157,22.992l-851.496,-121.889l-8.032,-463.937l80.158,-23.15" style="fill:none;stroke:#000;stroke-width:11.1px;"/>
                <path d="M31.693,823.661l0.157,4.095l1540.94,220.63l172.599,-49.606" style="fill:none;stroke:#000;stroke-width:11.1px;"/>
                <path d="M32.165,393.11l799.213,114.488l6.929,399.528" style="fill:none;stroke:#000;stroke-width:11.1px;"/>
                <path d="M1772.8,947.126l336.378,-38.268l60,8.662l38.268,0.787l36.535,-8.504l60.158,-17.323l33.386,-17.48l29.134,-25.669l23.779,-33.229l17.48,-39.212l10.237,-43.622l2.992,-46.614l-4.567,-47.402l-11.969,-47.244l-18.897,-44.41l-24.882,-40l-30.236,-34.33l-34.174,-27.244l-37.008,-18.898l-38.425,-10.236l-195.748,-28.032l-2.834,-162.519l-1541.1,-220.788l-288.976,83.15l2.677,148.189l-172.598,49.606l1.102,65.512" style="fill:none;stroke:#000;stroke-width:11.1px;"/>
                <path d="M193.583,153.583l-40.158,11.496l-33.543,17.48l-29.134,25.984l-23.622,32.914l-16.378,36.85" style="fill:none;stroke:#000;stroke-width:11.1px;"/>
                <path d="M247.756,459.252l-13.858,6.142l-16.693,10.551l-11.181,9.291l-13.701,13.858l-17.48,27.087l-7.56,18.268l-4.409,20.157l-1.26,7.402l-1.102,18.898l1.89,19.212l4.567,19.055l7.086,18.11l9.606,16.536l11.811,14.646l5.512,6.299l15.118,13.543l16.536,10.079l11.181,5.512l18.898,6.929l33.7,4.882l19.528,-1.733l8.504,-1.259" style="fill:none;stroke:#000;stroke-width:11.1px;"/>
                <path d="M181.142,516.102l2.362,-6.141l14.016,-21.26l17.637,-16.378l20.788,-10.709l3.464,-0.787l19.213,-3.78l23.622,1.89l23.622,8.032l22.205,14.015l3.307,3.15l16.535,16.063l16.693,23.622l12.756,26.772l8.032,28.818l2.992,29.449l-2.047,28.662l-7.087,26.771l-11.811,23.307l-15.906,18.898l-19.37,13.543l-21.889,7.717l-23.307,1.26l-23.465,-4.882l-23.15,-11.181l-2.834,-2.047" style="fill:none;stroke:#000;stroke-width:11.1px;"/>
                <path d="M726.811,1000.67l-519.842,-74.488l-1.26,-73.543" style="fill:none;stroke:#000;stroke-width:11.1px;"/>
                <path d="M341.299,493.74l-9.921,-9.606" style="fill:none;stroke:#000;stroke-width:11.1px;"/>
                <path d="M869.016,1182.72l4.252,248.976l-20,5.827l-169.764,-24.252l-6.614,-380.158l45.827,-13.228l19.685,-90.394" style="fill:none;stroke:#000;stroke-width:11.1px;"/>
                <path d="M793.268,936.732l1.417,73.701l323.937,46.614l-4.094,18.898" style="fill:none;stroke:#000;stroke-width:11.1px;"/>
                <path d="M1398.94,1097.05l5.354,312.441l-35.433,10.236l-54.803,-7.874l-212.756,61.26l-169.764,-24.409l-4.409,-257.638l-78.425,-11.181" style="fill:none;stroke:#000;stroke-width:11.1px;"/>
                <path d="M872.165,1370.12l30.079,-8.504l27.874,3.937" style="fill:none;stroke:#000;stroke-width:11.1px;"/>
                <path d="M1509.49,1000.83l-80.315,22.992l-391.811,-56.063l-8.031,-463.937l80.315,-22.992" style="fill:none;stroke:#000;stroke-width:11.1px;"/>
                <path d="M1118.62,1057.05l15.591,-71.496" style="fill:none;stroke:#000;stroke-width:11.1px;"/>
                <path d="M2034.37,917.362l2.52,146.614l-288.977,82.993l-561.574,-80.473l-1.26,-73.543" style="fill:none;stroke:#000;stroke-width:11.1px;"/>
                <path d="M1354.84,846.654l-6.457,4.094l-20.63,5.512l-13.228,1.102l-14.961,-0.157l-28.504,-6.142l-13.228,-5.984l-11.811,-6.929l-12.284,-9.134l-9.764,-9.922l-8.819,-10.551l-7.244,-11.811l-4.409,-9.134l-4.882,-12.441l-2.992,-14.173l-0.945,-6.929l-0.945,-12.283l0.63,-12.914l2.047,-12.756l3.465,-12.283l7.874,-18.268l7.244,-12.126l15.591,-17.953l10.551,-8.346l11.811,-7.874l19.527,-8.976l18.74,-3.465" style="fill:none;stroke:#000;stroke-width:11.1px;"/>
                <path d="M1249.96,602.244l30.393,15.591l27.717,23.307l23.307,29.921l17.953,34.961l11.496,38.11l4.252,39.212l-2.992,37.481l-10.079,35.59l-16.851,30.079" style="fill:none;stroke:#000;stroke-width:11.1px;"/>
                <path d="M1326.65,856.102l1.102,0.158" style="fill:none;stroke:#000;stroke-width:11.1px;"/>
                <path d="M2221.93,760.039l-16.535,-5.039l-20.315,-13.071l-17.638,-18.898l-13.701,-23.307l-8.819,-25.984l-3.307,-27.086l2.362,-26.3l8.032,-23.622l12.913,-19.527l3.465,-2.835" style="fill:none;stroke:#000;stroke-width:11.1px;"/>
                <path d="M2141.77,573.268l21.417,-0.473l21.732,6.614l20.315,13.229l17.638,18.74l13.701,23.307l8.661,26.142l3.465,27.086l-2.52,26.142l-8.031,23.937l-12.756,19.213l-17.008,14.015l-20,7.402" style="fill:none;stroke:#000;stroke-width:11.1px;"/>
            </g>
        </g>
    </g>
</svg>
