<?xml version="1.0" encoding="UTF-8" standalone="no"?>
<!DOCTYPE svg PUBLIC "-//W3C//DTD SVG 1.1//EN" "http://www.w3.org/Graphics/SVG/1.1/DTD/svg11.dtd">
<svg width="100%" height="100%" viewBox="0 0 3037 1212" version="1.1" xmlns="http://www.w3.org/2000/svg" xmlns:xlink="http://www.w3.org/1999/xlink" xml:space="preserve" xmlns:serif="http://www.serif.com/" style="fill-rule:evenodd;clip-rule:evenodd;stroke-linecap:round;stroke-linejoin:round;">
    <g>
        <path d="M2058.31,76.732l27.874,10.709l36.378,20.945l33.858,25.984l39.37,38.74l28.662,36.536l25.669,39.212l34.016,65.04l23.307,62.677l15.433,54.803l13.228,64.882l7.874,91.181l0,47.716l-5.196,59.843l-7.874,46.929l-15.591,59.843l-20.787,54.645l-18.268,33.859l-23.465,36.535l-33.543,39.213l-31.496,25.826l-6.772,5.827l-40.157,20.158l-42.362,12.283l-765.04,102.52l-4.409,-19.685l50.551,-17.796l31.024,-18.582l26.141,-20.788l24.41,-24.881l30.551,-42.52l28.661,-57.323l13.701,-35.591l18.268,-70.236l7.874,-57.323l2.52,-73.7l-5.197,-75.591l-12.914,-72.913l-20.945,-72.914l-28.504,-67.716l-25.826,-47.087l-26.142,-39.055l-31.181,-36.378l-31.496,-31.024l-49.449,-33.858l-49.449,-20.787l-39.055,-7.874l-54.803,-0l-38.11,-6.772l5.984,-3.779l46.929,-10.237l762.992,-101.574l45.04,-0l47.716,10.078Z" style="fill:#dfe9ed;"/>
        <path d="M2544.45,11.85l38.897,13.229l65.355,-0.158l7.716,2.677l49.764,28.347l43.937,34.173l15.906,15.276l33.858,39.055l37.008,54.645l41.575,85.985l17.48,54.96l15.59,70.394l7.874,70.236l0,76.378l-5.196,49.449l-10.394,54.646l-18.425,59.842l-21.575,48.662l-30.394,50.236l-16.693,22.52l-19.685,21.889l-28.346,26.3l-31.339,20.787l-34.96,19.842l-48.662,16.378l-289.764,45.985l-46.141,-0l-31.496,-5.04l-6.615,-2.992l105.197,-15.275l44.882,-17.481l31.496,-20.63l17.008,-14.33l19.213,-17.166l31.181,-41.732l23.464,-38.898l23.465,-57.322l13.071,-44.252l10.393,-52.126l5.197,-49.449l0,-99.843l-7.874,-65.039l-10.551,-51.969l-15.433,-54.803l-23.464,-59.842l-25.67,-52.441l-36.535,-54.488l-25.984,-31.339l-36.693,-36.22l-41.733,-28.662l-36.378,-18.268l-39.055,-10.393l-20.945,-2.52l-37.165,-0l-89.606,11.496l8.819,-6.299l41.574,-18.425l41.733,-7.559l213.543,-23.465l52.913,0l28.662,5.039Z" style="fill:#005db8;"/>
        <path d="M3007.91,181.142l10.394,7.874l10.551,20.63l0,34.96l-5.197,13.071l-11.181,9.606l-134.015,17.796l-41.575,-85.985l151.968,-20.472l14.016,-0.157l5.039,2.677Z" style="fill:#c00;"/>
        <path d="M2304.92,53.583l39.055,10.393l36.378,18.268l41.733,28.662l36.693,36.22l25.984,31.339l36.535,54.488l25.67,52.441l23.464,59.842l15.433,54.803l10.551,51.969l7.874,65.039l0,99.843l-5.197,49.449l-10.393,52.126l-13.071,44.252l-23.465,57.322l-23.464,38.898l-31.181,41.732l-19.213,17.166l-17.008,14.33l-31.496,20.63l-44.882,17.481l-105.197,15.275l-98.74,12.126l6.772,-5.827l31.496,-25.826l33.543,-39.213l23.465,-36.535l18.268,-33.859l20.787,-54.645l15.591,-59.843l7.874,-46.929l5.196,-59.843l0,-47.716l-7.874,-91.181l-13.228,-64.882l-15.433,-54.803l-23.307,-62.677l-34.016,-65.04l-25.669,-39.212l-28.662,-36.536l-39.37,-38.74l-33.858,-25.984l-36.378,-20.945l-27.874,-10.709l98.898,-14.173l89.606,-11.496l37.165,-0l20.945,2.52Z" style="fill:#c0c0c0;"/>
        <path d="M1187.76,189.016l54.803,-0l39.055,7.874l49.449,20.787l49.449,33.858l31.496,31.024l31.181,36.378l26.142,39.055l25.826,47.087l28.504,67.716l20.945,72.914l12.914,72.913l5.197,75.591l-2.52,73.7l-7.874,57.323l-18.268,70.236l-13.701,35.591l-28.661,57.323l-30.551,42.52l-24.41,24.881l-26.141,20.788l-31.024,18.582l-50.551,17.796l-11.969,0.315l-25.827,13.228l-39.055,10.394l-447.086,60.63l-68.504,6.929l-33.071,-0l-41.732,-7.559l-43.937,-18.74l-41.733,-25.827l-41.574,-36.536l-13.071,-15.59l-20.788,-23.465l-34.015,-51.968l-26.142,-46.772l-26.142,-65.039l-18.268,-59.843l-10.393,-46.929l-7.717,-57.323l-2.52,-33.858l-1.889,-47.402l112.913,-15.118l17.323,-0.472l12.126,18.74l23.779,25.827l15.591,10.236l23.15,8.189l25.196,-0l114.804,-15.433l25.669,-13.386l18.11,-20.945l11.496,-19.685l10.551,-31.181l5.197,-36.535l0,-24.252l-5.197,-39.213l-13.071,-38.898l-18.267,-33.858l-23.15,-26.457l-18.425,-12.598l-18.11,-8.031l-42.677,0.157l-78.111,10.551l-33.858,7.717l-18.268,13.071l-14.488,16.535l-15.275,26.929l-8.032,-15.275l-5.354,-4.882l-7.874,6.299l-5.512,15.433l-0,17.48l3.622,14.016l-4.252,1.732l-71.181,8.819l25.039,-75.905l33.071,-63.307l24.567,-32.599l15.591,-18.425l19.685,-19.213l36.535,-26.141l41.575,-18.111l46.929,-10.551l468.661,-62.362l41.575,-2.52l4.41,-1.732l38.11,6.772Z" style="fill:#c0c0c0;"/>
        <path d="M581.142,491.063l13.228,10.236l12.756,18.425l10.394,28.662l2.677,29.449l-5.197,28.661l-5.984,12.126l-11.969,14.173l-14.016,6.772l-75.748,10.236l-3.464,2.205l-17.323,0.472l-112.913,15.118l-301.103,39.528l-17.48,0.157l-15.591,-7.874l-10.078,-8.031l-15.906,-25.669l-5.197,-18.268l-0.157,-46.299l9.449,-24.567l10.708,-12.599l5.04,-2.834l358.74,-48.032l71.181,-8.819l4.252,-1.732l7.874,0.158l46.142,9.291l5.039,-0l-15.748,-13.071l-12.126,-4.252l69.764,-8.661l12.756,5.039Z" style="fill:#a59e96;"/>
        <path d="M482.559,454.213l8.032,15.275l-7.717,27.874l-7.559,5.355l-7.874,-0.158l-3.622,-14.016l-0,-17.48l5.512,-15.433l7.874,-6.299l5.354,4.882Z" style="fill:#bebcba;"/>
        <path d="M940.512,537.992l7.874,20.63l-0,32.284l-3.622,9.763l-6.614,-0.315l-7.874,-5.354l-8.189,-15.276l-3.465,-20.787l5.354,-18.425l5.197,-8.032l6.142,-2.047l5.197,7.559Z" style="fill:#bebcba;"/>
        <path d="M709.016,1089.33l7.401,16.378l5.355,23.464l-2.52,21.575l-2.835,7.874l-5.039,-0.63l-10.236,-8.346l-8.189,-17.953l-0,-28.032l7.401,-13.543l6.142,-2.835l2.52,2.048Z" style="fill:#bebcba;"/>
        <path d="M510.748,498.937l15.748,13.071l-5.039,-0l-46.142,-9.291l7.559,-5.355l15.748,-2.677l12.126,4.252Z" style="fill:#bfbfbf;"/>
        <path d="M711.378,402.559l18.425,12.598l23.15,26.457l18.267,33.858l13.071,38.898l5.197,39.213l0,24.252l-5.197,36.535l-10.551,31.181l-11.496,19.685l-18.11,20.945l-25.669,13.386l-114.804,15.433l-25.196,0l-23.15,-8.189l-15.591,-10.236l-23.779,-25.827l-12.126,-18.74l3.464,-2.205l75.748,-10.236l14.016,-6.772l11.969,-14.173l5.984,-12.126l5.197,-28.661l-2.677,-29.449l-10.394,-28.662l-12.756,-18.425l-13.228,-10.236l-12.756,-5.039l-69.764,8.661l-15.748,2.677l7.717,-27.874l15.275,-26.929l14.488,-16.535l18.268,-13.071l33.858,-7.717l78.111,-10.551l42.677,-0.157l18.11,8.031Z" style="fill:#e5e5e5;"/>
        <g id="Actor_.0">
            <g>
                <path d="M944.921,563.661l0,-0.63l-0.787,-2.677l-0.158,-0.157l-0.157,-0.315l-1.89,-2.835l-18.74,-0.63l0.945,3.307l1.26,3.465l0.157,0.315l0,0.315l0.315,1.417l0.158,0.315l-0,0.945l-0.315,1.417l-0,0.63l-1.103,2.835l-0.787,2.677l1.417,3.465l1.89,3.464l2.205,2.835l2.204,2.047" style="fill:none;stroke:#000;stroke-width:5.56px;"/>
                <path d="M923.819,574.055l18.583,-4.094l1.102,2.834l1.417,2.52l1.103,1.417" style="fill:none;stroke:#000;stroke-width:5.56px;"/>
                <path d="M923.189,556.417l1.102,-3.307l1.733,-2.992l1.889,-2.52l2.205,-1.574" style="fill:none;stroke:#000;stroke-width:5.56px;"/>
                <path d="M934.843,579.724l0.314,0l0.315,0.158l1.103,0.63l0.157,0.157l0.315,0.158l2.992,3.149l3.15,2.993" style="fill:none;stroke:#000;stroke-width:5.56px;"/>
                <path d="M934.055,553.74l0.473,0l0.944,-0.63l0.315,0l0.158,-0.315l2.835,-2.834l2.992,-2.835" style="fill:none;stroke:#000;stroke-width:5.56px;"/>
                <path d="M943.346,568.543l-0.944,1.418" style="fill:none;stroke:#000;stroke-width:5.56px;"/>
                <path d="M941.929,557.047l0.945,-2.677l0.315,-0.63" style="fill:none;stroke:#000;stroke-width:5.56px;"/>
            </g>
            <g>
                <path d="M943.976,602.717l-0.787,-0.158l-0.787,-0.315l-2.993,-1.102l-2.834,-1.89l-0.63,-0.315l-2.835,-2.205l-2.519,-2.834l-2.52,-2.992l-2.205,-3.623l-2.047,-4.094l-1.575,-4.095l-1.102,-4.094l-0.158,0l-0.787,-4.409l-0.63,-4.41l-0,-0.472l-0.158,-4.095l0.158,-4.409l0.472,-4.252l0.788,-4.095l0.157,-0.315l1.26,-3.937l1.575,-3.622l1.89,-3.149l2.047,-2.835l0.472,-0.63l2.363,-2.362l2.677,-1.89l0.787,-0.472l0.315,-0.158" style="fill:none;stroke:#000;stroke-width:11.1px;"/>
                <path d="M931.535,585.866l0.788,-2.677l1.26,-2.677l-0,-0.158l0.157,-0.157l0.788,-0.473l0.315,0l14.645,-3.779" style="fill:none;stroke:#000;stroke-width:11.1px;"/>
                <path d="M930.118,546.024l1.102,3.149l1.26,3.307l0.158,0.315l0.157,0.158l0.788,0.63l0.315,0.157l12.756,0" style="fill:none;stroke:#000;stroke-width:11.1px;"/>
                <path d="M943.189,586.969l2.205,-1.733l1.889,-2.362l1.733,-3.15l0.787,-2.362" style="fill:none;stroke:#000;stroke-width:11.1px;"/>
                <path d="M948.386,559.882l-1.89,2.047l-2.677,2.992l-0.158,0.315l-0.157,0.158l-0.473,1.575l0,0.944l0.158,0.315l0.472,1.418l0.315,0.63l2.993,3.149l2.992,2.992" style="fill:none;stroke:#000;stroke-width:11.1px;"/>
                <path d="M941.772,547.126l2.204,2.047l2.205,2.835l0.158,0.157" style="fill:none;stroke:#000;stroke-width:11.1px;"/>
            </g>
        </g>
        <g id="Actor_.1">
            <g>
                <path d="M714.685,1143.98l-2.677,0.945l-2.677,0.158l-2.52,-0.473l-1.89,-4.094l-1.575,-4.095l0,-0.315l-0.157,-0.315l-0.787,-1.417l-0.788,-0.787l-0.945,-0.315l-0.157,-0.158l-0.158,0l-1.889,0.473l-1.733,0.315l18.425,-4.567l2.52,-0.473l0.473,0l0.63,0.315" style="fill:none;stroke:#000;stroke-width:5.56px;"/>
                <path d="M696.732,1133.9l-1.26,-3.622l-0.944,-3.937l-0.315,-4.252l-0,-3.78l19.055,-0.945l-0.158,2.992l0.315,3.15l0.788,2.992l0.944,2.835" style="fill:none;stroke:#000;stroke-width:5.56px;"/>
                <path d="M694.213,1118.31l1.574,-0.63l1.89,-0.472l1.26,-1.26l0,-0.158l0.157,-0.315l0,-0.315l0.315,-1.574l0,-0.315l0.158,-0.315l0.157,-4.41l0.473,-4.409l9.606,1.575" style="fill:none;stroke:#000;stroke-width:5.56px;"/>
                <path d="M700.197,1104.13l2.047,-1.575l2.677,-0.945l2.677,-0.157" style="fill:none;stroke:#000;stroke-width:5.56px;"/>
                <path d="M706.811,1144.61l9.134,-4.252" style="fill:none;stroke:#000;stroke-width:5.56px;"/>
                <path d="M715.472,1129.96l5.985,-1.418" style="fill:none;stroke:#000;stroke-width:5.56px;"/>
                <path d="M713.268,1117.36l2.362,-0.63l0.157,0l0.315,-0.157l1.575,-1.575l0.158,-0.315l-0,-0.157l0.157,-0.315l0,-0.315" style="fill:none;stroke:#000;stroke-width:5.56px;"/>
                <path d="M719.094,1112.95l-2.677,0.472l-3.622,0.473l-0.315,0.157" style="fill:none;stroke:#000;stroke-width:5.56px;"/>
            </g>
            <g>
                <path d="M715.787,1159.57l-1.574,-0.473l-0.788,-0.157l-2.992,-1.417l-2.835,-1.89l-0.629,-0.473l-2.678,-2.362l-2.677,-2.834l-2.205,-3.15l-2.362,-3.937l-1.732,-3.937l-1.575,-4.094l-1.102,-4.252l-0.788,-4.41l-0.472,-4.409l-0.158,-4.41l0.158,-4.409l0.63,-4.252l0.945,-3.937l1.417,-4.252l1.732,-3.622l1.89,-2.992l2.677,-3.307l2.52,-2.363l2.992,-1.889" style="fill:none;stroke:#000;stroke-width:11.1px;"/>
                <path d="M721.457,1128.39l-5.985,1.575l-0.315,-0l-0.157,0.157l-1.102,0.945l-0.158,0.157l0,0.158l-0.157,0.315l-0,2.52l1.574,4.094l1.733,4.095l-2.205,1.574" style="fill:none;stroke:#000;stroke-width:11.1px;"/>
                <path d="M719.409,1113.9l-6.929,0.157l-0.315,-0.157l-1.102,-0.315l-0.157,-0.158l-0.315,-0.157l-0.158,-0.158l0,-0.315l-0.63,-1.417l0,-5.039l0.315,-4.252l-2.52,-0.63" style="fill:none;stroke:#000;stroke-width:11.1px;"/>
            </g>
        </g>
        <g id="Actor_.2">
            <g>
                <path d="M2343.98,976.102l-0.315,0" style="fill:none;stroke:#000;stroke-width:5.56px;"/>
            </g>
            <g>
                <path d="M1215,188.543l-17.323,2.363" style="fill:none;stroke:#000;stroke-width:11.1px;"/>
                <path d="M1330.59,1111.85l-12.756,1.733" style="fill:none;stroke:#000;stroke-width:11.1px;"/>
                <path d="M2179.41,998.15l205.197,-27.559l39.213,-14.016l36.85,-22.362l33.859,-30.237l30.393,-37.322l26.299,-44.095l21.575,-49.764l16.536,-54.645l11.181,-58.426l5.669,-61.259l0,-62.835l-5.669,-63.15l-11.181,-62.519l-16.536,-60.473l-21.575,-57.638l-23.307,-47.401l-2.992,-5.984l-30.393,-48.189l-33.859,-42.363l-36.85,-35.433l-39.213,-28.031l-40.63,-20l-41.417,-11.654l-41.417,-3.149l-205.04,27.244" style="fill:none;stroke:#000;stroke-width:11.1px;"/>
            </g>
        </g>
        <g id="Actor_.3">
            <g>
                <path d="M2212.95,56.102l2.204,-0.787l36.536,-6.457" style="fill:none;stroke:#000;stroke-width:5.56px;"/>
                <path d="M2244.61,31.22l37.953,-0.314l38.268,6.614l38.11,13.7l37.165,20.315l35.748,26.772l34.016,32.756l0.63,0.945l30.866,37.48l28.819,43.465l25.354,47.716l21.89,51.496l17.953,54.331l13.543,56.535l9.292,57.796l4.724,58.267l0.157,57.953l-4.566,56.693l-8.977,54.646l-13.543,51.653l-17.638,48.189l-21.732,43.78l-25.355,39.055l-28.503,33.386l-31.497,27.401l-33.858,20.945l-35.748,14.331l-37.165,7.402" style="fill:none;stroke:#000;stroke-width:5.56px;"/>
                <path d="M2303.5,53.11l1.102,-0.472" style="fill:none;stroke:#000;stroke-width:5.56px;"/>
                <path d="M2371.85,974.528l-37.48,2.834" style="fill:none;stroke:#000;stroke-width:5.56px;"/>
                <path d="M2333.74,61.614l2.205,-0.787" style="fill:none;stroke:#000;stroke-width:5.56px;"/>
                <path d="M2424.13,956.26l0.787,0.157" style="fill:none;stroke:#000;stroke-width:5.56px;"/>
            </g>
            <g>
                <path d="M2587.28,27.126l-8.031,-3.622l-26.929,-9.291l-2.205,-0.63l-27.087,-5.827l-26.929,-2.205l-28.504,1.26l-222.992,24.409l-37.165,7.402l-35.748,14.331l-17.795,11.023" style="fill:none;stroke:#000;stroke-width:11.1px;"/>
                <path d="M2371.85,974.528l35.906,-9.764l34.488,-16.693l32.284,-23.307l29.606,-29.607l26.614,-35.275l23.15,-40.63l10.236,-22.047l9.134,-23.15l15.275,-49.291l10.866,-52.284l6.457,-54.96l1.732,-56.378l-2.204,-46.142l-0.473,-11.024l-7.401,-57.007l-11.969,-55.906l-14.331,-48.189l-1.732,-5.984l-20.315,-51.496l-23.937,-48.032l-27.244,-43.937l-30.236,-39.055l-32.756,-33.543l-34.803,-27.717l-36.378,-21.26l-37.165,-14.645l-37.481,-7.717l-37.48,-0.63" style="fill:none;stroke:#000;stroke-width:11.1px;"/>
                <path d="M2397.68,987.126l154.961,-22.835l-192.126,30.237l-37.953,0.315l-38.268,-6.615l-8.346,-2.992" style="fill:none;stroke:#000;stroke-width:11.1px;"/>
                <path d="M2429.65,982.402l12.283,-1.733" style="fill:none;stroke:#000;stroke-width:11.1px;"/>
                <path d="M2556.73,963.661l-4.094,0.63l75.275,-11.338l33.544,-6.929l25.197,-8.662l14.33,-5.354l24.252,-11.969l35.433,-23.149l21.733,-17.953l29.921,-30.709l18.583,-23.307l16.85,-25.984l6.142,-10.236l14.96,-27.559l13.071,-29.764l11.339,-31.496l9.291,-33.386l1.732,-7.716l7.087,-33.544l1.732,-11.968l3.465,-22.835l2.992,-35.59l1.102,-36.221l-1.102,-36.535l-2.992,-36.693l-5.197,-36.536l-7.087,-36.22l-8.976,-35.276l-2.205,-6.771l-8.661,-27.717l-12.756,-33.228l-14.331,-31.811l-20,-37.481l-17.953,-29.134l-19.527,-27.086l-20.788,-24.567l-21.732,-22.047l-8.819,-8.504l-23.307,-20l-24.252,-16.851l-11.811,-6.929l-25.354,-14.173l-2.835,-1.417l-5.669,-2.363l-9.921,-2.992l-11.969,-1.102" style="fill:none;stroke:#000;stroke-width:11.1px;"/>
                <path d="M2622.87,23.819l3.622,-0.473l-39.37,3.623" style="fill:none;stroke:#000;stroke-width:11.1px;"/>
                <path d="M2606.65,25.709l0.629,-0.158" style="fill:none;stroke:#000;stroke-width:11.1px;"/>
                <path d="M2641.93,23.976l-5.354,-0.787l-5.984,-0.158l-5.827,0.473" style="fill:none;stroke:#000;stroke-width:11.1px;"/>
            </g>
        </g>
        <g id="Actor_.4">
            <g>
                <path d="M2411.53,103.819l1.733,-0.315" style="fill:none;stroke:#000;stroke-width:5.56px;"/>
                <path d="M2420.51,110.118l0.157,-0.63" style="fill:none;stroke:#000;stroke-width:5.56px;"/>
            </g>
            <g>
                <path d="M2306.65,53.11l-1.89,0.315" style="fill:none;stroke:#000;stroke-width:11.1px;"/>
                <path d="M2314.37,54.685l0,1.417" style="fill:none;stroke:#000;stroke-width:11.1px;"/>
                <path d="M2355.95,70.276l2.992,-0.315" style="fill:none;stroke:#000;stroke-width:11.1px;"/>
                <path d="M2372.95,78.78l2.204,-0.315" style="fill:none;stroke:#000;stroke-width:11.1px;"/>
                <path d="M2425.24,955.63l2.047,-0.315" style="fill:none;stroke:#000;stroke-width:11.1px;"/>
                <path d="M2425.08,955.63l1.89,-0.315" style="fill:none;stroke:#000;stroke-width:11.1px;"/>
                <path d="M2504.76,206.496l1.26,-0.157" style="fill:none;stroke:#000;stroke-width:11.1px;"/>
            </g>
        </g>
        <g id="Actor_.5">
            <g>
                <path d="M476.102,500.984l-1.102,-3.149l-0.315,-0.63l-0.787,-1.418l-0.158,-0.157l-0.157,-0.315l-0.315,-0.315l-0.945,-0.472l-0.315,-0l-2.047,0.157l-1.575,0.158l16.22,-3.78" style="fill:none;stroke:#000;stroke-width:5.56px;"/>
                <path d="M468.386,494.843l-1.26,-3.465l-0.787,-4.095l-0.315,-4.252l0.157,-3.779l1.575,-0.315l1.89,-0.472l0.157,-0.158l0.158,0l0.945,-0.945l-0,-0.315l0.157,-0.157l-0,-0.315l0.315,-1.575l0.157,-0.315l0,-0.315l0.315,-4.409l0.473,-4.41l2.205,-1.417l2.677,-0.945l2.677,-0" style="fill:none;stroke:#000;stroke-width:5.56px;"/>
                <path d="M466.181,479.252l18.898,-0.787l-0.158,2.992l0.315,3.149l0.473,2.205" style="fill:none;stroke:#000;stroke-width:5.56px;"/>
                <path d="M472.323,465.551l9.764,1.575" style="fill:none;stroke:#000;stroke-width:5.56px;"/>
                <path d="M484.764,475.945l4.252,-0.473" style="fill:none;stroke:#000;stroke-width:5.56px;"/>
                <path d="M485.079,478.465l2.519,-0.315l0.315,-0.315l0.158,-0" style="fill:none;stroke:#000;stroke-width:5.56px;"/>
            </g>
            <g>
                <path d="M477.992,448.071l-2.992,1.89l-2.52,2.204l-2.677,3.307l-1.89,3.15l-1.574,3.465l-1.418,3.779l-0.157,0.473l-0.945,4.094l-0.473,4.252l-0.315,4.252l0.158,4.567l0.472,4.409l0.788,4.41l1.102,4.252l1.575,4.094l1.417,3.15" style="fill:none;stroke:#000;stroke-width:11.1px;"/>
                <path d="M488.701,475.945l-4.41,-0l-1.102,-0.473l-0.315,-0.157l-0.315,-0.315l-0.157,-0.315l-0.473,-1.417l0,-5.04l0.473,-4.409l-2.52,-0.63" style="fill:none;stroke:#000;stroke-width:11.1px;"/>
            </g>
        </g>
        <g id="Actor_.6">
            <g>
                <path d="M7.913,603.661l4.882,-13.385l6.929,-10.709l8.819,-7.402l9.922,-3.622l9.291,0l-8.976,-2.047l-7.717,-3.15l-1.575,-1.102" style="fill:none;stroke:#000;stroke-width:5.56px;"/>
                <path d="M56.89,571.693l9.134,6.299l8.189,9.134l6.771,11.339l5.04,13.228l3.149,14.173l1.103,14.646l-1.26,15.59l-3.937,14.174l-6.142,11.811l-8.031,8.819l-9.607,5.354l-10.393,1.26l-10.552,-2.677l-10.078,-6.615l-8.977,-9.921" style="fill:none;stroke:#000;stroke-width:5.56px;"/>
                <path d="M47.756,568.543l17.48,2.363l20.63,1.417l442.992,-58.898" style="fill:none;stroke:#000;stroke-width:5.56px;"/>
                <path d="M85.866,572.323l3.465,4.252l8.031,13.701l6.142,15.748l3.937,17.165l1.26,17.48l-1.575,18.74l-4.724,17.008l-7.402,14.331l-9.764,10.551l-11.338,6.299" style="fill:none;stroke:#000;stroke-width:5.56px;"/>
                <path d="M429.803,712.638l-5.512,0.157l-5.354,-2.047l-5.197,-4.252l-4.409,-5.827l-3.307,-7.244l-2.205,-8.189l-0.63,-8.346l0.63,-8.189l1.417,-4.882" style="fill:none;stroke:#000;stroke-width:5.56px;"/>
                <path d="M430.591,508.858l-3.78,-13.701l-1.102,-13.543l1.102,-13.071l3.465,-11.811l5.354,-9.606l7.087,-6.929l8.189,-3.622" style="fill:none;stroke:#000;stroke-width:5.56px;"/>
                <path d="M473.898,443.976l-4.252,7.559l-2.677,8.977" style="fill:none;stroke:#000;stroke-width:5.56px;"/>
                <path d="M477.205,654.213l-1.89,40l3.307,52.913l8.976,52.441l14.331,50.551l19.213,47.087l23.779,42.677l27.559,37.008l30.709,30.393l32.913,22.835l34.331,14.646l34.803,6.142l34.331,-2.363l32.913,-11.023l21.575,-13.701l9.134,-5.669l27.559,-27.244l23.622,-34.174l19.37,-40.315l14.331,-45.354" style="fill:none;stroke:#000;stroke-width:5.56px;"/>
                <path d="M503.819,650.748l10.079,16.063l18.74,19.843l20.787,13.07l21.732,5.827l20.473,-1.89l0.787,0l20,-9.448l17.481,-16.536l13.858,-22.677l9.764,-27.559l5.039,-31.024l0.63,-16.22l-0.63,-16.536l-5.354,-33.858l-9.449,-30.079l-13.858,-27.716l-17.481,-22.677l-20,-16.536l-0.787,-0.315l-20.473,-9.134l-21.732,-2.047l-20.787,5.67l-18.74,13.07l-15.906,19.685l-11.811,25.355" style="fill:none;stroke:#000;stroke-width:5.56px;"/>
                <path d="M888.701,867.126l-11.654,36.85l-18.11,38.111l-22.52,32.283l-25.984,25.669l-28.976,18.268l-31.024,10.394l-32.441,2.362l-32.756,-5.827l-32.441,-14.016l-31.023,-21.417l-28.977,-28.661l-25.984,-34.961l-22.52,-40.315l-18.11,-44.567l-13.543,-47.559l-8.504,-49.606l-3.15,-49.921l2.047,-43.307" style="fill:none;stroke:#000;stroke-width:5.56px;"/>
                <path d="M550.591,1017.21l-5.197,2.204l-4.252,4.41l-3.465,5.984l-2.047,7.402l-0.787,8.189l0.787,8.346l2.047,8.189l3.465,7.244l4.252,5.984l5.197,4.095l5.511,2.047l5.512,-0.157" style="fill:none;stroke:#000;stroke-width:5.56px;"/>
                <path d="M561.614,391.063l-5.512,0.157l-5.511,-2.047l-5.197,-4.094l-4.252,-5.985l-3.465,-7.244l-2.047,-8.031l-0.787,-8.504l0.787,-8.189l2.047,-7.402l3.465,-5.984l4.252,-4.409l5.197,-2.205" style="fill:none;stroke:#000;stroke-width:5.56px;"/>
                <path d="M561.772,407.126l23.622,2.047l22.519,10.079l0.788,0.315l21.732,18.11l19.055,24.725l15.276,30.236l10.551,33.858l5.512,35.748l0.63,18.11l-0.63,17.796l-5.512,33.858l-10.551,30.079l-15.276,24.724l-19.055,17.953l-21.732,10.393" style="fill:none;stroke:#000;stroke-width:5.56px;"/>
                <path d="M617.047,714.055l1.418,1.89l25.826,25.827l28.032,18.11l29.291,9.606l29.292,0.788l28.031,-8.032l25.827,-16.535l22.519,-24.567l18.426,-31.339l13.385,-37.165l8.032,-41.418l2.362,-43.779l-0.945,-19.685" style="fill:none;stroke:#000;stroke-width:5.56px;"/>
                <path d="M813.268,490.748l7.244,35.591l3.307,41.102l-2.205,40.472l-7.244,37.953l-12.441,34.173l-16.85,28.819l-20.788,22.52l-23.779,15.276l-25.827,7.401l-26.929,-0.63l-26.772,-8.976l-25.827,-16.536l-14.33,-14.33" style="fill:none;stroke:#000;stroke-width:5.56px;"/>
                <path d="M623.819,250.748l42.52,-1.26l15.433,2.677l27.559,4.882l42.519,16.536l41.26,24.882l0.945,0.787l38.425,31.968l36.693,40.315l33.229,46.93l13.228,23.779l16.063,28.819l24.882,57.48l19.685,61.103l14.331,63.779l8.818,65.04l2.835,65.354l-2.835,64.252l-8.818,61.89l-14.331,58.582l-19.685,54.174l-24.882,48.503l-16.063,23.308l-13.228,18.897l-33.229,35.118l-36.693,27.087l-38.425,18.425l-0.945,0.473l-41.26,10.078" style="fill:none;stroke:#000;stroke-width:5.56px;"/>
                <path d="M696.575,1177.2l-8.819,0.315l-8.662,-3.465l-8.346,-6.457l-6.929,-9.448l-5.512,-11.654l-3.307,-13.071l-1.102,-13.386l1.102,-13.07l3.307,-11.812l5.512,-9.763l6.929,-6.929l8.346,-3.622" style="fill:none;stroke:#000;stroke-width:5.56px;"/>
                <path d="M713.11,1164.61l-2.834,-2.362l-7.087,-9.449l-1.102,-2.362" style="fill:none;stroke:#000;stroke-width:5.56px;"/>
                <path d="M701.929,1082.24l-4.094,7.559l-2.678,9.134" style="fill:none;stroke:#000;stroke-width:5.56px;"/>
                <path d="M814.055,1064.13l-5.197,2.362l-4.252,4.252l-3.464,6.142l-2.048,7.244l-0.787,8.189l0.787,8.504l2.048,8.189l3.464,7.244l4.252,5.827l5.197,4.094l5.512,2.205l5.512,-0.158" style="fill:none;stroke:#000;stroke-width:5.56px;"/>
                <path d="M825.079,438.15l-5.512,0.157l-5.512,-2.047l-5.197,-4.252l-4.252,-5.827l-3.464,-7.244l-2.048,-8.189l-0.787,-8.346l0.787,-8.189l2.048,-7.402l3.464,-5.984l4.252,-4.41l5.197,-2.204" style="fill:none;stroke:#000;stroke-width:5.56px;"/>
                <path d="M816.732,495.63l18.268,26.614" style="fill:none;stroke:#000;stroke-width:5.56px;"/>
                <path d="M831.693,517.362l6.772,11.496" style="fill:none;stroke:#000;stroke-width:5.56px;"/>
                <path d="M924.764,620.354l-8.819,0.315l-0.788,-0.315l-8.031,-3.149l-8.189,-6.457l-6.929,-9.449l-5.512,-11.653l-3.307,-13.071l-1.26,-13.386l1.26,-13.228l3.307,-11.654l5.512,-9.764l6.929,-6.929l8.189,-3.622" style="fill:none;stroke:#000;stroke-width:5.56px;"/>
                <path d="M923.346,541.929l2.52,-8.976l4.252,-7.559" style="fill:none;stroke:#000;stroke-width:5.56px;"/>
                <path d="M956.732,806.654l-5.512,0.157l-5.511,-2.047l-5.04,-4.095l-4.409,-5.984l-3.307,-7.244l-2.205,-8.032l-0.787,-8.503l0.787,-8.189l2.205,-7.402l3.307,-5.984l4.409,-4.41l5.04,-2.204" style="fill:none;stroke:#000;stroke-width:5.56px;"/>
                <path d="M930.118,593.583l1.26,2.362l6.929,9.449l2.835,2.362" style="fill:none;stroke:#000;stroke-width:5.56px;"/>
            </g>
            <g>
                <path d="M12.795,662.559l1.103,2.992l11.968,20.473l10.709,11.968l12.126,7.874l12.756,3.307l521.417,-68.819l12.283,-5.511l10.552,-10.394l8.189,-14.488l5.039,-17.796l0.315,-3.464l1.417,-16.221l-1.732,-20.157l-5.039,-19.528l-8.189,-17.48l-10.552,-14.016l-11.811,-9.606l-0.472,-0.315l-13.228,-5.039l-13.229,0.315l-68.819,9.133l-12.283,5.512l-2.677,2.047l-443.15,58.898l-5.512,5.354l-8.346,12.914l-5.827,15.905l-1.89,7.244l-2.362,15.119l0.315,16.063l2.835,15.905l4.094,11.811" style="fill:none;stroke:#000;stroke-width:11.1px;"/>
                <path d="M392.795,513.898l6.614,-27.244l19.685,-54.016l24.725,-48.662l29.291,-42.204l33.386,-34.961l36.693,-27.244l39.37,-18.74l41.26,-10.079l492.283,-65.512l42.52,-1.26l42.992,7.559l42.52,16.536l41.26,24.882l39.37,32.913l36.693,40.158l33.228,46.929l29.449,52.756l24.724,57.322l19.685,61.26l14.331,63.622l8.819,65.197l2.835,65.197l-2.835,64.252l-8.819,61.89l-14.331,58.582l-19.842,54.489l-24.567,48.346l-29.449,42.205l-33.228,34.96l-36.693,27.087l-39.37,18.898l-41.26,10.078l-492.284,65.512l-42.519,1.26l-42.992,-7.716l-42.52,-16.378l-41.26,-24.882l-39.37,-32.914l-36.693,-40.157l-33.386,-46.929l-29.291,-52.756l-24.725,-57.323l-19.685,-61.26l-14.33,-63.622l-8.819,-65.197l-2.835,-65.197l0.158,-3.622" style="fill:none;stroke:#000;stroke-width:11.1px;"/>
                <path d="M438.465,659.409l0.944,1.103l3.308,7.401l2.204,8.032l0.63,8.504l-0.63,8.189l-2.204,7.401l-3.308,5.985l-4.409,4.252l-5.197,2.362" style="fill:none;stroke:#000;stroke-width:11.1px;"/>
                <path d="M490.433,472.323l-1.26,-5.04l-5.512,-11.653l-7.086,-9.449l-8.189,-6.614l-7.874,-2.992l-0.788,-0.315l-8.818,0.315" style="fill:none;stroke:#000;stroke-width:11.1px;"/>
                <path d="M472.638,503.346l56.22,10.079l-2.677,-2.992l-12.283,-9.921l-13.071,-5.04l-13.229,0.315" style="fill:none;stroke:#000;stroke-width:11.1px;"/>
                <path d="M503.504,650.748l15.118,24.252l20.472,21.575l22.678,14.331l23.622,6.299l23.307,-2.048l108.346,-14.488l21.733,-10.236l19.055,-17.953l15.118,-24.724l10.708,-30.236l5.512,-33.701l0.63,-17.795l-0.63,-18.111l-5.512,-35.748l-10.708,-34.015l-15.118,-30.079l-19.055,-24.725l-21.733,-18.11l-23.307,-10.393l-23.622,-2.205l-108.346,14.488l-22.678,6.142l-20.472,14.33l-17.165,21.418l-13.071,27.716l-5.512,21.103" style="fill:none;stroke:#000;stroke-width:11.1px;"/>
                <path d="M550.591,1017.21l5.511,-0.158l5.512,2.047l5.04,4.095l4.409,5.984l3.465,7.244l2.047,8.032l0.787,8.504l-0.787,8.189l-2.047,7.401l-3.465,6.142l-4.409,4.252l-5.04,2.205" style="fill:none;stroke:#000;stroke-width:11.1px;"/>
                <path d="M561.614,391.063l5.04,-2.205l4.409,-4.252l3.465,-6.141l2.047,-7.402l0.787,-8.189l-0.787,-8.346l-2.047,-8.189l-3.465,-7.245l-4.409,-5.984l-5.04,-4.094l-5.512,-2.047l-5.511,0.157" style="fill:none;stroke:#000;stroke-width:11.1px;"/>
                <path d="M679.094,1074.84l8.662,-0.158l8.819,3.307l8.189,6.614l7.086,9.449l5.355,11.496l3.464,13.071l1.103,13.543l-1.103,13.071l-3.464,11.811l-5.355,9.607l-7.086,6.929l-8.189,3.622" style="fill:none;stroke:#000;stroke-width:11.1px;"/>
                <path d="M825.079,1128.23l5.039,-2.362l4.41,-4.252l3.464,-6.142l2.047,-7.244l0.788,-8.189l-0.788,-8.504l-2.047,-8.189l-3.464,-7.244l-4.41,-5.826l-5.039,-4.095l-5.512,-2.047l-5.512,-0" style="fill:none;stroke:#000;stroke-width:11.1px;"/>
                <path d="M817.52,496.732l3.937,5.985l-8.189,-11.969" style="fill:none;stroke:#000;stroke-width:11.1px;"/>
                <path d="M814.055,374.213l5.512,-0.158l5.512,2.047l5.039,4.095l4.41,5.984l3.464,7.244l2.047,8.032l0.788,8.504l-0.788,8.189l-2.047,7.401l-3.464,5.984l-4.41,4.41l-5.039,2.205" style="fill:none;stroke:#000;stroke-width:11.1px;"/>
                <path d="M821.457,502.717l10.236,14.645" style="fill:none;stroke:#000;stroke-width:11.1px;"/>
                <path d="M888.071,871.063l8.819,-49.291l3.464,-51.654l-2.519,-52.913l-7.874,-52.599l-13.386,-51.023l-18.583,-47.874l-22.992,-43.465" style="fill:none;stroke:#000;stroke-width:11.1px;"/>
                <path d="M924.764,620.354l8.189,-3.622l7.086,-6.929l5.355,-9.606l3.464,-11.811l1.103,-13.071l-1.103,-13.543l-3.464,-13.071l-5.355,-11.496l-7.086,-9.449l-8.189,-6.614l-8.819,-3.307l-8.819,0.157" style="fill:none;stroke:#000;stroke-width:11.1px;"/>
                <path d="M945.709,742.717l5.511,-0.158l5.512,2.047l5.197,4.095l4.41,5.984l3.307,7.244l2.204,8.032l0.63,8.504l-0.63,8.189l-2.204,7.401l-3.307,5.984l-4.41,4.41l-5.197,2.205" style="fill:none;stroke:#000;stroke-width:11.1px;"/>
            </g>
        </g>
        <g id="Actor_.7">
            <g>
                <path d="M2877.84,285.709l129.134,-17.323l4.094,-0.788l4.094,-1.889l3.623,-2.835l3.307,-3.465l2.992,-4.409l2.362,-5.039l1.732,-5.512l0.158,-0.158l1.26,-5.984l0.629,-6.457l0,-6.614l-0.629,-6.614l-1.26,-6.457l-1.89,-6.299l-2.362,-5.827l-2.992,-5.511l-3.307,-4.725l-3.623,-4.094l-4.094,-3.307l-4.094,-2.363l-4.41,-1.574l-4.252,-0.473l-4.252,0.473l-157.323,20.787" style="fill:none;stroke:#000;stroke-width:11.1px;"/>
            </g>
        </g>
        <g id="Actor_.8">
            <g>
                <path d="M1195.94,169.331l40.787,-1.103l41.26,7.087l40.788,14.961l39.842,22.834l38.11,30.079l35.906,37.008l32.913,43.149l29.449,48.819l25.512,53.386l21.102,57.166l15.591,56.85l0.787,3.15l11.496,61.889l6.142,62.677l0.787,62.363l-4.409,61.102l-9.764,58.74l-14.803,55.276l-19.685,51.338l-24.095,45.985l-28.346,40.157l-31.811,33.701l-34.961,26.614l-37.637,18.898l-39.371,11.181" style="fill:none;stroke:#000;stroke-width:5.56px;"/>
            </g>
            <g>
                <path d="M1143.03,184.449l13.229,-5.984l39.685,-9.134l768.031,-102.205l40.788,-0.945l41.102,6.929l40.945,15.118l39.843,22.678l38.11,30.236l35.905,36.85l32.914,43.307l29.448,48.662l25.512,53.385l21.103,57.166l16.378,60l11.338,61.89l6.142,61.732l0.945,63.307l-4.41,61.102l-9.763,58.74l-6.93,25.827l-7.874,29.607l-19.685,51.181l-24.252,45.984l-28.189,40.315l-31.968,33.543l-34.961,26.614l-37.48,18.898l-39.37,11.181l-768.032,102.205l-0.787,-21.103l5.197,-1.417" style="fill:none;stroke:#000;stroke-width:11.1px;"/>
            </g>
        </g>
    </g>
</svg>
