<?xml version="1.0" encoding="UTF-8" standalone="no"?>
<!DOCTYPE svg PUBLIC "-//W3C//DTD SVG 1.1//EN" "http://www.w3.org/Graphics/SVG/1.1/DTD/svg11.dtd">
<svg width="100%" height="100%" viewBox="0 0 2330 2393" version="1.1" xmlns="http://www.w3.org/2000/svg" xmlns:xlink="http://www.w3.org/1999/xlink" xml:space="preserve" xmlns:serif="http://www.serif.com/" style="fill-rule:evenodd;clip-rule:evenodd;stroke-linecap:round;stroke-linejoin:round;">
    <g>
        <path d="M1681.61,60.197l54.646,18.268l65.039,31.181l49.449,33.858l34.173,33.543l31.181,46.929l54.331,31.654l12.441,-0l23.307,-10.709l8.662,0l39.37,23.307l1.417,37.481l94.646,53.858l-0,105.039l-8.504,4.41l-41.89,2.362l-0,11.496l8.661,1.732l25.197,0l34.016,-5.039l25.669,-10.866l16.851,-11.811l10.393,-15.591l1.575,-24.409l14.173,-7.874l74.961,44.567l10.866,15.275l0,115.748l-8.976,14.488l-213.386,119.843l11.496,737.008l-3.465,161.417l-28.976,62.205l-125.197,72.756l-16.535,35.433l-967.244,558.74l-9.764,0l-15.591,-8.189l-5.984,0l-72.913,41.89l-15.591,5.197l-14.961,-0l-15.433,-5.197l-72.598,-41.575l-14.016,7.874l-17.795,0l-325.039,-187.716l-8.032,-12.914l-9.921,-23.937l-120.158,-69.921l-28.819,-54.488l-2.677,-7.717l-2.519,-165.984l5.511,-467.244l-44.567,-25.669l0,-105.985l9.449,-6.141l28.819,0.157l8.662,-1.732l-0,-14.016l-42.52,0.157l-23.465,5.197l-18.267,7.717l-20.788,13.071l-12.283,16.22l-2.205,26.457l-8.189,5.039l-7.716,2.047l-72.599,-42.204l-10.866,-15.276l-0,-119.212l17.48,-18.898l184.725,-107.087l19.527,-16.85l2.362,-166.929l2.363,-44.41l9.763,-11.023l183.465,-105.67l4.882,-73.228l392.126,-227.401l11.653,-0l2.835,2.677l6.614,0.315l228.977,-133.229l27.244,-35.275l17.952,-15.906l46.142,-34.645l55.433,-27.717l46.772,-18.425l56.535,-16.378l39.055,-7.717l11.969,-0.63l-16.535,22.048l-2.363,13.228l-0.315,126.614l-2.519,8.662l-0,33.228l8.189,15.275l26.141,23.465l17.953,8.032l31.181,10.551l33.859,5.039l33.07,0l36.693,-5.039l31.024,-10.551l32.441,-19.685l15.275,-21.103l5.197,-13.071l-3.464,-39.842l0.945,-122.677l-5.355,-5.04l-2.362,-13.071l-11.338,-9.606l-1.26,-5.984l9.763,0.157l70.394,15.591Z" style="fill:#1a1a1a;"/>
        <path d="M1533.11,10.748l28.662,10.394l39.685,23.307l1.26,5.984l11.338,9.606l2.362,13.071l5.355,5.04l-0.945,122.677l3.464,39.842l-5.197,13.071l-15.275,21.103l-32.441,19.685l-31.024,10.551l-36.693,5.039l-33.07,0l-33.859,-5.039l-31.181,-10.551l-17.953,-8.032l-26.141,-23.465l-8.189,-15.275l-0,-33.228l2.519,-8.662l0.315,-126.614l2.363,-13.228l16.535,-22.048l42.677,-25.511l23.465,-7.874l55.59,-5.04l36.378,5.197Z" style="fill:#c6c1bc;"/>
        <g id="Actor_.0">
            <g>
                <path d="M6.024,1106.65l-0,9.763l4.094,9.449l7.874,8.504l7.402,5.039l-0,102.205" style="fill:none;stroke:#000;stroke-width:5.56px;"/>
                <path d="M25.394,1139.41l67.559,39.056l-0,102.047" style="fill:none;stroke:#000;stroke-width:5.56px;"/>
                <path d="M92.953,1178.46l13.386,-7.717" style="fill:none;stroke:#000;stroke-width:5.56px;"/>
                <path d="M309.646,1159.72l-3.78,-14.96l-10.236,-13.858l-16.063,-11.969l-20.63,-9.134l-23.937,-5.984l-25.827,-2.205l-25.984,1.732l-22.047,4.882l-2.362,0.473l-21.26,8.661l-16.693,11.654l-11.024,13.701l-4.724,14.803" style="fill:none;stroke:#000;stroke-width:5.56px;"/>
                <path d="M176.89,1226.81l97.953,56.535" style="fill:none;stroke:#000;stroke-width:5.56px;"/>
                <path d="M205.551,979.724l2.205,10.552l6.457,10.078l10.078,8.347l208.504,120.63" style="fill:none;stroke:#000;stroke-width:5.56px;"/>
                <path d="M821.457,2381.3l-18.583,-44.882l-565.827,-326.771l-5.827,-3.937l-5.039,-4.882l-3.464,-5.04" style="fill:none;stroke:#000;stroke-width:5.56px;"/>
                <path d="M220.827,1990.59l-2.362,-159.843l-0.473,-4.094" style="fill:none;stroke:#000;stroke-width:5.56px;"/>
                <path d="M218.465,1830.75l2.677,6.614l3.779,5.04l5.04,4.567l4.567,2.834l2.519,159.843l18.583,45.039" style="fill:none;stroke:#000;stroke-width:5.56px;"/>
                <path d="M217.992,1822.56l0.315,-0.945" style="fill:none;stroke:#000;stroke-width:5.56px;"/>
                <path d="M227.598,1010.75l6.3,-5.197l3.464,-4.409l2.835,-4.882l2.047,-5.04l1.417,-8.189l3.15,-204.566l-5.984,-4.095l-4.567,-4.724l-3.15,-5.04l-1.575,-5.197" style="fill:none;stroke:#000;stroke-width:5.56px;"/>
                <path d="M460.984,1108.54l-217.323,-125.512l-7.874,-5.826l-5.196,-6.929l-1.575,-3.937" style="fill:none;stroke:#000;stroke-width:5.56px;"/>
                <path d="M226.654,968.858l0.629,-5.354l1.26,-2.677" style="fill:none;stroke:#000;stroke-width:5.56px;"/>
                <path d="M241.929,1366.5l-7.401,481.732" style="fill:none;stroke:#000;stroke-width:5.56px;"/>
                <path d="M234.528,1849.8l568.346,328.189l0,158.425l11.339,5.04l8.504,2.362l8.976,1.417l9.291,0.788l9.292,-0.315l-3.307,40.787" style="fill:none;stroke:#000;stroke-width:5.56px;"/>
                <path d="M244.291,1205.71l-0.157,9.763" style="fill:none;stroke:#000;stroke-width:5.56px;"/>
                <path d="M274.843,1246.18l41.732,24.252l-0,37.165l212.598,-122.677l6.299,-5.354l3.465,-4.252l2.835,-4.882l2.047,-5.197l1.417,-8.031l259.685,149.921l0,-206.299l-558.11,-322.362" style="fill:none;stroke:#000;stroke-width:5.56px;"/>
                <path d="M1389.33,651.22l-1.575,-0.157l-2.52,0.787l0.473,0.945l-0.473,0.945l2.677,2.205l2.048,2.992l1.102,2.52l0.63,3.307l-385.984,222.992l-2.363,1.26l0.158,-1.733l-1.26,-3.779l-4.094,-5.039l-0.945,-0.63l-3.307,-0l-0.945,0.787l-4.095,5.039l-1.26,5.197l4.725,1.575l2.834,0.315l4.567,-0.472l3.622,-1.26l0.315,86.929l638.898,-368.819l47.402,-11.969l-831.969,480.473l0,18.583l-4.724,2.047l-5.512,1.26l-5.984,0.472l-5.827,-0.472l-5.512,-1.26l-4.724,-2.047l-567.559,-327.717l-3.622,-2.677l-2.205,-3.15l-0.788,-3.464" style="fill:none;stroke:#000;stroke-width:5.56px;"/>
                <path d="M857.992,1075.63l-4.724,2.047l-5.512,1.26l-5.984,0.472l-5.827,-0.472l-5.512,-1.26l-4.724,-2.047l-567.559,-327.717l-3.622,-2.677l-2.205,-3.149l-0.788,-3.465" style="fill:none;stroke:#000;stroke-width:5.56px;"/>
                <path d="M258.15,766.496l-0,-18.583" style="fill:none;stroke:#000;stroke-width:5.56px;"/>
                <path d="M316.575,1307.6l98.268,56.536l13.228,-7.559" style="fill:none;stroke:#000;stroke-width:5.56px;"/>
                <path d="M316.575,1270.43l228.504,-169.134l-41.89,-24.094" style="fill:none;stroke:#000;stroke-width:5.56px;"/>
                <path d="M308.701,769.646l78.897,-45.512l0,-1.89l-80.472,46.457" style="fill:none;stroke:#000;stroke-width:5.56px;"/>
                <path d="M386.339,2154.05l3.307,3.465l-13.701,-33.229" style="fill:none;stroke:#000;stroke-width:5.56px;"/>
                <path d="M392.323,2160.35l-1.575,-1.102l-1.102,-1.732l325.039,187.559l4.567,1.417l3.465,0.158l6.141,-1.89l4.41,-3.307l-5.827,-14.331" style="fill:none;stroke:#000;stroke-width:5.56px;"/>
                <path d="M387.598,722.244l482.678,278.74" style="fill:none;stroke:#000;stroke-width:5.56px;"/>
                <path d="M387.598,724.134l481.103,277.638" style="fill:none;stroke:#000;stroke-width:5.56px;"/>
                <path d="M414.843,1466.34l-0,-102.205" style="fill:none;stroke:#000;stroke-width:5.56px;"/>
                <path d="M426.811,1343.19l4.724,-14.488l11.182,-13.858l16.692,-11.654l21.26,-8.661l24.41,-5.512l25.827,-1.575l25.826,2.205l24.095,5.826l20.63,9.292l15.905,11.968l10.236,13.859l3.78,14.803" style="fill:none;stroke:#000;stroke-width:5.56px;"/>
                <path d="M835,331.22l-7.087,0.788l-388.031,224.094l-0.473,0.63l0.315,1.26l-3.937,3.78l-2.362,5.984l-2.677,86.772l-2.205,-1.89l-0.787,-2.362l-0,0.944" style="fill:none;stroke:#000;stroke-width:5.56px;"/>
                <path d="M430.748,654.528l121.102,69.921l1.575,-71.024l7.244,-0.787l4.725,0.787l3.779,1.575l0,1.89l-2.362,0.157l-4.094,1.733l-2.52,3.307l-0.158,1.732" style="fill:none;stroke:#000;stroke-width:5.56px;"/>
                <path d="M558.622,730.433l-0.472,27.087l6.299,24.567l12.913,23.779l19.37,22.047l25.197,20.158l14.488,9.134l15.906,8.346l34.803,14.646l38.425,11.023l40.945,7.56l42.52,3.622l39.527,-0.158l5.512,0.158l5.512,0.944l6.929,2.678l121.102,69.921l0,-87.087l-554.173,-320l-2.519,-2.204l-3.15,83.622l-0.315,-0.63" style="fill:none;stroke:#000;stroke-width:5.56px;"/>
                <path d="M430.906,566.654l-0.788,-1.575l0.158,-1.575" style="fill:none;stroke:#000;stroke-width:5.56px;"/>
                <path d="M439.882,556.102l-2.52,-0.945l-1.26,0.158" style="fill:none;stroke:#000;stroke-width:5.56px;"/>
                <path d="M439.724,557.992l554.174,319.843" style="fill:none;stroke:#000;stroke-width:5.56px;"/>
                <path d="M498.465,1412.48l67.559,39.055l-0,102.205" style="fill:none;stroke:#000;stroke-width:5.56px;"/>
                <path d="M492.008,557.835l-0,-7.402l-2.362,2.362l-0.315,1.418" style="fill:none;stroke:#000;stroke-width:5.56px;"/>
                <path d="M492.008,550.433l324.882,-187.559l-0,7.402" style="fill:none;stroke:#000;stroke-width:5.56px;"/>
                <path d="M545.236,1157.2l0.473,-56.221l-41.89,-24.094" style="fill:none;stroke:#000;stroke-width:5.56px;"/>
                <path d="M529.173,1184.92l259.685,149.922l8.504,4.094l9.134,3.465l10.079,2.519l10.394,1.733l15.59,0.944l-180,103.937l0,101.418" style="fill:none;stroke:#000;stroke-width:5.56px;"/>
                <path d="M545.709,1100.98l-0.63,0.315" style="fill:none;stroke:#000;stroke-width:5.56px;"/>
                <path d="M551.85,724.449l3.465,2.52l2.362,2.992l0.945,3.149" style="fill:none;stroke:#000;stroke-width:5.56px;"/>
                <path d="M553.425,653.425l3.465,2.52l1.732,2.205l1.575,3.937" style="fill:none;stroke:#000;stroke-width:5.56px;"/>
                <path d="M566.024,1451.54l8.346,4.095l14.961,4.724l16.378,2.363l17.008,-0l16.535,-2.363l14.961,-4.724l8.346,-4.095" style="fill:none;stroke:#000;stroke-width:5.56px;"/>
                <path d="M848.543,902.244l0.473,-71.653l-30.866,0.472l-8.977,-0.472l-21.89,-1.103l-30.393,-3.779l-29.449,-5.67l-28.032,-7.559l-26.299,-9.291l-24.252,-11.181l-21.889,-12.599l-19.371,-14.015l-16.22,-15.276l-13.228,-16.22l-9.764,-17.008l-6.299,-17.481l-2.835,-17.795" style="fill:none;stroke:#000;stroke-width:5.56px;"/>
                <path d="M569.173,655l282.362,162.992l-33.228,0.473l-29.764,-1.575l-29.291,-3.465l-28.346,-5.512l-27.087,-7.401l-25.512,-8.977l-23.464,-10.708l-21.103,-12.284l-18.583,-13.543l-15.748,-14.646l-12.755,-15.748l-9.449,-16.378l-6.142,-16.85l-2.677,-17.165l0.787,-17.323" style="fill:none;stroke:#000;stroke-width:5.56px;"/>
                <path d="M700.984,2311.85l13.701,33.229l1.102,1.732l1.733,1.26" style="fill:none;stroke:#000;stroke-width:5.56px;"/>
                <path d="M730.433,2347.76l1.732,-1.732l1.103,-4.567l9.606,-5.512" style="fill:none;stroke:#000;stroke-width:5.56px;"/>
                <path d="M788.858,1334.84l6.457,-5.197l3.465,-4.41l2.834,-4.882l2.047,-5.039l1.26,-8.189l5.355,2.677l11.338,3.78l12.284,2.047l-1.418,7.716" style="fill:none;stroke:#000;stroke-width:5.56px;"/>
                <path d="M802.874,2177.99l7.244,3.622l7.402,2.52l8.189,1.89l8.189,1.102l9.291,0.472l9.291,-0.472l9.134,-1.26l8.662,-2.205l7.874,-2.992l5.196,-2.677l1211.34,-699.37l-2.52,159.843l-18.582,45.039" style="fill:none;stroke:#000;stroke-width:5.56px;"/>
                <path d="M802.559,2176.1l0,-706.141" style="fill:none;stroke:#000;stroke-width:5.56px;"/>
                <path d="M804.921,1100.83l5.985,2.834l8.031,2.835l8.661,1.89l9.134,1.102l9.134,0l9.291,-0.787l8.662,-1.89l7.874,-2.52l7.244,-3.464l0,324.094" style="fill:none;stroke:#000;stroke-width:5.56px;"/>
                <path d="M816.89,362.874l4.094,-1.417l2.362,-0.158l4.567,0.63l1.89,0.945l502.047,289.764l1.418,1.102l1.26,2.677" style="fill:none;stroke:#000;stroke-width:5.56px;"/>
                <path d="M827.913,332.008l-2.204,-0.788l-1.733,0l-1.102,0.63" style="fill:none;stroke:#000;stroke-width:5.56px;"/>
                <path d="M833.898,1315.63l-0,7.874" style="fill:none;stroke:#000;stroke-width:5.56px;"/>
                <path d="M825.709,1094.21l-0,-18.583" style="fill:none;stroke:#000;stroke-width:5.56px;"/>
                <path d="M829.803,362.874l0,7.402" style="fill:none;stroke:#000;stroke-width:5.56px;"/>
                <path d="M842.874,335.787l234.646,-134.33l-1.733,-0.158l-233.543,134.173" style="fill:none;stroke:#000;stroke-width:5.56px;"/>
                <path d="M831.22,332.008l194.331,112.126l2.677,-0.788l1.26,0.158" style="fill:none;stroke:#000;stroke-width:5.56px;"/>
                <path d="M2107.76,1621.77l-2.52,5.039l-4.252,5.039l-8.819,6.615l-1208.82,697.952l-7.244,3.465l-7.874,2.677l-8.661,2.047l-9.291,1.103l-0,-158.426" style="fill:none;stroke:#000;stroke-width:5.56px;"/>
                <path d="M842.559,1347.6l8.504,-5.984l6.929,-6.457l17.165,-18.11l3.78,-2.992" style="fill:none;stroke:#000;stroke-width:5.56px;"/>
                <path d="M857.992,1094.21l831.339,-480.158l16.063,-4.882l47.716,-17.638l43.622,-21.259l38.425,-24.095l32.914,-26.772l18.425,-19.055l-0.787,-18.11l8.661,-10.551l20.158,-30.551l13.07,-31.969l6.142,-32.598" style="fill:none;stroke:#000;stroke-width:5.56px;"/>
                <path d="M848.228,818.15l0.788,12.441l5.669,0.157l5.354,0.945l6.93,2.677l-9.449,-11.496l-5.985,-4.882" style="fill:none;stroke:#000;stroke-width:5.56px;"/>
                <path d="M1083.82,191.85l-6.299,9.607l1.26,0.315l-234.016,135.118" style="fill:none;stroke:#000;stroke-width:5.56px;"/>
                <path d="M864.921,2381.46l18.425,-45.04l0,-158.425" style="fill:none;stroke:#000;stroke-width:5.56px;"/>
                <path d="M875.787,1426.34l3.15,-1.733" style="fill:none;stroke:#000;stroke-width:5.56px;"/>
                <path d="M866.969,834.37l-0.473,71.654" style="fill:none;stroke:#000;stroke-width:5.56px;"/>
                <path d="M883.031,2176.1l0,-753.385l1200.32,-693.071l11.339,746.929" style="fill:none;stroke:#000;stroke-width:5.56px;"/>
                <path d="M883.031,1422.72l-1.889,1.102" style="fill:none;stroke:#000;stroke-width:5.56px;"/>
                <path d="M878.937,1100.83l1203.46,-694.803l5.196,-3.465l4.725,-4.567l3.464,-5.039l1.733,-5.355l0.157,-5.354" style="fill:none;stroke:#000;stroke-width:5.56px;"/>
                <path d="M946.339,2334.37l9.448,5.512l0.315,2.677l0.945,2.047l2.047,1.575" style="fill:none;stroke:#000;stroke-width:5.56px;"/>
                <path d="M961.772,2325.39l-5.985,14.488l2.678,2.205l3.149,1.574l3.465,1.103l3.307,0.315l5.984,-1.418l962.362,-555.748l1.418,-0.944l1.889,-2.835" style="fill:none;stroke:#000;stroke-width:5.56px;"/>
                <path d="M971.85,2346.34l1.575,-1.103l0.945,-1.575l13.858,-33.385" style="fill:none;stroke:#000;stroke-width:5.56px;"/>
                <path d="M987.598,975.945l4.725,1.575l2.834,0.315l5.355,-0.63l3.149,-1.26" style="fill:none;stroke:#000;stroke-width:5.56px;"/>
                <path d="M997.205,877.835l388.031,-224.095" style="fill:none;stroke:#000;stroke-width:5.56px;"/>
                <path d="M1025.55,444.134l5.827,2.677l6.929,1.89l7.244,0.787l7.559,-0.157l7.244,-1.26l6.457,-2.047l-2.205,-1.103l-1.575,0.315" style="fill:none;stroke:#000;stroke-width:5.56px;"/>
                <path d="M1066.81,446.024l14.016,-4.882l15.433,-3.15l16.063,-1.575l16.378,0.315l15.905,2.048l14.961,3.779l13.543,5.197l11.496,6.772l9.292,7.716l6.456,8.662l3.465,9.133l0.472,9.449l-2.519,9.292l-5.67,8.976l-8.346,8.031l4.567,3.465l2.52,5.354l0.314,1.733l-2.677,2.677l-1.574,2.992l-0.158,2.362" style="fill:none;stroke:#000;stroke-width:5.56px;"/>
                <path d="M1073.58,201.772l8.031,-9.449l-5.827,8.976l-1.732,0.158" style="fill:none;stroke:#000;stroke-width:5.56px;"/>
                <path d="M1078.78,201.772l6.299,-9.449l16.535,-20.63l19.37,-19.37l22.52,-18.425l25.039,-17.166l27.717,-15.748l30.079,-14.33l5.984,-2.363l26.142,-10.393l33.858,-10.867l35.59,-9.291l36.693,-7.244l10.866,-1.575" style="fill:none;stroke:#000;stroke-width:5.56px;"/>
                <path d="M1081.61,192.323l0.315,-0.315" style="fill:none;stroke:#000;stroke-width:5.56px;"/>
                <path d="M1385.24,651.85l-194.33,-112.126l2.677,-0.944l2.362,0.787" style="fill:none;stroke:#000;stroke-width:5.56px;"/>
                <path d="M1213.27,497.677l-2.677,9.921l-6.3,9.764l-9.134,8.977l0,7.401l-2.834,2.992" style="fill:none;stroke:#000;stroke-width:5.56px;"/>
                <path d="M1195.16,533.74l11.812,-12.441l5.984,-13.701" style="fill:none;stroke:#000;stroke-width:5.56px;"/>
                <path d="M1187.76,515.787l-3.78,3.78l-2.047,4.094l-0.315,4.41l1.575,4.252l2.992,3.937l4.725,3.464" style="fill:none;stroke:#000;stroke-width:5.56px;"/>
                <path d="M1781.61,287.441l-3.622,26.614l-10.709,25.827l-17.637,24.567l-24.095,22.677l-29.921,20.157l-34.961,17.323l-39.212,13.859l-42.677,10.236l-44.725,6.142l-45.984,2.047l-45.827,-2.047l-44.882,-6.142l-42.519,-10.236l-39.213,-13.859l-35.118,-17.323l-29.921,-20.157l-24.095,-22.677l-17.48,-24.567l-10.866,-25.827l-3.622,-26.614" style="fill:none;stroke:#000;stroke-width:5.56px;"/>
                <path d="M1194.68,262.402l2.52,18.267l5.984,17.953l9.449,17.638l12.441,16.85l15.748,15.906l10.079,8.189l8.503,6.771l21.103,13.544l0.945,-4.095l0.945,-2.205l1.417,-1.889l3.15,-2.835l-20.63,-13.228l-17.953,-14.488l-15.118,-15.434l-12.126,-16.377l-9.134,-17.008l-5.669,-17.481l-2.52,-17.795l0.787,-17.638l4.095,-17.638l7.559,-17.322l10.551,-16.693l13.701,-15.906l16.535,-14.96l19.37,-13.859l21.733,-12.598l24.094,-11.181l25.827,-9.607l5.827,-1.574" style="fill:none;stroke:#000;stroke-width:5.56px;"/>
                <path d="M1195.79,243.189l-0.315,0.787" style="fill:none;stroke:#000;stroke-width:5.56px;"/>
                <path d="M1212.8,486.969l-0.157,-0.63" style="fill:none;stroke:#000;stroke-width:5.56px;"/>
                <path d="M1353.9,117.992l-13.229,5.197l-21.575,11.024l-19.055,12.441l-16.378,13.7l-13.543,14.961l-10.079,15.433l-6.929,16.063l-3.464,16.535l-0,16.693l3.464,16.536l6.929,16.22l10.237,15.591l13.385,14.645l16.536,13.859l18.897,12.441l-2.677,2.204l-1.732,2.52l-1.26,2.835l-0.63,3.622l-20,-13.071l-17.008,-14.173l-13.858,-15.276l-10.551,-16.22l-7.244,-16.851l-3.622,-17.165l0.315,-18.583" style="fill:none;stroke:#000;stroke-width:5.56px;"/>
                <path d="M1735.47,229.488l0.158,18.268l-3.622,17.165l-7.087,16.851l-10.708,16.22l-13.859,15.276l-17.008,14.173l-19.842,13.071l-22.52,11.338l-25.984,10.237l-25.039,7.716l-28.032,6.142l-29.134,4.094l-29.764,2.048l-29.921,-0l-29.764,-2.048l-28.976,-4.094l-28.031,-6.142l-26.615,-8.031l-24.567,-9.922l-22.362,-11.338l0,11.023l-26.614,-17.952l-20.945,-20.315l-14.803,-22.048l-8.504,-23.149l-1.575,-23.622" style="fill:none;stroke:#000;stroke-width:5.56px;"/>
                <path d="M1280.51,407.283l-0,-29.763l23.622,12.283l11.653,4.882l14.174,5.827l27.716,9.134l29.134,7.244l30.394,5.354l31.338,3.465l31.654,1.417l31.811,-0.472l31.496,-2.52l30.709,-4.41l29.921,-6.299l28.504,-8.189l26.771,-9.921l24.725,-11.496l22.52,-12.913l19.842,-14.331l17.165,-15.433l14.016,-16.378l9.449,-14.646l1.575,-2.677l7.716,-17.795l4.252,-18.111" style="fill:none;stroke:#000;stroke-width:5.56px;"/>
                <path d="M1622.09,105.709l19.212,6.299l25.04,10.236l22.834,11.969l20.63,13.228l17.953,14.488l15.118,15.433l12.283,16.378l8.977,17.008l5.827,17.323l2.519,17.795l-0.945,17.795l-4.094,17.638l-7.402,17.166l-10.708,16.692l-13.544,15.906l-16.693,15.118l-19.212,13.858l-21.89,12.441l-23.937,11.181l-25.984,9.607l-27.559,7.874l-29.134,6.141l-29.606,4.252l-30.552,2.52l-30.866,0.473l-30.708,-1.575l-30.237,-3.307l-29.448,-5.197l-28.189,-7.087l-26.772,-8.661l-25.039,-10.394l-22.992,-11.811" style="fill:none;stroke:#000;stroke-width:5.56px;"/>
                <path d="M1735.94,256.26l-5.039,23.464l-11.812,22.678l-17.952,21.259l-23.78,19.213l-28.976,16.693l-33.386,13.701l-36.693,10.393l-39.37,6.772l-40.63,2.992l-40.945,-0.945l-40,-4.882l-38.11,-8.661l-35.276,-12.126l-31.181,-15.276" style="fill:none;stroke:#000;stroke-width:5.56px;"/>
                <path d="M1331.85,652.638l0,7.401" style="fill:none;stroke:#000;stroke-width:5.56px;"/>
                <path d="M1319.09,329.331l21.575,11.023l23.78,9.449l25.669,7.717l26.929,5.984l28.032,3.937l28.661,2.047l28.819,0l28.661,-2.047l28.032,-3.937l26.929,-5.984l25.512,-7.717l23.779,-9.449l21.575,-11.023l19.055,-12.441l16.536,-13.859l13.386,-14.645l10.236,-15.591l6.929,-16.22l3.465,-16.536l-0,-16.693l-3.465,-16.535l-6.929,-16.063l-10.079,-15.433l-13.543,-14.961l-16.378,-13.7l-19.213,-12.441l-21.575,-11.024l-13.385,-5.354" style="fill:none;stroke:#000;stroke-width:5.56px;"/>
                <path d="M1391.54,288.386l0,-6.457l-17.952,-12.913l-12.914,-14.646l-7.401,-15.905l-1.575,-16.378" style="fill:none;stroke:#000;stroke-width:5.56px;"/>
                <path d="M1357.84,222.717l-0,-117.008l17.165,-6.929" style="fill:none;stroke:#000;stroke-width:5.56px;"/>
                <path d="M1351.22,222.874l0.945,-2.047" style="fill:none;stroke:#000;stroke-width:5.56px;"/>
                <path d="M1388.7,114.213l-18.583,9.606l-3.149,-3.622" style="fill:none;stroke:#000;stroke-width:5.56px;"/>
                <path d="M1356.42,101.772l1.418,3.937" style="fill:none;stroke:#000;stroke-width:5.56px;"/>
                <path d="M1368.54,81.772l-14.645,4.567" style="fill:none;stroke:#000;stroke-width:5.56px;"/>
                <path d="M1358.31,67.126l11.181,-2.677" style="fill:none;stroke:#000;stroke-width:5.56px;"/>
                <path d="M1403.5,264.606l-0,10.394l-16.693,-12.126l-11.654,-13.858l-2.519,-6.299" style="fill:none;stroke:#000;stroke-width:5.56px;"/>
                <path d="M1370.12,240.827l0,-117.008" style="fill:none;stroke:#000;stroke-width:5.56px;"/>
                <path d="M1571.85,25.551l8.189,5.197l13.544,11.969l8.819,13.385l3.937,14.174l-1.418,14.173l-6.299,13.858l-11.339,12.756l-15.59,11.024l-19.213,8.976l-22.047,6.457l-23.779,3.779l-24.725,0.788l-24.409,-2.363l-23.15,-5.039l-20.787,-7.716l-9.134,-4.882l-8.347,-5.355l-13.385,-11.968l-8.977,-13.229l-3.779,-14.173l1.259,-14.173l6.457,-13.858l11.181,-12.756l15.591,-11.024l19.212,-8.976" style="fill:none;stroke:#000;stroke-width:5.56px;"/>
                <path d="M1370.91,49.016l6.929,-1.26" style="fill:none;stroke:#000;stroke-width:5.56px;"/>
                <path d="M1595.16,43.819l37.481,6.614l36.063,8.347l34.645,10.236l32.914,11.968l31.023,13.544l28.662,15.275l26.299,16.536l23.622,17.795l20.63,19.055l17.795,20l14.489,20.787l11.338,21.575l7.874,22.047l4.41,22.205l0.944,22.52l-2.362,22.362l-5.984,22.362l-9.449,21.733l-8.189,14.488l-4.409,6.771l-15.906,20.473l-19.055,19.527l-22.047,18.583l-24.725,17.323l-27.401,16.063l-29.606,14.488l-31.969,12.913l-33.701,11.182l-35.275,9.448l-16.693,3.78l3.464,5.039l1.575,6.772l-249.606,144.094l2.362,-5.511l0.787,-5.512" style="fill:none;stroke:#000;stroke-width:5.56px;"/>
                <path d="M1392.01,679.724l-0.315,-14.96l2.835,-2.677l0.315,-2.52" style="fill:none;stroke:#000;stroke-width:5.56px;"/>
                <path d="M1636.58,523.819l-241.418,139.37" style="fill:none;stroke:#000;stroke-width:5.56px;"/>
                <path d="M1391.54,281.929l22.205,10.394l25.354,7.401l27.717,4.252l28.504,0.945l28.189,-2.677l26.614,-5.827l21.26,-8.031l2.677,-0.945l20.158,-11.654l15.59,-13.858l10.236,-15.433l4.41,-16.22" style="fill:none;stroke:#000;stroke-width:5.56px;"/>
                <path d="M1397.2,260.984l10.866,6.142" style="fill:none;stroke:#000;stroke-width:5.56px;"/>
                <path d="M1389.65,256.575l-0,-117.008l19.055,-12.284l-0,139.686" style="fill:none;stroke:#000;stroke-width:5.56px;"/>
                <path d="M1385.24,136.575l4.41,2.992" style="fill:none;stroke:#000;stroke-width:5.56px;"/>
                <path d="M1390.75,33.425l2.362,-0.63" style="fill:none;stroke:#000;stroke-width:5.56px;"/>
                <path d="M1604.29,240.827l-3.149,8.189l-11.654,13.858l-16.693,12.126l-20.945,9.606l-24.252,6.772l-26.141,3.465l-26.772,-0l-26.142,-3.465l-24.094,-6.772l-20.945,-9.606" style="fill:none;stroke:#000;stroke-width:5.56px;"/>
                <path d="M1432.95,276.89l-17.481,-7.874l-5.669,-2.205l-1.102,0.63" style="fill:none;stroke:#000;stroke-width:5.56px;"/>
                <path d="M1409.8,266.811l0,-117.008l5.669,2.205l18.111,-14.961l5.826,22.047l0,117.008l6.457,1.26l0,-117.008l16.063,-17.323l10.079,20.788l-0,117.008l6.929,0.315l0,-117.008l12.913,-19.528l13.859,19.055l6.771,-0.63l0,117.008l8.819,1.89" style="fill:none;stroke:#000;stroke-width:5.56px;"/>
                <path d="M1415.47,269.016l0,-117.008" style="fill:none;stroke:#000;stroke-width:5.56px;"/>
                <path d="M1409.8,149.803l-1.102,-22.52" style="fill:none;stroke:#000;stroke-width:5.56px;"/>
                <path d="M1433.74,277.205l5.669,-1.103" style="fill:none;stroke:#000;stroke-width:5.56px;"/>
                <path d="M1433.58,276.89l-0,-139.843" style="fill:none;stroke:#000;stroke-width:5.56px;"/>
                <path d="M1444.61,98.937l-4.567,-2.992l-8.031,-7.717l-4.41,-8.504l-0.629,-8.976l3.149,-8.661l6.929,-8.032l10.236,-6.772l7.717,-3.307l7.717,-2.834l8.818,-2.048l12.284,-1.417l6.772,-0.472l9.606,0.472l9.449,1.103l9.134,2.047l7.244,3.149l-5.512,-2.362" style="fill:none;stroke:#000;stroke-width:5.56px;"/>
                <path d="M1435.47,90.591l6.3,-6.3l9.763,-5.826l11.811,-4.095l13.386,-2.205l14.174,-0.315l13.858,1.89l12.913,3.622l10.709,5.197l-0,1.89" style="fill:none;stroke:#000;stroke-width:5.56px;"/>
                <path d="M1432.64,86.496l1.89,-4.094l3.779,-4.567l5.197,-4.095l6.299,-3.779l7.244,-2.992l8.032,-2.205l8.661,-1.575l9.134,-0.63l9.134,0.158l9.134,0.944l8.661,1.89l8.189,2.677l7.402,3.465l2.992,1.89l-0,1.574" style="fill:none;stroke:#000;stroke-width:5.56px;"/>
                <path d="M1431.38,83.346l0.787,-5.354l2.363,-4.882l3.937,-4.567l5.039,-4.252l6.299,-3.622l7.244,-2.992l8.032,-2.205l8.819,-1.574l8.976,-0.63l9.134,0.157l9.134,1.103l8.661,1.732l8.347,2.677l7.401,3.465l8.819,5.984l4.724,4.724l3.308,5.197l1.889,5.197" style="fill:none;stroke:#000;stroke-width:5.56px;"/>
                <path d="M1445.87,277.362l15.433,5.512" style="fill:none;stroke:#000;stroke-width:5.56px;"/>
                <path d="M1439.41,159.094l6.457,1.26" style="fill:none;stroke:#000;stroke-width:5.56px;"/>
                <path d="M1534.53,96.732l-6.142,-4.882l-11.024,-5.196l-12.913,-3.78l-13.858,-1.732l-14.016,0.315l-13.386,2.362l-11.811,3.937l-9.449,5.669l-1.89,1.89" style="fill:none;stroke:#000;stroke-width:5.56px;"/>
                <path d="M1527.44,100.669l-12.284,-5.512l-13.07,-3.464l-14.016,-1.26l-11.811,0.315l-13.386,2.362l-11.654,4.095l-4.566,2.677" style="fill:none;stroke:#000;stroke-width:5.56px;"/>
                <path d="M1448.86,53.74l13.229,-5.354l6.299,-1.103" style="fill:none;stroke:#000;stroke-width:5.56px;"/>
                <path d="M1472.01,280.827l-9.764,2.204" style="fill:none;stroke:#000;stroke-width:5.56px;"/>
                <path d="M1461.93,282.717l0,-139.686" style="fill:none;stroke:#000;stroke-width:5.56px;"/>
                <path d="M1516.42,104.921l-14.33,-3.937l-14.016,-1.26l-11.969,0.473l-13.385,2.205l-5.197,1.889" style="fill:none;stroke:#000;stroke-width:5.56px;"/>
                <path d="M1468.86,47.283l0.788,-0.314l-7.559,1.417" style="fill:none;stroke:#000;stroke-width:5.56px;"/>
                <path d="M1457.2,50.276l-2.362,0.944" style="fill:none;stroke:#000;stroke-width:5.56px;"/>
                <path d="M1455,43.976l8.661,-1.732l9.134,-0.945l9.292,0l9.291,0.788l9.134,1.732l7.874,2.205l14.488,5.669l5.669,3.15l5.67,4.251l4.881,4.725l3.308,5.197l2.047,5.354l0.315,2.992" style="fill:none;stroke:#000;stroke-width:5.56px;"/>
                <path d="M1478.94,281.142l12.441,3.464" style="fill:none;stroke:#000;stroke-width:5.56px;"/>
                <path d="M1472.01,163.819l6.929,0.315" style="fill:none;stroke:#000;stroke-width:5.56px;"/>
                <path d="M1471.69,46.496l-2.047,0.473l4.567,-1.26l-2.52,0.787" style="fill:none;stroke:#000;stroke-width:5.56px;"/>
                <path d="M1474.21,45.709l15.59,-0.945l14.173,1.26l11.024,2.519" style="fill:none;stroke:#000;stroke-width:5.56px;"/>
                <path d="M1491.85,284.291l0,-139.685" style="fill:none;stroke:#000;stroke-width:5.56px;"/>
                <path d="M1512.48,280.039l-6.771,0.63l-13.386,3.937" style="fill:none;stroke:#000;stroke-width:5.56px;"/>
                <path d="M1505.71,280.669l-0,-117.008" style="fill:none;stroke:#000;stroke-width:5.56px;"/>
                <path d="M1512.48,163.031l9.134,-21.102l16.693,16.851l0,117.007l-16.063,5.985" style="fill:none;stroke:#000;stroke-width:5.56px;"/>
                <path d="M1518.78,7.756l22.992,5.197l20.787,7.716" style="fill:none;stroke:#000;stroke-width:5.56px;"/>
                <path d="M1521.61,141.929l0,139.685" style="fill:none;stroke:#000;stroke-width:5.56px;"/>
                <path d="M1528.39,91.85l-0,1.89" style="fill:none;stroke:#000;stroke-width:5.56px;"/>
                <path d="M1528.39,82.559l8.504,6.772l2.519,3.464" style="fill:none;stroke:#000;stroke-width:5.56px;"/>
                <path d="M1542.72,88.228l-3.623,-5.826l-4.724,-4.725l-5.984,-4.094" style="fill:none;stroke:#000;stroke-width:5.56px;"/>
                <path d="M1528.39,63.976l-0,1.89" style="fill:none;stroke:#000;stroke-width:5.56px;"/>
                <path d="M1549.17,275l-4.567,-0.787l-6.299,1.574" style="fill:none;stroke:#000;stroke-width:5.56px;"/>
                <path d="M1549.96,274.843l17.637,-8.504l0,-117.008l-18.267,-14.331l-4.725,22.205l-6.299,1.575" style="fill:none;stroke:#000;stroke-width:5.56px;"/>
                <path d="M1544.61,274.213l0,-117.008" style="fill:none;stroke:#000;stroke-width:5.56px;"/>
                <path d="M1549.33,274.685l-0,-139.685" style="fill:none;stroke:#000;stroke-width:5.56px;"/>
                <path d="M1544.92,79.882l0,-0.788" style="fill:none;stroke:#000;stroke-width:5.56px;"/>
                <path d="M1548.7,78.937l0.787,-5.669" style="fill:none;stroke:#000;stroke-width:5.56px;"/>
                <path d="M1567.6,266.339l5.512,-2.52" style="fill:none;stroke:#000;stroke-width:5.56px;"/>
                <path d="M1567.6,149.331l5.512,-2.52" style="fill:none;stroke:#000;stroke-width:5.56px;"/>
                <path d="M1557.2,18.78l-1.89,-0.788" style="fill:none;stroke:#000;stroke-width:5.56px;"/>
                <path d="M1592.01,252.953l-0,-117.008l-18.898,-11.496l0,10.866" style="fill:none;stroke:#000;stroke-width:5.56px;"/>
                <path d="M1573.11,124.449l-1.417,-2.362" style="fill:none;stroke:#000;stroke-width:5.56px;"/>
                <path d="M1577.99,29.488l0.945,0.158" style="fill:none;stroke:#000;stroke-width:5.56px;"/>
                <path d="M1592.01,135.945l4.252,-3.15" style="fill:none;stroke:#000;stroke-width:5.56px;"/>
                <path d="M1612.64,115.787l-2.677,3.622l-18.426,-8.818" style="fill:none;stroke:#000;stroke-width:5.56px;"/>
                <path d="M1603.5,94.685l16.693,6.142l-0,117.165" style="fill:none;stroke:#000;stroke-width:5.56px;"/>
                <path d="M1609.96,236.417l-0,-117.008" style="fill:none;stroke:#000;stroke-width:5.56px;"/>
                <path d="M1620.2,100.827l0.945,-3.78" style="fill:none;stroke:#000;stroke-width:5.56px;"/>
                <path d="M1622.09,81.457l-13.859,-3.937" style="fill:none;stroke:#000;stroke-width:5.56px;"/>
                <path d="M1605.39,60.197l10.078,2.205" style="fill:none;stroke:#000;stroke-width:5.56px;"/>
                <path d="M1624.92,222.874l-1.417,-3.78" style="fill:none;stroke:#000;stroke-width:5.56px;"/>
                <path d="M1642.56,607.126l-0.945,-71.496l15.118,-3.465l36.063,-9.606l34.331,-11.496l32.598,-13.071l30.237,-14.803l5.196,-2.992l22.835,-13.386l25.197,-17.638l22.52,-19.055l19.37,-20l16.378,-20.787l12.913,-21.733l9.449,-22.362l6.142,-22.677l2.519,-22.835" style="fill:none;stroke:#000;stroke-width:5.56px;"/>
                <path d="M1657.05,134.213l3.15,-0.945l1.89,0.945" style="fill:none;stroke:#000;stroke-width:5.56px;"/>
                <path d="M1689.33,614.055l0.945,-19.055l-0.315,0.157" style="fill:none;stroke:#000;stroke-width:5.56px;"/>
                <path d="M1689.17,134.213l3.307,-0.945l1.26,0.472" style="fill:none;stroke:#000;stroke-width:5.56px;"/>
                <path d="M1781.3,257.677l0.158,-4.567" style="fill:none;stroke:#000;stroke-width:5.56px;"/>
                <path d="M2077.68,384.449l-0.787,3.464l-2.205,3.15l-3.622,2.677l-184.567,106.614" style="fill:none;stroke:#000;stroke-width:5.56px;"/>
                <path d="M1885.71,482.244l185.354,-107.087l-0,18.583" style="fill:none;stroke:#000;stroke-width:5.56px;"/>
                <path d="M1931.22,275l-4.251,-20.945" style="fill:none;stroke:#000;stroke-width:5.56px;"/>
                <path d="M1950.28,1754.68l-13.544,33.228l-1.417,2.048" style="fill:none;stroke:#000;stroke-width:5.56px;"/>
                <path d="M1931.54,276.89l-0.157,-0.63" style="fill:none;stroke:#000;stroke-width:5.56px;"/>
                <path d="M1973.9,300.512l80.472,-33.386" style="fill:none;stroke:#000;stroke-width:5.56px;"/>
                <path d="M2054.37,304.291l-37.008,21.418" style="fill:none;stroke:#000;stroke-width:5.56px;"/>
                <path d="M2071.06,375.157l3.622,-2.677l2.205,-3.149l0.787,-3.465" style="fill:none;stroke:#000;stroke-width:5.56px;"/>
                <path d="M2094.68,1478.62l5.827,-3.937l4.724,-4.409l3.307,-4.725l2.048,-4.724l0.629,-5.512" style="fill:none;stroke:#000;stroke-width:5.56px;"/>
                <path d="M2087.28,727.441l-4.881,-321.417" style="fill:none;stroke:#000;stroke-width:5.56px;"/>
                <path d="M2083.35,729.646l0.473,-0.158" style="fill:none;stroke:#000;stroke-width:5.56px;"/>
                <path d="M2087.28,616.417l3.78,-1.26l16.693,-1.732l7.401,-1.732l8.504,-3.78l-2.204,-10.551l-6.457,-10.079l-10.079,-8.346l-3.307,-2.047l-1.102,0.472" style="fill:none;stroke:#000;stroke-width:5.56px;"/>
                <path d="M2091.53,370.433l24.725,-2.52l22.992,0.63l-0,102.048" style="fill:none;stroke:#000;stroke-width:5.56px;"/>
                <path d="M2108.86,1616.42l-0.157,-0.787" style="fill:none;stroke:#000;stroke-width:5.56px;"/>
                <path d="M2101.77,601.457l-0,-10.866l0.787,5.354" style="fill:none;stroke:#000;stroke-width:5.56px;"/>
                <path d="M2101.77,590.591l-1.103,-2.678" style="fill:none;stroke:#000;stroke-width:5.56px;"/>
                <path d="M2101.61,576.89l-1.102,-0.63" style="fill:none;stroke:#000;stroke-width:5.56px;"/>
                <path d="M2123.66,607.913l180.158,-103.937l-0,101.418" style="fill:none;stroke:#000;stroke-width:5.56px;"/>
                <path d="M2139.25,368.543l13.228,-7.559" style="fill:none;stroke:#000;stroke-width:5.56px;"/>
                <path d="M2224.13,430.118l-1.26,-13.228" style="fill:none;stroke:#000;stroke-width:5.56px;"/>
                <path d="M2323.19,471.378l-0,9.764l-4.252,9.449l-8.189,8.503l-6.929,4.882" style="fill:none;stroke:#000;stroke-width:5.56px;"/>
            </g>
            <g>
                <path d="M251.535,757.205l0,-18.583l0.788,-3.465l2.205,-3.149l3.622,-2.677l8.346,-4.725l-19.685,11.181l-5.197,3.465l-4.724,4.567l-1.733,2.52l-1.732,2.362l-1.732,5.354l-3.15,205.354l-14.488,14.174l-8.504,6.141l-180.157,103.937l-7.402,5.04l-7.874,8.661l-4.094,9.292l-0.473,105.669l0.315,5.512l1.732,5.669l3.308,5.512l4.566,5.197l5.67,4.724l71.811,41.575l13.386,-7.874l-0,-101.89l-1.26,-13.228" style="fill:none;stroke:#000;stroke-width:11.1px;"/>
                <path d="M261.772,1210.75l-17.166,-5.039l-11.968,-2.205l-12.756,-1.26l-12.756,-0.315l-12.756,0.473l-12.598,1.574l-12.284,2.363l-11.181,3.149l-10.866,4.252l-9.921,4.725l-9.134,5.669l-7.559,6.142l-5.67,6.141l-5.196,7.402l-3.15,6.929l-0.472,2.362" style="fill:none;stroke:#000;stroke-width:11.1px;"/>
                <path d="M426.811,1343.19l1.26,13.386l-0,101.89l-13.228,7.874l-238.111,-137.481l0,-102.047l13.229,-7.717l22.992,0.63l25.669,-2.677l23.622,-6.456l20,-9.607l15.276,-12.283l9.291,-14.016l2.835,-14.961" style="fill:none;stroke:#000;stroke-width:11.1px;"/>
                <path d="M2102.56,595.945l-0.63,5.197l-2.362,5.039l-3.78,4.567l-4.409,3.307l-4.095,2.362l0,110.552l12.756,-7.245l11.181,736.063l-1.732,5.827l-3.149,5.197l-4.095,4.409l-7.559,5.355l-1211.65,699.527l-7.874,3.78l-8.503,2.835l-8.662,1.889l-9.291,0.945l-10.079,0.158l-9.921,-0.945l-9.134,-1.89l-7.559,-2.362l-7.559,-3.307l-569.921,-328.977l-6.457,-4.567l-5.04,-4.881l-2.992,-5.04l-1.889,-5.354l-0,-1.732l2.677,163.937l1.89,5.354l18.582,37.323" style="fill:none;stroke:#000;stroke-width:11.1px;"/>
                <path d="M374.528,2123.35l1.417,0.945l-123.622,-71.811l-3.622,-3.779l-24.252,-50.236" style="fill:none;stroke:#000;stroke-width:11.1px;"/>
                <path d="M220.827,1990.12l-2.205,-158.11" style="fill:none;stroke:#000;stroke-width:11.1px;"/>
                <path d="M225.079,1356.89l-6.929,469.764l-0,-1.418" style="fill:none;stroke:#000;stroke-width:11.1px;"/>
                <path d="M227.441,1203.03l-0.158,15.276" style="fill:none;stroke:#000;stroke-width:11.1px;"/>
                <path d="M226.654,968.858l0.787,5.197l0.945,-3.149l0.157,-11.497" style="fill:none;stroke:#000;stroke-width:11.1px;"/>
                <path d="M228.543,960.039l-1.417,2.048" style="fill:none;stroke:#000;stroke-width:11.1px;"/>
                <path d="M228.386,970.906l0.63,-4.567l-0.158,2.204" style="fill:none;stroke:#000;stroke-width:11.1px;"/>
                <path d="M227.126,965.394l-0,6.299" style="fill:none;stroke:#000;stroke-width:11.1px;"/>
                <path d="M274.843,1283.35l-0,-37.165l228.818,-169.291" style="fill:none;stroke:#000;stroke-width:11.1px;"/>
                <path d="M266.496,724.606l16.85,-9.763l-16.85,9.763" style="fill:none;stroke:#000;stroke-width:11.1px;"/>
                <path d="M300.354,704.921l17.008,-9.764l-34.016,19.686" style="fill:none;stroke:#000;stroke-width:11.1px;"/>
                <path d="M307.126,768.701l482.677,278.74l80.473,-46.457" style="fill:none;stroke:#000;stroke-width:11.1px;"/>
                <path d="M317.362,695.157l33.858,-19.527l-17.007,9.764" style="fill:none;stroke:#000;stroke-width:11.1px;"/>
                <path d="M351.22,675.63l16.851,-9.764l-16.851,9.764" style="fill:none;stroke:#000;stroke-width:11.1px;"/>
                <path d="M368.071,665.866l34.016,-19.527l-17.008,9.763" style="fill:none;stroke:#000;stroke-width:11.1px;"/>
                <path d="M390.118,2158.78l11.969,7.244l-10.867,-6.457l-3.779,-3.622l-14.016,-33.228" style="fill:none;stroke:#000;stroke-width:11.1px;"/>
                <path d="M402.087,2166.02l33.858,19.527l-17.008,-9.764" style="fill:none;stroke:#000;stroke-width:11.1px;"/>
                <path d="M402.087,646.339l22.519,-13.071l-5.669,3.307" style="fill:none;stroke:#000;stroke-width:11.1px;"/>
                <path d="M583.504,1396.58l-17.165,-5.04l-11.811,-2.204l-12.756,-1.26l-12.756,-0.315l-12.756,0.472l-12.599,1.575l-12.283,2.362l-11.181,3.15l-11.024,4.094l-9.764,4.882l-9.133,5.67l-7.559,6.141l-5.827,5.985l-5.04,7.559l-3.149,6.929l-0.63,2.362" style="fill:none;stroke:#000;stroke-width:11.1px;"/>
                <path d="M428.071,633.268l-0.63,16.378l2.677,-84.567" style="fill:none;stroke:#000;stroke-width:11.1px;"/>
                <path d="M424.606,633.268l3.465,-2.048l-3.465,2.048" style="fill:none;stroke:#000;stroke-width:11.1px;"/>
                <path d="M430.118,565.394l0.473,-4.252l1.259,-2.835l1.575,-1.732l-0.945,1.102" style="fill:none;stroke:#000;stroke-width:11.1px;"/>
                <path d="M435.63,555.472l0.472,-0.157l-2.677,1.26" style="fill:none;stroke:#000;stroke-width:11.1px;"/>
                <path d="M430.118,562.717l0,1.259" style="fill:none;stroke:#000;stroke-width:11.1px;"/>
                <path d="M450.276,2193.58l-14.331,-8.032l16.85,9.764l-2.519,-1.732" style="fill:none;stroke:#000;stroke-width:11.1px;"/>
                <path d="M826.969,331.535l-388.504,224.095" style="fill:none;stroke:#000;stroke-width:11.1px;"/>
                <path d="M828.858,329.803l0.473,-0.157l-5.197,1.417l-388.032,224.252" style="fill:none;stroke:#000;stroke-width:11.1px;"/>
                <path d="M452.795,2195.32l34.016,19.528l-17.008,-9.764" style="fill:none;stroke:#000;stroke-width:11.1px;"/>
                <path d="M486.811,2214.84l33.858,19.685l-17.008,-9.764" style="fill:none;stroke:#000;stroke-width:11.1px;"/>
                <path d="M631.378,1345.55l-2.835,14.961l-9.291,14.016l-15.118,12.283l-20.158,9.606l-23.622,6.457l-25.511,2.677l-22.993,-0.787l-13.385,7.716l-0,102.205l67.559,39.055l8.346,4.095l8.976,2.992l10.079,2.362l10.236,1.417l10.552,0.473l11.023,-0.63l9.607,-1.418l9.921,-2.519l8.504,-2.992l9.291,-4.567l214.016,-126.614l-1.89,0.787" style="fill:none;stroke:#000;stroke-width:11.1px;"/>
                <path d="M1334.53,656.417l-0.473,1.575l-2.205,2.047l-502.047,-289.763l-4.094,-1.418l-4.725,0l-4.094,1.418l-324.882,187.559l-1.575,-1.103l-1.102,-2.362" style="fill:none;stroke:#000;stroke-width:11.1px;"/>
                <path d="M492.008,557.835l501.89,289.921l4.094,1.26l4.725,0.157l4.094,-1.417l325.039,-187.717" style="fill:none;stroke:#000;stroke-width:11.1px;"/>
                <path d="M520.669,2234.53l33.859,19.527l-17.008,-9.764" style="fill:none;stroke:#000;stroke-width:11.1px;"/>
                <path d="M554.528,2254.05l17.007,9.764l-17.007,-9.764" style="fill:none;stroke:#000;stroke-width:11.1px;"/>
                <path d="M560.197,662.087l-0.945,19.527l-0.787,53.229l0.157,-1.418" style="fill:none;stroke:#000;stroke-width:11.1px;"/>
                <path d="M571.535,2263.82l33.859,19.527l-17.008,-9.763" style="fill:none;stroke:#000;stroke-width:11.1px;"/>
                <path d="M605.394,2283.35l33.858,19.685l-16.85,-9.921" style="fill:none;stroke:#000;stroke-width:11.1px;"/>
                <path d="M655.472,2312.32l-16.22,-9.292l17.008,9.764l-0.788,-0.472" style="fill:none;stroke:#000;stroke-width:11.1px;"/>
                <path d="M656.26,2312.8l33.858,19.528l-17.008,-9.764" style="fill:none;stroke:#000;stroke-width:11.1px;"/>
                <path d="M690.118,2332.32l25.984,14.646" style="fill:none;stroke:#000;stroke-width:11.1px;"/>
                <path d="M707.126,2342.09l10.866,6.299l3.307,0.945l2.677,0.157l-0.945,0" style="fill:none;stroke:#000;stroke-width:11.1px;"/>
                <path d="M988.228,2310.28l-123.307,71.181l-3.779,1.732l-6.772,2.205l-7.401,1.102l-7.717,0l-7.402,-1.102l-6.771,-2.205l-3.622,-1.89l-120.473,-69.449" style="fill:none;stroke:#000;stroke-width:11.1px;"/>
                <path d="M723.976,2349.49l3.78,-0.472l2.835,-1.26l16.22,-9.449" style="fill:none;stroke:#000;stroke-width:11.1px;"/>
                <path d="M2090.43,725.236l-1213.86,701.103l2.362,-1.733l0,-110.551l-7.244,3.937l-7.717,2.835l-8.819,2.047l-9.291,0.945l-13.386,-0.473l0,0.945" style="fill:none;stroke:#000;stroke-width:11.1px;"/>
                <path d="M836.575,332.165l3.622,2.048l-5.197,-2.993l194.016,111.969l5.354,2.52l5.669,1.574l5.985,0.63l6.141,-0.157l5.985,-0.945l20.787,-6.929l16.22,-3.465l16.851,-1.574l17.323,0.314l16.693,2.048l16.693,4.252l14.488,5.669l12.441,7.087l9.763,8.504l8.347,10.551l4.882,11.811l0.157,1.89l0.63,10.708l-0.472,9.921" style="fill:none;stroke:#000;stroke-width:11.1px;"/>
                <path d="M842.244,335.472l230.079,-132.913l5.197,-7.874l17.795,-22.047l19.685,-19.843l22.835,-18.582l25.511,-17.481l29.134,-16.693l30.394,-14.488l32.598,-12.756l34.331,-11.181l36.063,-9.291l37.165,-7.402l15.591,-2.204" style="fill:none;stroke:#000;stroke-width:11.1px;"/>
                <path d="M829.331,329.646l4.252,0.63l2.047,1.102" style="fill:none;stroke:#000;stroke-width:11.1px;"/>
                <path d="M853.898,342.244l4.882,2.677" style="fill:none;stroke:#000;stroke-width:11.1px;"/>
                <path d="M942.087,2336.73l16.85,9.449l3.622,1.417l4.724,0.158l4.567,-1.417l963.465,-556.378l1.575,-1.26l2.834,-3.78l13.229,-31.653l-2.677,1.417l1.417,-0.787" style="fill:none;stroke:#000;stroke-width:11.1px;"/>
                <path d="M1072.64,202.402l0.945,-0.63l-1.26,0.787l6.299,-9.134" style="fill:none;stroke:#000;stroke-width:11.1px;"/>
                <path d="M1077.99,194.213l-4.567,6.771" style="fill:none;stroke:#000;stroke-width:11.1px;"/>
                <path d="M1072.32,202.559l1.732,-1.102" style="fill:none;stroke:#000;stroke-width:11.1px;"/>
                <path d="M1071.22,203.189l-8.346,4.724" style="fill:none;stroke:#000;stroke-width:11.1px;"/>
                <path d="M1395.16,668.701l-0.472,-11.181l-1.26,-2.835l-2.834,-2.677l-194.646,-112.441l-3.465,-2.52l-1.574,-2.047l0.314,0.472l-0.629,-1.889l-0,0.63" style="fill:none;stroke:#000;stroke-width:11.1px;"/>
                <path d="M1192.48,537.047l0.158,0.315" style="fill:none;stroke:#000;stroke-width:11.1px;"/>
                <path d="M1194.53,287.441l0.157,-25.039l0.787,-18.426l4.725,-20l8.504,-19.527l10.866,-17.166l14.016,-16.377l14.015,-12.441l-8.504,7.559" style="fill:none;stroke:#000;stroke-width:11.1px;"/>
                <path d="M1240.35,244.449l0.158,-13.858l3.937,-19.056l8.031,-18.425l10.551,-16.22l13.859,-15.118l18.11,-15.276l19.528,-12.756l22.204,-11.338l17.166,-6.772" style="fill:none;stroke:#000;stroke-width:11.1px;"/>
                <path d="M1247.6,158.465l4.252,-3.937l-2.519,2.204" style="fill:none;stroke:#000;stroke-width:11.1px;"/>
                <path d="M1251.85,154.528l19.685,-14.174l22.363,-12.913l24.567,-11.339l26.456,-9.763l8.977,-2.52" style="fill:none;stroke:#000;stroke-width:11.1px;"/>
                <path d="M1351.22,222.874l0.158,17.795l6.772,17.323l13.385,16.063l19.213,13.858l24.095,11.181l27.874,7.717l29.921,3.937l30.866,0l30.079,-3.937l27.716,-7.717l24.095,-11.181l19.212,-13.858l13.386,-16.063l6.929,-17.323l0,-17.795" style="fill:none;stroke:#000;stroke-width:11.1px;"/>
                <path d="M1366.97,231.378l-9.134,-8.661l-1.418,-3.937l0,-117.008l12.126,-20" style="fill:none;stroke:#000;stroke-width:11.1px;"/>
                <path d="M1385.24,251.85l-15.118,-11.023l-3.149,-3.465l-0,-117.165l8.031,-21.417" style="fill:none;stroke:#000;stroke-width:11.1px;"/>
                <path d="M1356.1,206.181l-4.409,15.906l-0,19.685" style="fill:none;stroke:#000;stroke-width:11.1px;"/>
                <path d="M1369.49,64.449l-15.433,17.953l-0.157,120.944l2.519,3.308" style="fill:none;stroke:#000;stroke-width:11.1px;"/>
                <path d="M1358.31,77.362l0,-10.236l1.89,-3.78l10.709,-9.606l-0,-4.724l3.464,-3.307l18.74,-12.914" style="fill:none;stroke:#000;stroke-width:11.1px;"/>
                <path d="M1370.91,53.74l6.929,-5.984" style="fill:none;stroke:#000;stroke-width:11.1px;"/>
                <path d="M1387.6,650.276l2.048,1.102" style="fill:none;stroke:#000;stroke-width:11.1px;"/>
                <path d="M1390.59,652.008l-0.315,-0.315" style="fill:none;stroke:#000;stroke-width:11.1px;"/>
                <path d="M1573.11,141.929l0,-0.315l0,122.835l-11.023,5.512l-12.126,4.882l-14.016,4.094l-14.646,2.992l-14.33,1.89l-15.591,0.787l-14.646,-0.315l-15.433,-1.417l-14.016,-2.362l-13.543,-3.307l-13.386,-4.567l-12.283,-5.512l-22.835,-13.543l0,-117.008l3.465,-22.362" style="fill:none;stroke:#000;stroke-width:11.1px;"/>
                <path d="M1575.94,28.071l2.677,1.417l-16.063,-8.819l-20.787,-7.716l-22.992,-5.197l-24.41,-2.205l-24.724,0.788l-23.937,3.622l-22.048,6.614l-19.212,8.976l-11.339,6.457l5.512,-2.992" style="fill:none;stroke:#000;stroke-width:11.1px;"/>
                <path d="M1398.94,28.858l-8.189,4.567l0,0.945" style="fill:none;stroke:#000;stroke-width:11.1px;"/>
                <path d="M1430.12,62.087l3.78,4.094l-2.52,5.039l-1.102,5.197l0.472,5.197l1.89,5.04l3.622,5.039l4.409,4.252l5.04,3.464" style="fill:none;stroke:#000;stroke-width:11.1px;"/>
                <path d="M1544.13,84.449l-2.205,-5.355l-3.779,-5.039l-4.725,-4.567l-5.039,-3.622l-7.087,-3.622l-7.716,-2.992l-8.662,-2.205l-8.976,-1.417l-9.291,-0.473l-8.977,0.158l-8.819,1.26l-8.346,1.89l-8.032,2.834l-6.456,3.307l-6.772,5.04l-3.15,3.307l-2.992,4.724l-1.575,4.567" style="fill:none;stroke:#000;stroke-width:11.1px;"/>
                <path d="M1431.54,82.717l0.158,-2.52l-0.158,3.307" style="fill:none;stroke:#000;stroke-width:11.1px;"/>
                <path d="M1542.24,89.488l-4.094,-6.299l-7.717,-6.614l-2.835,-1.732l-10.393,-5.04l-12.914,-3.622l-13.858,-1.732l-9.134,-0l-13.701,1.575l-12.441,3.464l-10.236,5.04l-7.716,6.456l-4.095,6.299" style="fill:none;stroke:#000;stroke-width:11.1px;"/>
                <path d="M1433.9,66.181l3.779,-4.567l5.197,-4.252l9.764,-5.354l-2.362,0.945" style="fill:none;stroke:#000;stroke-width:11.1px;"/>
                <path d="M1444.61,98.937l6.457,3.15l13.543,4.409l14.961,2.362l15.433,0.158l15.118,-2.047l13.543,-4.252l11.496,-5.985l6.457,-6.141l-0.157,0.315" style="fill:none;stroke:#000;stroke-width:11.1px;"/>
                <path d="M1448.23,100.669l4.41,-2.204l7.874,-2.835l8.346,-1.89l8.819,-1.26l8.977,-0.315l9.291,0.63l8.976,1.418l8.662,2.204l7.716,2.992l4.41,2.205" style="fill:none;stroke:#000;stroke-width:11.1px;"/>
                <path d="M1533.27,97.677l-4.882,-3.937l-11.024,-5.354l-12.913,-3.622l-13.858,-1.733l-9.764,0l-13.544,1.733l-12.44,3.464l-10.237,5.197l-3.464,2.835" style="fill:none;stroke:#000;stroke-width:11.1px;"/>
                <path d="M1538.62,93.583l-1.732,-2.52l-8.504,-6.614l-11.181,-5.355l-12.914,-3.622l-13.858,-1.732l-9.449,0l-13.543,1.575l-12.441,3.622l-10.236,5.039l-7.874,6.615l-0.63,1.102" style="fill:none;stroke:#000;stroke-width:11.1px;"/>
                <path d="M1452.64,52.008l7.716,-2.835l8.504,-1.89l8.819,-1.259l8.977,-0.158l9.448,0.473l8.819,1.417l8.662,2.205l7.716,2.992l7.244,3.779l7.874,6.142l4.252,4.882l2.835,5.354l1.417,5.512l-0.157,2.205" style="fill:none;stroke:#000;stroke-width:11.1px;"/>
                <path d="M1513.42,105.866l-9.134,-2.52l-13.858,-1.732l-9.134,0l-13.701,1.575l-7.086,2.047" style="fill:none;stroke:#000;stroke-width:11.1px;"/>
                <path d="M1536.42,95.472l-2.677,1.89" style="fill:none;stroke:#000;stroke-width:11.1px;"/>
                <path d="M1526.02,43.819l7.086,3.779l6.142,4.567l4.567,4.882l3.464,5.197l1.89,5.512l0.315,5.512l-1.102,7.401l0.315,-1.732l-1.418,3.78" style="fill:none;stroke:#000;stroke-width:11.1px;"/>
                <path d="M1544.92,86.811l-3.307,3.78l2.362,-5.197l0.945,-5.512" style="fill:none;stroke:#000;stroke-width:11.1px;"/>
                <path d="M1541.61,90.591l1.89,-1.418l4.882,-8.504" style="fill:none;stroke:#000;stroke-width:11.1px;"/>
                <path d="M1544.92,79.094l-0.157,-1.732" style="fill:none;stroke:#000;stroke-width:11.1px;"/>
                <path d="M1573.11,264.134l9.607,-5.512l13.543,-8.819l-0,-117.008l-4.725,-22.204" style="fill:none;stroke:#000;stroke-width:11.1px;"/>
                <path d="M1573.11,124.449l0,17.165l0,-6.299" style="fill:none;stroke:#000;stroke-width:11.1px;"/>
                <path d="M1600.98,48.543l0,-3.622l-3.779,-3.307l-19.055,-11.968" style="fill:none;stroke:#000;stroke-width:11.1px;"/>
                <path d="M1579.41,30.118l-3.937,-2.362" style="fill:none;stroke:#000;stroke-width:11.1px;"/>
                <path d="M1603.5,94.685l9.134,21.102l-0,117.008l-2.677,3.622l-13.701,10.709" style="fill:none;stroke:#000;stroke-width:11.1px;"/>
                <path d="M1595.16,44.134l18.111,14.646l2.204,3.622l0,8.661" style="fill:none;stroke:#000;stroke-width:11.1px;"/>
                <path d="M1598.31,42.559l36.221,6.299l36.535,8.504l34.961,10.394l33.385,12.126l31.339,13.701l30.236,16.063l26.772,16.85l23.937,18.11l21.102,19.37l19.055,21.575l14.804,21.26l11.496,22.047l8.661,23.937l4.724,24.41l0.945,22.519l1.26,76.851" style="fill:none;stroke:#000;stroke-width:11.1px;"/>
                <path d="M1608.23,77.52l12.914,19.527l-0,117.008l-0.945,3.937l-7.559,7.559" style="fill:none;stroke:#000;stroke-width:11.1px;"/>
                <path d="M1624.45,241.772l-0,-11.496l-1.418,-16.378l-1.889,-3.937" style="fill:none;stroke:#000;stroke-width:11.1px;"/>
                <path d="M1621.14,199.724l0.945,-1.259l-0,-117.008l-0.63,-3.937l-16.063,-17.323" style="fill:none;stroke:#000;stroke-width:11.1px;"/>
                <path d="M1622.09,115.472l17.322,6.93l22.205,11.338l20.158,13.229l16.85,14.015l14.803,16.378l10.551,16.063l7.874,18.268l3.78,18.898l0.315,25.669" style="fill:none;stroke:#000;stroke-width:11.1px;"/>
                <path d="M1781.61,287.441l-0.157,-34.331l-2.835,-20.157l-5.984,-17.953l-10.079,-19.213l-12.598,-16.693l-16.693,-17.007l-18.425,-14.804l-21.103,-13.543l-23.464,-12.126l-25.512,-10.708l-22.677,-7.245" style="fill:none;stroke:#000;stroke-width:11.1px;"/>
                <path d="M1771.85,213.268l-4.252,-7.874" style="fill:none;stroke:#000;stroke-width:11.1px;"/>
                <path d="M1781.3,257.677l-3.307,56.378" style="fill:none;stroke:#000;stroke-width:11.1px;"/>
                <path d="M1975.16,258.465l-59.37,-34.331" style="fill:none;stroke:#000;stroke-width:11.1px;"/>
                <path d="M2100.98,603.189l-3.307,-220.945l-1.575,-5.197l-3.149,-5.039l-4.567,-4.725l-5.984,-4.094l-151.024,-87.244" style="fill:none;stroke:#000;stroke-width:11.1px;"/>
                <path d="M1932.01,276.417l80.63,-33.543l41.732,24.252l0,37.165l98.11,56.693l0,102.047l-13.228,7.56l-9.291,-0.788l-13.229,-0.157l-17.795,1.417" style="fill:none;stroke:#000;stroke-width:11.1px;"/>
                <path d="M2097.99,1641.46l3.622,-7.559l-21.102,43.464l-3.622,3.937l-123.937,71.969" style="fill:none;stroke:#000;stroke-width:11.1px;"/>
                <path d="M2077.68,384.449l0,-18.583l-0.787,-3.307l-2.205,-3.15l-3.622,-2.834l-8.346,-4.725" style="fill:none;stroke:#000;stroke-width:11.1px;"/>
                <path d="M2105.08,1627.13l-3.465,6.772l6.142,-12.126l1.102,-5.355l2.362,-162.047" style="fill:none;stroke:#000;stroke-width:11.1px;"/>
                <path d="M2222.87,434.213l0,-17.323l13.386,-7.717l67.559,39.055l7.401,5.04l8.032,8.661l3.937,9.449l0.472,107.716l-0.944,5.827l-2.678,5.67l-4.094,5.354l-5.354,4.882l-6.772,4.567l-203.78,114.33" style="fill:none;stroke:#000;stroke-width:11.1px;"/>
                <path d="M2224.13,430.118l-4.725,14.803l-11.023,13.701l-16.693,11.654l-21.26,8.661l-24.409,5.354l-25.985,1.733l-20.945,-1.89" style="fill:none;stroke:#000;stroke-width:11.1px;"/>
            </g>
        </g>
    </g>
</svg>
